<svg width="123" height="169" viewBox="0 0 123 169" fill="none" xmlns="http://www.w3.org/2000/svg">
<g clip-path="url(#clip0_2070_80645)">
<rect x="1.75" y="1.34863" width="120" height="166.25" rx="10" fill="white"/>
<mask id="mask0_2070_80645" style="mask-type:alpha" maskUnits="userSpaceOnUse" x="1" y="1" width="121" height="167">
<rect x="1.75" y="1.34863" width="120" height="166.25" fill="#D9D9D9"/>
</mask>
<g mask="url(#mask0_2070_80645)">
<path d="M17.686 22.3486L16.804 19.5406H11.926L10.99 22.3486H7.84L12.178 9.74863H17.056L21.286 22.3486H17.686ZM12.664 17.3266H16.102L14.446 12.0166L12.664 17.3266Z" fill="black"/>
<path d="M107.164 20.7091C107.254 20.552 107.481 20.552 107.572 20.7091L109.409 23.8911C109.5 24.0483 109.386 24.2447 109.205 24.2447H105.531C105.349 24.2447 105.236 24.0483 105.327 23.8911L107.164 20.7091Z" fill="black"/>
<path fill-rule="evenodd" clip-rule="evenodd" d="M111.157 12.2102C111.157 12.8705 110.992 13.4921 110.701 14.0362C110.823 14.0247 110.946 14.0188 111.071 14.0188C113.212 14.0188 114.947 15.7539 114.947 17.8943C114.947 20.0346 113.212 21.7697 111.071 21.7697C109.33 21.7697 107.857 20.6212 107.368 19.0403C106.879 20.6212 105.406 21.7697 103.665 21.7697C101.524 21.7697 99.7892 20.0346 99.7892 17.8943C99.7892 15.7539 101.524 14.0188 103.665 14.0188C103.729 14.0188 103.792 14.0203 103.856 14.0234C103.569 13.4824 103.406 12.8653 103.406 12.2102C103.406 10.0698 105.141 8.33472 107.282 8.33472C109.422 8.33472 111.157 10.0698 111.157 12.2102Z" fill="black"/>
<mask id="path-7-outside-1_2070_80645" maskUnits="userSpaceOnUse" x="26.379" y="57.3486" width="69" height="72" fill="black">
<rect fill="white" x="26.379" y="57.3486" width="69" height="72"/>
<path fill-rule="evenodd" clip-rule="evenodd" d="M73.2275 84.6923C74.3175 82.6555 74.9356 80.3282 74.9356 77.8566C74.9356 69.844 68.4401 63.3486 60.4276 63.3486C52.4151 63.3486 45.9197 69.844 45.9197 77.8566C45.9197 80.3088 46.5281 82.619 47.6023 84.6443C47.3653 84.6328 47.1268 84.627 46.8869 84.627C38.8744 84.627 32.379 91.1224 32.379 99.1349C32.379 107.147 38.8744 113.643 46.8869 113.643C53.4059 113.643 58.9207 109.343 60.7501 103.425C62.5795 109.343 68.0942 113.643 74.6132 113.643C82.6257 113.643 89.1211 107.147 89.1211 99.1349C89.1211 91.1224 82.6257 84.627 74.6132 84.627C74.1458 84.627 73.6835 84.6491 73.2275 84.6923ZM62.0491 110.599C61.4717 109.599 60.0284 109.599 59.451 110.599L53.6435 120.657C53.0662 121.657 53.7879 122.907 54.9426 122.907H66.5575C67.7122 122.907 68.4339 121.657 67.8565 120.657L62.0491 110.599Z"/>
</mask>
<path fill-rule="evenodd" clip-rule="evenodd" d="M73.2275 84.6923C74.3175 82.6555 74.9356 80.3282 74.9356 77.8566C74.9356 69.844 68.4401 63.3486 60.4276 63.3486C52.4151 63.3486 45.9197 69.844 45.9197 77.8566C45.9197 80.3088 46.5281 82.619 47.6023 84.6443C47.3653 84.6328 47.1268 84.627 46.8869 84.627C38.8744 84.627 32.379 91.1224 32.379 99.1349C32.379 107.147 38.8744 113.643 46.8869 113.643C53.4059 113.643 58.9207 109.343 60.7501 103.425C62.5795 109.343 68.0942 113.643 74.6132 113.643C82.6257 113.643 89.1211 107.147 89.1211 99.1349C89.1211 91.1224 82.6257 84.627 74.6132 84.627C74.1458 84.627 73.6835 84.6491 73.2275 84.6923ZM62.0491 110.599C61.4717 109.599 60.0284 109.599 59.451 110.599L53.6435 120.657C53.0662 121.657 53.7879 122.907 54.9426 122.907H66.5575C67.7122 122.907 68.4339 121.657 67.8565 120.657L62.0491 110.599Z" fill="black"/>
<path d="M73.2275 84.6923L67.9374 81.8612L62.661 91.7204L73.7935 90.6655L73.2275 84.6923ZM47.6023 84.6443L47.3113 90.6372L57.8433 91.1486L52.9029 81.8331L47.6023 84.6443ZM60.7501 103.425L66.4824 101.653L60.7501 83.1087L55.0177 101.653L60.7501 103.425ZM59.451 110.599L54.2549 107.599H54.2548L59.451 110.599ZM62.0491 110.599L67.2452 107.599L62.0491 110.599ZM53.6435 120.657L58.8397 123.657H58.8397L53.6435 120.657ZM67.8565 120.657L62.6604 123.657H62.6604L67.8565 120.657ZM68.9356 77.8566C68.9356 79.3165 68.5728 80.6739 67.9374 81.8612L78.5175 87.5234C80.0622 84.6371 80.9356 81.3399 80.9356 77.8566H68.9356ZM60.4276 69.3486C65.1264 69.3486 68.9356 73.1578 68.9356 77.8566H80.9356C80.9356 66.5303 71.7539 57.3486 60.4276 57.3486V69.3486ZM51.9197 77.8566C51.9197 73.1578 55.7288 69.3486 60.4276 69.3486V57.3486C49.1014 57.3486 39.9197 66.5303 39.9197 77.8566H51.9197ZM52.9029 81.8331C52.2769 80.6526 51.9197 79.3052 51.9197 77.8566H39.9197C39.9197 81.3124 40.7794 84.5853 42.3016 87.4555L52.9029 81.8331ZM46.8869 90.627C47.0297 90.627 47.1711 90.6304 47.3113 90.6372L47.8932 78.6513C47.5594 78.6351 47.2239 78.627 46.8869 78.627V90.627ZM38.379 99.1349C38.379 94.4361 42.1882 90.627 46.8869 90.627V78.627C35.5607 78.627 26.379 87.8087 26.379 99.1349H38.379ZM46.8869 107.643C42.1882 107.643 38.379 103.834 38.379 99.1349H26.379C26.379 110.461 35.5607 119.643 46.8869 119.643V107.643ZM55.0177 101.653C53.9433 105.129 50.7009 107.643 46.8869 107.643V119.643C56.111 119.643 63.8981 113.558 66.4824 105.197L55.0177 101.653ZM74.6132 107.643C70.7993 107.643 67.5568 105.129 66.4824 101.653L55.0177 105.197C57.6021 113.558 65.3892 119.643 74.6132 119.643V107.643ZM83.1211 99.1349C83.1211 103.834 79.312 107.643 74.6132 107.643V119.643C85.9394 119.643 95.1211 110.461 95.1211 99.1349H83.1211ZM74.6132 90.627C79.312 90.627 83.1211 94.4361 83.1211 99.1349H95.1211C95.1211 87.8087 85.9394 78.627 74.6132 78.627V90.627ZM73.7935 90.6655C74.0617 90.6401 74.3351 90.627 74.6132 90.627V78.627C73.9565 78.627 73.3054 78.658 72.6614 78.719L73.7935 90.6655ZM64.6472 113.599C62.9151 116.599 58.585 116.599 56.8529 113.599L67.2452 107.599C64.3585 102.599 57.1416 102.599 54.2549 107.599L64.6472 113.599ZM58.8397 123.657L64.6472 113.599L54.2548 107.599L48.4474 117.657L58.8397 123.657ZM54.9426 116.907C58.4067 116.907 60.5717 120.657 58.8397 123.657L48.4474 117.657C45.5606 122.657 49.1691 128.907 54.9426 128.907V116.907ZM66.5575 116.907H54.9426V128.907H66.5575V116.907ZM62.6604 123.657C60.9283 120.657 63.0934 116.907 66.5575 116.907V128.907C72.331 128.907 75.9395 122.657 73.0527 117.657L62.6604 123.657ZM56.8529 113.599L62.6604 123.657L73.0527 117.657L67.2452 107.599L56.8529 113.599Z" fill="black" mask="url(#path-7-outside-1_2070_80645)"/>
<mask id="path-9-outside-2_2070_80645" maskUnits="userSpaceOnUse" x="27.379" y="58.3486" width="67" height="70" fill="black">
<rect fill="white" x="27.379" y="58.3486" width="67" height="70"/>
<path fill-rule="evenodd" clip-rule="evenodd" d="M73.2275 84.6923C74.3175 82.6555 74.9356 80.3282 74.9356 77.8566C74.9356 69.844 68.4401 63.3486 60.4276 63.3486C52.4151 63.3486 45.9197 69.844 45.9197 77.8566C45.9197 80.3088 46.5281 82.619 47.6023 84.6443C47.3653 84.6328 47.1268 84.627 46.8869 84.627C38.8744 84.627 32.379 91.1224 32.379 99.1349C32.379 107.147 38.8744 113.643 46.8869 113.643C53.4059 113.643 58.9207 109.343 60.7501 103.425C62.5795 109.343 68.0942 113.643 74.6132 113.643C82.6257 113.643 89.1211 107.147 89.1211 99.1349C89.1211 91.1224 82.6257 84.627 74.6132 84.627C74.1458 84.627 73.6835 84.6491 73.2275 84.6923ZM62.0491 110.599C61.4717 109.599 60.0284 109.599 59.451 110.599L53.6435 120.657C53.0662 121.657 53.7879 122.907 54.9426 122.907H66.5575C67.7122 122.907 68.4339 121.657 67.8565 120.657L62.0491 110.599Z"/>
</mask>
<path fill-rule="evenodd" clip-rule="evenodd" d="M73.2275 84.6923C74.3175 82.6555 74.9356 80.3282 74.9356 77.8566C74.9356 69.844 68.4401 63.3486 60.4276 63.3486C52.4151 63.3486 45.9197 69.844 45.9197 77.8566C45.9197 80.3088 46.5281 82.619 47.6023 84.6443C47.3653 84.6328 47.1268 84.627 46.8869 84.627C38.8744 84.627 32.379 91.1224 32.379 99.1349C32.379 107.147 38.8744 113.643 46.8869 113.643C53.4059 113.643 58.9207 109.343 60.7501 103.425C62.5795 109.343 68.0942 113.643 74.6132 113.643C82.6257 113.643 89.1211 107.147 89.1211 99.1349C89.1211 91.1224 82.6257 84.627 74.6132 84.627C74.1458 84.627 73.6835 84.6491 73.2275 84.6923ZM62.0491 110.599C61.4717 109.599 60.0284 109.599 59.451 110.599L53.6435 120.657C53.0662 121.657 53.7879 122.907 54.9426 122.907H66.5575C67.7122 122.907 68.4339 121.657 67.8565 120.657L62.0491 110.599Z" fill="black"/>
<path d="M73.2275 84.6923L69.2599 82.569L65.3026 89.9634L73.652 89.1722L73.2275 84.6923ZM47.6023 84.6443L47.384 89.139L55.2831 89.5225L51.5778 82.5359L47.6023 84.6443ZM60.7501 103.425L65.0494 102.096L60.7501 88.1878L56.4508 102.096L60.7501 103.425ZM59.451 110.599L55.5539 108.349L59.451 110.599ZM62.0491 110.599L65.9462 108.349L62.0491 110.599ZM53.6435 120.657L57.5407 122.907L53.6435 120.657ZM67.8565 120.657L63.9594 122.907L67.8565 120.657ZM70.4356 77.8566C70.4356 79.5694 70.009 81.1693 69.2599 82.569L77.195 86.8156C78.626 84.1417 79.4356 81.087 79.4356 77.8566H70.4356ZM60.4276 67.8486C65.9549 67.8486 70.4356 72.3293 70.4356 77.8566H79.4356C79.4356 67.3588 70.9254 58.8486 60.4276 58.8486V67.8486ZM50.4197 77.8566C50.4197 72.3293 54.9004 67.8486 60.4276 67.8486V58.8486C49.9299 58.8486 41.4197 67.3588 41.4197 77.8566H50.4197ZM51.5778 82.5359C50.8397 81.1442 50.4197 79.5561 50.4197 77.8566H41.4197C41.4197 81.0615 42.2166 84.0937 43.6267 86.7527L51.5778 82.5359ZM46.8869 89.127C47.054 89.127 47.2197 89.131 47.384 89.139L47.8205 80.1496C47.5109 80.1345 47.1996 80.127 46.8869 80.127V89.127ZM36.879 99.1349C36.879 93.6077 41.3597 89.127 46.8869 89.127V80.127C36.3892 80.127 27.879 88.6371 27.879 99.1349H36.879ZM46.8869 109.143C41.3597 109.143 36.879 104.662 36.879 99.1349H27.879C27.879 109.633 36.3892 118.143 46.8869 118.143V109.143ZM56.4508 102.096C55.1877 106.182 51.3771 109.143 46.8869 109.143V118.143C55.4347 118.143 62.6537 112.504 65.0494 104.754L56.4508 102.096ZM74.6132 109.143C70.123 109.143 66.3125 106.182 65.0494 102.096L56.4508 104.754C58.8464 112.504 66.0654 118.143 74.6132 118.143V109.143ZM84.6211 99.1349C84.6211 104.662 80.1404 109.143 74.6132 109.143V118.143C85.111 118.143 93.6211 109.633 93.6211 99.1349H84.6211ZM74.6132 89.127C80.1404 89.127 84.6211 93.6077 84.6211 99.1349H93.6211C93.6211 88.6371 85.111 80.127 74.6132 80.127V89.127ZM73.652 89.1722C73.9672 89.1423 74.2877 89.127 74.6132 89.127V80.127C74.0038 80.127 73.3999 80.1558 72.8029 80.2123L73.652 89.1722ZM63.3481 112.849C62.1934 114.849 59.3067 114.849 58.152 112.849L65.9462 108.349C63.6368 104.349 57.8633 104.349 55.5539 108.349L63.3481 112.849ZM57.5407 122.907L63.3481 112.849L55.5539 108.349L49.7464 118.407L57.5407 122.907ZM54.9426 118.407C57.252 118.407 58.6953 120.907 57.5407 122.907L49.7464 118.407C47.437 122.407 50.3238 127.407 54.9426 127.407V118.407ZM66.5575 118.407H54.9426V127.407H66.5575V118.407ZM63.9594 122.907C62.8047 120.907 64.2481 118.407 66.5575 118.407V127.407C71.1763 127.407 74.0631 122.407 71.7537 118.407L63.9594 122.907ZM58.152 112.849L63.9594 122.907L71.7537 118.407L65.9462 108.349L58.152 112.849Z" fill="white" mask="url(#path-9-outside-2_2070_80645)"/>
</g>
</g>
<rect x="1.25" y="0.848633" width="121" height="167.25" rx="10.5" stroke="#ADADAD"/>
<defs>
<clipPath id="clip0_2070_80645">
<rect x="1.75" y="1.34863" width="120" height="166.25" rx="10" fill="white"/>
</clipPath>
</defs>
</svg>
