<svg width="122" height="169" viewBox="0 0 122 169" fill="none" xmlns="http://www.w3.org/2000/svg">
<g clip-path="url(#clip0_2070_80605)">
<rect x="1" y="1.34863" width="120" height="166.25" rx="10" fill="white"/>
<mask id="mask0_2070_80605" style="mask-type:alpha" maskUnits="userSpaceOnUse" x="1" y="1" width="120" height="167">
<rect x="1" y="1.34863" width="120" height="166.25" fill="#D9D9D9"/>
</mask>
<g mask="url(#mask0_2070_80605)">
<path d="M7.702 22.3486V20.4046L12.418 15.6706C13.822 14.2666 14.236 13.6186 14.236 12.8806C14.236 12.1066 13.714 11.5846 12.688 11.5846C11.662 11.5846 11.14 12.1066 11.14 13.1686V13.2586H7.612C7.738 10.8826 9.16 9.46063 12.688 9.46063C16.162 9.46063 17.764 11.0626 17.764 12.8806C17.764 14.3026 17.314 15.0406 15.46 16.8766C14.416 17.9206 13.336 19.1266 12.256 20.2246H18.088V22.3486H7.702Z" fill="black"/>
<path d="M106.414 20.7091C106.504 20.552 106.731 20.552 106.822 20.7091L108.659 23.8911C108.75 24.0482 108.636 24.2447 108.455 24.2447H104.781C104.599 24.2447 104.486 24.0482 104.577 23.8911L106.414 20.7091Z" fill="black"/>
<path fill-rule="evenodd" clip-rule="evenodd" d="M110.407 12.2103C110.407 12.8705 110.242 13.4922 109.951 14.0363C110.073 14.0247 110.196 14.0188 110.321 14.0188C112.462 14.0188 114.197 15.7539 114.197 17.8943C114.197 20.0347 112.462 21.7698 110.321 21.7698C108.58 21.7698 107.107 20.6212 106.618 19.0403C106.129 20.6212 104.656 21.7698 102.915 21.7698C100.774 21.7698 99.0392 20.0347 99.0392 17.8943C99.0392 15.7539 100.774 14.0188 102.915 14.0188C102.979 14.0188 103.042 14.0204 103.106 14.0234C102.819 13.4824 102.656 12.8653 102.656 12.2103C102.656 10.0699 104.391 8.33476 106.532 8.33476C108.672 8.33476 110.407 10.0699 110.407 12.2103Z" fill="black"/>
<path d="M58.701 110.599C59.2784 109.599 60.7218 109.599 61.2991 110.599L67.1066 120.658C67.6839 121.658 66.9622 122.908 65.8075 122.908H54.1926C53.0379 122.908 52.3162 121.658 52.8936 120.658L58.701 110.599Z" fill="black"/>
<path fill-rule="evenodd" clip-rule="evenodd" d="M74.1856 77.8566C74.1856 80.3283 73.5675 82.6555 72.4775 84.6923C72.9335 84.6491 73.3958 84.627 73.8632 84.627C81.8757 84.627 88.3711 91.1224 88.3711 99.1349C88.3711 107.147 81.8757 113.643 73.8632 113.643C67.3442 113.643 61.8295 109.343 60.0001 103.425C58.1707 109.343 52.6559 113.643 46.1369 113.643C38.1244 113.643 31.629 107.147 31.629 99.1349C31.629 91.1224 38.1244 84.627 46.1369 84.627C46.3768 84.627 46.6153 84.6328 46.8523 84.6443C45.7781 82.619 45.1697 80.3089 45.1697 77.8566C45.1697 69.8441 51.6651 63.3487 59.6776 63.3487C67.6901 63.3487 74.1856 69.8441 74.1856 77.8566Z" fill="black"/>
</g>
</g>
<rect x="0.5" y="0.848633" width="121" height="167.25" rx="10.5" stroke="#ADADAD"/>
<defs>
<clipPath id="clip0_2070_80605">
<rect x="1" y="1.34863" width="120" height="166.25" rx="10" fill="white"/>
</clipPath>
</defs>
</svg>
