<svg width="122" height="169" viewBox="0 0 122 169" fill="none" xmlns="http://www.w3.org/2000/svg">
<g clip-path="url(#clip0_2070_80612)">
<rect x="1" y="1.69727" width="120" height="166.25" rx="10" fill="white"/>
<mask id="mask0_2070_80612" style="mask-type:alpha" maskUnits="userSpaceOnUse" x="1" y="1" width="120" height="167">
<rect x="1" y="1.69727" width="120" height="166.25" fill="#D9D9D9"/>
</mask>
<g mask="url(#mask0_2070_80612)">
<path d="M13.246 22.9853C9.628 22.9853 7.792 21.1493 7.666 18.8273H11.446C11.554 20.1593 12.13 20.7353 13.246 20.7353C14.506 20.7353 15.37 19.9073 15.406 16.9913C14.92 17.4953 14.038 17.8373 12.67 17.8373C9.376 17.8373 7.756 16.2173 7.756 13.9673C7.756 11.6093 9.556 9.80927 13.12 9.80927C16.918 9.80927 19.06 11.9513 19.06 16.1813C19.06 20.5913 16.666 22.9853 13.246 22.9853ZM11.428 13.8233C11.428 14.8853 12.112 15.5873 13.3 15.5873C14.488 15.5873 15.19 14.8853 15.19 13.8233C15.19 12.7613 14.488 12.0593 13.3 12.0593C12.112 12.0593 11.428 12.7613 11.428 13.8233Z" fill="black"/>
<path d="M106.414 21.0578C106.504 20.9006 106.731 20.9006 106.822 21.0578L108.659 24.2398C108.75 24.3969 108.636 24.5933 108.455 24.5933H104.781C104.599 24.5933 104.486 24.3969 104.577 24.2398L106.414 21.0578Z" fill="black"/>
<path fill-rule="evenodd" clip-rule="evenodd" d="M110.407 12.5588C110.407 13.2191 110.242 13.8408 109.951 14.3849C110.073 14.3733 110.196 14.3674 110.321 14.3674C112.462 14.3674 114.197 16.1025 114.197 18.2429C114.197 20.3833 112.462 22.1184 110.321 22.1184C108.58 22.1184 107.107 20.9698 106.618 19.3889C106.129 20.9698 104.656 22.1184 102.915 22.1184C100.774 22.1184 99.0392 20.3833 99.0392 18.2429C99.0392 16.1025 100.774 14.3674 102.915 14.3674C102.979 14.3674 103.042 14.369 103.106 14.372C102.819 13.831 102.656 13.2139 102.656 12.5588C102.656 10.4185 104.391 8.68335 106.532 8.68335C108.672 8.68335 110.407 10.4185 110.407 12.5588Z" fill="black"/>
<path d="M58.701 110.947C59.2784 109.947 60.7218 109.947 61.2991 110.947L67.1066 121.006C67.6839 122.006 66.9622 123.256 65.8075 123.256H54.1926C53.0379 123.256 52.3162 122.006 52.8936 121.006L58.701 110.947Z" fill="black"/>
<path fill-rule="evenodd" clip-rule="evenodd" d="M74.1856 78.2052C74.1856 80.6768 73.5675 83.0041 72.4775 85.0409C72.9335 84.9977 73.3958 84.9756 73.8632 84.9756C81.8757 84.9756 88.3711 91.471 88.3711 99.4835C88.3711 107.496 81.8757 113.991 73.8632 113.991C67.3442 113.991 61.8295 109.692 60.0001 103.774C58.1707 109.692 52.6559 113.991 46.1369 113.991C38.1244 113.991 31.629 107.496 31.629 99.4835C31.629 91.471 38.1244 84.9756 46.1369 84.9756C46.3768 84.9756 46.6153 84.9814 46.8523 84.9929C45.7781 82.9676 45.1697 80.6574 45.1697 78.2052C45.1697 70.1927 51.6651 63.6973 59.6776 63.6973C67.6901 63.6973 74.1856 70.1927 74.1856 78.2052Z" fill="black"/>
</g>
</g>
<rect x="0.5" y="1.19727" width="121" height="167.25" rx="10.5" stroke="#ADADAD"/>
<defs>
<clipPath id="clip0_2070_80612">
<rect x="1" y="1.69727" width="120" height="166.25" rx="10" fill="white"/>
</clipPath>
</defs>
</svg>
