<svg width="122" height="169" viewBox="0 0 122 169" fill="none" xmlns="http://www.w3.org/2000/svg">
<g clip-path="url(#clip0_2070_80633)">
<rect x="1" y="1.34863" width="120" height="166.25" rx="10" fill="white"/>
<mask id="mask0_2070_80633" style="mask-type:alpha" maskUnits="userSpaceOnUse" x="1" y="1" width="120" height="167">
<rect x="1" y="1.34863" width="120" height="166.25" fill="#D9D9D9"/>
</mask>
<g mask="url(#mask0_2070_80633)">
<path d="M12.67 22.6366C9.772 22.6366 7.216 21.5386 7.216 18.3526H10.78C10.78 19.7926 11.716 20.4046 12.688 20.4046C14.218 20.4046 14.794 19.5586 14.794 18.0286V9.74863H18.124V18.2086C18.124 21.6646 15.748 22.6366 12.67 22.6366Z" fill="black"/>
<path d="M106.414 20.709C106.504 20.5519 106.731 20.5519 106.822 20.709L108.659 23.891C108.75 24.0481 108.636 24.2446 108.455 24.2446H104.781C104.599 24.2446 104.486 24.0481 104.577 23.891L106.414 20.709Z" fill="black"/>
<path fill-rule="evenodd" clip-rule="evenodd" d="M110.407 12.2102C110.407 12.8705 110.242 13.4921 109.951 14.0362C110.073 14.0247 110.196 14.0188 110.321 14.0188C112.462 14.0188 114.197 15.7539 114.197 17.8943C114.197 20.0346 112.462 21.7697 110.321 21.7697C108.58 21.7697 107.107 20.6212 106.618 19.0403C106.129 20.6212 104.656 21.7697 102.915 21.7697C100.774 21.7697 99.0392 20.0346 99.0392 17.8943C99.0392 15.7539 100.774 14.0188 102.915 14.0188C102.979 14.0188 103.042 14.0203 103.106 14.0234C102.819 13.4824 102.656 12.8653 102.656 12.2102C102.656 10.0698 104.391 8.33472 106.532 8.33472C108.672 8.33472 110.407 10.0698 110.407 12.2102Z" fill="black"/>
<mask id="mask1_2070_80633" style="mask-type:alpha" maskUnits="userSpaceOnUse" x="6" y="31" width="109" height="131">
<rect x="6.75" y="31.3486" width="108" height="130" rx="6" fill="white"/>
</mask>
<g mask="url(#mask1_2070_80633)">
<path d="M7.23932 177.867V140.878H114.26V177.806L74.9456 193.807C73.936 193.44 69.2855 191.849 63.5337 191.849C62.5853 191.849 61.6368 191.879 60.7496 191.971C60.4131 191.971 56.9864 192.185 51.9689 194.97C51.7547 194.939 51.4182 194.878 50.9593 194.878C50.1944 194.878 49.0624 195 47.7468 195.52C47.7468 195.52 47.6856 195.52 47.655 195.52C47.5326 195.52 47.1349 195.52 44.8709 196.132C44.6261 196.193 42.3621 196.683 41.5361 197.019C41.016 197.019 39.3638 197.05 38.293 197.539L7.23932 177.867Z" fill="#F50032"/>
<path d="M113.771 141.398V177.5L74.9153 193.287C73.5997 192.828 69.0411 191.359 63.5034 191.359C62.555 191.359 61.6066 191.39 60.6887 191.482C60.2604 191.482 56.8032 191.726 51.8468 194.449C51.6327 194.449 51.2961 194.388 50.929 194.388C50.1641 194.388 48.9709 194.511 47.6248 195.031C47.3494 195.031 46.7681 195.092 44.7488 195.643C44.1064 195.765 42.3013 196.193 41.414 196.53C40.7409 196.53 39.3642 196.591 38.3239 196.989L7.72916 177.592V141.367H113.771M114.75 140.388H6.75012V178.142L38.2322 198.121C39.2112 197.57 41.0469 197.509 41.5058 197.509C41.567 197.509 41.5976 197.509 41.5976 197.509C42.2401 197.172 44.963 196.591 44.963 196.591C46.7681 196.102 47.4106 196.01 47.6248 196.01C47.7777 196.01 47.7165 196.071 47.7165 196.071C49.0321 195.52 50.1641 195.398 50.9596 195.398C51.6327 195.398 52.061 195.49 52.061 195.49C57.2927 192.553 60.7805 192.491 60.7805 192.491C61.7289 192.4 62.6468 192.369 63.534 192.369C69.8978 192.369 74.9459 194.388 74.9459 194.388L114.75 178.173V140.419V140.388Z" fill="black"/>
<path d="M92.3549 154.829H67.1754V155.808H92.3549V154.829Z" fill="black"/>
<path d="M93.7006 157.521H67.3279V158.501H93.7006V157.521Z" fill="black"/>
<path d="M94.0983 160.183H68.9188V161.162H94.0983V160.183Z" fill="black"/>
<path d="M38.2322 198.121L6.75012 178.142V140.388H58.4859L83.2065 190.992L74.1198 194.664C74.1198 194.664 66.9301 191.818 59.9545 193.562C59.9545 193.562 58.6389 193.685 53.499 196.346C53.499 196.346 49.2157 195.581 47.2882 196.255C47.2882 196.255 46.7069 196.102 43.6168 196.897C43.6168 196.897 41.3528 197.081 40.7103 197.417C40.7103 197.417 39.3336 197.448 38.2322 198.09V198.121Z" fill="black"/>
<path d="M67.2671 156.757C67.1447 156.175 67.0224 155.594 66.9612 154.982C66.3799 153.942 65.7068 152.932 65.0031 151.923H32.3279V156.757H67.2671Z" fill="white"/>
<path d="M61.3929 147.089C60.6586 146.11 59.955 145.161 59.3431 144.182C58.9147 143.54 58.67 142.867 58.5476 142.255H32.3279V147.089H61.3929Z" fill="white"/>
<path d="M78.9231 192.338C73.6302 188.422 67.0523 181.263 65.339 169.27C63.075 153.299 52.2444 142.683 50.4088 141L50.6229 140.756H62.1571C66.6852 146.507 72.3758 155.869 74.0891 168.016C76.0166 181.63 86.3882 186.923 89.2641 188.147L78.9231 192.338Z" fill="white"/>
<path d="M61.9739 141.123C66.4407 146.844 72.0396 156.084 73.7223 168.077C75.5274 180.835 84.6446 186.372 88.3466 188.116L78.9846 191.91C73.7835 188.025 67.3892 180.957 65.7065 169.209C63.5648 154.034 53.7439 143.662 51.0822 141.092H61.9739M62.3104 140.388H50.4397L49.9196 141.031C49.9196 141.031 62.5246 152.014 64.9722 169.331C66.6855 181.447 73.294 188.698 78.8622 192.767L90.0599 188.208V188.116C90.0599 188.116 76.5982 183.558 74.3954 167.985C72.6515 155.686 66.8997 146.263 62.2798 140.419L62.3104 140.388Z" fill="black"/>
<path d="M103.705 182.456L84.1857 140.388H106.336L109.855 176.001L103.705 182.456Z" fill="black"/>
<path d="M103.613 182.181C105.081 180.223 107.07 176.49 106.734 171.106L106.825 140.878H114.26V177.806L103.613 182.181Z" fill="#F50032"/>
<path d="M113.771 141.398V177.5L104.929 181.141C106.214 178.938 107.499 175.603 107.254 171.136L107.346 141.429H113.802M114.75 140.388H106.306L106.214 171.106C106.704 179.213 101.809 183.435 101.809 183.435L114.72 178.142V140.388H114.75Z" fill="black"/>
<path d="M70.3564 152.504C67.8476 147.089 64.8799 143.203 61.5145 140.909H89.5087C89.9676 140.909 90.3653 141.551 90.3653 142.255V151.158C90.3653 151.862 89.9676 152.504 89.5087 152.504H70.3564Z" fill="#F50032"/>
<path d="M89.5092 141.429C89.5092 141.429 89.8457 141.735 89.8457 142.255V151.158C89.8457 151.678 89.601 151.984 89.5092 151.984H70.6934C68.4906 147.303 65.9206 143.784 63.0753 141.398H89.5398M89.5092 140.388H59.6487C64.2685 142.775 67.6339 147.792 70.0203 153.024H89.5092C90.2741 153.024 90.886 152.198 90.886 151.158V142.255C90.886 141.214 90.2741 140.388 89.5092 140.388Z" fill="black"/>
<path d="M73.7225 149.138C72.7741 147.333 71.7644 145.651 70.4489 144.274H86.0522V149.138H73.7225Z" fill="#F50032"/>
<path d="M84.8285 145.528V147.945H74.4875C74.0286 147.119 73.5697 146.293 73.0495 145.528H84.8591M86.3889 143.05H66.7164C69.7453 144.427 71.3974 147.364 72.9884 150.393H86.3889C86.8784 150.393 87.2761 149.903 87.2761 149.291V144.121C87.2761 143.54 86.8784 143.05 86.3889 143.05Z" fill="black"/>
<path d="M7.23932 177.378V141.704H36.2738V195.306L36.182 195.429L7.23932 177.378Z" fill="#FFCE57"/>
<path d="M35.7846 142.224V194.602L7.72916 177.102V142.224H35.7846ZM36.7636 141.214H6.75012V177.653L36.2741 196.071L36.7636 195.49V141.214Z" fill="black"/>
<path d="M26.6371 142.132H33.215V193.011L26.6371 188.881V142.132Z" fill="#F50032"/>
<path d="M33.4591 193.44L26.3917 189.034V141.888H33.4591V193.44ZM26.8812 188.759L32.9695 192.553V142.377H26.8812V188.759Z" fill="black"/>
<path d="M17.7646 141.214H24.3425V188.208L17.7952 184.537L17.7646 141.214Z" fill="black"/>
<path d="M9.5957 142.132H15.8676V182.303L9.5957 178.51V142.132Z" fill="white"/>
<path d="M16.1124 182.762L9.32037 178.663V141.888H16.1124V182.762ZM9.84048 178.387L15.6535 181.875V142.377H9.84048V178.357V178.387Z" fill="black"/>
<path d="M77.9441 43.9536C77.9441 43.9536 76.0472 49.9196 79.8409 55.2737C83.7571 60.8725 82.7474 63.5037 82.7474 63.5037C82.7474 63.5037 79.2596 63.5037 78.8619 66.2572C78.403 69.4085 80.3611 74.4872 86.6942 72.4985C86.6942 72.4985 90.7327 70.4487 89.1112 63.0448C87.459 55.6408 81.3707 48.451 83.6041 43.9842H77.9747L77.9441 43.9536Z" fill="#FFCE57"/>
<path d="M84.0327 73.1716C82.3806 73.1716 81.0038 72.5597 80.0248 71.4277C78.648 69.8368 78.4032 67.6339 78.6174 66.196C78.9845 63.6566 81.7993 63.2895 82.5335 63.2589C82.6559 62.647 82.8701 60.077 79.627 55.4266C75.8333 50.0113 77.6996 43.923 77.7302 43.8618L77.7914 43.6782H84.0021L83.8185 44.0454C82.5335 46.6765 84.1857 50.2561 86.1131 54.4476C87.3981 57.1705 88.6831 60.0158 89.3562 62.9529C91.0389 70.4793 87.0004 72.5903 86.8168 72.6821H86.7862C85.8072 73.0186 84.8893 73.1716 84.0327 73.1716ZM78.1279 44.1983C77.8525 45.208 76.7205 50.4397 80.0248 55.1207C83.9715 60.7807 82.9925 63.473 82.9619 63.5954L82.9007 63.7484H82.7477C82.7477 63.7484 79.4741 63.7484 79.1069 66.2878C78.9234 67.6033 79.1069 69.6226 80.3919 71.1217C81.7381 72.7127 83.9103 73.1104 86.6026 72.2537C86.9086 72.1008 90.427 70.0203 88.8667 63.0753C88.2242 60.1994 86.9392 57.3847 85.6848 54.6923C83.7879 50.5926 82.1358 47.0131 83.2372 44.2289H78.1585L78.1279 44.1983Z" fill="black"/>
<path d="M72.4677 44.4126C72.4677 44.4126 70.5708 50.3786 74.3646 55.7327C78.2807 61.3315 77.2711 63.9627 77.2711 63.9627C77.2711 63.9627 73.7833 63.9627 73.3855 66.6856C72.9266 69.8369 74.8847 74.9156 81.2178 72.9269C81.2178 72.9269 85.2869 70.8771 83.6348 63.4731C81.9827 56.0692 75.8943 48.91 78.1277 44.4126H72.4983H72.4677Z" fill="#FFCE57"/>
<path d="M78.556 73.6613C76.9039 73.6613 75.5271 73.0494 74.5481 71.9174C73.1713 70.3264 72.9265 68.1236 73.1407 66.6856C73.5078 64.1463 76.3226 63.7791 77.0874 63.7486C77.2098 63.1367 77.424 60.5667 74.1809 55.9163C70.3872 50.501 72.2535 44.4432 72.2841 44.3821L72.3452 44.1985H78.556L78.3724 44.5656C77.0874 47.1968 78.7396 50.807 80.667 54.9678C81.952 57.6908 83.237 60.5361 83.9101 63.4732C85.5928 70.9995 81.5543 73.1411 81.3707 73.2023H81.3401C80.3611 73.5389 79.4432 73.6919 78.5866 73.6919L78.556 73.6613ZM72.6512 44.6574C72.4064 45.667 71.2438 50.8987 74.5481 55.5797C78.4948 61.2398 77.5158 63.9321 77.4852 64.0545L77.424 64.2075H77.271C77.271 64.2075 73.9974 64.2381 73.6302 66.7468C73.4467 68.0624 73.6302 70.0817 74.9152 71.5502C76.2614 73.1411 78.4336 73.5389 81.1259 72.6822C81.4319 72.5293 84.9197 70.4488 83.39 63.5038C82.7475 60.6279 81.4319 57.8132 80.1775 55.0902C78.2806 50.9905 76.6285 47.4109 77.7299 44.6268H72.6512V44.6574Z" fill="black"/>
<path d="M68.1849 44.4126C68.1849 44.4126 66.288 50.3786 70.0511 55.7327C73.9673 61.3315 72.9576 63.9627 72.9576 63.9627C72.9576 63.9627 69.5004 63.9627 69.0721 66.6856C68.6132 69.8369 70.5712 74.9156 76.9044 72.9269C76.9044 72.9269 80.9429 70.8771 79.3214 63.4731C77.6692 56.0692 71.5809 48.91 73.8143 44.4126H68.1849Z" fill="#FFCE57"/>
<path d="M74.2427 73.6613C72.5906 73.6613 71.2138 73.0494 70.2348 71.9174C68.858 70.3264 68.6133 68.1236 68.8274 66.6856C69.1946 64.1463 72.0093 63.7791 72.7741 63.7486C72.8965 63.1367 73.1107 60.5667 69.8676 55.9163C66.0739 50.501 67.9402 44.4432 67.9708 44.3821L68.032 44.1985H74.2427L74.0591 44.5656C72.7435 47.1968 74.4263 50.807 76.3537 54.9678C77.6081 57.6908 78.9237 60.5361 79.5662 63.4732C81.2489 70.9995 77.2104 73.1411 77.0268 73.2023H76.9962C76.0172 73.5389 75.0993 73.6919 74.2427 73.6919V73.6613ZM68.3685 44.6574C68.0931 45.667 66.9611 50.8987 70.2654 55.5797C74.2121 61.2398 73.2331 63.9321 73.2025 64.0545L73.1413 64.2075H72.9577C72.9577 64.2075 69.6841 64.2381 69.3169 66.7468C69.1334 68.0624 69.3475 70.0817 70.6019 71.5502C71.9787 73.1411 74.1203 73.5389 76.8127 72.6822C77.1186 72.5293 80.637 70.4488 79.0767 63.5038C78.4342 60.6279 77.1492 57.8132 75.8642 55.0902C73.9673 50.9905 72.3152 47.4109 73.4166 44.6268H68.3379L68.3685 44.6574Z" fill="black"/>
<path d="M111.292 74.3037H97.8612V76.6901H111.292V74.3037Z" fill="black"/>
<path d="M46.6461 60.8113C46.6461 60.8113 49.522 60.1994 50.4705 61.6986C50.4705 61.6986 49.0019 62.3105 48.0229 60.9949C48.0229 60.9949 47.0744 60.689 46.6461 60.8113Z" fill="black"/>
<path d="M48.726 68.5825C49.4297 68.7049 50.4699 68.8884 51.3878 68.3989C51.3878 68.3989 50.1334 70.3264 47.9305 69.5003L48.726 68.5825Z" fill="black"/>
<path d="M56.0082 76.5066C51.7555 76.5066 48.6348 75.4358 48.5736 75.4052C47.8394 75.2216 47.3193 74.7933 47.0439 74.1508C46.3096 72.4069 47.7476 69.531 48.1759 68.7049C47.4416 67.7259 47.7782 66.135 47.87 65.676L47.5334 64.9112L47.7782 63.0143C45.6365 62.4636 44.3822 61.6987 44.015 60.6891C43.7091 59.863 44.1374 59.1899 44.168 59.1899L47.3499 53.8359C47.2581 53.2546 46.8297 50.8376 46.7686 50.1339C46.585 48.5124 47.7782 43.8926 47.8394 43.709L48.5125 43.8926C48.5125 43.8926 47.2887 48.543 47.4722 50.0421C47.564 50.807 48.0841 53.8053 48.0841 53.8359V53.9582L44.7493 59.5571C44.7493 59.5877 44.4739 59.9854 44.6575 60.4443C44.8717 60.995 45.6671 61.7905 48.2371 62.4024L48.543 62.4636L48.2371 64.7888L48.6042 65.5843V65.7066C48.4207 66.2267 48.1759 67.7565 48.8184 68.3684L49.002 68.5519L48.8796 68.7967C48.3289 69.7146 47.0439 72.4681 47.6558 73.8448C47.8394 74.2732 48.2065 74.5485 48.7572 74.7015C48.8796 74.7627 59.4348 78.3423 67.7872 72.1009L68.1849 72.6516C64.177 75.6499 59.649 76.476 55.9776 76.476L56.0082 76.5066Z" fill="black"/>
<path d="M83.8798 41.3225H47.625V44.229H83.8798V41.3225Z" fill="white"/>
<path d="M84.0636 44.4126H47.4111V41.1084H84.0636V44.4126ZM47.8088 44.0149H83.6659V41.5061H47.8088V44.0149Z" fill="black"/>
<path d="M48.0233 39.2727C47.7479 38.0183 46.6771 34.2551 43.8624 31.8381H87.6129C84.7982 34.2551 83.758 38.0183 83.452 39.2727H47.9927H48.0233Z" fill="#F50032"/>
<path d="M86.4199 32.3277C84.4007 34.5611 83.4522 37.4064 83.0851 38.7832H48.4212C48.0541 37.4064 47.1362 34.5611 45.0864 32.3277H86.4199ZM89.1734 31.3486H42.3328C46.5855 33.8268 47.6257 39.7622 47.6257 39.7622H83.8805C83.8805 39.7622 84.9208 33.7962 89.1734 31.3486Z" fill="black"/>
<path d="M46.6455 36.6416C46.6455 36.6416 47.6246 40.4965 47.6246 41.3226H83.8794C83.8794 41.3226 84.1547 37.5594 84.6136 36.6416H46.6149H46.6455Z" fill="black"/>
<path d="M7.23932 128.181V91.2532L46.5536 75.2522C47.5326 75.6193 52.2136 77.2102 57.9655 77.2102C58.9139 77.2102 59.8623 77.149 60.7496 77.0879C61.0555 77.0879 64.5128 76.8737 69.5303 74.0896C69.7139 74.0896 70.081 74.1508 70.5399 74.1508C71.3048 74.1508 72.4368 74.0284 73.7524 73.5083C73.783 73.5083 73.8136 73.5083 73.8442 73.5083C73.9665 73.5083 74.3643 73.5083 76.6283 72.8964C76.873 72.8352 79.1371 72.3457 79.9631 72.0091C80.4832 72.0091 82.1353 71.9785 83.2062 71.489L114.229 91.1615V128.151H7.23932V128.181Z" fill="#F50032"/>
<path d="M83.2065 72.0702L113.771 91.4673V127.692H7.72916V91.5897L46.5539 75.7722C47.8695 76.2311 52.4281 77.6997 57.9658 77.6997C58.9142 77.6997 59.8627 77.6385 60.7805 77.5773C61.2088 77.5773 64.666 77.3325 69.6224 74.6096C69.8366 74.6096 70.1731 74.6708 70.5402 74.6708C71.3051 74.6708 72.4983 74.5484 73.8445 74.0283C74.1198 74.0283 74.7011 73.9671 76.7204 73.4164C77.3629 73.294 79.168 72.8657 80.0552 72.5292C80.7283 72.5292 82.1051 72.468 83.1759 72.0702M83.2677 70.9382C82.3192 71.4889 80.453 71.5501 79.994 71.5501H79.9022C79.2598 71.8867 76.5368 72.468 76.5368 72.468C74.7317 72.9575 74.0892 73.0493 73.8751 73.0493C73.7221 73.0493 73.7833 73.0187 73.7833 73.0187C72.4677 73.5694 71.3357 73.6918 70.5402 73.6918C69.8672 73.6918 69.4388 73.6 69.4388 73.6C64.2071 76.5065 60.6887 76.5983 60.6887 76.5983C59.7709 76.6901 58.8224 76.7206 57.9352 76.7206C51.5715 76.7206 46.5233 74.7014 46.5233 74.7014L6.75012 90.9166V128.671H114.75V90.9166L83.2677 70.9382Z" fill="black"/>
<path d="M54.2945 113.22H29.1456V114.199H54.2945V113.22Z" fill="black"/>
<path d="M54.1725 110.559H27.7998V111.538H54.1725V110.559Z" fill="black"/>
<path d="M52.5807 107.866H27.4012V108.845H52.5807V107.866Z" fill="black"/>
<path d="M50.9295 105.205H25.7806V106.184H50.9295V105.205Z" fill="black"/>
<path d="M49.3074 102.512H24.1585V103.491H49.3074V102.512Z" fill="black"/>
<path d="M47.7164 99.8503H22.5369V100.829H47.7164V99.8503Z" fill="black"/>
<path d="M47.5639 97.158H22.415V98.137H47.5639V97.158Z" fill="black"/>
<path d="M45.8192 91.804H19.6606V92.783H45.8192V91.804Z" fill="black"/>
<path d="M83.2678 70.9382L114.75 90.9166V128.671H63.014L38.2935 78.0668L47.3801 74.3954C47.3801 74.3954 54.5393 77.2408 61.5455 75.4969C61.5455 75.4969 62.8611 75.3745 68.001 72.7127C68.001 72.7127 72.2843 73.4776 74.2117 72.8045C74.2117 72.8045 74.8236 72.9881 77.8831 72.162C77.8831 72.162 80.1471 71.9785 80.7896 71.6419C80.7896 71.6419 82.1664 71.6419 83.2678 70.9688V70.9382Z" fill="black"/>
<path d="M46.5536 83.2986V86.5416C47.502 86.817 48.3587 87.3677 48.9706 88.1326H89.1721V83.2986H46.5536Z" fill="white"/>
<path d="M50.0725 92.9666C50.0725 94.5881 50.1643 96.179 50.2255 97.8005H89.1726V92.9666H50.0725Z" fill="white"/>
<path d="M50.5622 102.635C50.6846 103.828 50.7764 105.052 50.9293 106.245C50.9293 106.245 50.9599 106.275 50.9905 106.306C51.3883 106.673 51.7248 107.071 52.0613 107.468H89.1728V102.635H50.5622Z" fill="white"/>
<path d="M54.203 112.302C54.3253 112.884 54.4477 113.465 54.5089 114.077C55.1208 115.117 55.7939 116.127 56.467 117.136H89.1422V112.302H54.1724H54.203Z" fill="white"/>
<path d="M60.1072 121.97C60.8415 122.949 61.5452 123.898 62.1571 124.877C62.5854 125.519 62.8302 126.162 62.9526 126.804H89.1723V121.97H60.1072Z" fill="white"/>
<path d="M59.3428 128.304C54.8148 122.552 49.1242 113.19 47.4109 101.044C45.4834 87.4289 35.1117 82.136 32.2358 80.9122L42.5769 76.7207C47.8698 80.6368 54.4476 87.796 56.161 99.7892C58.425 115.79 69.2555 126.376 71.0912 128.059L70.8771 128.304H59.3734H59.3428Z" fill="white"/>
<path d="M42.5158 77.1185C47.7475 81.004 54.1112 88.0714 55.794 99.8198C57.9356 114.995 67.7565 125.366 70.4488 127.936H59.5571C55.0903 122.215 49.4914 112.976 47.8087 100.982C46.0036 88.2244 36.8864 82.6867 33.1844 80.9428L42.5464 77.1491M42.6076 76.323L31.4099 80.8816V81.004C31.4099 81.004 44.8716 85.5626 47.0438 101.105C48.7877 113.404 54.5396 122.858 59.1594 128.671H71.0302L71.5503 128.028C71.5503 128.028 58.9452 117.045 56.4976 99.728C54.7843 87.6125 48.1759 80.3615 42.6076 76.323Z" fill="black"/>
<path d="M17.7956 86.6028L37.2845 128.671H15.1645L11.6461 93.0583L17.7956 86.6028Z" fill="black"/>
<path d="M7.23932 128.181V91.2532L17.8863 86.8782C16.4178 88.8362 14.4291 92.5688 14.7656 97.9535L14.6739 128.151H7.23932V128.181Z" fill="#F50032"/>
<path d="M16.571 87.9491C15.2861 90.1519 14.0011 93.4867 14.2458 97.9841L14.1541 127.692H7.72916V91.5898L16.571 87.9491ZM19.6611 85.5933L6.75012 90.9168V128.671H15.1637L15.2555 97.9536C14.766 89.8459 19.6611 85.6239 19.6611 85.6239V85.5933Z" fill="black"/>
<path d="M31.9908 128.151C31.5319 128.151 31.1342 127.508 31.1342 126.805V117.871C31.1342 117.167 31.5319 116.525 31.9908 116.525H51.1431C53.6519 121.94 56.6196 125.825 59.985 128.12H31.9908V128.151Z" fill="#F50032"/>
<path d="M50.8068 117.045C53.0096 121.726 55.5795 125.275 58.4555 127.63H31.991C31.991 127.63 31.6544 127.324 31.6544 126.804V117.871C31.6544 117.35 31.8992 117.045 31.991 117.045H50.8068ZM51.4798 116.035H31.991C31.2261 116.035 30.6142 116.861 30.6142 117.901V126.835C30.6142 127.875 31.2261 128.701 31.991 128.701H61.8515C57.2317 126.315 53.8662 121.267 51.4798 116.066V116.035Z" fill="black"/>
<path d="M35.4488 124.785V119.92H47.7785C48.7269 121.695 49.7366 123.408 51.0215 124.785H35.4488Z" fill="#F50032"/>
<path d="M47.0431 121.144C47.502 121.97 47.9609 122.766 48.481 123.531H36.6715V121.144H47.0125M48.5116 118.666H35.1111C34.6216 118.666 34.2239 119.156 34.2239 119.737V124.907C34.2239 125.489 34.6216 125.978 35.1111 125.978H54.7836C51.7547 124.571 50.1026 121.664 48.5116 118.635V118.666Z" fill="black"/>
<path d="M45.973 94.4963H20.7935V95.4754H45.973V94.4963Z" fill="black"/>
<path d="M85.1958 127.355V73.753L85.3182 73.6306L114.261 91.6815V127.355H85.1958Z" fill="#FFCE57"/>
<path d="M85.7153 74.4568L113.771 91.9571V126.835H85.7153V74.4568ZM85.2257 72.9883L84.7056 73.5696V127.845H114.75V91.4063L85.2257 72.9883Z" fill="black"/>
<path d="M94.863 126.927H88.2851V76.0476L94.863 80.1779V126.927Z" fill="#F50032"/>
<path d="M95.1083 127.172H88.0409V75.6194L95.1083 80.025V127.172ZM88.5304 126.682H94.6188V80.3004L88.5304 76.5066V126.682Z" fill="black"/>
<path d="M103.736 127.845H97.1581V80.8511L103.705 84.5225L103.736 127.845Z" fill="black"/>
<path d="M111.904 126.927H105.602V86.7251L111.904 90.5494V126.927Z" fill="white"/>
<path d="M112.149 127.172H105.357V86.2969L112.149 90.3966V127.172ZM105.847 126.682H111.629V90.7025L105.847 87.1841V126.682Z" fill="black"/>
<path d="M114.75 127.349H6.75012V161.349H114.75V127.349Z" fill="#FFCE57"/>
<path d="M114.25 156.349V155.849H113.75H6.75012H6.25012V156.349V160.349V160.849H6.75012H113.75H114.25V160.349V156.349Z" fill="#F50032" stroke="black"/>
<path d="M115.75 140.349H3.75012V144.349H115.75V140.349Z" fill="black"/>
<path d="M116.25 148.849V148.349H115.75H3.75012H3.25012V148.849V151.849V152.349H3.75012H115.75H116.25V151.849V148.849Z" fill="white" stroke="black"/>
<path d="M113.771 128.181V140.052H7.72916V128.181H113.771ZM114.75 127.171H6.75012V141H114.75V127.171Z" fill="black"/>
<path d="M71.5806 127.11H54.3863V141.031H71.5806V127.11Z" fill="#FFCE57"/>
<path d="M72.0999 141.52H53.8654V126.59H72.0999V141.52ZM54.875 140.48H71.0597V127.6H54.875V140.48Z" fill="black"/>
<path d="M69.4692 128.793H56.4664V139.318H69.4692V128.793Z" fill="#F50032"/>
<path d="M44.3827 136.686C44.811 135.677 45.0252 134.545 45.0252 133.382C45.0252 128.609 41.1703 124.724 36.4281 124.724C31.6859 124.724 27.8309 128.609 27.8309 133.382C27.8309 135.096 28.3204 136.686 29.1771 138.002L36.4587 151.494L44.4133 136.686H44.3827Z" fill="#F50032"/>
<path d="M36.4271 152.443L28.7784 138.247C27.8605 136.809 27.371 135.096 27.371 133.382C27.371 128.365 31.4401 124.296 36.4271 124.296C41.414 124.296 45.4831 128.365 45.4831 133.382C45.4831 134.576 45.2384 135.769 44.8101 136.84L36.4577 152.412L36.4271 152.443ZM36.4271 125.183C31.9297 125.183 28.2583 128.854 28.2583 133.382C28.2583 134.943 28.6866 136.472 29.5433 137.788L36.4271 150.577L43.984 136.503C44.3817 135.524 44.5959 134.453 44.5959 133.382C44.5959 128.854 40.9245 125.183 36.4271 125.183Z" fill="black"/>
<path d="M44.3827 136.686C44.811 135.677 45.0252 134.545 45.0252 133.382C45.0252 128.609 41.1703 124.724 36.4281 124.724C31.6859 124.724 27.8309 128.609 27.8309 133.382C27.8309 135.096 28.3204 136.686 29.1771 138.002C29.1771 138.002 29.3607 129.68 36.4587 129.497C36.4587 129.497 44.2603 129.497 43.3731 138.645L44.4133 136.686H44.3827Z" fill="white"/>
<path d="M42.6684 140.786L42.8826 138.614C43.1579 135.799 42.6072 133.596 41.2305 132.097C39.303 129.986 36.4271 129.956 36.3965 129.956C29.8186 130.139 29.5739 137.727 29.5739 138.033V139.471L28.7784 138.247C27.8605 136.778 27.371 135.096 27.371 133.382C27.371 128.365 31.4401 124.296 36.4271 124.296C41.414 124.296 45.4831 128.365 45.4831 133.382C45.4831 134.576 45.2384 135.769 44.8101 136.84L42.7296 140.756L42.6684 140.786ZM36.3965 129.068C36.5495 129.068 39.7313 129.099 41.9036 131.485C43.0968 132.801 43.7392 134.575 43.831 136.778L43.984 136.472C44.3817 135.493 44.5959 134.423 44.5959 133.352C44.5959 128.824 40.9245 125.152 36.4271 125.152C31.9297 125.152 28.2583 128.824 28.2583 133.352C28.2583 134.453 28.4724 135.524 28.8702 136.534C29.3291 134.055 30.8894 129.191 36.3965 129.038V129.068Z" fill="black"/>
<path d="M41.322 142.347C41.5668 141.704 41.7197 141.031 41.7197 140.297C41.7197 137.329 39.3333 134.943 36.3962 134.943C33.4591 134.943 31.0728 137.329 31.0728 140.297C31.0728 141.337 31.3787 142.316 31.8988 143.173L36.3962 151.525L41.322 142.347Z" fill="#F50032"/>
<path d="M36.3967 152.198L31.6239 143.325C31.0426 142.408 30.7672 141.367 30.7672 140.297C30.7672 137.145 33.3066 134.606 36.4272 134.606C39.5479 134.606 42.0873 137.145 42.0873 140.297C42.0873 141.031 41.9343 141.765 41.659 142.469L36.4272 152.198H36.3967ZM36.3967 135.279C33.6431 135.279 31.4097 137.543 31.4097 140.297C31.4097 141.245 31.6851 142.193 32.1746 142.989L36.3967 150.821L41.0165 142.193C41.2612 141.582 41.3836 140.939 41.3836 140.297C41.3836 137.512 39.1502 135.279 36.3967 135.279Z" fill="black"/>
<path d="M39.4871 142.01C39.6401 141.612 39.7319 141.184 39.7319 140.725C39.7319 138.859 38.2327 137.36 36.397 137.36C34.5613 137.36 33.0622 138.859 33.0622 140.725C33.0622 141.398 33.2458 142.01 33.5823 142.53L36.397 147.762L39.4871 142.01Z" fill="#F50032"/>
<path d="M36.3968 148.19L33.3985 142.622C33.062 142.071 32.8478 141.398 32.8478 140.725C32.8478 138.767 34.4388 137.145 36.3968 137.145C38.3549 137.145 39.9458 138.736 39.9458 140.725C39.9458 141.184 39.854 141.643 39.6705 142.102L36.3968 148.221V148.19ZM36.3968 137.574C34.6529 137.574 33.2456 138.981 33.2456 140.725C33.2456 141.337 33.3985 141.918 33.7351 142.408L36.3968 147.333L39.3033 141.918C39.4563 141.551 39.5175 141.153 39.5175 140.725C39.5175 138.981 38.1101 137.574 36.3662 137.574H36.3968Z" fill="black"/>
<path d="M36.4271 152.259L30.1552 140.603C29.3903 139.409 28.9926 138.033 28.9926 136.625C28.9926 132.495 32.3274 129.16 36.4271 129.16C40.5268 129.16 43.8617 132.526 43.8617 136.625C43.8617 137.604 43.6781 138.583 43.311 139.471L36.4577 152.259H36.4271ZM36.4271 129.864C32.7252 129.864 29.6963 132.893 29.6963 136.625C29.6963 137.91 30.0634 139.165 30.7365 140.235L36.3966 150.76L42.6073 139.195C42.9438 138.369 43.0968 137.513 43.0968 136.625C43.0968 132.893 40.0985 129.864 36.3966 129.864H36.4271Z" fill="black"/>
<path d="M29.4517 135.004L29.9718 133.933L29.1763 128.701C28.9622 129.038 28.7786 129.374 28.595 129.711L29.4211 135.004H29.4517Z" fill="black"/>
<path d="M31.1041 126.59C30.8593 126.774 30.6451 126.957 30.431 127.171L30.9817 131.852L31.6854 131.546L31.1041 126.59Z" fill="black"/>
<path d="M32.9392 130.629L33.6429 130.078L33.2758 125.336C33.031 125.428 32.8168 125.52 32.5721 125.642L32.9086 130.629H32.9392Z" fill="black"/>
<path d="M34.989 129.803L35.7232 129.68L35.6009 124.755C35.3561 124.755 35.1113 124.816 34.8666 124.846L34.989 129.772V129.803Z" fill="black"/>
<path d="M37.9569 124.877C37.7122 124.846 37.4674 124.785 37.2532 124.785L37.1309 129.558L37.8345 129.803L37.9569 124.877Z" fill="black"/>
<path d="M40.2214 125.642C40.0073 125.52 39.7625 125.428 39.5178 125.336L39.1812 130.262L39.8849 130.629L40.2214 125.642Z" fill="black"/>
<path d="M41.1385 131.577L41.8116 132.036L42.3623 127.141C42.1481 126.927 41.934 126.743 41.6892 126.56L41.1079 131.547L41.1385 131.577Z" fill="black"/>
<path d="M43.3418 135.157L44.2291 129.711C44.0761 129.344 43.8619 129.007 43.6478 128.701L42.8523 133.963L43.3418 135.157Z" fill="black"/>
<path d="M35.7845 146.63L36.3047 147.639V137.36C36.1211 137.36 35.9375 137.36 35.7845 137.421V146.63Z" fill="black"/>
<path d="M34.928 145.039L35.4175 145.957V137.512C35.2339 137.574 35.081 137.635 34.928 137.696V145.039Z" fill="black"/>
<path d="M34.0714 143.448L34.5303 144.305V137.941C34.3773 138.063 34.2243 138.186 34.0714 138.308V143.448Z" fill="black"/>
<path d="M33.2143 141.735C33.3061 142.01 33.4285 142.285 33.5814 142.53L33.6426 142.653V138.798C33.4591 139.073 33.3061 139.379 33.2143 139.685V141.704V141.735Z" fill="black"/>
<path d="M36.6719 147.272L37.192 146.293V137.482C37.039 137.451 36.8554 137.421 36.6719 137.39V147.272Z" fill="black"/>
<path d="M37.5596 145.59L38.0491 144.641V137.788C37.8962 137.696 37.7126 137.604 37.5596 137.543V145.559V145.59Z" fill="black"/>
<path d="M38.4776 143.907L38.9059 143.081V138.492C38.9059 138.492 38.6306 138.186 38.4776 138.063V143.876V143.907Z" fill="black"/>
<path d="M39.3333 142.285L39.4863 142.01C39.6393 141.612 39.731 141.184 39.731 140.725C39.731 140.144 39.5781 139.593 39.3333 139.134V142.285Z" fill="black"/>
<path d="M77.5466 131.394C77.1183 132.403 76.9041 133.535 76.9041 134.698C76.9041 139.471 80.7591 143.356 85.5012 143.356C90.2434 143.356 94.0984 139.501 94.0984 134.698C94.0984 132.984 93.6089 131.424 92.7522 130.078L85.4707 116.586L77.516 131.394H77.5466Z" fill="#F50032"/>
<path d="M85.5011 115.637L93.1498 129.833C94.0677 131.271 94.5572 132.954 94.5572 134.698C94.5572 139.715 90.4881 143.784 85.5011 143.784C80.5142 143.784 76.4451 139.715 76.4451 134.698C76.4451 133.505 76.6592 132.342 77.1182 131.241L85.4399 115.668L85.5011 115.637ZM85.5011 142.897C89.9986 142.897 93.6699 139.226 93.6699 134.698C93.6699 133.137 93.2416 131.608 92.4155 130.292L85.5317 117.503L77.9748 131.577C77.5771 132.556 77.3629 133.627 77.3629 134.698C77.3629 139.226 81.0343 142.897 85.5317 142.897H85.5011Z" fill="black"/>
<path d="M77.5466 131.394C77.1183 132.403 76.9041 133.535 76.9041 134.698C76.9041 139.471 80.7591 143.356 85.5012 143.356C90.2434 143.356 94.0984 139.501 94.0984 134.698C94.0984 132.985 93.6089 131.424 92.7522 130.078C92.7522 130.078 92.5686 138.4 85.4707 138.583C85.4707 138.583 77.669 138.583 78.5562 129.436L77.516 131.394H77.5466Z" fill="white"/>
<path d="M79.229 127.294L79.0149 129.466C78.7395 132.281 79.2902 134.484 80.6364 135.983C82.5333 138.094 85.4398 138.125 85.4704 138.125C92.0483 137.941 92.293 130.384 92.293 130.047V128.61L93.0885 129.833C94.0063 131.271 94.4958 132.985 94.4958 134.698C94.4958 139.715 90.4267 143.785 85.4398 143.785C80.4528 143.785 76.3837 139.715 76.3837 134.698C76.3837 133.505 76.5979 132.342 77.0568 131.241L79.1373 127.325L79.229 127.294ZM85.501 139.012C85.348 139.012 82.1661 138.981 79.9939 136.564C78.8007 135.249 78.1582 133.474 78.0664 131.271L77.9135 131.547C77.5157 132.526 77.3016 133.596 77.3016 134.667C77.3016 139.195 80.9729 142.867 85.4704 142.867C89.9678 142.867 93.6392 139.195 93.6392 134.667C93.6392 133.566 93.425 132.495 92.9967 131.485C92.5684 133.994 90.9774 138.828 85.4704 138.981L85.501 139.012Z" fill="black"/>
<path d="M80.5757 125.734C80.3004 126.376 80.178 127.049 80.178 127.783C80.178 130.751 82.5644 133.138 85.5015 133.138C88.4386 133.138 90.825 130.751 90.825 127.783C90.825 126.743 90.519 125.764 89.9989 124.908L85.5015 116.555L80.5757 125.734Z" fill="#F50032"/>
<path d="M85.5013 115.882L90.3047 124.755C90.886 125.672 91.1614 126.713 91.1614 127.783C91.1614 130.935 88.622 133.474 85.5013 133.474C82.3807 133.474 79.8413 130.935 79.8413 127.783C79.8413 127.049 79.9943 126.315 80.2696 125.611L85.4707 115.882H85.5013ZM85.5013 132.801C88.2549 132.801 90.4883 130.537 90.4883 127.783C90.4883 126.835 90.2129 125.887 89.7234 125.091L85.5013 117.259L80.8815 125.887C80.6368 126.498 80.5144 127.141 80.5144 127.783C80.5144 130.568 82.7478 132.801 85.5013 132.801Z" fill="black"/>
<path d="M82.4108 126.07C82.2579 126.468 82.1661 126.896 82.1661 127.355C82.1661 129.221 83.6652 130.721 85.5009 130.721C87.3366 130.721 88.8357 129.221 88.8357 127.355C88.8357 126.682 88.6522 126.07 88.3156 125.55L85.5009 120.318L82.4108 126.07Z" fill="#F50032"/>
<path d="M85.5011 119.89L88.4994 125.458C88.8666 126.009 89.0501 126.682 89.0501 127.355C89.0501 129.313 87.4592 130.935 85.5011 130.935C83.5431 130.935 81.9521 129.344 81.9521 127.355C81.9521 126.896 82.0439 126.437 82.2275 125.978L85.5011 119.859V119.89ZM85.5011 130.506C87.245 130.506 88.6524 129.099 88.6524 127.355C88.6524 126.743 88.4994 126.162 88.1629 125.672L85.5011 120.747L82.5946 126.162C82.4417 126.529 82.3805 126.927 82.3805 127.355C82.3805 129.099 83.7878 130.506 85.5317 130.506H85.5011Z" fill="black"/>
<path d="M85.5012 115.79L91.7732 127.447C92.538 128.64 92.9358 130.017 92.9358 131.424C92.9358 135.524 89.6009 138.889 85.5012 138.889C81.4015 138.889 78.0667 135.524 78.0667 131.424C78.0667 130.445 78.2503 129.466 78.6174 128.579L85.4706 115.79H85.5012ZM85.5012 138.186C89.2032 138.186 92.2015 135.157 92.2015 131.455C92.2015 130.17 91.8344 128.915 91.1613 127.845L85.5012 117.32L79.2905 128.885C78.954 129.711 78.801 130.568 78.801 131.455C78.801 135.157 81.7993 138.186 85.5318 138.186H85.5012Z" fill="black"/>
<path d="M92.4465 133.076L91.9264 134.147L92.7219 139.379C92.936 139.042 93.1196 138.706 93.3032 138.369L92.4465 133.076Z" fill="black"/>
<path d="M90.7941 141.49C91.0389 141.306 91.253 141.123 91.4672 140.909L90.9471 136.228L90.2434 136.533L90.7941 141.49Z" fill="black"/>
<path d="M88.9888 137.451L88.2851 138.002L88.6522 142.744C88.897 142.653 89.1112 142.561 89.3559 142.438L89.0194 137.451H88.9888Z" fill="black"/>
<path d="M86.9086 138.277L86.205 138.4L86.3273 143.325C86.5721 143.325 86.8168 143.264 87.031 143.234L86.9086 138.308V138.277Z" fill="black"/>
<path d="M83.9713 143.203C84.2161 143.234 84.4302 143.295 84.675 143.295L84.7974 138.522L84.0937 138.277L83.9713 143.203Z" fill="black"/>
<path d="M81.6773 142.438C81.9221 142.561 82.1362 142.653 82.381 142.744L82.7175 137.819L82.0139 137.451L81.6773 142.438Z" fill="black"/>
<path d="M80.7591 136.503L80.086 136.044L79.5353 140.939C79.7494 141.153 79.9636 141.337 80.1778 141.52L80.7591 136.533V136.503Z" fill="black"/>
<path d="M78.5866 132.923L77.6993 138.369C77.8523 138.736 78.0665 139.073 78.2806 139.379L79.0455 134.117L78.5866 132.923Z" fill="black"/>
<path d="M86.113 121.45L85.5623 120.441V130.69C85.7458 130.69 85.9294 130.69 86.113 130.629V121.42V121.45Z" fill="black"/>
<path d="M86.9697 123.041L86.4802 122.123V130.567C86.6332 130.506 86.8168 130.445 86.9697 130.384V123.041Z" fill="black"/>
<path d="M87.827 124.632L87.368 123.775V130.139C87.521 130.017 87.674 129.894 87.827 129.772V124.632Z" fill="black"/>
<path d="M88.6836 126.345C88.5919 126.07 88.4695 125.795 88.3165 125.55L88.2553 125.427V129.252C88.4389 128.976 88.5919 128.671 88.6836 128.365V126.345Z" fill="black"/>
<path d="M85.2257 120.808L84.7056 121.787V130.598C84.8892 130.629 85.0422 130.659 85.2257 130.69V120.808Z" fill="black"/>
<path d="M84.3386 122.49L83.8491 123.408V130.262C84.002 130.353 84.1856 130.445 84.3386 130.506V122.49Z" fill="black"/>
<path d="M83.4203 124.173L82.9919 124.999V129.589C83.1143 129.742 83.2673 129.895 83.4203 130.017V124.204V124.173Z" fill="black"/>
<path d="M82.5638 125.795L82.4108 126.07C82.2579 126.468 82.1661 126.896 82.1661 127.355C82.1661 127.936 82.3191 128.487 82.5638 128.946V125.795Z" fill="black"/>
<path d="M107.529 76.3843H101.594V88.4692H107.529V76.3843Z" fill="#FFCE57"/>
<path d="M107.284 76.6595V88.2549H101.839V76.6595H107.284ZM107.774 76.1394H101.349V88.7139H107.774V76.1394Z" fill="black"/>
<path d="M101.074 76.9654C101.074 76.9654 100.982 76.4759 101.992 76.2006C101.992 76.2006 109.335 75.1603 110.038 76.9654C110.038 76.9654 110.62 78.128 105.572 78.0668C105.572 78.0668 101.411 78.0668 101.074 76.9654Z" fill="white"/>
<path d="M106 78.3423H105.541C104.807 78.3423 101.166 78.2811 100.799 77.0573C100.799 76.9656 100.677 76.2925 101.901 75.9253C101.962 75.9253 104.073 75.6194 106.153 75.6194C108.601 75.6194 109.947 76.0171 110.283 76.8738C110.345 76.9656 110.375 77.2103 110.222 77.4245C109.825 78.067 108.448 78.3423 106 78.3423ZM101.35 76.9044C101.595 77.4551 103.706 77.7916 105.572 77.7916H106C108.999 77.7916 109.61 77.3021 109.733 77.1491C109.763 77.0879 109.763 77.0573 109.763 77.0573C109.549 76.476 108.234 76.1701 106.153 76.1701C104.073 76.1701 102.023 76.476 102.023 76.476C101.503 76.629 101.35 76.8432 101.35 76.9044Z" fill="black"/>
<path d="M101.228 79.107C101.228 79.107 101.136 78.6175 102.145 78.3422C102.145 78.3422 109.488 77.3019 110.192 79.107C110.192 79.107 110.773 80.2696 105.725 80.2084C105.725 80.2084 101.595 80.2084 101.258 79.107H101.228Z" fill="white"/>
<path d="M106.153 80.4839H105.694C104.96 80.4839 101.319 80.4227 100.952 79.1989C100.952 79.1072 100.829 78.4035 102.053 78.0669C102.114 78.0669 104.225 77.761 106.306 77.761C108.753 77.761 110.099 78.1587 110.436 79.0154C110.497 79.1072 110.528 79.3519 110.375 79.5661C110.008 80.178 108.6 80.4839 106.153 80.4839ZM101.502 79.0766C101.747 79.6273 103.858 79.9638 105.724 79.9638H106.153C109.151 79.9638 109.763 79.4743 109.885 79.3519C109.947 79.2907 109.916 79.2601 109.916 79.2601C109.702 78.7094 108.386 78.3729 106.306 78.3729C104.225 78.3729 102.206 78.6788 102.175 78.6788C101.655 78.8318 101.502 79.046 101.502 79.1072V79.0766Z" fill="black"/>
<path d="M101.348 81.2794C101.348 81.2794 101.257 80.7899 102.266 80.5145C102.266 80.5145 109.609 79.4743 110.313 81.2794C110.313 81.2794 110.894 82.442 105.846 82.3808C105.846 82.3808 101.716 82.3808 101.379 81.2794H101.348Z" fill="white"/>
<path d="M106.305 82.656H105.846C105.143 82.656 101.471 82.5948 101.104 81.3711C101.104 81.2793 100.982 80.5756 102.206 80.2391C102.267 80.2391 104.378 79.9331 106.458 79.9331C108.906 79.9331 110.283 80.3308 110.589 81.1875C110.65 81.2793 110.68 81.524 110.527 81.7382C110.13 82.3501 108.753 82.656 106.305 82.656ZM101.624 81.2487C101.869 81.7994 103.98 82.1053 105.846 82.1053C105.999 82.1053 106.152 82.1053 106.305 82.1053C109.487 82.1053 109.977 81.5546 110.038 81.4628C110.038 81.4628 110.038 81.4628 110.038 81.4322C109.824 80.8509 108.478 80.5144 106.428 80.5144C104.378 80.5144 102.297 80.8204 102.297 80.8204C101.777 80.9733 101.624 81.1569 101.624 81.2487Z" fill="black"/>
<path d="M102.144 77.302C102.144 77.302 101.961 76.8125 102.144 76.5983C102.144 76.5983 102.909 76.17 103.246 76.5983C103.246 76.5983 103.643 77.0572 103.246 77.5162C103.246 77.5162 103.001 77.6997 102.144 77.302Z" fill="white"/>
<path d="M103.033 77.6692C102.788 77.6692 102.482 77.5774 102.084 77.3938H102.053V77.3326C102.053 77.2714 101.839 76.7513 102.053 76.476C102.053 76.476 102.421 76.2312 102.788 76.2312C103.002 76.2312 103.186 76.323 103.308 76.476C103.461 76.6595 103.675 77.1184 103.308 77.5468C103.277 77.5774 103.186 77.6386 103.002 77.6386L103.033 77.6692ZM102.237 77.1796C102.849 77.455 103.094 77.3938 103.155 77.3938C103.461 77.0267 103.155 76.6901 103.155 76.6595C103.094 76.5677 102.971 76.5066 102.818 76.5066C102.574 76.5066 102.298 76.6289 102.237 76.6595C102.176 76.7819 102.237 77.0267 102.237 77.1796Z" fill="black"/>
<path d="M102.144 79.4744C102.144 79.4744 101.961 78.9849 102.144 78.7707C102.144 78.7707 102.909 78.3424 103.246 78.7707C103.246 78.7707 103.643 79.2296 103.246 79.6885C103.246 79.6885 103.001 79.8721 102.144 79.4744Z" fill="white"/>
<path d="M103.033 79.8414C102.788 79.8414 102.482 79.7497 102.084 79.5661H102.053V79.5049C102.053 79.4437 101.839 78.9236 102.053 78.6788C102.053 78.6788 102.421 78.4341 102.788 78.4341C103.002 78.4341 103.186 78.5259 103.308 78.6788C103.461 78.8624 103.675 79.3519 103.308 79.7803C103.277 79.7803 103.186 79.8414 103.002 79.8414H103.033ZM102.237 79.3519C102.849 79.6273 103.094 79.5661 103.155 79.5661C103.461 79.199 103.155 78.8318 103.155 78.8318C103.094 78.74 102.971 78.6788 102.818 78.6788C102.574 78.6788 102.298 78.8012 102.237 78.8318C102.176 78.9542 102.237 79.199 102.237 79.3519Z" fill="black"/>
<path d="M102.298 81.4629C102.298 81.4629 102.114 80.9734 102.298 80.7592C102.298 80.7592 103.063 80.3309 103.369 80.7592C103.369 80.7592 103.766 81.2181 103.369 81.6771C103.369 81.6771 103.124 81.8606 102.298 81.4629Z" fill="white"/>
<path d="M103.185 81.83C102.94 81.83 102.634 81.7383 102.237 81.5547H102.175V81.4935C102.175 81.4323 101.961 80.9122 102.175 80.6368C102.175 80.6368 102.542 80.3921 102.91 80.3921C103.124 80.3921 103.307 80.4839 103.43 80.6368C103.583 80.8204 103.797 81.2793 103.43 81.7077C103.399 81.7383 103.307 81.7994 103.124 81.7994L103.185 81.83ZM102.389 81.3711C103.001 81.6465 103.246 81.5853 103.307 81.5853C103.583 81.2487 103.307 80.8816 103.307 80.851C103.216 80.7592 103.124 80.698 102.971 80.698C102.726 80.698 102.451 80.8204 102.389 80.851C102.298 80.9734 102.389 81.2181 102.389 81.3711Z" fill="black"/>
<path d="M108.845 84.2777C107.071 84.9202 103.613 84.0636 103.613 84.0636C102.206 83.1151 103.552 82.3808 103.552 82.3808C103.552 82.3808 109.916 82.0137 110.558 83.3905C110.558 83.3905 111.293 85.1344 107.499 85.7769L107.315 84.6755L108.845 84.3083V84.2777Z" fill="white"/>
<path d="M107.285 86.0827L107.071 84.7977C105.388 84.7977 103.644 84.3694 103.583 84.3388H103.491C102.971 83.9411 102.696 83.5433 102.727 83.1456C102.727 82.5337 103.369 82.1666 103.461 82.136H103.522L103.583 82.1054C103.583 82.1054 104.379 82.0442 105.449 82.0442C110.314 82.0442 110.712 82.962 110.865 83.2374C110.865 83.2374 111.11 83.8187 110.742 84.4306C110.314 85.1955 109.274 85.7156 107.591 85.9909L107.316 86.0521L107.285 86.0827ZM107.652 84.8895L107.744 85.4402C109.396 85.1343 110.008 84.5836 110.222 84.2164C110.436 83.8493 110.314 83.5127 110.314 83.5127C110.13 83.115 108.723 82.6561 105.419 82.6561C104.562 82.6561 103.889 82.6867 103.675 82.7173C103.553 82.8091 103.308 83.0232 103.277 83.2374C103.277 83.4821 103.522 83.6963 103.767 83.8799C104.073 83.9411 105.664 84.3082 107.163 84.3082C107.561 84.3082 107.928 84.3082 108.234 84.2164L108.815 84.0635L108.968 84.5836C108.784 84.6448 108.57 84.7059 108.325 84.7365L107.652 84.8895Z" fill="black"/>
<path d="M103.736 83.5127C103.736 83.5127 103.552 83.0232 103.736 82.809C103.736 82.809 104.501 82.3807 104.837 82.809C104.837 82.809 105.235 83.2679 104.837 83.7269C104.837 83.7269 104.592 83.9104 103.736 83.5127Z" fill="white"/>
<path d="M104.593 83.8798C104.348 83.8798 104.042 83.788 103.644 83.6044H103.583V83.5432C103.583 83.482 103.369 82.9619 103.583 82.6866C103.583 82.6866 103.95 82.4724 104.317 82.4724C104.531 82.4724 104.715 82.5642 104.837 82.7172C104.99 82.9007 105.205 83.3903 104.837 83.788C104.807 83.8186 104.715 83.8798 104.531 83.8798H104.593ZM103.828 83.4208C104.409 83.6962 104.684 83.635 104.715 83.635C105.021 83.2679 104.715 82.9313 104.715 82.9007C104.623 82.809 104.531 82.7478 104.379 82.7478C104.134 82.7478 103.889 82.8701 103.797 82.9007C103.705 83.0231 103.797 83.2679 103.797 83.4208H103.828Z" fill="black"/>
<path d="M109.273 87.6431C109.273 88.6221 107.193 89.387 104.653 89.387C102.114 89.387 100.033 88.5915 100.033 87.6431C100.033 86.6946 102.114 85.8992 104.653 85.8992C107.193 85.8992 109.273 86.6946 109.273 87.6431Z" fill="#FFCE57"/>
<path d="M104.653 89.6009C101.961 89.6009 99.8195 88.7443 99.8195 87.6429C99.8195 86.5415 101.931 85.6848 104.653 85.6848C107.376 85.6848 109.487 86.5415 109.487 87.6429C109.487 88.7443 107.376 89.6009 104.653 89.6009ZM104.653 86.1131C102.053 86.1131 100.217 86.9392 100.217 87.6735C100.217 88.4077 102.022 89.2338 104.653 89.2338C107.285 89.2338 109.059 88.4077 109.059 87.6735C109.059 86.9392 107.254 86.1131 104.653 86.1131Z" fill="black"/>
<path d="M109.365 88.4385C109.365 89.4175 107.254 90.1824 104.623 90.1824C101.991 90.1824 99.8804 89.3869 99.8804 88.4385C99.8804 87.49 101.991 86.6946 104.623 86.6946C107.254 86.6946 109.365 87.49 109.365 88.4385Z" fill="#FFCE57"/>
<path d="M104.623 90.4271C101.809 90.4271 99.6977 89.5705 99.6977 88.4691C99.6977 87.2453 102.206 86.511 104.623 86.511C107.04 86.511 109.549 87.2453 109.549 88.4691C109.549 89.6011 107.438 90.4271 104.623 90.4271ZM104.623 86.9087C101.962 86.9087 100.095 87.7348 100.095 88.4691C100.095 89.2033 101.962 90.0294 104.623 90.0294C107.285 90.0294 109.151 89.2033 109.151 88.4691C109.151 87.7348 107.285 86.9087 104.623 86.9087Z" fill="black"/>
<path d="M101.349 85.4096C101.349 85.4096 98.9625 85.1343 99.0237 83.2068C99.0237 83.2068 95.9337 78.8318 99.2073 76.9655C102.481 75.0992 103.98 77.5162 104.99 80.1779C104.99 80.1779 103.797 81.8912 101.227 78.4646" fill="white"/>
<path d="M101.319 85.6545C100.432 85.5627 98.7794 84.9202 98.7794 83.2681C98.5041 82.8703 97.1273 80.6675 97.5556 78.74C97.7392 77.8834 98.2593 77.2103 99.0854 76.7514C100.279 76.0783 101.349 75.8947 102.267 76.2313C103.766 76.782 104.623 78.5871 105.204 80.0862V80.2086V80.3004C105.204 80.3004 104.837 80.8205 104.134 80.8511C103.216 80.8511 102.175 80.1168 101.043 78.6177L101.441 78.3117C102.726 80.025 103.613 80.3616 104.134 80.3616C104.439 80.3616 104.654 80.2086 104.745 80.1168C104.195 78.74 103.43 77.1491 102.145 76.6902C101.349 76.4148 100.462 76.5678 99.3607 77.1797C98.6571 77.5774 98.1981 78.1281 98.0452 78.8624C97.6168 80.7287 99.2384 83.0233 99.2384 83.0539L99.2995 83.1151V83.2069C99.2384 84.8896 101.319 85.1343 101.411 85.1649L101.349 85.6545H101.319Z" fill="black"/>
<path d="M104.103 78.281L103.338 78.8929C103.338 78.8929 103.552 80.0861 104.562 79.5048L104.103 78.281Z" fill="white"/>
<path d="M104.072 79.78C103.399 79.78 103.216 78.9234 103.216 78.8928V78.8316L104.164 78.0361L104.715 79.5353L104.623 79.5965C104.409 79.7188 104.256 79.7494 104.072 79.7494V79.78ZM103.491 78.954C103.552 79.1375 103.705 79.5659 104.072 79.5659C104.072 79.5659 104.287 79.5659 104.409 79.4741L104.042 78.4951L103.491 78.954Z" fill="black"/>
<path d="M53.2849 66.502C53.2849 66.502 53.0095 66.4102 52.9483 66.2879L52.6118 65.37C52.5506 65.1864 52.6424 65.0029 52.8259 64.9417C53.0095 64.8805 53.1931 64.9417 53.2543 65.1558L53.5908 66.0737C53.652 66.2573 53.5908 66.4408 53.3766 66.502C53.346 66.502 53.2849 66.502 53.2543 66.502H53.2849Z" fill="black"/>
<path d="M48.1141 65.7066L47.7775 64.8805C47.7775 64.8805 49.399 64.6052 50.1639 65.37C50.1639 65.37 51.143 65.7372 53.1622 65.7066C53.1622 65.7066 51.1124 66.5938 49.2155 65.829C49.2155 65.829 48.42 65.676 48.1447 65.7066H48.1141Z" fill="black"/>
<path d="M50.3171 53.1627C53.7743 56.5587 57.048 53.1627 57.048 53.1627C53.5908 49.7666 50.3171 53.1627 50.3171 53.1627Z" fill="white"/>
<path d="M53.5909 54.8455C52.3977 54.8455 51.2351 54.3254 50.1949 53.2851L50.0725 53.1628L50.1949 53.0404C50.1949 53.0404 51.7246 51.4495 53.8051 51.4495C54.9983 51.4495 56.1609 51.9696 57.2011 53.0098L57.3235 53.1322L57.2011 53.2851C57.2011 53.2851 55.6714 54.8761 53.5909 54.8761V54.8455ZM50.5926 53.1628C51.5411 54.0194 52.5507 54.4783 53.5909 54.4783C55.1512 54.4783 56.375 53.4993 56.7728 53.1322C55.8243 52.2755 54.8453 51.8166 53.8051 51.8166C52.2447 51.8166 51.0209 52.7956 50.6232 53.1628H50.5926Z" fill="black"/>
<path d="M55.121 53.1321C55.121 53.9582 54.4786 54.6007 53.6831 54.6007C52.8876 54.6007 52.2451 53.9582 52.2145 53.1321C52.2145 52.3061 52.857 51.6636 53.6525 51.6636C54.448 51.6636 55.121 52.3061 55.121 53.1015V53.1321Z" fill="white"/>
<path d="M53.6825 54.8147C52.7647 54.8147 52.0304 54.0805 52.0304 53.1626C52.0304 52.2448 52.7647 51.5105 53.6825 51.5105C54.6004 51.5105 55.3346 52.2448 55.3346 53.1626C55.3346 53.6215 55.1511 54.0193 54.8451 54.3252C54.5392 54.6312 54.1108 54.8147 53.6825 54.8147ZM53.6825 51.8776C52.9788 51.8776 52.4281 52.4589 52.4281 53.1626C52.4281 53.8663 53.0094 54.417 53.6825 54.417C54.0191 54.417 54.325 54.2946 54.5698 54.0499C54.8145 53.8051 54.9369 53.4992 54.9369 53.1626C54.9369 52.4589 54.3862 51.9082 53.6825 51.9082V51.8776Z" fill="black"/>
<path d="M54.3557 53.1627C54.3557 53.5604 54.0498 53.8663 53.652 53.8663C53.2849 53.8663 52.979 53.5604 52.9484 53.1627C52.9484 52.7955 53.2543 52.459 53.6215 52.459C54.0192 52.459 54.3251 52.7649 54.3251 53.1627H54.3557Z" fill="black"/>
<path d="M57.5987 50.2255C57.5987 50.2255 57.5987 50.2255 57.5069 50.1949C57.4457 50.1949 57.3845 50.1337 57.2927 50.0725C57.1092 49.9808 56.8032 49.8584 56.4361 49.736C56.2525 49.6748 56.0689 49.6136 55.8548 49.5524C55.6406 49.4912 55.4264 49.4301 55.2123 49.3995C54.9981 49.3383 54.7534 49.3383 54.5086 49.3077C54.2638 49.3077 54.0191 49.3077 53.7743 49.3077C53.5296 49.3077 53.2848 49.3077 53.0706 49.3689C52.9483 49.3689 52.8565 49.3995 52.7341 49.4301C52.6117 49.4606 52.5199 49.4912 52.3976 49.5218C52.3058 49.5218 52.1834 49.583 52.0916 49.6136C51.9998 49.6442 51.908 49.7054 51.8163 49.736C51.7245 49.7666 51.6327 49.8278 51.5409 49.8584C51.4491 49.9196 51.3879 49.9502 51.2961 50.0114C51.1432 50.1031 50.9902 50.1643 50.8984 50.2561C50.776 50.3479 50.6843 50.4091 50.6231 50.5009C50.4701 50.6232 50.3783 50.6844 50.3783 50.6844L50.3171 50.7456C50.0418 50.9598 49.6746 50.8986 49.4605 50.6538C49.2463 50.3785 49.3075 50.0114 49.5522 49.7972C49.5522 49.7972 49.5522 49.7972 49.6134 49.7666C49.6134 49.7666 49.7358 49.6748 49.95 49.5524C50.0724 49.4912 50.1947 49.3995 50.3171 49.3077C50.4701 49.2159 50.6537 49.1547 50.8372 49.0323C50.929 49.0017 51.0208 48.9405 51.1432 48.9099C51.2656 48.8793 51.3573 48.8488 51.4797 48.7876C51.6021 48.7876 51.7245 48.7264 51.8469 48.6652C51.9692 48.6652 52.0916 48.604 52.214 48.5734C52.3364 48.5428 52.4588 48.5122 52.6117 48.5122C52.7341 48.5122 52.8871 48.5122 53.0095 48.5122C53.2848 48.5122 53.5602 48.5122 53.8355 48.5122C54.1109 48.5122 54.3862 48.5734 54.6616 48.604C54.9063 48.6652 55.1817 48.6958 55.4264 48.7876C55.6712 48.8488 55.8854 48.9405 56.0995 49.0017C56.3137 49.0935 56.5279 49.1853 56.7114 49.2465C57.0786 49.3995 57.3539 49.583 57.5681 49.7054C57.6599 49.7666 57.7516 49.8278 57.8128 49.8584C57.874 49.889 57.9046 49.9196 57.9046 49.9196C57.9964 49.9808 58.027 50.1031 57.9658 50.2255C57.9046 50.3173 57.7822 50.3479 57.6905 50.2867L57.5987 50.2255Z" fill="black"/>
<path d="M58.2722 52.6732C58.2722 52.6732 58.1804 52.6732 58.1498 52.6426C53.4688 49.1854 50.134 52.5814 50.1034 52.6426C50.0422 52.7344 49.9198 52.7344 49.8281 52.6426C49.7363 52.5814 49.7363 52.459 49.8281 52.3672C49.8281 52.3366 53.4382 48.6653 58.364 52.3672C58.4558 52.4284 58.4864 52.5508 58.3946 52.6426C58.364 52.7038 58.3028 52.7344 58.2416 52.7344L58.2722 52.6732Z" fill="black"/>
<path d="M58.9758 53.9889C58.9758 53.9889 58.7616 53.9889 58.6087 53.9889H58.4251L58.2415 53.9583C58.1803 53.9583 58.1191 53.9583 58.0885 53.9277C58.0274 53.9277 57.9662 53.9277 57.905 53.8665C57.7826 53.8359 57.6908 53.7747 57.5684 53.7441C57.4461 53.6829 57.3543 53.6217 57.2625 53.5912C57.1401 53.53 57.0483 53.4688 56.9565 53.4076C56.8647 53.3464 56.773 53.2546 56.6812 53.1934C56.5894 53.1016 56.5282 53.0404 56.4364 52.9181C56.4364 52.9181 56.2223 52.7345 56.0999 52.6733C55.9775 52.5815 55.8551 52.5203 55.7021 52.4591C55.5798 52.398 55.4268 52.3368 55.3044 52.3062C55.1514 52.245 55.0291 52.2144 54.8761 52.1838L54.6619 52.1226H54.4478C54.4478 52.1226 54.2948 52.092 54.2336 52.0614H54.0194C54.0194 52.0614 53.7135 52.0614 53.5911 52.0614C53.4381 52.0614 53.3158 52.0614 53.1628 52.092L52.7345 52.1838C52.7345 52.1838 52.4591 52.2756 52.3367 52.3368L52.1226 52.398C52.1226 52.398 52.0002 52.4591 51.9084 52.4897L51.5107 52.6733C51.5107 52.6733 51.2353 52.8263 51.1129 52.8875L50.7152 53.1016C50.4704 53.2852 50.2257 53.4688 49.9503 53.6217C49.9503 53.6217 49.7362 53.6523 49.675 53.5606C49.6138 53.4688 49.6444 53.377 49.675 53.3158C49.9197 53.1016 50.1339 52.8569 50.3787 52.6427C50.501 52.5509 50.654 52.4591 50.7764 52.3368C50.8988 52.245 51.0517 52.1532 51.1741 52.0614L51.6024 51.8167C51.6024 51.8167 51.7554 51.7249 51.8166 51.6943L52.0614 51.6025C52.2143 51.5413 52.3673 51.4801 52.5203 51.4189L53.0098 51.2965C53.1628 51.2659 53.3464 51.2659 53.5299 51.2354C53.7135 51.2354 53.8665 51.2354 54.05 51.2354H54.2948C54.2948 51.2354 54.4478 51.2965 54.5395 51.3271L54.7843 51.3883L55.0291 51.4801C55.182 51.5413 55.3656 51.6025 55.488 51.6943C55.641 51.7555 55.7939 51.8472 55.9163 51.939C56.0387 52.0308 56.1917 52.1226 56.314 52.245C56.4364 52.3674 56.5588 52.4591 56.6812 52.6121C56.6812 52.6121 56.8036 52.7651 56.8953 52.8569C56.9871 52.9181 57.0483 53.0098 57.1401 53.071C57.2931 53.1934 57.4766 53.3158 57.6602 53.4076C57.752 53.4688 57.8438 53.4994 57.9662 53.53C58.0273 53.53 58.0579 53.53 58.1191 53.5606C58.1803 53.5606 58.2415 53.5606 58.2721 53.5606H58.4251H58.5781C58.6698 53.5606 58.7922 53.5606 58.9146 53.5606C58.9146 53.5606 59.1288 53.6217 59.1288 53.7441C59.1288 53.8665 59.0676 53.9583 58.9452 53.9583L58.9758 53.9889Z" fill="black"/>
<path d="M51.0823 54.0194C50.7458 53.1627 50.9599 52.4591 50.9905 52.4285L51.3577 52.5508C51.3577 52.5508 51.1741 53.1627 51.4495 53.8664L51.0823 54.0194Z" fill="black"/>
<path d="M52.9789 56.4059C52.9789 56.4059 52.9789 56.4059 52.9177 56.4059C51.4185 55.794 49.9194 54.1113 49.8582 54.0195C49.797 53.9583 49.8276 53.8665 49.8582 53.8359C49.9194 53.7747 50.0112 53.7747 50.0418 53.8359C50.0418 53.8359 51.5409 55.5492 52.9789 56.1305C53.0401 56.1305 53.1013 56.2529 53.0707 56.3141C53.0707 56.3753 52.9789 56.4059 52.9483 56.4059H52.9789Z" fill="black"/>
<path d="M64.4829 44.4126C64.4829 44.4126 62.6166 50.3786 66.3798 55.7327C70.2959 61.3315 69.2863 63.9627 69.2863 63.9627C69.2863 63.9627 65.8291 63.9627 65.4008 66.6856C64.9418 69.8369 66.8999 74.9156 73.233 72.9269C73.233 72.9269 77.2715 70.8771 75.65 63.4731C73.9979 56.0692 67.9095 48.91 70.1429 44.4126H64.5135H64.4829Z" fill="#FFCE57"/>
<path d="M70.5717 73.6613C68.9196 73.6613 67.5428 73.0494 66.5638 71.9174C65.187 70.3264 64.9422 68.1236 65.1564 66.6856C65.5235 64.1463 68.3383 63.7791 69.1031 63.7486C69.2255 63.1367 69.4397 60.5667 66.1966 55.9163C62.4029 50.501 64.2691 44.4432 64.2997 44.3821L64.3609 44.1985H70.5717L70.3881 44.5656C69.1031 47.1968 70.7552 50.807 72.6827 54.9678C73.9677 57.6908 75.2527 60.5361 75.9258 63.4732C77.6085 70.9995 73.57 73.1411 73.3864 73.2023H73.3558C72.3768 73.5389 71.4589 73.6919 70.6023 73.6919L70.5717 73.6613ZM64.6669 44.6574C64.3915 45.667 63.2595 50.8987 66.5638 55.5797C70.5105 61.2398 69.5314 63.9321 69.5009 64.0545L69.4397 64.2075H69.2867C69.2867 64.2075 66.013 64.2381 65.6459 66.7468C65.4623 68.0624 65.6765 70.0817 66.9309 71.5502C68.2771 73.1411 70.4493 73.5389 73.1416 72.6822C73.4476 72.5293 76.9354 70.4488 75.4056 63.5038C74.7632 60.6279 73.4782 57.8132 72.2238 55.0902C70.3269 50.9905 68.6748 47.4109 69.7762 44.6268H64.6975L64.6669 44.6574Z" fill="black"/>
<path d="M69.2557 68.9801C69.2557 68.9801 69.2863 68.9801 69.3781 68.9801C69.4393 68.9801 69.5616 69.0107 69.684 69.0413C69.8064 69.0413 69.99 69.1025 70.1735 69.1331C70.3571 69.1331 70.5713 69.1637 70.7854 69.1331C70.9078 69.1331 70.9996 69.1331 71.122 69.1331C71.2443 69.1025 71.3361 69.0719 71.4585 69.0413C71.6727 68.9801 71.8562 68.8272 72.0398 68.6742L72.1622 68.5212C72.1622 68.5212 72.2234 68.3988 72.254 68.3682L72.3152 68.2765V68.2153L72.4069 67.9705C72.4069 67.9705 72.4375 67.8175 72.4681 67.7564C72.4681 67.6952 72.4987 67.634 72.5293 67.5728C72.5293 67.4504 72.5905 67.2974 72.5905 67.1445C72.5905 66.8691 72.5599 66.5938 72.4681 66.3184C72.3763 66.043 72.2234 65.8289 72.0398 65.6147C71.948 65.5229 71.8562 65.4006 71.7645 65.3394C71.6421 65.2476 71.5503 65.1558 71.4585 65.0946C71.3361 65.0334 71.2443 64.9416 71.122 64.8804C70.9996 64.8193 70.9078 64.7581 70.7854 64.7275C70.5713 64.6357 70.3877 64.5439 70.1735 64.4827C69.99 64.4215 69.837 64.3603 69.684 64.3297C69.4087 64.2685 69.2557 64.2074 69.2557 64.2074C69.2557 64.2074 69.0415 64.0238 69.0721 63.9014C69.1027 63.779 69.2251 63.6872 69.3475 63.7178C69.3475 63.7178 69.531 63.7178 69.837 63.7484C69.99 63.7484 70.1735 63.8096 70.3877 63.8402C70.6019 63.8402 70.816 63.9626 71.0914 64.0238C71.2137 64.085 71.3361 64.1156 71.4891 64.1768C71.6115 64.238 71.7645 64.3297 71.8868 64.3909C72.0398 64.4521 72.1622 64.5745 72.2846 64.6663C72.4375 64.7581 72.5599 64.8804 72.6823 65.0028C72.9271 65.2782 73.1412 65.5841 73.2942 65.9513C73.4472 66.3184 73.5389 66.7161 73.5084 67.1139C73.5084 67.2974 73.4778 67.5116 73.4472 67.6952C73.386 67.8787 73.3554 68.0929 73.2942 68.2765L73.2024 68.4906V68.5518L73.1718 68.5824V68.6436L73.1106 68.766C73.1106 68.766 73.0188 68.9496 72.9577 69.0107C72.8965 69.1025 72.8353 69.1637 72.7741 69.2555C72.4987 69.5309 72.1622 69.745 71.8256 69.8368C71.4891 69.9592 71.1526 69.9592 70.8772 69.9286C70.6019 69.9286 70.3571 69.8674 70.1123 69.8062C69.8982 69.745 69.7146 69.6838 69.5922 69.6226C69.4393 69.5614 69.3475 69.5003 69.2557 69.4697C69.1639 69.4085 69.1333 69.4085 69.1333 69.4085C69.0109 69.3473 68.9803 69.1943 69.0415 69.0719C69.1027 68.9801 69.2251 68.919 69.3475 68.9496L69.2557 68.9801Z" fill="black"/>
<path d="M108.264 74.6709H100.86V44.5044L104.715 37.0393L108.264 44.5044V74.6709ZM101.564 73.9672H107.56V44.688L104.684 38.6608L101.564 44.688V73.9672Z" fill="black"/>
<path d="M104.807 37.8347H104.562V74.3037H104.807V37.8347Z" fill="black"/>
<path d="M103.706 39.7622H103.461V74.6403H103.706V39.7622Z" fill="black"/>
<path d="M105.847 40.0068H105.602V75.0073H105.847V40.0068Z" fill="black"/>
</g>
<rect x="7.25" y="31.8486" width="107" height="129" rx="5.5" stroke="black"/>
</g>
</g>
<rect x="0.5" y="0.848633" width="121" height="167.25" rx="10.5" stroke="#ADADAD"/>
<defs>
<clipPath id="clip0_2070_80633">
<rect x="1" y="1.34863" width="120" height="166.25" rx="10" fill="white"/>
</clipPath>
</defs>
</svg>
