<svg width="122" height="169" viewBox="0 0 122 169" fill="none" xmlns="http://www.w3.org/2000/svg">
<g clip-path="url(#clip0_2070_80613)">
<rect x="1" y="1.69727" width="120" height="166.25" rx="10" fill="white"/>
<mask id="mask0_2070_80613" style="mask-type:alpha" maskUnits="userSpaceOnUse" x="1" y="1" width="120" height="167">
<rect x="1" y="1.69727" width="120" height="166.25" fill="#D9D9D9"/>
</mask>
<g mask="url(#mask0_2070_80613)">
<path d="M9.592 22.6973V12.2573H6.982L8.332 10.0973H12.922V22.6973H9.592ZM20.7264 22.9853C17.1804 22.9853 14.7684 20.5013 14.7684 16.3793C14.7684 12.1313 17.0364 9.80927 20.7264 9.80927C24.4164 9.80927 26.6844 12.1313 26.6844 16.3793C26.6844 20.5013 24.2724 22.9853 20.7264 22.9853ZM18.3684 16.3793C18.3684 19.7093 19.3944 20.7533 20.7264 20.7533C22.0584 20.7533 23.0844 19.7093 23.0844 16.3793C23.0844 13.0313 22.1304 12.0413 20.7264 12.0413C19.3224 12.0413 18.3684 13.0313 18.3684 16.3793Z" fill="black"/>
<path d="M106.414 21.0578C106.504 20.9006 106.731 20.9006 106.822 21.0578L108.659 24.2398C108.75 24.3969 108.636 24.5933 108.455 24.5933H104.781C104.599 24.5933 104.486 24.3969 104.577 24.2398L106.414 21.0578Z" fill="black"/>
<path fill-rule="evenodd" clip-rule="evenodd" d="M110.407 12.5588C110.407 13.2191 110.242 13.8408 109.951 14.3849C110.073 14.3733 110.196 14.3674 110.321 14.3674C112.462 14.3674 114.197 16.1025 114.197 18.2429C114.197 20.3833 112.462 22.1184 110.321 22.1184C108.58 22.1184 107.107 20.9698 106.618 19.3889C106.129 20.9698 104.656 22.1184 102.915 22.1184C100.774 22.1184 99.0392 20.3833 99.0392 18.2429C99.0392 16.1025 100.774 14.3674 102.915 14.3674C102.979 14.3674 103.042 14.369 103.106 14.372C102.819 13.831 102.656 13.2139 102.656 12.5588C102.656 10.4185 104.391 8.68335 106.532 8.68335C108.672 8.68335 110.407 10.4185 110.407 12.5588Z" fill="black"/>
<path d="M58.701 110.947C59.2784 109.947 60.7218 109.947 61.2991 110.947L67.1066 121.006C67.6839 122.006 66.9622 123.256 65.8075 123.256H54.1926C53.0379 123.256 52.3162 122.006 52.8936 121.006L58.701 110.947Z" fill="black"/>
<path fill-rule="evenodd" clip-rule="evenodd" d="M74.1856 78.2052C74.1856 80.6768 73.5675 83.0041 72.4775 85.0409C72.9335 84.9977 73.3958 84.9756 73.8632 84.9756C81.8757 84.9756 88.3711 91.471 88.3711 99.4835C88.3711 107.496 81.8757 113.991 73.8632 113.991C67.3442 113.991 61.8295 109.692 60.0001 103.774C58.1707 109.692 52.6559 113.991 46.1369 113.991C38.1244 113.991 31.629 107.496 31.629 99.4835C31.629 91.471 38.1244 84.9756 46.1369 84.9756C46.3768 84.9756 46.6153 84.9814 46.8523 84.9929C45.7781 82.9676 45.1697 80.6574 45.1697 78.2052C45.1697 70.1927 51.6651 63.6973 59.6776 63.6973C67.6901 63.6973 74.1856 70.1927 74.1856 78.2052Z" fill="black"/>
</g>
</g>
<rect x="0.5" y="1.19727" width="121" height="167.25" rx="10.5" stroke="#ADADAD"/>
<defs>
<clipPath id="clip0_2070_80613">
<rect x="1" y="1.69727" width="120" height="166.25" rx="10" fill="white"/>
</clipPath>
</defs>
</svg>
