<svg width="122" height="169" viewBox="0 0 122 169" fill="none" xmlns="http://www.w3.org/2000/svg">
<g clip-path="url(#clip0_2070_80606)">
<rect x="1" y="1.69727" width="120" height="166.25" rx="10" fill="white"/>
<mask id="mask0_2070_80606" style="mask-type:alpha" maskUnits="userSpaceOnUse" x="1" y="1" width="120" height="167">
<rect x="1" y="1.69727" width="120" height="166.25" fill="#D9D9D9"/>
</mask>
<g mask="url(#mask0_2070_80606)">
<path d="M13.48 22.9853C9.466 22.9853 7.666 21.1853 7.486 18.8273H11.356C11.464 20.0693 12.184 20.7893 13.48 20.7893C14.758 20.7893 15.424 20.1053 15.424 19.0973C15.424 18.0533 14.758 17.3693 13.372 17.3693H11.662V15.1733H13.372C14.668 15.1733 15.352 14.4713 15.352 13.5713C15.352 12.6713 14.686 11.9873 13.372 11.9873C12.058 11.9873 11.446 12.5993 11.32 13.6073H7.684C7.864 11.4653 9.502 9.82727 13.372 9.82727C17.206 9.82727 18.808 11.4293 18.808 13.3913C18.808 14.9213 17.764 15.9833 16.18 16.1993V16.2353C18.052 16.3613 19.204 17.5133 19.204 19.1873C19.204 21.2573 17.494 22.9853 13.48 22.9853Z" fill="black"/>
<path d="M106.414 21.0577C106.504 20.9006 106.731 20.9006 106.822 21.0577L108.659 24.2397C108.75 24.3969 108.636 24.5933 108.455 24.5933H104.781C104.599 24.5933 104.486 24.3969 104.577 24.2397L106.414 21.0577Z" fill="black"/>
<path fill-rule="evenodd" clip-rule="evenodd" d="M110.407 12.5589C110.407 13.2191 110.242 13.8408 109.951 14.3849C110.073 14.3733 110.196 14.3674 110.321 14.3674C112.462 14.3674 114.197 16.1025 114.197 18.2429C114.197 20.3833 112.462 22.1184 110.321 22.1184C108.58 22.1184 107.107 20.9699 106.618 19.3889C106.129 20.9699 104.656 22.1184 102.915 22.1184C100.774 22.1184 99.0392 20.3833 99.0392 18.2429C99.0392 16.1025 100.774 14.3674 102.915 14.3674C102.979 14.3674 103.042 14.369 103.106 14.3721C102.819 13.831 102.656 13.2139 102.656 12.5589C102.656 10.4185 104.391 8.68338 106.532 8.68338C108.672 8.68338 110.407 10.4185 110.407 12.5589Z" fill="black"/>
<path d="M58.701 110.947C59.2784 109.947 60.7218 109.947 61.2991 110.947L67.1066 121.006C67.6839 122.006 66.9622 123.256 65.8075 123.256H54.1926C53.0379 123.256 52.3162 122.006 52.8936 121.006L58.701 110.947Z" fill="black"/>
<path fill-rule="evenodd" clip-rule="evenodd" d="M74.1856 78.2052C74.1856 80.6769 73.5675 83.0042 72.4775 85.041C72.9335 84.9978 73.3958 84.9756 73.8632 84.9756C81.8757 84.9756 88.3711 91.4711 88.3711 99.4836C88.3711 107.496 81.8757 113.991 73.8632 113.991C67.3442 113.991 61.8295 109.692 60.0001 103.774C58.1707 109.692 52.6559 113.991 46.1369 113.991C38.1244 113.991 31.629 107.496 31.629 99.4836C31.629 91.4711 38.1244 84.9756 46.1369 84.9756C46.3768 84.9756 46.6153 84.9815 46.8523 84.993C45.7781 82.9676 45.1697 80.6575 45.1697 78.2052C45.1697 70.1927 51.6651 63.6973 59.6776 63.6973C67.6901 63.6973 74.1856 70.1927 74.1856 78.2052Z" fill="black"/>
</g>
</g>
<rect x="0.5" y="1.19727" width="121" height="167.25" rx="10.5" stroke="#ADADAD"/>
<defs>
<clipPath id="clip0_2070_80606">
<rect x="1" y="1.69727" width="120" height="166.25" rx="10" fill="white"/>
</clipPath>
</defs>
</svg>
