<svg width="122" height="169" viewBox="0 0 122 169" fill="none" xmlns="http://www.w3.org/2000/svg">
<g clip-path="url(#clip0_2070_80624)">
<rect x="1" y="1.69727" width="120" height="166.25" rx="10" fill="white"/>
<mask id="mask0_2070_80624" style="mask-type:alpha" maskUnits="userSpaceOnUse" x="1" y="1" width="120" height="167">
<rect x="1" y="1.69727" width="120" height="166.25" fill="#D9D9D9"/>
</mask>
<g mask="url(#mask0_2070_80624)">
<path d="M13.48 22.9853C9.466 22.9853 7.666 21.1853 7.486 18.8273H11.356C11.464 20.0693 12.184 20.7893 13.48 20.7893C14.758 20.7893 15.424 20.1053 15.424 19.0973C15.424 18.0533 14.758 17.3693 13.372 17.3693H11.662V15.1733H13.372C14.668 15.1733 15.352 14.4713 15.352 13.5713C15.352 12.6713 14.686 11.9873 13.372 11.9873C12.058 11.9873 11.446 12.5993 11.32 13.6073H7.684C7.864 11.4653 9.502 9.82727 13.372 9.82727C17.206 9.82727 18.808 11.4293 18.808 13.3913C18.808 14.9213 17.764 15.9833 16.18 16.1993V16.2353C18.052 16.3613 19.204 17.5133 19.204 19.1873C19.204 21.2573 17.494 22.9853 13.48 22.9853Z" fill="#F50032"/>
<rect x="98.5" y="16.6973" width="11.3137" height="11.3137" rx="0.471405" transform="rotate(-45 98.5 16.6973)" fill="#F50032"/>
<rect x="30.75" y="93.6973" width="42.4264" height="42.4264" rx="3" transform="rotate(-45 30.75 93.6973)" fill="#F50032"/>
</g>
</g>
<rect x="0.5" y="1.19727" width="121" height="167.25" rx="10.5" stroke="#ADADAD"/>
<defs>
<clipPath id="clip0_2070_80624">
<rect x="1" y="1.69727" width="120" height="166.25" rx="10" fill="white"/>
</clipPath>
</defs>
</svg>
