<svg width="122" height="169" viewBox="0 0 122 169" fill="none" xmlns="http://www.w3.org/2000/svg">
<g clip-path="url(#clip0_2070_80629)">
<rect x="1" y="1.69727" width="120" height="166.25" rx="10" fill="white"/>
<mask id="mask0_2070_80629" style="mask-type:alpha" maskUnits="userSpaceOnUse" x="1" y="1" width="120" height="167">
<rect x="1" y="1.69727" width="120" height="166.25" fill="#D9D9D9"/>
</mask>
<g mask="url(#mask0_2070_80629)">
<path d="M13.462 22.9853C9.322 22.9853 7.702 21.3653 7.702 19.2413C7.702 17.4773 8.728 16.4333 10.744 16.1273V16.0913C9.034 15.9113 8.008 14.9033 8.008 13.4273C8.008 11.3393 9.538 9.80927 13.462 9.80927C17.386 9.80927 18.916 11.3393 18.916 13.4273C18.916 14.9033 17.89 15.9113 16.18 16.0913V16.1273C18.196 16.4333 19.222 17.4773 19.222 19.2413C19.222 21.3653 17.602 22.9853 13.462 22.9853ZM11.392 19.0253C11.392 20.0873 12.13 20.8253 13.462 20.8253C14.794 20.8253 15.532 20.0873 15.532 19.0253C15.532 17.9633 14.794 17.2073 13.462 17.2073C12.13 17.2073 11.392 17.9633 11.392 19.0253ZM11.608 13.6073C11.608 14.5793 12.274 15.2453 13.462 15.2453C14.65 15.2453 15.316 14.5793 15.316 13.6073C15.316 12.6353 14.65 11.9693 13.462 11.9693C12.274 11.9693 11.608 12.6353 11.608 13.6073Z" fill="#F50032"/>
<rect x="98.5" y="16.6973" width="11.3137" height="11.3137" rx="0.471405" transform="rotate(-45 98.5 16.6973)" fill="#F50032"/>
<rect x="30.75" y="93.6973" width="42.4264" height="42.4264" rx="3" transform="rotate(-45 30.75 93.6973)" fill="#F50032"/>
</g>
</g>
<rect x="0.5" y="1.19727" width="121" height="167.25" rx="10.5" stroke="#ADADAD"/>
<defs>
<clipPath id="clip0_2070_80629">
<rect x="1" y="1.69727" width="120" height="166.25" rx="10" fill="white"/>
</clipPath>
</defs>
</svg>
