<svg width="122" height="169" viewBox="0 0 122 169" fill="none" xmlns="http://www.w3.org/2000/svg">
<g clip-path="url(#clip0_2070_80627)">
<rect x="1" y="1.69727" width="120" height="166.25" rx="10" fill="white"/>
<mask id="mask0_2070_80627" style="mask-type:alpha" maskUnits="userSpaceOnUse" x="1" y="1" width="120" height="167">
<rect x="1" y="1.69727" width="120" height="166.25" fill="#D9D9D9"/>
</mask>
<g mask="url(#mask0_2070_80627)">
<path d="M13.732 22.9853C9.898 22.9853 7.702 20.7893 7.702 16.7573C7.702 12.2393 10.15 9.80927 13.66 9.80927C17.062 9.80927 18.682 11.3213 19.168 13.6073H15.604C15.406 12.4733 14.758 11.9333 13.66 11.9333C12.328 11.9333 11.266 12.9593 11.212 15.7133C11.788 15.1013 12.868 14.5793 14.47 14.5793C17.746 14.5793 19.348 16.1813 19.348 18.5753C19.348 20.9333 17.332 22.9853 13.732 22.9853ZM11.464 18.7733C11.464 19.9433 12.256 20.7353 13.57 20.7353C14.884 20.7353 15.676 19.9433 15.676 18.7733C15.676 17.6033 14.884 16.8113 13.57 16.8113C12.256 16.8113 11.464 17.6033 11.464 18.7733Z" fill="#F50032"/>
<rect x="98.5" y="16.6973" width="11.3137" height="11.3137" rx="0.471405" transform="rotate(-45 98.5 16.6973)" fill="#F50032"/>
<rect x="30.75" y="93.6973" width="42.4264" height="42.4264" rx="3" transform="rotate(-45 30.75 93.6973)" fill="#F50032"/>
</g>
</g>
<rect x="0.5" y="1.19727" width="121" height="167.25" rx="10.5" stroke="#ADADAD"/>
<defs>
<clipPath id="clip0_2070_80627">
<rect x="1" y="1.69727" width="120" height="166.25" rx="10" fill="white"/>
</clipPath>
</defs>
</svg>
