<svg width="122" height="169" viewBox="0 0 122 169" fill="none" xmlns="http://www.w3.org/2000/svg">
<g clip-path="url(#clip0_2070_80646)">
<rect x="1" y="1.34863" width="120" height="166.25" rx="10" fill="white"/>
<mask id="mask0_2070_80646" style="mask-type:alpha" maskUnits="userSpaceOnUse" x="1" y="1" width="120" height="167">
<rect x="1" y="1.34863" width="120" height="166.25" fill="#D9D9D9"/>
</mask>
<g mask="url(#mask0_2070_80646)">
<path d="M16.936 22.3486L16.054 19.5406H11.176L10.24 22.3486H7.09L11.428 9.74863H16.306L20.536 22.3486H16.936ZM11.914 17.3266H15.352L13.696 12.0166L11.914 17.3266Z" fill="#F50032"/>
<rect x="98.5" y="16.3486" width="11.3137" height="11.3137" rx="0.471405" transform="rotate(-45 98.5 16.3486)" fill="#F50032"/>
<rect x="31.14" y="93.3486" width="42.4264" height="42.4264" rx="3" transform="rotate(-45 31.14 93.3486)" fill="#F50032"/>
<rect x="25.8405" y="93.3486" width="49.9209" height="49.9209" rx="5.25" transform="rotate(-45 25.8405 93.3486)" stroke="#F50032" stroke-width="1.5"/>
</g>
</g>
<rect x="0.5" y="0.848633" width="121" height="167.25" rx="10.5" stroke="#ADADAD"/>
<defs>
<clipPath id="clip0_2070_80646">
<rect x="1" y="1.34863" width="120" height="166.25" rx="10" fill="white"/>
</clipPath>
</defs>
</svg>
