<svg width="122" height="169" viewBox="0 0 122 169" fill="none" xmlns="http://www.w3.org/2000/svg">
<g clip-path="url(#clip0_2070_80630)">
<rect x="1" y="1.69727" width="120" height="166.25" rx="10" fill="white"/>
<mask id="mask0_2070_80630" style="mask-type:alpha" maskUnits="userSpaceOnUse" x="1" y="1" width="120" height="167">
<rect x="1" y="1.69727" width="120" height="166.25" fill="#D9D9D9"/>
</mask>
<g mask="url(#mask0_2070_80630)">
<path d="M13.246 22.9853C9.628 22.9853 7.792 21.1493 7.666 18.8273H11.446C11.554 20.1593 12.13 20.7353 13.246 20.7353C14.506 20.7353 15.37 19.9073 15.406 16.9913C14.92 17.4953 14.038 17.8373 12.67 17.8373C9.376 17.8373 7.756 16.2173 7.756 13.9673C7.756 11.6093 9.556 9.80927 13.12 9.80927C16.918 9.80927 19.06 11.9513 19.06 16.1813C19.06 20.5913 16.666 22.9853 13.246 22.9853ZM11.428 13.8233C11.428 14.8853 12.112 15.5873 13.3 15.5873C14.488 15.5873 15.19 14.8853 15.19 13.8233C15.19 12.7613 14.488 12.0593 13.3 12.0593C12.112 12.0593 11.428 12.7613 11.428 13.8233Z" fill="#F50032"/>
<rect x="98.5" y="16.6973" width="11.3137" height="11.3137" rx="0.471405" transform="rotate(-45 98.5 16.6973)" fill="#F50032"/>
<rect x="30.75" y="93.6973" width="42.4264" height="42.4264" rx="3" transform="rotate(-45 30.75 93.6973)" fill="#F50032"/>
</g>
</g>
<rect x="0.5" y="1.19727" width="121" height="167.25" rx="10.5" stroke="#ADADAD"/>
<defs>
<clipPath id="clip0_2070_80630">
<rect x="1" y="1.69727" width="120" height="166.25" rx="10" fill="white"/>
</clipPath>
</defs>
</svg>
