<svg width="122" height="169" viewBox="0 0 122 169" fill="none" xmlns="http://www.w3.org/2000/svg">
<g clip-path="url(#clip0_2070_80634)">
<rect x="1" y="1.34863" width="120" height="166.25" rx="10" fill="white"/>
<mask id="mask0_2070_80634" style="mask-type:alpha" maskUnits="userSpaceOnUse" x="1" y="1" width="120" height="167">
<rect x="1" y="1.34863" width="120" height="166.25" fill="#D9D9D9"/>
</mask>
<g mask="url(#mask0_2070_80634)">
<path d="M12.67 22.6366C9.772 22.6366 7.216 21.5386 7.216 18.3526H10.78C10.78 19.7926 11.716 20.4046 12.688 20.4046C14.218 20.4046 14.794 19.5586 14.794 18.0286V9.74863H18.124V18.2086C18.124 21.6646 15.748 22.6366 12.67 22.6366Z" fill="#F50032"/>
<rect x="98.5" y="16.3486" width="11.3137" height="11.3137" rx="0.471405" transform="rotate(-45 98.5 16.3486)" fill="#F50032"/>
<mask id="mask1_2070_80634" style="mask-type:alpha" maskUnits="userSpaceOnUse" x="6" y="31" width="109" height="131">
<rect x="6.75" y="31.3486" width="108" height="130" rx="6" fill="white"/>
</mask>
<g mask="url(#mask1_2070_80634)">
<path d="M7.23923 177.867V140.878H114.26V177.806L74.9455 193.807C73.9359 193.44 69.2854 191.849 63.5336 191.849C62.5852 191.849 61.6367 191.879 60.7495 191.971C60.413 191.971 56.9863 192.185 51.9688 194.97C51.7546 194.939 51.4181 194.878 50.9592 194.878C50.1943 194.878 49.0623 195 47.7467 195.52C47.7467 195.52 47.6855 195.52 47.6549 195.52C47.5326 195.52 47.1348 195.52 44.8708 196.132C44.626 196.193 42.362 196.683 41.536 197.019C41.0159 197.019 39.3637 197.05 38.2929 197.539L7.23923 177.867Z" fill="#FFCE57"/>
<path d="M113.771 141.398V177.5L74.9152 193.287C73.5996 192.828 69.041 191.359 63.5033 191.359C62.5549 191.359 61.6064 191.39 60.6886 191.482C60.2603 191.482 56.8031 191.726 51.8467 194.449C51.6325 194.449 51.296 194.388 50.9289 194.388C50.164 194.388 48.9708 194.511 47.6246 195.031C47.3493 195.031 46.768 195.092 44.7487 195.643C44.1062 195.765 42.3011 196.193 41.4139 196.53C40.7408 196.53 39.364 196.591 38.3238 196.989L7.72903 177.592V141.367H113.771M114.75 140.388H6.75V178.142L38.232 198.121C39.2111 197.57 41.0468 197.509 41.5057 197.509C41.5669 197.509 41.5975 197.509 41.5975 197.509C42.2399 197.172 44.9629 196.591 44.9629 196.591C46.768 196.102 47.4105 196.01 47.6246 196.01C47.7776 196.01 47.7164 196.071 47.7164 196.071C49.032 195.52 50.164 195.398 50.9595 195.398C51.6325 195.398 52.0609 195.49 52.0609 195.49C57.2926 192.553 60.7804 192.491 60.7804 192.491C61.7288 192.4 62.6467 192.369 63.5339 192.369C69.8976 192.369 74.9458 194.388 74.9458 194.388L114.75 178.173V140.419V140.388Z" fill="black"/>
<path d="M92.3546 154.829H67.175V155.808H92.3546V154.829Z" fill="black"/>
<path d="M93.7005 157.521H67.3278V158.501H93.7005V157.521Z" fill="black"/>
<path d="M94.0982 160.183H68.9187V161.162H94.0982V160.183Z" fill="black"/>
<path d="M38.232 198.121L6.75 178.142V140.388H58.4858L83.2064 190.992L74.1197 194.664C74.1197 194.664 66.9299 191.818 59.9543 193.562C59.9543 193.562 58.6388 193.685 53.4988 196.346C53.4988 196.346 49.2156 195.581 47.2881 196.255C47.2881 196.255 46.7068 196.102 43.6167 196.897C43.6167 196.897 41.3527 197.081 40.7102 197.417C40.7102 197.417 39.3334 197.448 38.232 198.09V198.121Z" fill="black"/>
<path d="M67.267 156.757C67.1446 156.175 67.0223 155.594 66.9611 154.982C66.3798 153.942 65.7067 152.932 65.003 151.923H32.3278V156.757H67.267Z" fill="white"/>
<path d="M61.3928 147.089C60.6586 146.11 59.9549 145.161 59.343 144.182C58.9147 143.54 58.6699 142.867 58.5475 142.255H32.3278V147.089H61.3928Z" fill="white"/>
<path d="M78.9232 192.338C73.6303 188.422 67.0524 181.263 65.3391 169.27C63.0751 153.299 52.2446 142.683 50.4089 141L50.623 140.756H62.1573C66.6853 146.507 72.3759 155.869 74.0892 168.016C76.0167 181.63 86.3883 186.923 89.2643 188.147L78.9232 192.338Z" fill="white"/>
<path d="M61.974 141.123C66.4408 146.844 72.0397 156.084 73.7224 168.077C75.5275 180.835 84.6447 186.372 88.3467 188.116L78.9847 191.91C73.7836 188.025 67.3893 180.957 65.7066 169.209C63.5649 154.034 53.744 143.662 51.0822 141.092H61.974M62.3105 140.388H50.4398L49.9196 141.031C49.9196 141.031 62.5247 152.014 64.9723 169.331C66.6856 181.447 73.2941 188.698 78.8623 192.767L90.06 188.208V188.116C90.06 188.116 76.5983 183.558 74.3955 167.985C72.6516 155.686 66.8997 146.263 62.2799 140.419L62.3105 140.388Z" fill="black"/>
<path d="M103.705 182.456L84.1859 140.388H106.336L109.855 176.001L103.705 182.456Z" fill="black"/>
<path d="M103.613 182.181C105.081 180.223 107.07 176.49 106.733 171.106L106.825 140.878H114.26V177.806L103.613 182.181Z" fill="#FFCE57"/>
<path d="M113.771 141.398V177.5L104.929 181.141C106.214 178.938 107.499 175.603 107.254 171.136L107.346 141.429H113.802M114.75 140.388H106.306L106.214 171.106C106.704 179.213 101.808 183.435 101.808 183.435L114.719 178.142V140.388H114.75Z" fill="black"/>
<path d="M70.3565 152.504C67.8477 147.089 64.88 143.203 61.5146 140.909H89.5088C89.9677 140.909 90.3654 141.551 90.3654 142.255V151.158C90.3654 151.862 89.9677 152.504 89.5088 152.504H70.3565Z" fill="#FFCE57"/>
<path d="M89.5091 141.429C89.5091 141.429 89.8456 141.735 89.8456 142.255V151.158C89.8456 151.678 89.6009 151.984 89.5091 151.984H70.6933C68.4904 147.303 65.9205 143.784 63.0752 141.398H89.5397M89.5091 140.388H59.6486C64.2684 142.775 67.6338 147.792 70.0202 153.024H89.5091C90.2739 153.024 90.8858 152.198 90.8858 151.158V142.255C90.8858 141.214 90.2739 140.388 89.5091 140.388Z" fill="black"/>
<path d="M73.7221 149.138C72.7737 147.333 71.7641 145.651 70.4485 144.274H86.0518V149.138H73.7221Z" fill="#FFCE57"/>
<path d="M84.8282 145.528V147.945H74.4871C74.0282 147.119 73.5693 146.293 73.0492 145.528H84.8588M86.3885 143.05H66.7161C69.7449 144.427 71.3971 147.364 72.988 150.393H86.3885C86.878 150.393 87.2758 149.903 87.2758 149.291V144.121C87.2758 143.54 86.878 143.05 86.3885 143.05Z" fill="black"/>
<path d="M7.23923 177.378V141.704H36.2737V195.306L36.1819 195.429L7.23923 177.378Z" fill="#F50032"/>
<path d="M35.7844 142.224V194.602L7.72903 177.102V142.224H35.7844ZM36.7635 141.214H6.75V177.653L36.274 196.071L36.7635 195.49V141.214Z" fill="black"/>
<path d="M26.6368 142.132H33.2147V193.011L26.6368 188.881V142.132Z" fill="#FFCE57"/>
<path d="M33.4589 193.44L26.3915 189.034V141.888H33.4589V193.44ZM26.8811 188.759L32.9694 192.553V142.377H26.8811V188.759Z" fill="black"/>
<path d="M17.7645 141.214H24.3424V188.208L17.7951 184.537L17.7645 141.214Z" fill="black"/>
<path d="M9.59537 142.132H15.8673V182.303L9.59537 178.51V142.132Z" fill="white"/>
<path d="M16.1123 182.762L9.32028 178.663V141.888H16.1123V182.762ZM9.84039 178.387L15.6534 181.875V142.377H9.84039V178.357V178.387Z" fill="black"/>
<path d="M77.9439 43.9536C77.9439 43.9536 76.0471 49.9196 79.8408 55.2737C83.757 60.8725 82.7473 63.5037 82.7473 63.5037C82.7473 63.5037 79.2595 63.5037 78.8618 66.2572C78.4029 69.4085 80.3609 74.4872 86.6941 72.4985C86.6941 72.4985 90.7326 70.4487 89.111 63.0448C87.4589 55.6408 81.3706 48.451 83.604 43.9842H77.9745L77.9439 43.9536Z" fill="#F50032"/>
<path d="M84.0326 73.1716C82.3804 73.1716 81.0037 72.5597 80.0246 71.4277C78.6479 69.8368 78.4031 67.6339 78.6173 66.196C78.9844 63.6566 81.7991 63.2895 82.5334 63.2589C82.6558 62.647 82.87 60.077 79.6269 55.4266C75.8332 50.0113 77.6994 43.923 77.73 43.8618L77.7912 43.6782H84.002L83.8184 44.0454C82.5334 46.6765 84.1855 50.2561 86.113 54.4476C87.398 57.1705 88.683 60.0158 89.3561 62.9529C91.0388 70.4793 87.0003 72.5903 86.8167 72.6821H86.7861C85.8071 73.0186 84.8892 73.1716 84.0326 73.1716ZM78.1278 44.1983C77.8524 45.208 76.7204 50.4397 80.0246 55.1207C83.9714 60.7807 82.9923 63.473 82.9617 63.5954L82.9006 63.7484H82.7476C82.7476 63.7484 79.4739 63.7484 79.1068 66.2878C78.9232 67.6033 79.1068 69.6226 80.3918 71.1217C81.738 72.7127 83.9102 73.1104 86.6025 72.2537C86.9085 72.1008 90.4269 70.0203 88.8665 63.0753C88.224 60.1994 86.9391 57.3847 85.6847 54.6923C83.7878 50.5926 82.1357 47.0131 83.2371 44.2289H78.1584L78.1278 44.1983Z" fill="black"/>
<path d="M72.4676 44.4126C72.4676 44.4126 70.5707 50.3786 74.3645 55.7327C78.2806 61.3315 77.271 63.9627 77.271 63.9627C77.271 63.9627 73.7832 63.9627 73.3854 66.6856C72.9265 69.8369 74.8846 74.9156 81.2177 72.9269C81.2177 72.9269 85.2868 70.8771 83.6347 63.4731C81.9826 56.0692 75.8942 48.91 78.1276 44.4126H72.4982H72.4676Z" fill="#F50032"/>
<path d="M78.5561 73.6613C76.904 73.6613 75.5272 73.0494 74.5482 71.9174C73.1714 70.3264 72.9267 68.1236 73.1408 66.6856C73.508 64.1463 76.3227 63.7791 77.0876 63.7486C77.2099 63.1367 77.4241 60.5667 74.1811 55.9163C70.3873 50.501 72.2536 44.4432 72.2842 44.3821L72.3454 44.1985H78.5561L78.3725 44.5656C77.0876 47.1968 78.7397 50.807 80.6671 54.9678C81.9521 57.6908 83.2371 60.5361 83.9102 63.4732C85.5929 70.9995 81.5544 73.1411 81.3708 73.2023H81.3402C80.3612 73.5389 79.4434 73.6919 78.5867 73.6919L78.5561 73.6613ZM72.6513 44.6574C72.4066 45.667 71.244 50.8987 74.5482 55.5797C78.4949 61.2398 77.5159 63.9321 77.4853 64.0545L77.4241 64.2075H77.2711C77.2711 64.2075 73.9975 64.2381 73.6303 66.7468C73.4468 68.0624 73.6303 70.0817 74.9153 71.5502C76.2615 73.1411 78.4337 73.5389 81.1261 72.6822C81.432 72.5293 84.9198 70.4488 83.3901 63.5038C82.7476 60.6279 81.432 57.8132 80.1776 55.0902C78.2808 50.9905 76.6286 47.4109 77.73 44.6268H72.6513V44.6574Z" fill="black"/>
<path d="M68.1847 44.4126C68.1847 44.4126 66.2879 50.3786 70.051 55.7327C73.9671 61.3315 72.9575 63.9627 72.9575 63.9627C72.9575 63.9627 69.5003 63.9627 69.072 66.6856C68.6131 69.8369 70.5711 74.9156 76.9042 72.9269C76.9042 72.9269 80.9428 70.8771 79.3212 63.4731C77.6691 56.0692 71.5808 48.91 73.8142 44.4126H68.1847Z" fill="#F50032"/>
<path d="M74.2426 73.6613C72.5905 73.6613 71.2137 73.0494 70.2347 71.9174C68.8579 70.3264 68.6132 68.1236 68.8273 66.6856C69.1945 64.1463 72.0092 63.7791 72.774 63.7486C72.8964 63.1367 73.1106 60.5667 69.8675 55.9163C66.0738 50.501 67.9401 44.4432 67.9707 44.3821L68.0319 44.1985H74.2426L74.059 44.5656C72.7435 47.1968 74.4262 50.807 76.3536 54.9678C77.608 57.6908 78.9236 60.5361 79.5661 63.4732C81.2488 70.9995 77.2103 73.1411 77.0267 73.2023H76.9961C76.0171 73.5389 75.0993 73.6919 74.2426 73.6919V73.6613ZM68.3684 44.6574C68.0931 45.667 66.961 50.8987 70.2653 55.5797C74.212 61.2398 73.233 63.9321 73.2024 64.0545L73.1412 64.2075H72.9576C72.9576 64.2075 69.684 64.2381 69.3168 66.7468C69.1333 68.0624 69.3474 70.0817 70.6018 71.5502C71.9786 73.1411 74.1202 73.5389 76.8126 72.6822C77.1185 72.5293 80.6369 70.4488 79.0766 63.5038C78.4341 60.6279 77.1491 57.8132 75.8641 55.0902C73.9672 50.9905 72.3151 47.4109 73.4165 44.6268H68.3378L68.3684 44.6574Z" fill="black"/>
<path d="M111.292 74.3037H97.8614V76.6901H111.292V74.3037Z" fill="black"/>
<path d="M46.6458 60.8113C46.6458 60.8113 49.5217 60.1994 50.4701 61.6986C50.4701 61.6986 49.0015 62.3105 48.0225 60.9949C48.0225 60.9949 47.0741 60.689 46.6458 60.8113Z" fill="black"/>
<path d="M48.7261 68.5825C49.4298 68.7049 50.47 68.8884 51.3879 68.3989C51.3879 68.3989 50.1335 70.3264 47.9307 69.5003L48.7261 68.5825Z" fill="black"/>
<path d="M56.0081 76.5066C51.7554 76.5066 48.6347 75.4358 48.5736 75.4052C47.8393 75.2216 47.3192 74.7933 47.0438 74.1508C46.3095 72.4069 47.7475 69.531 48.1758 68.7049C47.4415 67.7259 47.7781 66.135 47.8699 65.676L47.5333 64.9112L47.7781 63.0143C45.6365 62.4636 44.3821 61.6987 44.0149 60.6891C43.709 59.863 44.1373 59.1899 44.1679 59.1899L47.3498 53.8359C47.258 53.2546 46.8297 50.8376 46.7685 50.1339C46.5849 48.5124 47.7781 43.8926 47.8393 43.709L48.5124 43.8926C48.5124 43.8926 47.2886 48.543 47.4721 50.0421C47.5639 50.807 48.084 53.8053 48.084 53.8359V53.9582L44.7492 59.5571C44.7492 59.5877 44.4739 59.9854 44.6574 60.4443C44.8716 60.995 45.667 61.7905 48.237 62.4024L48.543 62.4636L48.237 64.7888L48.6041 65.5843V65.7066C48.4206 66.2267 48.1758 67.7565 48.8183 68.3684L49.0019 68.5519L48.8795 68.7967C48.3288 69.7146 47.0438 72.4681 47.6557 73.8448C47.8393 74.2732 48.2064 74.5485 48.7571 74.7015C48.8795 74.7627 59.4347 78.3423 67.7871 72.1009L68.1848 72.6516C64.1769 75.6499 59.6489 76.476 55.9775 76.476L56.0081 76.5066Z" fill="black"/>
<path d="M83.8797 41.3225H47.6249V44.229H83.8797V41.3225Z" fill="white"/>
<path d="M84.0633 44.4126H47.4108V41.1084H84.0633V44.4126ZM47.8085 44.0149H83.6656V41.5061H47.8085V44.0149Z" fill="black"/>
<path d="M48.0231 39.2727C47.7478 38.0183 46.677 34.2551 43.8622 31.8381H87.6128C84.7981 34.2551 83.7578 38.0183 83.4519 39.2727H47.9925H48.0231Z" fill="#FFCE57"/>
<path d="M86.4196 32.3277C84.4003 34.5611 83.4519 37.4064 83.0847 38.7832H48.4209C48.0537 37.4064 47.1359 34.5611 45.086 32.3277H86.4196ZM89.1731 31.3486H42.3325C46.5852 33.8268 47.6254 39.7622 47.6254 39.7622H83.8802C83.8802 39.7622 84.9204 33.7962 89.1731 31.3486Z" fill="black"/>
<path d="M46.6456 36.6416C46.6456 36.6416 47.6247 40.4965 47.6247 41.3226H83.8795C83.8795 41.3226 84.1548 37.5594 84.6138 36.6416H46.6151H46.6456Z" fill="black"/>
<path d="M7.23923 128.181V91.2532L46.5535 75.2522C47.5326 75.6193 52.2136 77.2102 57.9654 77.2102C58.9138 77.2102 59.8623 77.149 60.7495 77.0879C61.0555 77.0879 64.5127 76.8737 69.5302 74.0896C69.7138 74.0896 70.0809 74.1508 70.5398 74.1508C71.3047 74.1508 72.4367 74.0284 73.7523 73.5083C73.7829 73.5083 73.8135 73.5083 73.8441 73.5083C73.9665 73.5083 74.3642 73.5083 76.6282 72.8964C76.873 72.8352 79.137 72.3457 79.963 72.0091C80.4831 72.0091 82.1353 71.9785 83.2061 71.489L114.229 91.1615V128.151H7.23923V128.181Z" fill="#FFCE57"/>
<path d="M83.2064 72.0702L113.771 91.4673V127.692H7.72903V91.5897L46.5538 75.7722C47.8694 76.2311 52.428 77.6997 57.9657 77.6997C58.9141 77.6997 59.8625 77.6385 60.7804 77.5773C61.2087 77.5773 64.6659 77.3325 69.6223 74.6096C69.8364 74.6096 70.173 74.6708 70.5401 74.6708C71.305 74.6708 72.4982 74.5484 73.8444 74.0283C74.1197 74.0283 74.701 73.9671 76.7203 73.4164C77.3628 73.294 79.1679 72.8657 80.0551 72.5292C80.7282 72.5292 82.1049 72.468 83.1758 72.0702M83.2676 70.9382C82.3191 71.4889 80.4528 71.5501 79.9939 71.5501H79.9021C79.2596 71.8867 76.5367 72.468 76.5367 72.468C74.7316 72.9575 74.0891 73.0493 73.875 73.0493C73.722 73.0493 73.7832 73.0187 73.7832 73.0187C72.4676 73.5694 71.3356 73.6918 70.5401 73.6918C69.867 73.6918 69.4387 73.6 69.4387 73.6C64.207 76.5065 60.6886 76.5983 60.6886 76.5983C59.7708 76.6901 58.8223 76.7206 57.9351 76.7206C51.5714 76.7206 46.5232 74.7014 46.5232 74.7014L6.75 90.9166V128.671H114.75V90.9166L83.2676 70.9382Z" fill="black"/>
<path d="M54.2946 113.22H29.1457V114.199H54.2946V113.22Z" fill="black"/>
<path d="M54.1726 110.559H27.7999V111.538H54.1726V110.559Z" fill="black"/>
<path d="M52.5809 107.866H27.4014V108.845H52.5809V107.866Z" fill="black"/>
<path d="M50.9291 105.205H25.7802V106.184H50.9291V105.205Z" fill="black"/>
<path d="M49.3073 102.512H24.1584V103.491H49.3073V102.512Z" fill="black"/>
<path d="M47.7163 99.8503H22.5368V100.829H47.7163V99.8503Z" fill="black"/>
<path d="M47.5639 97.158H22.4149V98.137H47.5639V97.158Z" fill="black"/>
<path d="M45.8193 91.804H19.6607V92.783H45.8193V91.804Z" fill="black"/>
<path d="M83.2677 70.9382L114.75 90.9166V128.671H63.014L38.2934 78.0668L47.38 74.3954C47.38 74.3954 54.5392 77.2408 61.5454 75.4969C61.5454 75.4969 62.861 75.3745 68.0009 72.7127C68.0009 72.7127 72.2842 73.4776 74.2116 72.8045C74.2116 72.8045 74.8235 72.9881 77.883 72.162C77.883 72.162 80.147 71.9785 80.7895 71.6419C80.7895 71.6419 82.1663 71.6419 83.2677 70.9688V70.9382Z" fill="black"/>
<path d="M46.5537 83.2986V86.5416C47.5021 86.817 48.3588 87.3677 48.9707 88.1326H89.1722V83.2986H46.5537Z" fill="white"/>
<path d="M50.0722 92.9666C50.0722 94.5881 50.164 96.179 50.2252 97.8005H89.1723V92.9666H50.0722Z" fill="white"/>
<path d="M50.5621 102.635C50.6845 103.828 50.7763 105.052 50.9292 106.245C50.9292 106.245 50.9598 106.275 50.9904 106.306C51.3882 106.673 51.7247 107.071 52.0612 107.468H89.1727V102.635H50.5621Z" fill="white"/>
<path d="M54.2026 112.302C54.325 112.884 54.4474 113.465 54.5085 114.077C55.1204 115.117 55.7935 116.127 56.4666 117.136H89.1418V112.302H54.172H54.2026Z" fill="white"/>
<path d="M60.1071 121.97C60.8414 122.949 61.5451 123.898 62.157 124.877C62.5853 125.519 62.8301 126.162 62.9524 126.804H89.1722V121.97H60.1071Z" fill="white"/>
<path d="M59.3427 128.304C54.8147 122.552 49.124 113.19 47.4107 101.044C45.4833 87.4289 35.1116 82.136 32.2357 80.9122L42.5768 76.7207C47.8696 80.6368 54.4475 87.796 56.1608 99.7892C58.4248 115.79 69.2554 126.376 71.0911 128.059L70.8769 128.304H59.3733H59.3427Z" fill="white"/>
<path d="M42.5157 77.1185C47.7474 81.004 54.1111 88.0714 55.7938 99.8198C57.9355 114.995 67.7564 125.366 70.4487 127.936H59.557C55.0901 122.215 49.4913 112.976 47.8086 100.982C46.0035 88.2244 36.8863 82.6867 33.1843 80.9428L42.5463 77.1491M42.6075 76.323L31.4098 80.8816V81.004C31.4098 81.004 44.8715 85.5626 47.0437 101.105C48.7876 113.404 54.5394 122.858 59.1593 128.671H71.03L71.5501 128.028C71.5501 128.028 58.9451 117.045 56.4975 99.728C54.7842 87.6125 48.1757 80.3615 42.6075 76.323Z" fill="black"/>
<path d="M17.7953 86.6028L37.2841 128.671H15.1641L11.6457 93.0583L17.7953 86.6028Z" fill="black"/>
<path d="M7.23923 128.181V91.2532L17.8862 86.8782C16.4177 88.8362 14.429 92.5688 14.7655 97.9535L14.6738 128.151H7.23923V128.181Z" fill="#FFCE57"/>
<path d="M16.5709 87.9491C15.2859 90.1519 14.001 93.4867 14.2457 97.9841L14.1539 127.692H7.72903V91.5898L16.5709 87.9491ZM19.661 85.5933L6.75 90.9168V128.671H15.1636L15.2553 97.9536C14.7658 89.8459 19.661 85.6239 19.661 85.6239V85.5933Z" fill="black"/>
<path d="M31.9907 128.151C31.5318 128.151 31.134 127.508 31.134 126.805V117.871C31.134 117.167 31.5318 116.525 31.9907 116.525H51.143C53.6518 121.94 56.6195 125.825 59.9849 128.12H31.9907V128.151Z" fill="#FFCE57"/>
<path d="M50.8067 117.045C53.0095 121.726 55.5794 125.275 58.4554 127.63H31.9909C31.9909 127.63 31.6543 127.324 31.6543 126.804V117.871C31.6543 117.35 31.8991 117.045 31.9909 117.045H50.8067ZM51.4798 116.035H31.9909C31.226 116.035 30.6141 116.861 30.6141 117.901V126.835C30.6141 127.875 31.226 128.701 31.9909 128.701H61.8514C57.2316 126.315 53.8661 121.267 51.4798 116.066V116.035Z" fill="black"/>
<path d="M35.4485 124.785V119.92H47.7782C48.7266 121.695 49.7362 123.408 51.0212 124.785H35.4485Z" fill="#FFCE57"/>
<path d="M47.0432 121.144C47.5021 121.97 47.9611 122.766 48.4812 123.531H36.6716V121.144H47.0126M48.5118 118.666H35.1112C34.6217 118.666 34.224 119.156 34.224 119.737V124.907C34.224 125.489 34.6217 125.978 35.1112 125.978H54.7837C51.7548 124.571 50.1027 121.664 48.5118 118.635V118.666Z" fill="black"/>
<path d="M45.9728 94.4963H20.7933V95.4754H45.9728V94.4963Z" fill="black"/>
<path d="M85.1957 127.355V73.753L85.3181 73.6306L114.261 91.6815V127.355H85.1957Z" fill="#F50032"/>
<path d="M85.7152 74.4568L113.771 91.9571V126.835H85.7152V74.4568ZM85.2256 72.9883L84.7055 73.5696V127.845H114.75V91.4063L85.2256 72.9883Z" fill="black"/>
<path d="M94.8629 126.927H88.285V76.0476L94.8629 80.1779V126.927Z" fill="#FFCE57"/>
<path d="M95.108 127.172H88.0406V75.6194L95.108 80.025V127.172ZM88.5301 126.682H94.6185V80.3004L88.5301 76.5066V126.682Z" fill="black"/>
<path d="M103.736 127.845H97.158V80.8511L103.705 84.5225L103.736 127.845Z" fill="black"/>
<path d="M111.904 126.927H105.602V86.7251L111.904 90.5494V126.927Z" fill="white"/>
<path d="M112.149 127.172H105.357V86.2969L112.149 90.3966V127.172ZM105.847 126.682H111.629V90.7025L105.847 87.1841V126.682Z" fill="black"/>
<path d="M114.75 127.349H6.74997V161.349H114.75V127.349Z" fill="#F50032"/>
<path d="M113.75 156.349H6.74997V160.349H113.75V156.349Z" fill="black"/>
<path d="M116.25 140.349V139.849H115.75H3.74997H3.24997V140.349V144.349V144.849H3.74997H115.75H116.25V144.349V140.349Z" fill="#FFCE57" stroke="black"/>
<path d="M116.25 149.349V148.849H115.75H3.74997H3.24997V149.349V152.349V152.849H3.74997H115.75H116.25V152.349V149.349Z" fill="white" stroke="black"/>
<path d="M114.26 127.661H7.23923V140.511H114.26V127.661Z" fill="#F50032"/>
<path d="M113.771 128.181V140.052H7.72903V128.181H113.771ZM114.75 127.171H6.75V141H114.75V127.171Z" fill="black"/>
<path d="M71.5804 127.11H54.3862V141.031H71.5804V127.11Z" fill="#F50032"/>
<path d="M72.1 141.52H53.8655V126.59H72.1V141.52ZM54.8752 140.48H71.0598V127.6H54.8752V140.48Z" fill="black"/>
<path d="M69.4693 128.793H56.4665V139.318H69.4693V128.793Z" fill="black"/>
<path d="M44.3824 136.686C44.8107 135.677 45.0249 134.545 45.0249 133.382C45.0249 128.609 41.1699 124.724 36.4277 124.724C31.6855 124.724 27.8306 128.609 27.8306 133.382C27.8306 135.096 28.3201 136.686 29.1768 138.002L36.4583 151.494L44.413 136.686H44.3824Z" fill="#FFCE57"/>
<path d="M36.4272 152.443L28.7785 138.247C27.8606 136.809 27.3711 135.096 27.3711 133.382C27.3711 128.365 31.4402 124.296 36.4272 124.296C41.4141 124.296 45.4832 128.365 45.4832 133.382C45.4832 134.576 45.2385 135.769 44.8102 136.84L36.4578 152.412L36.4272 152.443ZM36.4272 125.183C31.9297 125.183 28.2584 128.854 28.2584 133.382C28.2584 134.943 28.6867 136.472 29.5434 137.788L36.4272 150.577L43.9841 136.503C44.3818 135.524 44.596 134.453 44.596 133.382C44.596 128.854 40.9246 125.183 36.4272 125.183Z" fill="black"/>
<path d="M44.3824 136.686C44.8107 135.677 45.0249 134.545 45.0249 133.382C45.0249 128.609 41.1699 124.724 36.4277 124.724C31.6855 124.724 27.8306 128.609 27.8306 133.382C27.8306 135.096 28.3201 136.686 29.1768 138.002C29.1768 138.002 29.3603 129.68 36.4583 129.497C36.4583 129.497 44.26 129.497 43.3727 138.645L44.413 136.686H44.3824Z" fill="white"/>
<path d="M42.6685 140.786L42.8827 138.614C43.158 135.799 42.6073 133.596 41.2306 132.097C39.3031 129.986 36.4272 129.956 36.3966 129.956C29.8187 130.139 29.5739 137.727 29.5739 138.033V139.471L28.7785 138.247C27.8606 136.778 27.3711 135.096 27.3711 133.382C27.3711 128.365 31.4402 124.296 36.4272 124.296C41.4141 124.296 45.4832 128.365 45.4832 133.382C45.4832 134.576 45.2385 135.769 44.8102 136.84L42.7297 140.756L42.6685 140.786ZM36.3966 129.068C36.5496 129.068 39.7314 129.099 41.9036 131.485C43.0968 132.801 43.7393 134.575 43.8311 136.778L43.9841 136.472C44.3818 135.493 44.596 134.423 44.596 133.352C44.596 128.824 40.9246 125.152 36.4272 125.152C31.9297 125.152 28.2584 128.824 28.2584 133.352C28.2584 134.453 28.4725 135.524 28.8703 136.534C29.3292 134.055 30.8895 129.191 36.3966 129.038V129.068Z" fill="black"/>
<path d="M41.3219 142.347C41.5667 141.704 41.7196 141.031 41.7196 140.297C41.7196 137.329 39.3333 134.943 36.3962 134.943C33.4591 134.943 31.0727 137.329 31.0727 140.297C31.0727 141.337 31.3786 142.316 31.8987 143.173L36.3962 151.525L41.3219 142.347Z" fill="#FFCE57"/>
<path d="M36.3968 152.198L31.624 143.325C31.0427 142.408 30.7673 141.367 30.7673 140.297C30.7673 137.145 33.3067 134.606 36.4274 134.606C39.548 134.606 42.0874 137.145 42.0874 140.297C42.0874 141.031 41.9344 141.765 41.6591 142.469L36.4274 152.198H36.3968ZM36.3968 135.279C33.6432 135.279 31.4098 137.543 31.4098 140.297C31.4098 141.245 31.6852 142.193 32.1747 142.989L36.3968 150.821L41.0166 142.193C41.2613 141.582 41.3837 140.939 41.3837 140.297C41.3837 137.512 39.1503 135.279 36.3968 135.279Z" fill="black"/>
<path d="M39.4868 142.01C39.6397 141.612 39.7315 141.184 39.7315 140.725C39.7315 138.859 38.2324 137.36 36.3967 137.36C34.561 137.36 33.0619 138.859 33.0619 140.725C33.0619 141.398 33.2454 142.01 33.582 142.53L36.3967 147.762L39.4868 142.01Z" fill="#FFCE57"/>
<path d="M36.3965 148.19L33.3982 142.622C33.0616 142.071 32.8475 141.398 32.8475 140.725C32.8475 138.767 34.4384 137.145 36.3965 137.145C38.3545 137.145 39.9455 138.736 39.9455 140.725C39.9455 141.184 39.8537 141.643 39.6701 142.102L36.3965 148.221V148.19ZM36.3965 137.574C34.6526 137.574 33.2452 138.981 33.2452 140.725C33.2452 141.337 33.3982 141.918 33.7347 142.408L36.3965 147.333L39.303 141.918C39.4559 141.551 39.5171 141.153 39.5171 140.725C39.5171 138.981 38.1098 137.574 36.3659 137.574H36.3965Z" fill="black"/>
<path d="M36.427 152.259L30.1551 140.603C29.3902 139.409 28.9925 138.033 28.9925 136.625C28.9925 132.495 32.3273 129.16 36.427 129.16C40.5267 129.16 43.8616 132.526 43.8616 136.625C43.8616 137.604 43.678 138.583 43.3109 139.471L36.4576 152.259H36.427ZM36.427 129.864C32.7251 129.864 29.6962 132.893 29.6962 136.625C29.6962 137.91 30.0633 139.165 30.7364 140.235L36.3964 150.76L42.6072 139.195C42.9437 138.369 43.0967 137.513 43.0967 136.625C43.0967 132.893 40.0984 129.864 36.3964 129.864H36.427Z" fill="black"/>
<path d="M29.4518 135.004L29.9719 133.933L29.1764 128.701C28.9623 129.038 28.7787 129.374 28.5951 129.711L29.4212 135.004H29.4518Z" fill="black"/>
<path d="M31.1037 126.59C30.859 126.774 30.6448 126.957 30.4307 127.171L30.9814 131.852L31.6851 131.546L31.1037 126.59Z" fill="black"/>
<path d="M32.9393 130.629L33.643 130.078L33.2759 125.336C33.0311 125.428 32.8169 125.52 32.5722 125.642L32.9087 130.629H32.9393Z" fill="black"/>
<path d="M34.9888 129.803L35.7231 129.68L35.6007 124.755C35.356 124.755 35.1112 124.816 34.8665 124.846L34.9888 129.772V129.803Z" fill="black"/>
<path d="M37.9566 124.877C37.7118 124.846 37.4671 124.785 37.2529 124.785L37.1305 129.558L37.8342 129.803L37.9566 124.877Z" fill="black"/>
<path d="M40.2213 125.642C40.0072 125.52 39.7624 125.428 39.5177 125.336L39.1811 130.262L39.8848 130.629L40.2213 125.642Z" fill="black"/>
<path d="M41.1386 131.577L41.8117 132.036L42.3624 127.141C42.1483 126.927 41.9341 126.743 41.6893 126.56L41.108 131.547L41.1386 131.577Z" fill="black"/>
<path d="M43.3417 135.157L44.2289 129.711C44.076 129.344 43.8618 129.007 43.6476 128.701L42.8522 133.963L43.3417 135.157Z" fill="black"/>
<path d="M35.7845 146.63L36.3046 147.639V137.36C36.121 137.36 35.9374 137.36 35.7845 137.421V146.63Z" fill="black"/>
<path d="M34.9279 145.039L35.4174 145.957V137.512C35.2338 137.574 35.0808 137.635 34.9279 137.696V145.039Z" fill="black"/>
<path d="M34.0712 143.448L34.5302 144.305V137.941C34.3772 138.063 34.2242 138.186 34.0712 138.308V143.448Z" fill="black"/>
<path d="M33.2142 141.735C33.306 142.01 33.4283 142.285 33.5813 142.53L33.6425 142.653V138.798C33.4589 139.073 33.306 139.379 33.2142 139.685V141.704V141.735Z" fill="black"/>
<path d="M36.672 147.272L37.1921 146.293V137.482C37.0391 137.451 36.8556 137.421 36.672 137.39V147.272Z" fill="black"/>
<path d="M37.5593 145.59L38.0488 144.641V137.788C37.8958 137.696 37.7123 137.604 37.5593 137.543V145.559V145.59Z" fill="black"/>
<path d="M38.4773 143.907L38.9056 143.081V138.492C38.9056 138.492 38.6303 138.186 38.4773 138.063V143.876V143.907Z" fill="black"/>
<path d="M39.3334 142.285L39.4864 142.01C39.6394 141.612 39.7312 141.184 39.7312 140.725C39.7312 140.144 39.5782 139.593 39.3334 139.134V142.285Z" fill="black"/>
<path d="M77.5462 131.394C77.1179 132.403 76.9037 133.535 76.9037 134.698C76.9037 139.471 80.7587 143.356 85.5009 143.356C90.2431 143.356 94.098 139.501 94.098 134.698C94.098 132.984 93.6085 131.424 92.7518 130.078L85.4703 116.586L77.5156 131.394H77.5462Z" fill="#FFCE57"/>
<path d="M85.5013 115.637L93.15 129.833C94.0678 131.271 94.5573 132.954 94.5573 134.698C94.5573 139.715 90.4882 143.784 85.5013 143.784C80.5143 143.784 76.4452 139.715 76.4452 134.698C76.4452 133.505 76.6594 132.342 77.1183 131.241L85.4401 115.668L85.5013 115.637ZM85.5013 142.897C89.9987 142.897 93.6701 139.226 93.6701 134.698C93.6701 133.137 93.2418 131.608 92.4157 130.292L85.5319 117.503L77.975 131.577C77.5772 132.556 77.3631 133.627 77.3631 134.698C77.3631 139.226 81.0344 142.897 85.5319 142.897H85.5013Z" fill="black"/>
<path d="M77.5462 131.394C77.1179 132.403 76.9037 133.535 76.9037 134.698C76.9037 139.471 80.7587 143.356 85.5009 143.356C90.2431 143.356 94.098 139.501 94.098 134.698C94.098 132.985 93.6085 131.424 92.7518 130.078C92.7518 130.078 92.5683 138.4 85.4703 138.583C85.4703 138.583 77.6686 138.583 78.5559 129.436L77.5156 131.394H77.5462Z" fill="white"/>
<path d="M79.2292 127.294L79.015 129.466C78.7397 132.281 79.2904 134.484 80.6365 135.983C82.5334 138.094 85.4399 138.125 85.4705 138.125C92.0484 137.941 92.2931 130.384 92.2931 130.047V128.61L93.0886 129.833C94.0064 131.271 94.496 132.985 94.496 134.698C94.496 139.715 90.4269 143.785 85.4399 143.785C80.453 143.785 76.3839 139.715 76.3839 134.698C76.3839 133.505 76.598 132.342 77.0569 131.241L79.1374 127.325L79.2292 127.294ZM85.5011 139.012C85.3481 139.012 82.1663 138.981 79.994 136.564C78.8008 135.249 78.1584 133.474 78.0666 131.271L77.9136 131.547C77.5159 132.526 77.3017 133.596 77.3017 134.667C77.3017 139.195 80.9731 142.867 85.4705 142.867C89.9679 142.867 93.6393 139.195 93.6393 134.667C93.6393 133.566 93.4251 132.495 92.9968 131.485C92.5685 133.994 90.9776 138.828 85.4705 138.981L85.5011 139.012Z" fill="black"/>
<path d="M80.5756 125.734C80.3003 126.376 80.1779 127.049 80.1779 127.783C80.1779 130.751 82.5643 133.138 85.5014 133.138C88.4385 133.138 90.8249 130.751 90.8249 127.783C90.8249 126.743 90.5189 125.764 89.9988 124.908L85.5014 116.555L80.5756 125.734Z" fill="#FFCE57"/>
<path d="M85.5015 115.882L90.3048 124.755C90.8861 125.672 91.1615 126.713 91.1615 127.783C91.1615 130.935 88.6221 133.474 85.5015 133.474C82.3808 133.474 79.8414 130.935 79.8414 127.783C79.8414 127.049 79.9944 126.315 80.2698 125.611L85.4709 115.882H85.5015ZM85.5015 132.801C88.255 132.801 90.4884 130.537 90.4884 127.783C90.4884 126.835 90.2131 125.887 89.7235 125.091L85.5015 117.259L80.8816 125.887C80.6369 126.498 80.5145 127.141 80.5145 127.783C80.5145 130.568 82.7479 132.801 85.5015 132.801Z" fill="black"/>
<path d="M82.4107 126.07C82.2577 126.468 82.166 126.896 82.166 127.355C82.166 129.221 83.6651 130.721 85.5008 130.721C87.3365 130.721 88.8356 129.221 88.8356 127.355C88.8356 126.682 88.652 126.07 88.3155 125.55L85.5008 120.318L82.4107 126.07Z" fill="#FFCE57"/>
<path d="M85.5012 119.89L88.4995 125.458C88.8667 126.009 89.0502 126.682 89.0502 127.355C89.0502 129.313 87.4593 130.935 85.5012 130.935C83.5432 130.935 81.9522 129.344 81.9522 127.355C81.9522 126.896 82.044 126.437 82.2276 125.978L85.5012 119.859V119.89ZM85.5012 130.506C87.2451 130.506 88.6525 129.099 88.6525 127.355C88.6525 126.743 88.4995 126.162 88.163 125.672L85.5012 120.747L82.5947 126.162C82.4418 126.529 82.3806 126.927 82.3806 127.355C82.3806 129.099 83.7879 130.506 85.5318 130.506H85.5012Z" fill="black"/>
<path d="M85.5014 115.79L91.7733 127.447C92.5382 128.64 92.9359 130.017 92.9359 131.424C92.9359 135.524 89.6011 138.889 85.5014 138.889C81.4017 138.889 78.0668 135.524 78.0668 131.424C78.0668 130.445 78.2504 129.466 78.6175 128.579L85.4708 115.79H85.5014ZM85.5014 138.186C89.2033 138.186 92.2016 135.157 92.2016 131.455C92.2016 130.17 91.8345 128.915 91.1614 127.845L85.5014 117.32L79.2906 128.885C78.9541 129.711 78.8011 130.568 78.8011 131.455C78.8011 135.157 81.7994 138.186 85.532 138.186H85.5014Z" fill="black"/>
<path d="M92.4464 133.076L91.9262 134.147L92.7217 139.379C92.9359 139.042 93.1194 138.706 93.303 138.369L92.4464 133.076Z" fill="black"/>
<path d="M90.794 141.49C91.0387 141.306 91.2529 141.123 91.467 140.909L90.9469 136.228L90.2433 136.533L90.794 141.49Z" fill="black"/>
<path d="M88.9887 137.451L88.285 138.002L88.6521 142.744C88.8969 142.653 89.111 142.561 89.3558 142.438L89.0193 137.451H88.9887Z" fill="black"/>
<path d="M86.9083 138.277L86.2046 138.4L86.327 143.325C86.5717 143.325 86.8165 143.264 87.0306 143.234L86.9083 138.308V138.277Z" fill="black"/>
<path d="M83.9713 143.203C84.216 143.234 84.4302 143.295 84.6749 143.295L84.7973 138.522L84.0936 138.277L83.9713 143.203Z" fill="black"/>
<path d="M81.6769 142.438C81.9217 142.561 82.1359 142.653 82.3806 142.744L82.7172 137.819L82.0135 137.451L81.6769 142.438Z" fill="black"/>
<path d="M80.7592 136.503L80.0861 136.044L79.5354 140.939C79.7496 141.153 79.9638 141.337 80.1779 141.52L80.7592 136.533V136.503Z" fill="black"/>
<path d="M78.5862 132.923L77.699 138.369C77.8519 138.736 78.0661 139.073 78.2803 139.379L79.0451 134.117L78.5862 132.923Z" fill="black"/>
<path d="M86.1128 121.45L85.5621 120.441V130.69C85.7457 130.69 85.9293 130.69 86.1128 130.629V121.42V121.45Z" fill="black"/>
<path d="M86.9696 123.041L86.4801 122.123V130.567C86.6331 130.506 86.8167 130.445 86.9696 130.384V123.041Z" fill="black"/>
<path d="M87.8268 124.632L87.3679 123.775V130.139C87.5209 130.017 87.6738 129.894 87.8268 129.772V124.632Z" fill="black"/>
<path d="M88.6835 126.345C88.5917 126.07 88.4693 125.795 88.3164 125.55L88.2552 125.427V129.252C88.4388 128.976 88.5917 128.671 88.6835 128.365V126.345Z" fill="black"/>
<path d="M85.2256 120.808L84.7055 121.787V130.598C84.8891 130.629 85.0421 130.659 85.2256 130.69V120.808Z" fill="black"/>
<path d="M84.3385 122.49L83.8489 123.408V130.262C84.0019 130.353 84.1855 130.445 84.3385 130.506V122.49Z" fill="black"/>
<path d="M83.4204 124.173L82.9921 124.999V129.589C83.1145 129.742 83.2675 129.895 83.4204 130.017V124.204V124.173Z" fill="black"/>
<path d="M82.5637 125.795L82.4107 126.07C82.2577 126.468 82.166 126.896 82.166 127.355C82.166 127.936 82.3189 128.487 82.5637 128.946V125.795Z" fill="black"/>
<path d="M107.529 76.3843H101.594V88.4692H107.529V76.3843Z" fill="#F50032"/>
<path d="M107.284 76.6595V88.2549H101.838V76.6595H107.284ZM107.774 76.1394H101.349V88.7139H107.774V76.1394Z" fill="black"/>
<path d="M101.074 76.9654C101.074 76.9654 100.982 76.4759 101.992 76.2006C101.992 76.2006 109.335 75.1603 110.038 76.9654C110.038 76.9654 110.62 78.128 105.571 78.0668C105.571 78.0668 101.411 78.0668 101.074 76.9654Z" fill="white"/>
<path d="M106 78.3423H105.541C104.807 78.3423 101.166 78.2811 100.799 77.0573C100.799 76.9656 100.677 76.2925 101.9 75.9253C101.962 75.9253 104.073 75.6194 106.153 75.6194C108.601 75.6194 109.947 76.0171 110.283 76.8738C110.345 76.9656 110.375 77.2103 110.222 77.4245C109.824 78.067 108.448 78.3423 106 78.3423ZM101.35 76.9044C101.594 77.4551 103.705 77.7916 105.572 77.7916H106C108.998 77.7916 109.61 77.3021 109.733 77.1491C109.763 77.0879 109.763 77.0573 109.763 77.0573C109.549 76.476 108.234 76.1701 106.153 76.1701C104.073 76.1701 102.023 76.476 102.023 76.476C101.503 76.629 101.35 76.8432 101.35 76.9044Z" fill="black"/>
<path d="M101.227 79.107C101.227 79.107 101.136 78.6175 102.145 78.3422C102.145 78.3422 109.488 77.3019 110.192 79.107C110.192 79.107 110.773 80.2696 105.725 80.2084C105.725 80.2084 101.595 80.2084 101.258 79.107H101.227Z" fill="white"/>
<path d="M106.153 80.4839H105.694C104.959 80.4839 101.319 80.4227 100.952 79.1989C100.952 79.1072 100.829 78.4035 102.053 78.0669C102.114 78.0669 104.225 77.761 106.306 77.761C108.753 77.761 110.099 78.1587 110.436 79.0154C110.497 79.1072 110.528 79.3519 110.375 79.5661C110.008 80.178 108.6 80.4839 106.153 80.4839ZM101.502 79.0766C101.747 79.6273 103.858 79.9638 105.724 79.9638H106.153C109.151 79.9638 109.763 79.4743 109.885 79.3519C109.946 79.2907 109.916 79.2601 109.916 79.2601C109.702 78.7094 108.386 78.3729 106.306 78.3729C104.225 78.3729 102.206 78.6788 102.175 78.6788C101.655 78.8318 101.502 79.046 101.502 79.1072V79.0766Z" fill="black"/>
<path d="M101.349 81.2794C101.349 81.2794 101.257 80.7899 102.266 80.5145C102.266 80.5145 109.609 79.4743 110.313 81.2794C110.313 81.2794 110.894 82.442 105.846 82.3808C105.846 82.3808 101.716 82.3808 101.379 81.2794H101.349Z" fill="white"/>
<path d="M106.305 82.656H105.846C105.143 82.656 101.471 82.5948 101.104 81.3711C101.104 81.2793 100.982 80.5756 102.206 80.2391C102.267 80.2391 104.378 79.9331 106.458 79.9331C108.906 79.9331 110.283 80.3308 110.589 81.1875C110.65 81.2793 110.68 81.524 110.527 81.7382C110.13 82.3501 108.753 82.656 106.305 82.656ZM101.624 81.2487C101.869 81.7994 103.98 82.1053 105.846 82.1053C105.999 82.1053 106.152 82.1053 106.305 82.1053C109.487 82.1053 109.977 81.5546 110.038 81.4628C110.038 81.4628 110.038 81.4628 110.038 81.4322C109.824 80.8509 108.478 80.5144 106.428 80.5144C104.378 80.5144 102.297 80.8204 102.297 80.8204C101.777 80.9733 101.624 81.1569 101.624 81.2487Z" fill="black"/>
<path d="M102.144 77.302C102.144 77.302 101.961 76.8125 102.144 76.5983C102.144 76.5983 102.909 76.17 103.246 76.5983C103.246 76.5983 103.644 77.0572 103.246 77.5162C103.246 77.5162 103.001 77.6997 102.144 77.302Z" fill="white"/>
<path d="M103.032 77.6692C102.787 77.6692 102.481 77.5774 102.084 77.3938H102.053V77.3326C102.053 77.2714 101.839 76.7513 102.053 76.476C102.053 76.476 102.42 76.2312 102.787 76.2312C103.002 76.2312 103.185 76.323 103.308 76.476C103.46 76.6595 103.675 77.1184 103.308 77.5468C103.277 77.5774 103.185 77.6386 103.002 77.6386L103.032 77.6692ZM102.237 77.1796C102.849 77.455 103.093 77.3938 103.155 77.3938C103.46 77.0267 103.155 76.6901 103.155 76.6595C103.093 76.5677 102.971 76.5066 102.818 76.5066C102.573 76.5066 102.298 76.6289 102.237 76.6595C102.176 76.7819 102.237 77.0267 102.237 77.1796Z" fill="black"/>
<path d="M102.144 79.4744C102.144 79.4744 101.961 78.9849 102.144 78.7707C102.144 78.7707 102.909 78.3424 103.246 78.7707C103.246 78.7707 103.644 79.2296 103.246 79.6885C103.246 79.6885 103.001 79.8721 102.144 79.4744Z" fill="white"/>
<path d="M103.032 79.8414C102.787 79.8414 102.481 79.7497 102.084 79.5661H102.053V79.5049C102.053 79.4437 101.839 78.9236 102.053 78.6788C102.053 78.6788 102.42 78.4341 102.787 78.4341C103.002 78.4341 103.185 78.5259 103.308 78.6788C103.46 78.8624 103.675 79.3519 103.308 79.7803C103.277 79.7803 103.185 79.8414 103.002 79.8414H103.032ZM102.237 79.3519C102.849 79.6273 103.093 79.5661 103.155 79.5661C103.46 79.199 103.155 78.8318 103.155 78.8318C103.093 78.74 102.971 78.6788 102.818 78.6788C102.573 78.6788 102.298 78.8012 102.237 78.8318C102.176 78.9542 102.237 79.199 102.237 79.3519Z" fill="black"/>
<path d="M102.298 81.4629C102.298 81.4629 102.114 80.9734 102.298 80.7592C102.298 80.7592 103.063 80.3309 103.368 80.7592C103.368 80.7592 103.766 81.2181 103.368 81.6771C103.368 81.6771 103.124 81.8606 102.298 81.4629Z" fill="white"/>
<path d="M103.185 81.83C102.94 81.83 102.634 81.7383 102.236 81.5547H102.175V81.4935C102.175 81.4323 101.961 80.9122 102.175 80.6368C102.175 80.6368 102.542 80.3921 102.91 80.3921C103.124 80.3921 103.307 80.4839 103.43 80.6368C103.583 80.8204 103.797 81.2793 103.43 81.7077C103.399 81.7383 103.307 81.7994 103.124 81.7994L103.185 81.83ZM102.389 81.3711C103.001 81.6465 103.246 81.5853 103.307 81.5853C103.583 81.2487 103.307 80.8816 103.307 80.851C103.215 80.7592 103.124 80.698 102.971 80.698C102.726 80.698 102.451 80.8204 102.389 80.851C102.298 80.9734 102.389 81.2181 102.389 81.3711Z" fill="black"/>
<path d="M108.845 84.2777C107.07 84.9202 103.613 84.0636 103.613 84.0636C102.206 83.1151 103.552 82.3808 103.552 82.3808C103.552 82.3808 109.916 82.0137 110.558 83.3905C110.558 83.3905 111.292 85.1344 107.499 85.7769L107.315 84.6755L108.845 84.3083V84.2777Z" fill="white"/>
<path d="M107.285 86.0827L107.071 84.7977C105.388 84.7977 103.644 84.3694 103.583 84.3388H103.492C102.971 83.9411 102.696 83.5433 102.727 83.1456C102.727 82.5337 103.369 82.1666 103.461 82.136H103.522L103.583 82.1054C103.583 82.1054 104.379 82.0442 105.45 82.0442C110.314 82.0442 110.712 82.962 110.865 83.2374C110.865 83.2374 111.11 83.8187 110.742 84.4306C110.314 85.1955 109.274 85.7156 107.591 85.9909L107.316 86.0521L107.285 86.0827ZM107.652 84.8895L107.744 85.4402C109.396 85.1343 110.008 84.5836 110.222 84.2164C110.437 83.8493 110.314 83.5127 110.314 83.5127C110.131 83.115 108.723 82.6561 105.419 82.6561C104.562 82.6561 103.889 82.6867 103.675 82.7173C103.553 82.8091 103.308 83.0232 103.277 83.2374C103.277 83.4821 103.522 83.6963 103.767 83.8799C104.073 83.9411 105.664 84.3082 107.163 84.3082C107.561 84.3082 107.928 84.3082 108.234 84.2164L108.815 84.0635L108.968 84.5836C108.784 84.6448 108.57 84.7059 108.325 84.7365L107.652 84.8895Z" fill="black"/>
<path d="M103.736 83.5127C103.736 83.5127 103.552 83.0232 103.736 82.809C103.736 82.809 104.5 82.3807 104.837 82.809C104.837 82.809 105.235 83.2679 104.837 83.7269C104.837 83.7269 104.592 83.9104 103.736 83.5127Z" fill="white"/>
<path d="M104.593 83.8798C104.348 83.8798 104.042 83.788 103.644 83.6044H103.583V83.5432C103.583 83.482 103.369 82.9619 103.583 82.6866C103.583 82.6866 103.95 82.4724 104.317 82.4724C104.531 82.4724 104.715 82.5642 104.837 82.7172C104.99 82.9007 105.204 83.3903 104.837 83.788C104.807 83.8186 104.715 83.8798 104.531 83.8798H104.593ZM103.828 83.4208C104.409 83.6962 104.684 83.635 104.715 83.635C105.021 83.2679 104.715 82.9313 104.715 82.9007C104.623 82.809 104.531 82.7478 104.378 82.7478C104.134 82.7478 103.889 82.8701 103.797 82.9007C103.705 83.0231 103.797 83.2679 103.797 83.4208H103.828Z" fill="black"/>
<path d="M109.273 87.6431C109.273 88.6221 107.193 89.387 104.653 89.387C102.114 89.387 100.034 88.5915 100.034 87.6431C100.034 86.6946 102.114 85.8992 104.653 85.8992C107.193 85.8992 109.273 86.6946 109.273 87.6431Z" fill="#F50032"/>
<path d="M104.653 89.6009C101.961 89.6009 99.8194 88.7443 99.8194 87.6429C99.8194 86.5415 101.93 85.6848 104.653 85.6848C107.376 85.6848 109.487 86.5415 109.487 87.6429C109.487 88.7443 107.376 89.6009 104.653 89.6009ZM104.653 86.1131C102.053 86.1131 100.217 86.9392 100.217 87.6735C100.217 88.4077 102.022 89.2338 104.653 89.2338C107.285 89.2338 109.059 88.4077 109.059 87.6735C109.059 86.9392 107.254 86.1131 104.653 86.1131Z" fill="black"/>
<path d="M109.365 88.4385C109.365 89.4175 107.254 90.1824 104.623 90.1824C101.992 90.1824 99.8806 89.3869 99.8806 88.4385C99.8806 87.49 101.992 86.6946 104.623 86.6946C107.254 86.6946 109.365 87.49 109.365 88.4385Z" fill="#F50032"/>
<path d="M104.623 90.4271C101.809 90.4271 99.6976 89.5705 99.6976 88.4691C99.6976 87.2453 102.206 86.511 104.623 86.511C107.04 86.511 109.549 87.2453 109.549 88.4691C109.549 89.6011 107.438 90.4271 104.623 90.4271ZM104.623 86.9087C101.962 86.9087 100.095 87.7348 100.095 88.4691C100.095 89.2033 101.962 90.0294 104.623 90.0294C107.285 90.0294 109.151 89.2033 109.151 88.4691C109.151 87.7348 107.285 86.9087 104.623 86.9087Z" fill="black"/>
<path d="M101.349 85.4096C101.349 85.4096 98.9625 85.1343 99.0236 83.2068C99.0236 83.2068 95.9336 78.8318 99.2072 76.9655C102.481 75.0992 103.98 77.5162 104.99 80.1779C104.99 80.1779 103.796 81.8912 101.226 78.4646" fill="white"/>
<path d="M101.319 85.6545C100.432 85.5627 98.7796 84.9202 98.7796 83.2681C98.5042 82.8703 97.1274 80.6675 97.5558 78.74C97.7393 77.8834 98.2594 77.2103 99.0855 76.7514C100.279 76.0783 101.35 75.8947 102.267 76.2313C103.767 76.782 104.623 78.5871 105.204 80.0862V80.2086V80.3004C105.204 80.3004 104.837 80.8205 104.134 80.8511C103.216 80.8511 102.176 80.1168 101.044 78.6177L101.441 78.3117C102.726 80.025 103.614 80.3616 104.134 80.3616C104.44 80.3616 104.654 80.2086 104.746 80.1168C104.195 78.74 103.43 77.1491 102.145 76.6902C101.35 76.4148 100.462 76.5678 99.3609 77.1797C98.6572 77.5774 98.1983 78.1281 98.0453 78.8624C97.617 80.7287 99.2385 83.0233 99.2385 83.0539L99.2997 83.1151V83.2069C99.2385 84.8896 101.319 85.1343 101.411 85.1649L101.35 85.6545H101.319Z" fill="black"/>
<path d="M104.103 78.281L103.338 78.8929C103.338 78.8929 103.552 80.0861 104.562 79.5048L104.103 78.281Z" fill="white"/>
<path d="M104.072 79.78C103.399 79.78 103.216 78.9234 103.216 78.8928V78.8316L104.164 78.0361L104.715 79.5353L104.623 79.5965C104.409 79.7188 104.256 79.7494 104.072 79.7494V79.78ZM103.491 78.954C103.552 79.1375 103.705 79.5659 104.072 79.5659C104.072 79.5659 104.286 79.5659 104.409 79.4741L104.042 78.4951L103.491 78.954Z" fill="black"/>
<path d="M53.2847 66.502C53.2847 66.502 53.0094 66.4102 52.9482 66.2879L52.6117 65.37C52.5505 65.1864 52.6422 65.0029 52.8258 64.9417C53.0094 64.8805 53.193 64.9417 53.2541 65.1558L53.5907 66.0737C53.6519 66.2573 53.5907 66.4408 53.3765 66.502C53.3459 66.502 53.2847 66.502 53.2541 66.502H53.2847Z" fill="black"/>
<path d="M48.114 65.7066L47.7774 64.8805C47.7774 64.8805 49.399 64.6052 50.1638 65.37C50.1638 65.37 51.1429 65.7372 53.1621 65.7066C53.1621 65.7066 51.1123 66.5938 49.2154 65.829C49.2154 65.829 48.4199 65.676 48.1446 65.7066H48.114Z" fill="black"/>
<path d="M50.317 53.1627C53.7743 56.5587 57.0479 53.1627 57.0479 53.1627C53.5907 49.7666 50.317 53.1627 50.317 53.1627Z" fill="white"/>
<path d="M53.5906 54.8455C52.3974 54.8455 51.2348 54.3254 50.1946 53.2851L50.0722 53.1628L50.1946 53.0404C50.1946 53.0404 51.7243 51.4495 53.8048 51.4495C54.998 51.4495 56.1606 51.9696 57.2008 53.0098L57.3232 53.1322L57.2008 53.2851C57.2008 53.2851 55.671 54.8761 53.5906 54.8761V54.8455ZM50.5923 53.1628C51.5408 54.0194 52.5504 54.4783 53.5906 54.4783C55.1509 54.4783 56.3747 53.4993 56.7725 53.1322C55.824 52.2755 54.845 51.8166 53.8048 51.8166C52.2444 51.8166 51.0206 52.7956 50.6229 53.1628H50.5923Z" fill="black"/>
<path d="M55.1207 53.1321C55.1207 53.9582 54.4782 54.6007 53.6827 54.6007C52.8873 54.6007 52.2448 53.9582 52.2142 53.1321C52.2142 52.3061 52.8567 51.6636 53.6521 51.6636C54.4476 51.6636 55.1207 52.3061 55.1207 53.1015V53.1321Z" fill="white"/>
<path d="M53.6826 54.8147C52.7648 54.8147 52.0305 54.0805 52.0305 53.1626C52.0305 52.2448 52.7648 51.5105 53.6826 51.5105C54.6004 51.5105 55.3347 52.2448 55.3347 53.1626C55.3347 53.6215 55.1512 54.0193 54.8452 54.3252C54.5393 54.6312 54.1109 54.8147 53.6826 54.8147ZM53.6826 51.8776C52.9789 51.8776 52.4282 52.4589 52.4282 53.1626C52.4282 53.8663 53.0095 54.417 53.6826 54.417C54.0191 54.417 54.3251 54.2946 54.5699 54.0499C54.8146 53.8051 54.937 53.4992 54.937 53.1626C54.937 52.4589 54.3863 51.9082 53.6826 51.9082V51.8776Z" fill="black"/>
<path d="M54.3558 53.1627C54.3558 53.5604 54.0499 53.8663 53.6522 53.8663C53.285 53.8663 52.9791 53.5604 52.9485 53.1627C52.9485 52.7955 53.2544 52.459 53.6216 52.459C54.0193 52.459 54.3253 52.7649 54.3253 53.1627H54.3558Z" fill="black"/>
<path d="M57.5988 50.2255C57.5988 50.2255 57.5988 50.2255 57.507 50.1949C57.4458 50.1949 57.3846 50.1337 57.2928 50.0725C57.1093 49.9808 56.8033 49.8584 56.4362 49.736C56.2526 49.6748 56.0691 49.6136 55.8549 49.5524C55.6407 49.4912 55.4266 49.4301 55.2124 49.3995C54.9982 49.3383 54.7535 49.3383 54.5087 49.3077C54.264 49.3077 54.0192 49.3077 53.7744 49.3077C53.5297 49.3077 53.2849 49.3077 53.0708 49.3689C52.9484 49.3689 52.8566 49.3995 52.7342 49.4301C52.6118 49.4606 52.5201 49.4912 52.3977 49.5218C52.3059 49.5218 52.1835 49.583 52.0917 49.6136C52 49.6442 51.9082 49.7054 51.8164 49.736C51.7246 49.7666 51.6328 49.8278 51.541 49.8584C51.4492 49.9196 51.3881 49.9502 51.2963 50.0114C51.1433 50.1031 50.9903 50.1643 50.8985 50.2561C50.7762 50.3479 50.6844 50.4091 50.6232 50.5009C50.4702 50.6232 50.3784 50.6844 50.3784 50.6844L50.3172 50.7456C50.0419 50.9598 49.6747 50.8986 49.4606 50.6538C49.2464 50.3785 49.3076 50.0114 49.5524 49.7972C49.5524 49.7972 49.5524 49.7972 49.6136 49.7666C49.6136 49.7666 49.7359 49.6748 49.9501 49.5524C50.0725 49.4912 50.1949 49.3995 50.3172 49.3077C50.4702 49.2159 50.6538 49.1547 50.8373 49.0323C50.9291 49.0017 51.0209 48.9405 51.1433 48.9099C51.2657 48.8793 51.3575 48.8488 51.4798 48.7876C51.6022 48.7876 51.7246 48.7264 51.847 48.6652C51.9694 48.6652 52.0917 48.604 52.2141 48.5734C52.3365 48.5428 52.4589 48.5122 52.6118 48.5122C52.7342 48.5122 52.8872 48.5122 53.0096 48.5122C53.2849 48.5122 53.5603 48.5122 53.8356 48.5122C54.111 48.5122 54.3863 48.5734 54.6617 48.604C54.9065 48.6652 55.1818 48.6958 55.4266 48.7876C55.6713 48.8488 55.8855 48.9405 56.0997 49.0017C56.3138 49.0935 56.528 49.1853 56.7115 49.2465C57.0787 49.3995 57.354 49.583 57.5682 49.7054C57.66 49.7666 57.7518 49.8278 57.813 49.8584C57.8741 49.889 57.9047 49.9196 57.9047 49.9196C57.9965 49.9808 58.0271 50.1031 57.9659 50.2255C57.9047 50.3173 57.7824 50.3479 57.6906 50.2867L57.5988 50.2255Z" fill="black"/>
<path d="M58.2718 52.6732C58.2718 52.6732 58.1801 52.6732 58.1495 52.6426C53.4685 49.1854 50.1336 52.5814 50.103 52.6426C50.0418 52.7344 49.9195 52.7344 49.8277 52.6426C49.7359 52.5814 49.7359 52.459 49.8277 52.3672C49.8277 52.3366 53.4379 48.6653 58.3636 52.3672C58.4554 52.4284 58.486 52.5508 58.3942 52.6426C58.3636 52.7038 58.3024 52.7344 58.2413 52.7344L58.2718 52.6732Z" fill="black"/>
<path d="M58.9757 53.9889C58.9757 53.9889 58.7615 53.9889 58.6085 53.9889H58.425L58.2414 53.9583C58.1802 53.9583 58.119 53.9583 58.0884 53.9277C58.0272 53.9277 57.966 53.9277 57.9049 53.8665C57.7825 53.8359 57.6907 53.7747 57.5683 53.7441C57.4459 53.6829 57.3541 53.6217 57.2624 53.5912C57.14 53.53 57.0482 53.4688 56.9564 53.4076C56.8646 53.3464 56.7728 53.2546 56.6811 53.1934C56.5893 53.1016 56.5281 53.0404 56.4363 52.9181C56.4363 52.9181 56.2221 52.7345 56.0998 52.6733C55.9774 52.5815 55.855 52.5203 55.702 52.4591C55.5796 52.398 55.4267 52.3368 55.3043 52.3062C55.1513 52.245 55.0289 52.2144 54.876 52.1838L54.6618 52.1226H54.4476C54.4476 52.1226 54.2947 52.092 54.2335 52.0614H54.0193C54.0193 52.0614 53.7134 52.0614 53.591 52.0614C53.438 52.0614 53.3156 52.0614 53.1627 52.092L52.7343 52.1838C52.7343 52.1838 52.459 52.2756 52.3366 52.3368L52.1224 52.398C52.1224 52.398 52.0001 52.4591 51.9083 52.4897L51.5105 52.6733C51.5105 52.6733 51.2352 52.8263 51.1128 52.8875L50.7151 53.1016C50.4703 53.2852 50.2256 53.4688 49.9502 53.6217C49.9502 53.6217 49.736 53.6523 49.6749 53.5606C49.6137 53.4688 49.6443 53.377 49.6749 53.3158C49.9196 53.1016 50.1338 52.8569 50.3785 52.6427C50.5009 52.5509 50.6539 52.4591 50.7763 52.3368C50.8986 52.245 51.0516 52.1532 51.174 52.0614L51.6023 51.8167C51.6023 51.8167 51.7553 51.7249 51.8165 51.6943L52.0612 51.6025C52.2142 51.5413 52.3672 51.4801 52.5202 51.4189L53.0097 51.2965C53.1627 51.2659 53.3462 51.2659 53.5298 51.2354C53.7134 51.2354 53.8663 51.2354 54.0499 51.2354H54.2947C54.2947 51.2354 54.4476 51.2965 54.5394 51.3271L54.7842 51.3883L55.0289 51.4801C55.1819 51.5413 55.3655 51.6025 55.4879 51.6943C55.6408 51.7555 55.7938 51.8472 55.9162 51.939C56.0386 52.0308 56.1915 52.1226 56.3139 52.245C56.4363 52.3674 56.5587 52.4591 56.6811 52.6121C56.6811 52.6121 56.8034 52.7651 56.8952 52.8569C56.987 52.9181 57.0482 53.0098 57.14 53.071C57.293 53.1934 57.4765 53.3158 57.6601 53.4076C57.7519 53.4688 57.8437 53.4994 57.966 53.53C58.0272 53.53 58.0578 53.53 58.119 53.5606C58.1802 53.5606 58.2414 53.5606 58.272 53.5606H58.425H58.5779C58.6697 53.5606 58.7921 53.5606 58.9145 53.5606C58.9145 53.5606 59.1286 53.6217 59.1286 53.7441C59.1286 53.8665 59.0675 53.9583 58.9451 53.9583L58.9757 53.9889Z" fill="black"/>
<path d="M51.0822 54.0194C50.7456 53.1627 50.9598 52.4591 50.9904 52.4285L51.3575 52.5508C51.3575 52.5508 51.174 53.1627 51.4493 53.8664L51.0822 54.0194Z" fill="black"/>
<path d="M52.9788 56.4059C52.9788 56.4059 52.9787 56.4059 52.9176 56.4059C51.4184 55.794 49.9193 54.1113 49.8581 54.0195C49.7969 53.9583 49.8275 53.8665 49.8581 53.8359C49.9193 53.7747 50.0111 53.7747 50.0417 53.8359C50.0417 53.8359 51.5408 55.5492 52.9788 56.1305C53.0399 56.1305 53.1011 56.2529 53.0705 56.3141C53.0705 56.3753 52.9787 56.4059 52.9482 56.4059H52.9788Z" fill="black"/>
<path d="M64.4826 44.4126C64.4826 44.4126 62.6163 50.3786 66.3795 55.7327C70.2956 61.3315 69.286 63.9627 69.286 63.9627C69.286 63.9627 65.8287 63.9627 65.4004 66.6856C64.9415 69.8369 66.8996 74.9156 73.2327 72.9269C73.2327 72.9269 77.2712 70.8771 75.6497 63.4731C73.9976 56.0692 67.9092 48.91 70.1426 44.4126H64.5132H64.4826Z" fill="#F50032"/>
<path d="M70.5713 73.6613C68.9192 73.6613 67.5424 73.0494 66.5634 71.9174C65.1866 70.3264 64.9419 68.1236 65.156 66.6856C65.5232 64.1463 68.3379 63.7791 69.1028 63.7486C69.2251 63.1367 69.4393 60.5667 66.1962 55.9163C62.4025 50.501 64.2688 44.4432 64.2994 44.3821L64.3606 44.1985H70.5713L70.3877 44.5656C69.1028 47.1968 70.7549 50.807 72.6823 54.9678C73.9673 57.6908 75.2523 60.5361 75.9254 63.4732C77.6081 70.9995 73.5696 73.1411 73.386 73.2023H73.3554C72.3764 73.5389 71.4586 73.6919 70.6019 73.6919L70.5713 73.6613ZM64.6665 44.6574C64.3912 45.667 63.2592 50.8987 66.5634 55.5797C70.5101 61.2398 69.5311 63.9321 69.5005 64.0545L69.4393 64.2075H69.2863C69.2863 64.2075 66.0127 64.2381 65.6455 66.7468C65.462 68.0624 65.6761 70.0817 66.9305 71.5502C68.2767 73.1411 70.4489 73.5389 73.1413 72.6822C73.4472 72.5293 76.935 70.4488 75.4053 63.5038C74.7628 60.6279 73.4778 57.8132 72.2234 55.0902C70.3265 50.9905 68.6744 47.4109 69.7758 44.6268H64.6971L64.6665 44.6574Z" fill="black"/>
<path d="M69.2556 68.9801C69.2556 68.9801 69.2862 68.9801 69.3779 68.9801C69.4391 68.9801 69.5615 69.0107 69.6839 69.0413C69.8063 69.0413 69.9898 69.1025 70.1734 69.1331C70.357 69.1331 70.5711 69.1637 70.7853 69.1331C70.9077 69.1331 70.9995 69.1331 71.1218 69.1331C71.2442 69.1025 71.336 69.0719 71.4584 69.0413C71.6725 68.9801 71.8561 68.8272 72.0397 68.6742L72.1621 68.5212C72.1621 68.5212 72.2233 68.3988 72.2538 68.3682L72.315 68.2765V68.2153L72.4068 67.9705C72.4068 67.9705 72.4374 67.8175 72.468 67.7564C72.468 67.6952 72.4986 67.634 72.5292 67.5728C72.5292 67.4504 72.5904 67.2974 72.5904 67.1445C72.5904 66.8691 72.5598 66.5938 72.468 66.3184C72.3762 66.043 72.2233 65.8289 72.0397 65.6147C71.9479 65.5229 71.8561 65.4006 71.7643 65.3394C71.642 65.2476 71.5502 65.1558 71.4584 65.0946C71.336 65.0334 71.2442 64.9416 71.1218 64.8804C70.9995 64.8193 70.9077 64.7581 70.7853 64.7275C70.5711 64.6357 70.3876 64.5439 70.1734 64.4827C69.9898 64.4215 69.8369 64.3603 69.6839 64.3297C69.4085 64.2685 69.2556 64.2074 69.2556 64.2074C69.2556 64.2074 69.0414 64.0238 69.072 63.9014C69.1026 63.779 69.225 63.6872 69.3473 63.7178C69.3473 63.7178 69.5309 63.7178 69.8369 63.7484C69.9898 63.7484 70.1734 63.8096 70.3876 63.8402C70.6017 63.8402 70.8159 63.9626 71.0912 64.0238C71.2136 64.085 71.336 64.1156 71.489 64.1768C71.6114 64.238 71.7643 64.3297 71.8867 64.3909C72.0397 64.4521 72.1621 64.5745 72.2844 64.6663C72.4374 64.7581 72.5598 64.8804 72.6822 65.0028C72.9269 65.2782 73.1411 65.5841 73.2941 65.9513C73.447 66.3184 73.5388 66.7161 73.5082 67.1139C73.5082 67.2974 73.4776 67.5116 73.447 67.6952C73.3859 67.8787 73.3553 68.0929 73.2941 68.2765L73.2023 68.4906V68.5518L73.1717 68.5824V68.6436L73.1105 68.766C73.1105 68.766 73.0187 68.9496 72.9575 69.0107C72.8963 69.1025 72.8351 69.1637 72.774 69.2555C72.4986 69.5309 72.1621 69.745 71.8255 69.8368C71.489 69.9592 71.1524 69.9592 70.8771 69.9286C70.6017 69.9286 70.357 69.8674 70.1122 69.8062C69.8981 69.745 69.7145 69.6838 69.5921 69.6226C69.4391 69.5614 69.3473 69.5003 69.2556 69.4697C69.1638 69.4085 69.1332 69.4085 69.1332 69.4085C69.0108 69.3473 68.9802 69.1943 69.0414 69.0719C69.1026 68.9801 69.225 68.919 69.3473 68.9496L69.2556 68.9801Z" fill="black"/>
<path d="M108.264 74.6709H100.86V44.5044L104.715 37.0393L108.264 44.5044V74.6709ZM101.564 73.9672H107.56V44.688L104.684 38.6608L101.564 44.688V73.9672Z" fill="black"/>
<path d="M104.806 37.8347H104.562V74.3037H104.806V37.8347Z" fill="black"/>
<path d="M103.705 39.7622H103.461V74.6403H103.705V39.7622Z" fill="black"/>
<path d="M105.846 40.0068H105.602V75.0073H105.846V40.0068Z" fill="black"/>
</g>
<rect x="7.25" y="31.8486" width="107" height="129" rx="5.5" stroke="#F50032"/>
</g>
</g>
<rect x="0.5" y="0.848633" width="121" height="167.25" rx="10.5" stroke="#ADADAD"/>
<defs>
<clipPath id="clip0_2070_80634">
<rect x="1" y="1.34863" width="120" height="166.25" rx="10" fill="white"/>
</clipPath>
</defs>
</svg>
