<svg width="122" height="169" viewBox="0 0 122 169" fill="none" xmlns="http://www.w3.org/2000/svg">
<g clip-path="url(#clip0_2070_80631)">
<rect x="1" y="1.69727" width="120" height="166.25" rx="10" fill="white"/>
<mask id="mask0_2070_80631" style="mask-type:alpha" maskUnits="userSpaceOnUse" x="1" y="1" width="120" height="167">
<rect x="1" y="1.69727" width="120" height="166.25" fill="#D9D9D9"/>
</mask>
<g mask="url(#mask0_2070_80631)">
<path d="M9.592 22.6973V12.2573H6.982L8.332 10.0973H12.922V22.6973H9.592ZM20.7264 22.9853C17.1804 22.9853 14.7684 20.5013 14.7684 16.3793C14.7684 12.1313 17.0364 9.80927 20.7264 9.80927C24.4164 9.80927 26.6844 12.1313 26.6844 16.3793C26.6844 20.5013 24.2724 22.9853 20.7264 22.9853ZM18.3684 16.3793C18.3684 19.7093 19.3944 20.7533 20.7264 20.7533C22.0584 20.7533 23.0844 19.7093 23.0844 16.3793C23.0844 13.0313 22.1304 12.0413 20.7264 12.0413C19.3224 12.0413 18.3684 13.0313 18.3684 16.3793Z" fill="#F50032"/>
<rect x="98.5" y="16.6973" width="11.3137" height="11.3137" rx="0.471405" transform="rotate(-45 98.5 16.6973)" fill="#F50032"/>
<rect x="30.75" y="93.6973" width="42.4264" height="42.4264" rx="3" transform="rotate(-45 30.75 93.6973)" fill="#F50032"/>
</g>
</g>
<rect x="0.5" y="1.19727" width="121" height="167.25" rx="10.5" stroke="#ADADAD"/>
<defs>
<clipPath id="clip0_2070_80631">
<rect x="1" y="1.69727" width="120" height="166.25" rx="10" fill="white"/>
</clipPath>
</defs>
</svg>
