<svg width="16" height="16" viewBox="0 0 16 16" fill="none" xmlns="http://www.w3.org/2000/svg">
<g clip-path="url(#clip0_3332_16053)">
<path d="M14.6667 0L1.33333 0C0.979711 0 0.640573 0.140476 0.390524 0.390524C0.140476 0.640573 0 0.979711 0 1.33333L0 14.6667C0 15.0203 0.140476 15.3594 0.390524 15.6095C0.640573 15.8595 0.979711 16 1.33333 16L14.6667 16C15.0203 16 15.3594 15.8595 15.6095 15.6095C15.8595 15.3594 16 15.0203 16 14.6667L16 1.33333C16 0.979711 15.8595 0.640573 15.6095 0.390524C15.3594 0.140476 15.0203 0 14.6667 0ZM14.6667 14.6667L1.33333 14.6667L1.33333 1.33333L14.6667 1.33333L14.6667 14.6667ZM12 8C12 8.17681 11.9298 8.34638 11.8047 8.47141C11.6797 8.59643 11.5101 8.66667 11.3333 8.66667H8.66667V11.3333C8.66667 11.5101 8.59643 11.6797 8.47141 11.8047C8.34638 11.9298 8.17681 12 8 12C7.82319 12 7.65362 11.9298 7.5286 11.8047C7.40357 11.6797 7.33333 11.5101 7.33333 11.3333V8.66667L4.66667 8.66667C4.48986 8.66667 4.32029 8.59643 4.19526 8.47141C4.07024 8.34638 4 8.17681 4 8C4 7.82319 4.07024 7.65362 4.19526 7.5286C4.32029 7.40357 4.48986 7.33333 4.66667 7.33333H7.33333V4.66667C7.33333 4.48986 7.40357 4.32029 7.5286 4.19526C7.65362 4.07024 7.82319 4 8 4C8.17681 4 8.34638 4.07024 8.47141 4.19526C8.59643 4.32029 8.66667 4.48986 8.66667 4.66667L8.66667 7.33333H11.3333C11.5101 7.33333 11.6797 7.40357 11.8047 7.5286C11.9298 7.65362 12 7.82319 12 8Z" fill="white"/>
</g>
<defs>
<clipPath id="clip0_3332_16053">
<rect width="16" height="16" fill="white"/>
</clipPath>
</defs>
</svg>
