<svg width="16" height="16" viewBox="0 0 16 16" fill="none" xmlns="http://www.w3.org/2000/svg">
<g clip-path="url(#clip0_3332_16057)">
<path d="M12.3572 2.28603C12.0606 2.28561 11.7677 2.35176 11.5001 2.4796V2.00033C11.5003 1.52368 11.3302 1.06263 11.0205 0.700272C10.7108 0.337915 10.2819 0.098078 9.81107 0.0239808C9.34021 -0.0501164 8.85837 0.0463988 8.45237 0.296134C8.04637 0.545869 7.74292 0.932401 7.5967 1.38608C7.29215 1.22088 6.9499 1.13765 6.6035 1.14452C6.25709 1.15139 5.91842 1.24814 5.62066 1.42529C5.3229 1.60243 5.07626 1.8539 4.90493 2.15504C4.73359 2.45618 4.64343 2.79666 4.64327 3.14313V7.71435L4.37043 7.27651C4.10541 6.81917 3.67012 6.48534 3.1597 6.348C2.64928 6.21065 2.10524 6.28096 1.64651 6.54355C1.18777 6.80614 0.851649 7.23966 0.711608 7.74935C0.571567 8.25904 0.638998 8.80344 0.899163 9.26356C2.04197 11.6756 2.96549 13.3862 4.02187 14.4555C5.08896 15.5383 6.30033 15.9997 8.07168 15.9997C9.73809 15.9978 11.3357 15.335 12.514 14.1566C13.6924 12.9783 14.3552 11.3807 14.3571 9.71425L14.3571 4.28594C14.3571 3.75553 14.1464 3.24685 13.7713 2.87179C13.3963 2.49674 12.8876 2.28603 12.3572 2.28603ZM13.2143 9.71425C13.2128 11.0777 12.6705 12.3849 11.7064 13.349C10.7423 14.3131 9.43512 14.8553 8.07168 14.8569C6.61603 14.8569 5.67822 14.5083 4.83398 13.6533C3.88902 12.6955 3.01906 11.0713 1.92197 8.75572C1.91554 8.74156 1.90839 8.72773 1.90054 8.7143C1.78689 8.51738 1.75611 8.28338 1.81498 8.06378C1.87385 7.84417 2.01754 7.65694 2.21446 7.54328C2.41137 7.42962 2.64537 7.39884 2.86498 7.45771C3.08459 7.51658 3.27181 7.66028 3.38547 7.8572C3.38838 7.86292 3.39172 7.86841 3.39547 7.87362L4.72898 10.0164C4.79449 10.1221 4.89269 10.2035 5.00868 10.2484C5.12468 10.2932 5.25213 10.299 5.3717 10.2648C5.49127 10.2306 5.59642 10.1584 5.6712 10.059C5.74599 9.95965 5.78632 9.8386 5.78607 9.71425L5.78607 3.14313C5.78607 2.91582 5.87637 2.69781 6.03711 2.53707C6.19785 2.37633 6.41586 2.28603 6.64318 2.28603C6.87049 2.28603 7.0885 2.37633 7.24924 2.53707C7.40998 2.69781 7.50028 2.91582 7.50028 3.14313V7.42864C7.50028 7.58019 7.56048 7.72553 7.66764 7.83269C7.7748 7.93984 7.92013 8.00005 8.07168 8.00005C8.22322 8.00005 8.36856 7.93984 8.47572 7.83269C8.58288 7.72553 8.64308 7.58019 8.64308 7.42864L8.64308 2.00033C8.64308 1.77301 8.73338 1.55501 8.89412 1.39427C9.05486 1.23353 9.27286 1.14323 9.50018 1.14323C9.7275 1.14323 9.94551 1.23353 10.1062 1.39427C10.267 1.55501 10.3573 1.77301 10.3573 2.00033L10.3573 7.42864C10.3573 7.58019 10.4175 7.72553 10.5246 7.83269C10.6318 7.93984 10.7771 8.00005 10.9287 8.00005C11.0802 8.00005 11.2256 7.93984 11.3327 7.83269C11.4399 7.72553 11.5001 7.58019 11.5001 7.42864L11.5001 4.28594C11.5001 4.05862 11.5904 3.84061 11.7511 3.67987C11.9119 3.51914 12.1299 3.42884 12.3572 3.42884C12.5845 3.42884 12.8025 3.51914 12.9632 3.67987C13.124 3.84061 13.2143 4.05862 13.2143 4.28594L13.2143 9.71425Z" fill="white"/>
</g>
<defs>
<clipPath id="clip0_3332_16057">
<rect width="16" height="16" fill="white"/>
</clipPath>
</defs>
</svg>
