<svg width="253" height="236" viewBox="0 0 253 236" fill="none" xmlns="http://www.w3.org/2000/svg">
<g filter="url(#filter0_dd_3301_86222)">
<rect x="16.5224" y="149.922" width="101.385" height="140.138" rx="8.79789" transform="rotate(-60 16.5224 149.922)" stroke="#ADADAD" stroke-width="0.837895"/>
<rect x="20.5285" y="148.849" width="95.52" height="134.273" rx="5.86526" transform="rotate(-60 20.5285 148.849)" fill="white"/>
<rect x="20.5285" y="148.849" width="95.52" height="134.273" rx="5.86526" transform="rotate(-60 20.5285 148.849)" stroke="white" stroke-width="5.02737"/>
<mask id="mask0_3301_86222" style="mask-type:alpha" maskUnits="userSpaceOnUse" x="17" y="62" width="172" height="158">
<rect x="17.0947" y="149.769" width="100.547" height="139.3" transform="rotate(-60 17.0947 149.769)" fill="#D9D9D9"/>
</mask>
<g mask="url(#mask0_3301_86222)">
<rect x="23.8857" y="148.061" width="9.04926" height="3.35158" transform="rotate(-60 23.8857 148.061)" fill="#E6E5FF"/>
<rect x="28.4106" y="140.224" width="9.04926" height="3.35158" transform="rotate(-60 28.4106 140.224)" fill="white"/>
<rect x="32.9351" y="132.388" width="9.04926" height="3.35158" transform="rotate(-60 32.9351 132.388)" fill="#E6E5FF"/>
<rect x="37.4595" y="124.551" width="9.04926" height="3.35158" transform="rotate(-60 37.4595 124.551)" fill="#E6E5FF"/>
<rect x="41.9844" y="116.714" width="9.04926" height="3.35158" transform="rotate(-60 41.9844 116.714)" fill="#E6E5FF"/>
<rect x="46.5088" y="108.877" width="9.04926" height="3.35158" transform="rotate(-60 46.5088 108.877)" fill="#E6E5FF"/>
<rect x="51.0337" y="101.04" width="9.04926" height="3.35158" transform="rotate(-60 51.0337 101.04)" fill="#E6E5FF"/>
<rect x="55.5581" y="93.2031" width="9.04926" height="3.35158" transform="rotate(-60 55.5581 93.2031)" fill="#E6E5FF"/>
<rect x="60.083" y="85.3661" width="9.04926" height="3.35158" transform="rotate(-60 60.083 85.3661)" fill="#E6E5FF"/>
<rect x="64.6074" y="77.5292" width="9.04926" height="3.35158" transform="rotate(-60 64.6074 77.5292)" fill="#E6E5FF"/>
<rect x="26.7881" y="149.737" width="9.04926" height="3.35158" transform="rotate(-60 26.7881 149.737)" fill="white"/>
<rect x="31.313" y="141.9" width="9.04926" height="3.35158" transform="rotate(-60 31.313 141.9)" fill="#E6E5FF"/>
<rect x="35.8374" y="134.063" width="9.04926" height="3.35158" transform="rotate(-60 35.8374 134.063)" fill="white"/>
<rect x="40.3618" y="126.226" width="9.04926" height="3.35158" transform="rotate(-60 40.3618 126.226)" fill="#E6E5FF"/>
<rect x="44.8867" y="118.39" width="9.04926" height="3.35158" transform="rotate(-60 44.8867 118.39)" fill="#E6E5FF"/>
<rect x="49.4111" y="110.553" width="9.04926" height="3.35158" transform="rotate(-60 49.4111 110.553)" fill="#E6E5FF"/>
<rect x="53.936" y="102.716" width="9.04926" height="3.35158" transform="rotate(-60 53.936 102.716)" fill="#E6E5FF"/>
<rect x="58.4604" y="94.8788" width="9.04926" height="3.35158" transform="rotate(-60 58.4604 94.8788)" fill="#E6E5FF"/>
<rect x="62.9854" y="87.0419" width="9.04926" height="3.35158" transform="rotate(-60 62.9854 87.0419)" fill="#E6E5FF"/>
<rect x="67.5098" y="79.205" width="9.04926" height="3.35158" transform="rotate(-60 67.5098 79.205)" fill="#E6E5FF"/>
<rect x="29.6909" y="151.413" width="9.04926" height="1.67579" transform="rotate(-60 29.6909 151.413)" fill="#E6E5FF"/>
<rect x="34.2158" y="143.576" width="9.04926" height="3.35158" transform="rotate(-60 34.2158 143.576)" fill="white"/>
<rect x="38.7402" y="135.739" width="9.04926" height="3.35158" transform="rotate(-60 38.7402 135.739)" fill="#E6E5FF"/>
<rect x="43.2646" y="127.902" width="9.04926" height="3.35158" transform="rotate(-60 43.2646 127.902)" fill="white"/>
<rect x="47.7896" y="120.065" width="9.04926" height="3.35158" transform="rotate(-60 47.7896 120.065)" fill="#E6E5FF"/>
<rect x="52.314" y="112.228" width="9.04926" height="3.35158" transform="rotate(-60 52.314 112.228)" fill="#E6E5FF"/>
<rect x="56.8389" y="104.391" width="9.04926" height="3.35158" transform="rotate(-60 56.8389 104.391)" fill="#E6E5FF"/>
<rect x="61.3633" y="96.5546" width="9.04926" height="3.35158" transform="rotate(-60 61.3633 96.5546)" fill="#E6E5FF"/>
<rect x="65.8882" y="88.7177" width="9.04926" height="3.35158" transform="rotate(-60 65.8882 88.7177)" fill="#E6E5FF"/>
<rect x="70.4126" y="80.8808" width="9.04926" height="3.35158" transform="rotate(-60 70.4126 80.8808)" fill="#E6E5FF"/>
<rect x="32.5933" y="153.089" width="9.04926" height="3.35158" transform="rotate(-60 32.5933 153.089)" fill="white"/>
<rect x="37.1182" y="145.252" width="9.04926" height="1.67579" transform="rotate(-60 37.1182 145.252)" fill="#E6E5FF"/>
<rect x="41.6426" y="137.415" width="9.04926" height="3.35158" transform="rotate(-60 41.6426 137.415)" fill="white"/>
<rect x="46.1675" y="129.578" width="9.04926" height="3.35158" transform="rotate(-60 46.1675 129.578)" fill="#E6E5FF"/>
<rect x="50.6919" y="121.741" width="9.04926" height="3.35158" transform="rotate(-60 50.6919 121.741)" fill="white"/>
<rect x="55.2163" y="113.904" width="9.04926" height="3.35158" transform="rotate(-60 55.2163 113.904)" fill="#E6E5FF"/>
<rect x="59.7412" y="106.067" width="9.04926" height="3.35158" transform="rotate(-60 59.7412 106.067)" fill="#E6E5FF"/>
<rect x="64.2656" y="98.2304" width="9.04926" height="3.35158" transform="rotate(-60 64.2656 98.2304)" fill="#E6E5FF"/>
<rect x="68.7905" y="90.3935" width="9.04926" height="3.35158" transform="rotate(-60 68.7905 90.3935)" fill="#E6E5FF"/>
<rect x="73.3149" y="82.5566" width="9.04926" height="3.35158" transform="rotate(-60 73.3149 82.5566)" fill="#E6E5FF"/>
<rect x="35.4956" y="154.764" width="9.04926" height="0.837895" transform="rotate(-60 35.4956 154.764)" fill="#E6E5FF"/>
<rect x="40.0205" y="146.928" width="9.04926" height="3.35158" transform="rotate(-60 40.0205 146.928)" fill="white"/>
<rect x="44.5449" y="139.091" width="9.04926" height="1.67579" transform="rotate(-60 44.5449 139.091)" fill="#E6E5FF"/>
<rect x="49.0698" y="131.254" width="9.04926" height="3.35158" transform="rotate(-60 49.0698 131.254)" fill="white"/>
<rect x="53.5942" y="123.417" width="9.04926" height="3.35158" transform="rotate(-60 53.5942 123.417)" fill="#E6E5FF"/>
<rect x="58.1187" y="115.58" width="9.04926" height="3.35158" transform="rotate(-60 58.1187 115.58)" fill="white"/>
<rect x="62.6436" y="107.743" width="9.04926" height="3.35158" transform="rotate(-60 62.6436 107.743)" fill="#E6E5FF"/>
<rect x="67.168" y="99.9062" width="9.04926" height="3.35158" transform="rotate(-60 67.168 99.9062)" fill="#E6E5FF"/>
<rect x="71.6929" y="92.0693" width="9.04926" height="3.35158" transform="rotate(-60 71.6929 92.0693)" fill="#E6E5FF"/>
<rect x="76.2173" y="84.2324" width="9.04926" height="3.35158" transform="rotate(-60 76.2173 84.2324)" fill="#E6E5FF"/>
<rect x="38.3984" y="156.44" width="9.04926" height="3.35158" transform="rotate(-60 38.3984 156.44)" fill="white"/>
<rect x="42.9233" y="148.603" width="9.04926" height="0.837895" transform="rotate(-60 42.9233 148.603)" fill="#E6E5FF"/>
<rect x="47.4478" y="140.767" width="9.04926" height="3.35158" transform="rotate(-60 47.4478 140.767)" fill="white"/>
<rect x="51.9727" y="132.93" width="9.04926" height="1.67579" transform="rotate(-60 51.9727 132.93)" fill="#E6E5FF"/>
<rect x="56.4971" y="125.093" width="9.04926" height="3.35158" transform="rotate(-60 56.4971 125.093)" fill="white"/>
<rect x="61.0215" y="117.256" width="9.04926" height="3.35158" transform="rotate(-60 61.0215 117.256)" fill="#E6E5FF"/>
<rect x="65.5464" y="109.419" width="9.04926" height="3.35158" transform="rotate(-60 65.5464 109.419)" fill="white"/>
<rect x="70.0708" y="101.582" width="9.04926" height="3.35158" transform="rotate(-60 70.0708 101.582)" fill="#E6E5FF"/>
<rect x="74.5957" y="93.7451" width="9.04926" height="3.35158" transform="rotate(-60 74.5957 93.7451)" fill="#E6E5FF"/>
<rect x="79.1201" y="85.9082" width="9.04926" height="3.35158" transform="rotate(-60 79.1201 85.9082)" fill="#E6E5FF"/>
<rect x="41.3008" y="158.116" width="9.04926" height="3.35158" transform="rotate(-60 41.3008 158.116)" fill="white"/>
<rect x="45.8257" y="150.279" width="9.04926" height="3.35158" transform="rotate(-60 45.8257 150.279)" fill="white"/>
<rect x="50.3501" y="142.442" width="9.04926" height="0.837895" transform="rotate(-60 50.3501 142.442)" fill="#E6E5FF"/>
<rect x="54.875" y="134.605" width="9.04926" height="3.35158" transform="rotate(-60 54.875 134.605)" fill="white"/>
<rect x="59.3994" y="126.769" width="9.04926" height="1.67579" transform="rotate(-60 59.3994 126.769)" fill="#E6E5FF"/>
<rect x="63.9238" y="118.932" width="9.04926" height="3.35158" transform="rotate(-60 63.9238 118.932)" fill="white"/>
<rect x="68.4487" y="111.095" width="9.04926" height="3.35158" transform="rotate(-60 68.4487 111.095)" fill="#E6E5FF"/>
<rect x="72.9731" y="103.258" width="9.04926" height="3.35158" transform="rotate(-60 72.9731 103.258)" fill="white"/>
<rect x="77.498" y="95.4209" width="9.04926" height="3.35158" transform="rotate(-60 77.498 95.4209)" fill="#E6E5FF"/>
<rect x="82.0225" y="87.584" width="9.04926" height="3.35158" transform="rotate(-60 82.0225 87.584)" fill="#E6E5FF"/>
<rect x="44.2036" y="159.792" width="9.04926" height="0.418947" transform="rotate(-60 44.2036 159.792)" fill="#E6E5FF"/>
<rect x="48.7285" y="151.955" width="9.04926" height="3.35158" transform="rotate(-60 48.7285 151.955)" fill="white"/>
<rect x="53.2529" y="144.118" width="9.04926" height="3.35158" transform="rotate(-60 53.2529 144.118)" fill="white"/>
<rect x="57.7778" y="136.281" width="9.04926" height="0.837895" transform="rotate(-60 57.7778 136.281)" fill="#E6E5FF"/>
<rect x="62.3022" y="128.444" width="9.04926" height="3.35158" transform="rotate(-60 62.3022 128.444)" fill="white"/>
<rect x="66.8267" y="120.607" width="9.04926" height="1.67579" transform="rotate(-60 66.8267 120.607)" fill="#E6E5FF"/>
<rect x="71.3516" y="112.77" width="9.04926" height="3.35158" transform="rotate(-60 71.3516 112.77)" fill="white"/>
<rect x="75.876" y="104.934" width="9.04926" height="3.35158" transform="rotate(-60 75.876 104.934)" fill="#E6E5FF"/>
<rect x="80.4009" y="97.0967" width="9.04926" height="3.35158" transform="rotate(-60 80.4009 97.0967)" fill="white"/>
<rect x="84.9253" y="89.2598" width="9.04926" height="3.35158" transform="rotate(-60 84.9253 89.2598)" fill="#E6E5FF"/>
<rect x="47.106" y="161.468" width="9.04926" height="3.35158" transform="rotate(-60 47.106 161.468)" fill="white"/>
<rect x="51.6309" y="153.631" width="9.04926" height="0.418947" transform="rotate(-60 51.6309 153.631)" fill="#E6E5FF"/>
<rect x="56.1553" y="145.794" width="9.04926" height="3.35158" transform="rotate(-60 56.1553 145.794)" fill="white"/>
<rect x="60.6802" y="137.957" width="9.04926" height="3.35158" transform="rotate(-60 60.6802 137.957)" fill="white"/>
<rect x="65.2046" y="130.12" width="9.04926" height="0.837895" transform="rotate(-60 65.2046 130.12)" fill="#E6E5FF"/>
<rect x="69.7295" y="122.283" width="9.04926" height="3.35158" transform="rotate(-60 69.7295 122.283)" fill="white"/>
<rect x="74.2539" y="114.446" width="9.04926" height="1.67579" transform="rotate(-60 74.2539 114.446)" fill="#E6E5FF"/>
<rect x="78.7783" y="106.609" width="9.04926" height="3.35158" transform="rotate(-60 78.7783 106.609)" fill="white"/>
<rect x="83.3032" y="98.7725" width="9.04926" height="3.35158" transform="rotate(-60 83.3032 98.7725)" fill="#E6E5FF"/>
<rect x="87.8276" y="90.9355" width="9.04926" height="3.35158" transform="rotate(-60 87.8276 90.9355)" fill="white"/>
<rect x="50.0088" y="163.143" width="9.04926" height="3.35158" transform="rotate(-60 50.0088 163.143)" fill="white"/>
<rect x="54.5337" y="155.307" width="9.04926" height="3.35158" transform="rotate(-60 54.5337 155.307)" fill="white"/>
<rect x="59.0581" y="147.47" width="9.04926" height="0.418947" transform="rotate(-60 59.0581 147.47)" fill="#E6E5FF"/>
<rect x="63.583" y="139.633" width="9.04926" height="3.35158" transform="rotate(-60 63.583 139.633)" fill="white"/>
<rect x="68.1074" y="131.796" width="9.04926" height="3.35158" transform="rotate(-60 68.1074 131.796)" fill="white"/>
<rect x="72.6323" y="123.959" width="9.04926" height="0.837895" transform="rotate(-60 72.6323 123.959)" fill="#E6E5FF"/>
<rect x="77.1567" y="116.122" width="9.04926" height="3.35158" transform="rotate(-60 77.1567 116.122)" fill="white"/>
<rect x="81.6812" y="108.285" width="9.04926" height="1.67579" transform="rotate(-60 81.6812 108.285)" fill="#E6E5FF"/>
<rect x="86.2061" y="100.448" width="9.04926" height="3.35158" transform="rotate(-60 86.2061 100.448)" fill="white"/>
<rect x="90.7305" y="92.6113" width="9.04926" height="3.35158" transform="rotate(-60 90.7305 92.6113)" fill="#E6E5FF"/>
<rect x="52.9111" y="164.819" width="9.04926" height="3.35158" transform="rotate(-60 52.9111 164.819)" fill="white"/>
<rect x="57.436" y="156.982" width="9.04926" height="3.35158" transform="rotate(-60 57.436 156.982)" fill="white"/>
<rect x="61.9604" y="149.145" width="9.04926" height="3.35158" transform="rotate(-60 61.9604 149.145)" fill="white"/>
<rect x="66.4854" y="141.309" width="9.04926" height="0.418947" transform="rotate(-60 66.4854 141.309)" fill="#E6E5FF"/>
<rect x="71.0098" y="133.472" width="9.04926" height="3.35158" transform="rotate(-60 71.0098 133.472)" fill="white"/>
<rect x="75.5347" y="125.635" width="9.04926" height="3.35158" transform="rotate(-60 75.5347 125.635)" fill="white"/>
<rect x="80.0591" y="117.798" width="9.04926" height="0.837895" transform="rotate(-60 80.0591 117.798)" fill="#E6E5FF"/>
<rect x="84.5835" y="109.961" width="9.04926" height="3.35158" transform="rotate(-60 84.5835 109.961)" fill="white"/>
<rect x="89.1084" y="102.124" width="9.04926" height="1.67579" transform="rotate(-60 89.1084 102.124)" fill="#E6E5FF"/>
<rect x="93.6328" y="94.2872" width="9.04926" height="3.35158" transform="rotate(-60 93.6328 94.2872)" fill="white"/>
<rect x="55.8135" y="166.495" width="9.04926" height="3.35158" transform="rotate(-60 55.8135 166.495)" fill="white"/>
<rect x="60.3384" y="158.658" width="9.04926" height="3.35158" transform="rotate(-60 60.3384 158.658)" fill="white"/>
<rect x="64.8628" y="150.821" width="9.04926" height="3.35158" transform="rotate(-60 64.8628 150.821)" fill="white"/>
<rect x="69.3877" y="142.984" width="9.04926" height="3.35158" transform="rotate(-60 69.3877 142.984)" fill="white"/>
<rect x="73.9121" y="135.148" width="9.04926" height="0.418947" transform="rotate(-60 73.9121 135.148)" fill="#E6E5FF"/>
<rect x="78.437" y="127.311" width="9.04926" height="3.35158" transform="rotate(-60 78.437 127.311)" fill="white"/>
<rect x="82.9614" y="119.474" width="9.04926" height="3.35158" transform="rotate(-60 82.9614 119.474)" fill="white"/>
<rect x="87.4858" y="111.637" width="9.04926" height="0.837895" transform="rotate(-60 87.4858 111.637)" fill="#E6E5FF"/>
<rect x="92.0107" y="103.8" width="9.04926" height="3.35158" transform="rotate(-60 92.0107 103.8)" fill="white"/>
<rect x="96.5352" y="95.963" width="9.04926" height="1.67579" transform="rotate(-60 96.5352 95.963)" fill="#E6E5FF"/>
<rect x="58.7163" y="168.171" width="9.04926" height="3.35158" transform="rotate(-60 58.7163 168.171)" fill="white"/>
<rect x="63.2412" y="160.334" width="9.04926" height="3.35158" transform="rotate(-60 63.2412 160.334)" fill="white"/>
<rect x="67.7656" y="152.497" width="9.04926" height="3.35158" transform="rotate(-60 67.7656 152.497)" fill="white"/>
<rect x="72.2905" y="144.66" width="9.04926" height="3.35158" transform="rotate(-60 72.2905 144.66)" fill="white"/>
<rect x="76.8149" y="136.823" width="9.04926" height="3.35158" transform="rotate(-60 76.8149 136.823)" fill="white"/>
<rect x="81.3398" y="128.986" width="9.04926" height="0.418947" transform="rotate(-60 81.3398 128.986)" fill="#E6E5FF"/>
<rect x="85.8643" y="121.149" width="9.04926" height="3.35158" transform="rotate(-60 85.8643 121.149)" fill="white"/>
<rect x="90.3892" y="113.313" width="9.04926" height="3.35158" transform="rotate(-60 90.3892 113.313)" fill="white"/>
<rect x="94.9136" y="105.476" width="9.04926" height="0.837895" transform="rotate(-60 94.9136 105.476)" fill="#E6E5FF"/>
<rect x="99.438" y="97.6388" width="9.04926" height="3.35158" transform="rotate(-60 99.438 97.6388)" fill="white"/>
<rect x="61.6187" y="169.847" width="9.04926" height="3.35158" transform="rotate(-60 61.6187 169.847)" fill="white"/>
<rect x="66.1436" y="162.01" width="9.04926" height="3.35158" transform="rotate(-60 66.1436 162.01)" fill="white"/>
<rect x="70.668" y="154.173" width="9.04926" height="3.35158" transform="rotate(-60 70.668 154.173)" fill="white"/>
<rect x="75.1929" y="146.336" width="9.04926" height="3.35158" transform="rotate(-60 75.1929 146.336)" fill="white"/>
<rect x="79.7173" y="138.499" width="9.04926" height="3.35158" transform="rotate(-60 79.7173 138.499)" fill="white"/>
<rect x="84.2422" y="130.662" width="9.04926" height="3.35158" transform="rotate(-60 84.2422 130.662)" fill="white"/>
<rect x="88.7666" y="122.825" width="9.04926" height="0.418947" transform="rotate(-60 88.7666 122.825)" fill="#E6E5FF"/>
<rect x="93.2915" y="114.988" width="9.04926" height="3.35158" transform="rotate(-60 93.2915 114.988)" fill="white"/>
<rect x="97.8159" y="107.151" width="9.04926" height="3.35158" transform="rotate(-60 97.8159 107.151)" fill="white"/>
<rect x="102.341" y="99.3146" width="9.04926" height="0.837895" transform="rotate(-60 102.341 99.3146)" fill="#E6E5FF"/>
<rect x="64.5215" y="171.522" width="9.04926" height="3.35158" transform="rotate(-60 64.5215 171.522)" fill="white"/>
<rect x="69.0459" y="163.685" width="9.04926" height="3.35158" transform="rotate(-60 69.0459 163.685)" fill="white"/>
<rect x="73.5703" y="155.848" width="9.04926" height="3.35158" transform="rotate(-60 73.5703 155.848)" fill="white"/>
<rect x="78.0952" y="148.012" width="9.04926" height="3.35158" transform="rotate(-60 78.0952 148.012)" fill="white"/>
<rect x="82.6196" y="140.175" width="9.04926" height="3.35158" transform="rotate(-60 82.6196 140.175)" fill="white"/>
<rect x="87.1445" y="132.338" width="9.04926" height="3.35158" transform="rotate(-60 87.1445 132.338)" fill="white"/>
<rect x="91.6689" y="124.501" width="9.04926" height="3.35158" transform="rotate(-60 91.6689 124.501)" fill="white"/>
<rect x="96.1938" y="116.664" width="9.04926" height="0.418947" transform="rotate(-60 96.1938 116.664)" fill="#E6E5FF"/>
<rect x="100.718" y="108.827" width="9.04926" height="3.35158" transform="rotate(-60 100.718 108.827)" fill="white"/>
<rect x="105.243" y="100.99" width="9.04926" height="3.35158" transform="rotate(-60 105.243 100.99)" fill="white"/>
<rect x="67.4238" y="173.198" width="9.04926" height="3.35158" transform="rotate(-60 67.4238 173.198)" fill="white"/>
<rect x="71.9482" y="165.361" width="9.04926" height="3.35158" transform="rotate(-60 71.9482 165.361)" fill="white"/>
<rect x="76.4731" y="157.524" width="9.04926" height="3.35158" transform="rotate(-60 76.4731 157.524)" fill="white"/>
<rect x="80.9976" y="149.687" width="9.04926" height="3.35158" transform="rotate(-60 80.9976 149.687)" fill="white"/>
<rect x="85.522" y="141.85" width="9.04926" height="3.35158" transform="rotate(-60 85.522 141.85)" fill="white"/>
<rect x="90.0469" y="134.014" width="9.04926" height="3.35158" transform="rotate(-60 90.0469 134.014)" fill="white"/>
<rect x="94.5713" y="126.177" width="9.04926" height="3.35158" transform="rotate(-60 94.5713 126.177)" fill="white"/>
<rect x="99.0962" y="118.34" width="9.04926" height="3.35158" transform="rotate(-60 99.0962 118.34)" fill="white"/>
<rect x="103.621" y="110.503" width="9.04926" height="0.418947" transform="rotate(-60 103.621 110.503)" fill="#E6E5FF"/>
<rect x="108.146" y="102.666" width="9.04926" height="3.35158" transform="rotate(-60 108.146 102.666)" fill="white"/>
<rect x="70.3262" y="174.874" width="9.04926" height="3.35158" transform="rotate(-60 70.3262 174.874)" fill="white"/>
<rect x="74.8506" y="167.037" width="9.04926" height="3.35158" transform="rotate(-60 74.8506 167.037)" fill="white"/>
<rect x="79.3755" y="159.2" width="9.04926" height="3.35158" transform="rotate(-60 79.3755 159.2)" fill="white"/>
<rect x="83.8999" y="151.363" width="9.04926" height="3.35158" transform="rotate(-60 83.8999 151.363)" fill="white"/>
<rect x="88.4243" y="143.526" width="9.04926" height="3.35158" transform="rotate(-60 88.4243 143.526)" fill="white"/>
<rect x="92.9492" y="135.689" width="9.04926" height="3.35158" transform="rotate(-60 92.9492 135.689)" fill="white"/>
<rect x="97.4736" y="127.852" width="9.04926" height="3.35158" transform="rotate(-60 97.4736 127.852)" fill="white"/>
<rect x="101.999" y="120.016" width="9.04926" height="3.35158" transform="rotate(-60 101.999 120.016)" fill="white"/>
<rect x="106.523" y="112.179" width="9.04926" height="3.35158" transform="rotate(-60 106.523 112.179)" fill="white"/>
<rect x="111.048" y="104.342" width="9.04926" height="0.418947" transform="rotate(-60 111.048 104.342)" fill="#E6E5FF"/>
</g>
<path d="M133.934 205.899C135.25 203.62 132.185 200.648 133.501 198.37L129.915 196.299C128.6 198.578 131.665 201.55 130.349 203.829L133.934 205.899Z" fill="#F50032"/>
<path d="M137.089 200.436C138.404 198.157 135.34 195.185 136.655 192.906L133.07 190.836C131.754 193.115 134.819 196.087 133.503 198.366L137.089 200.436Z" fill="#F50032"/>
<path d="M140.241 194.976C140.52 194.494 140.598 193.922 140.459 193.386C140.32 192.851 139.974 192.396 139.499 192.121C139.023 191.847 138.457 191.775 137.923 191.922C137.39 192.07 136.934 192.423 136.655 192.906L140.241 194.976Z" fill="#F50032"/>
<rect x="13.7867" y="144.598" width="108.9" height="150.525" rx="9.45" transform="rotate(-60 13.7867 144.598)" stroke="#ADADAD" stroke-width="0.9"/>
<rect x="18.0896" y="143.446" width="102.6" height="144.225" rx="6.3" transform="rotate(-60 18.0896 143.446)" fill="white"/>
<rect x="18.0896" y="143.446" width="102.6" height="144.225" rx="6.3" transform="rotate(-60 18.0896 143.446)" stroke="white" stroke-width="5.4"/>
<mask id="mask1_3301_86222" style="mask-type:alpha" maskUnits="userSpaceOnUse" x="14" y="50" width="184" height="170">
<rect x="14.4014" y="144.434" width="108" height="149.625" transform="rotate(-60 14.4014 144.434)" fill="#D9D9D9"/>
</mask>
<g mask="url(#mask1_3301_86222)">
<rect x="21.6953" y="142.6" width="9.72" height="3.6" transform="rotate(-60 21.6953 142.6)" fill="#E6E5FF"/>
<rect x="26.5552" y="134.182" width="9.72" height="3.6" transform="rotate(-60 26.5552 134.182)" fill="white"/>
<rect x="31.4155" y="125.764" width="9.72" height="3.6" transform="rotate(-60 31.4155 125.764)" fill="#E6E5FF"/>
<rect x="36.2754" y="117.347" width="9.72" height="3.6" transform="rotate(-60 36.2754 117.347)" fill="#E6E5FF"/>
<rect x="41.1353" y="108.929" width="9.72" height="3.6" transform="rotate(-60 41.1353 108.929)" fill="#E6E5FF"/>
<rect x="45.9956" y="100.511" width="9.72" height="3.6" transform="rotate(-60 45.9956 100.511)" fill="#E6E5FF"/>
<rect x="50.8555" y="92.0934" width="9.72" height="3.6" transform="rotate(-60 50.8555 92.0934)" fill="#E6E5FF"/>
<rect x="55.7153" y="83.6757" width="9.72" height="3.6" transform="rotate(-60 55.7153 83.6757)" fill="#E6E5FF"/>
<rect x="60.5752" y="75.2578" width="9.72" height="3.6" transform="rotate(-60 60.5752 75.2578)" fill="#E6E5FF"/>
<rect x="65.4355" y="66.84" width="9.72" height="3.6" transform="rotate(-60 65.4355 66.84)" fill="#E6E5FF"/>
<rect x="24.813" y="144.4" width="9.72" height="3.6" transform="rotate(-60 24.813 144.4)" fill="white"/>
<rect x="29.6729" y="135.982" width="9.72" height="3.6" transform="rotate(-60 29.6729 135.982)" fill="#E6E5FF"/>
<rect x="34.5327" y="127.564" width="9.72" height="3.6" transform="rotate(-60 34.5327 127.564)" fill="white"/>
<rect x="39.3931" y="119.147" width="9.72" height="3.6" transform="rotate(-60 39.3931 119.147)" fill="#E6E5FF"/>
<rect x="44.2529" y="110.729" width="9.72" height="3.6" transform="rotate(-60 44.2529 110.729)" fill="#E6E5FF"/>
<rect x="49.1128" y="102.311" width="9.72" height="3.6" transform="rotate(-60 49.1128 102.311)" fill="#E6E5FF"/>
<rect x="53.9731" y="93.8933" width="9.72" height="3.6" transform="rotate(-60 53.9731 93.8933)" fill="#E6E5FF"/>
<rect x="58.833" y="85.4756" width="9.72" height="3.6" transform="rotate(-60 58.833 85.4756)" fill="#E6E5FF"/>
<rect x="63.6929" y="77.0578" width="9.72" height="3.6" transform="rotate(-60 63.6929 77.0578)" fill="#E6E5FF"/>
<rect x="68.5532" y="68.64" width="9.72" height="3.6" transform="rotate(-60 68.5532 68.64)" fill="#E6E5FF"/>
<rect x="27.9307" y="146.2" width="9.72" height="1.8" transform="rotate(-60 27.9307 146.2)" fill="#E6E5FF"/>
<rect x="32.7905" y="137.782" width="9.72" height="3.6" transform="rotate(-60 32.7905 137.782)" fill="white"/>
<rect x="37.6504" y="129.364" width="9.72" height="3.6" transform="rotate(-60 37.6504 129.364)" fill="#E6E5FF"/>
<rect x="42.5107" y="120.947" width="9.72" height="3.6" transform="rotate(-60 42.5107 120.947)" fill="white"/>
<rect x="47.3706" y="112.529" width="9.72" height="3.6" transform="rotate(-60 47.3706 112.529)" fill="#E6E5FF"/>
<rect x="52.2305" y="104.111" width="9.72" height="3.6" transform="rotate(-60 52.2305 104.111)" fill="#E6E5FF"/>
<rect x="57.0908" y="95.6932" width="9.72" height="3.6" transform="rotate(-60 57.0908 95.6932)" fill="#E6E5FF"/>
<rect x="61.9507" y="87.2755" width="9.72" height="3.6" transform="rotate(-60 61.9507 87.2755)" fill="#E6E5FF"/>
<rect x="66.8105" y="78.8577" width="9.72" height="3.6" transform="rotate(-60 66.8105 78.8577)" fill="#E6E5FF"/>
<rect x="71.6704" y="70.4399" width="9.72" height="3.6" transform="rotate(-60 71.6704 70.4399)" fill="#E6E5FF"/>
<rect x="31.0483" y="148" width="9.72" height="3.6" transform="rotate(-60 31.0483 148)" fill="white"/>
<rect x="35.9082" y="139.582" width="9.72" height="1.8" transform="rotate(-60 35.9082 139.582)" fill="#E6E5FF"/>
<rect x="40.7681" y="131.164" width="9.72" height="3.6" transform="rotate(-60 40.7681 131.164)" fill="white"/>
<rect x="45.6279" y="122.747" width="9.72" height="3.6" transform="rotate(-60 45.6279 122.747)" fill="#E6E5FF"/>
<rect x="50.4883" y="114.329" width="9.72" height="3.6" transform="rotate(-60 50.4883 114.329)" fill="white"/>
<rect x="55.3481" y="105.911" width="9.72" height="3.6" transform="rotate(-60 55.3481 105.911)" fill="#E6E5FF"/>
<rect x="60.208" y="97.4932" width="9.72" height="3.6" transform="rotate(-60 60.208 97.4932)" fill="#E6E5FF"/>
<rect x="65.0684" y="89.0754" width="9.72" height="3.6" transform="rotate(-60 65.0684 89.0754)" fill="#E6E5FF"/>
<rect x="69.9282" y="80.6577" width="9.72" height="3.6" transform="rotate(-60 69.9282 80.6577)" fill="#E6E5FF"/>
<rect x="74.7881" y="72.2399" width="9.72" height="3.6" transform="rotate(-60 74.7881 72.2399)" fill="#E6E5FF"/>
<rect x="34.166" y="149.8" width="9.72" height="0.9" transform="rotate(-60 34.166 149.8)" fill="#E6E5FF"/>
<rect x="39.0264" y="141.382" width="9.72" height="3.6" transform="rotate(-60 39.0264 141.382)" fill="white"/>
<rect x="43.8862" y="132.964" width="9.72" height="1.8" transform="rotate(-60 43.8862 132.964)" fill="#E6E5FF"/>
<rect x="48.7461" y="124.547" width="9.72" height="3.6" transform="rotate(-60 48.7461 124.547)" fill="white"/>
<rect x="53.606" y="116.129" width="9.72" height="3.6" transform="rotate(-60 53.606 116.129)" fill="#E6E5FF"/>
<rect x="58.4663" y="107.711" width="9.72" height="3.6" transform="rotate(-60 58.4663 107.711)" fill="white"/>
<rect x="63.3262" y="99.2933" width="9.72" height="3.6" transform="rotate(-60 63.3262 99.2933)" fill="#E6E5FF"/>
<rect x="68.186" y="90.8757" width="9.72" height="3.6" transform="rotate(-60 68.186 90.8757)" fill="#E6E5FF"/>
<rect x="73.0464" y="82.4578" width="9.72" height="3.6" transform="rotate(-60 73.0464 82.4578)" fill="#E6E5FF"/>
<rect x="77.9062" y="74.04" width="9.72" height="3.6" transform="rotate(-60 77.9062 74.04)" fill="#E6E5FF"/>
<rect x="37.2837" y="151.6" width="9.72" height="3.6" transform="rotate(-60 37.2837 151.6)" fill="white"/>
<rect x="42.1436" y="143.182" width="9.72" height="0.9" transform="rotate(-60 42.1436 143.182)" fill="#E6E5FF"/>
<rect x="47.0039" y="134.764" width="9.72" height="3.6" transform="rotate(-60 47.0039 134.764)" fill="white"/>
<rect x="51.8638" y="126.347" width="9.72" height="1.8" transform="rotate(-60 51.8638 126.347)" fill="#E6E5FF"/>
<rect x="56.7236" y="117.929" width="9.72" height="3.6" transform="rotate(-60 56.7236 117.929)" fill="white"/>
<rect x="61.584" y="109.511" width="9.72" height="3.6" transform="rotate(-60 61.584 109.511)" fill="#E6E5FF"/>
<rect x="66.4438" y="101.093" width="9.72" height="3.6" transform="rotate(-60 66.4438 101.093)" fill="white"/>
<rect x="71.3037" y="92.6757" width="9.72" height="3.6" transform="rotate(-60 71.3037 92.6757)" fill="#E6E5FF"/>
<rect x="76.1636" y="84.2578" width="9.72" height="3.6" transform="rotate(-60 76.1636 84.2578)" fill="#E6E5FF"/>
<rect x="81.0239" y="75.84" width="9.72" height="3.6" transform="rotate(-60 81.0239 75.84)" fill="#E6E5FF"/>
<rect x="40.4014" y="153.4" width="9.72" height="3.6" transform="rotate(-60 40.4014 153.4)" fill="white"/>
<rect x="45.2612" y="144.982" width="9.72" height="3.6" transform="rotate(-60 45.2612 144.982)" fill="white"/>
<rect x="50.1211" y="136.564" width="9.72" height="0.9" transform="rotate(-60 50.1211 136.564)" fill="#E6E5FF"/>
<rect x="54.9814" y="128.147" width="9.72" height="3.6" transform="rotate(-60 54.9814 128.147)" fill="white"/>
<rect x="59.8413" y="119.729" width="9.72" height="1.8" transform="rotate(-60 59.8413 119.729)" fill="#E6E5FF"/>
<rect x="64.7012" y="111.311" width="9.72" height="3.6" transform="rotate(-60 64.7012 111.311)" fill="white"/>
<rect x="69.5615" y="102.893" width="9.72" height="3.6" transform="rotate(-60 69.5615 102.893)" fill="#E6E5FF"/>
<rect x="74.4214" y="94.4756" width="9.72" height="3.6" transform="rotate(-60 74.4214 94.4756)" fill="white"/>
<rect x="79.2812" y="86.0578" width="9.72" height="3.6" transform="rotate(-60 79.2812 86.0578)" fill="#E6E5FF"/>
<rect x="84.1416" y="77.64" width="9.72" height="3.6" transform="rotate(-60 84.1416 77.64)" fill="#E6E5FF"/>
<rect x="43.519" y="155.2" width="9.72" height="0.45" transform="rotate(-60 43.519 155.2)" fill="#E6E5FF"/>
<rect x="48.3789" y="146.782" width="9.72" height="3.6" transform="rotate(-60 48.3789 146.782)" fill="white"/>
<rect x="53.2388" y="138.364" width="9.72" height="3.6" transform="rotate(-60 53.2388 138.364)" fill="white"/>
<rect x="58.0991" y="129.947" width="9.72" height="0.9" transform="rotate(-60 58.0991 129.947)" fill="#E6E5FF"/>
<rect x="62.959" y="121.529" width="9.72" height="3.6" transform="rotate(-60 62.959 121.529)" fill="white"/>
<rect x="67.8188" y="113.111" width="9.72" height="1.8" transform="rotate(-60 67.8188 113.111)" fill="#E6E5FF"/>
<rect x="72.6792" y="104.693" width="9.72" height="3.6" transform="rotate(-60 72.6792 104.693)" fill="white"/>
<rect x="77.5391" y="96.2755" width="9.72" height="3.6" transform="rotate(-60 77.5391 96.2755)" fill="#E6E5FF"/>
<rect x="82.3989" y="87.8577" width="9.72" height="3.6" transform="rotate(-60 82.3989 87.8577)" fill="white"/>
<rect x="87.2588" y="79.4399" width="9.72" height="3.6" transform="rotate(-60 87.2588 79.4399)" fill="#E6E5FF"/>
<rect x="46.6367" y="157" width="9.72" height="3.6" transform="rotate(-60 46.6367 157)" fill="white"/>
<rect x="51.4966" y="148.582" width="9.72" height="0.45" transform="rotate(-60 51.4966 148.582)" fill="#E6E5FF"/>
<rect x="56.3564" y="140.164" width="9.72" height="3.6" transform="rotate(-60 56.3564 140.164)" fill="white"/>
<rect x="61.2163" y="131.747" width="9.72" height="3.6" transform="rotate(-60 61.2163 131.747)" fill="white"/>
<rect x="66.0767" y="123.329" width="9.72" height="0.9" transform="rotate(-60 66.0767 123.329)" fill="#E6E5FF"/>
<rect x="70.9365" y="114.911" width="9.72" height="3.6" transform="rotate(-60 70.9365 114.911)" fill="white"/>
<rect x="75.7964" y="106.493" width="9.72" height="1.8" transform="rotate(-60 75.7964 106.493)" fill="#E6E5FF"/>
<rect x="80.6567" y="98.0754" width="9.72" height="3.6" transform="rotate(-60 80.6567 98.0754)" fill="white"/>
<rect x="85.5166" y="89.6577" width="9.72" height="3.6" transform="rotate(-60 85.5166 89.6577)" fill="#E6E5FF"/>
<rect x="90.3765" y="81.2399" width="9.72" height="3.6" transform="rotate(-60 90.3765 81.2399)" fill="white"/>
<rect x="49.7544" y="158.8" width="9.72" height="3.6" transform="rotate(-60 49.7544 158.8)" fill="white"/>
<rect x="54.6147" y="150.382" width="9.72" height="3.6" transform="rotate(-60 54.6147 150.382)" fill="white"/>
<rect x="59.4746" y="141.964" width="9.72" height="0.45" transform="rotate(-60 59.4746 141.964)" fill="#E6E5FF"/>
<rect x="64.3345" y="133.547" width="9.72" height="3.6" transform="rotate(-60 64.3345 133.547)" fill="white"/>
<rect x="69.1943" y="125.129" width="9.72" height="3.6" transform="rotate(-60 69.1943 125.129)" fill="white"/>
<rect x="74.0547" y="116.711" width="9.72" height="0.9" transform="rotate(-60 74.0547 116.711)" fill="#E6E5FF"/>
<rect x="78.9146" y="108.293" width="9.72" height="3.6" transform="rotate(-60 78.9146 108.293)" fill="white"/>
<rect x="83.7744" y="99.8757" width="9.72" height="1.8" transform="rotate(-60 83.7744 99.8757)" fill="#E6E5FF"/>
<rect x="88.6348" y="91.4578" width="9.72" height="3.6" transform="rotate(-60 88.6348 91.4578)" fill="white"/>
<rect x="93.4946" y="83.04" width="9.72" height="3.6" transform="rotate(-60 93.4946 83.04)" fill="#E6E5FF"/>
<rect x="52.8721" y="160.6" width="9.72" height="3.6" transform="rotate(-60 52.8721 160.6)" fill="white"/>
<rect x="57.7319" y="152.182" width="9.72" height="3.6" transform="rotate(-60 57.7319 152.182)" fill="white"/>
<rect x="62.5923" y="143.764" width="9.72" height="3.6" transform="rotate(-60 62.5923 143.764)" fill="white"/>
<rect x="67.4521" y="135.347" width="9.72" height="0.45" transform="rotate(-60 67.4521 135.347)" fill="#E6E5FF"/>
<rect x="72.312" y="126.929" width="9.72" height="3.6" transform="rotate(-60 72.312 126.929)" fill="white"/>
<rect x="77.1724" y="118.511" width="9.72" height="3.6" transform="rotate(-60 77.1724 118.511)" fill="white"/>
<rect x="82.0322" y="110.093" width="9.72" height="0.9" transform="rotate(-60 82.0322 110.093)" fill="#E6E5FF"/>
<rect x="86.8921" y="101.676" width="9.72" height="3.6" transform="rotate(-60 86.8921 101.676)" fill="white"/>
<rect x="91.752" y="93.2578" width="9.72" height="1.8" transform="rotate(-60 91.752 93.2578)" fill="#E6E5FF"/>
<rect x="96.6123" y="84.84" width="9.72" height="3.6" transform="rotate(-60 96.6123 84.84)" fill="white"/>
<rect x="55.9897" y="162.4" width="9.72" height="3.6" transform="rotate(-60 55.9897 162.4)" fill="white"/>
<rect x="60.8496" y="153.982" width="9.72" height="3.6" transform="rotate(-60 60.8496 153.982)" fill="white"/>
<rect x="65.7095" y="145.564" width="9.72" height="3.6" transform="rotate(-60 65.7095 145.564)" fill="white"/>
<rect x="70.5698" y="137.147" width="9.72" height="3.6" transform="rotate(-60 70.5698 137.147)" fill="white"/>
<rect x="75.4297" y="128.729" width="9.72" height="0.45" transform="rotate(-60 75.4297 128.729)" fill="#E6E5FF"/>
<rect x="80.2896" y="120.311" width="9.72" height="3.6" transform="rotate(-60 80.2896 120.311)" fill="white"/>
<rect x="85.1499" y="111.893" width="9.72" height="3.6" transform="rotate(-60 85.1499 111.893)" fill="white"/>
<rect x="90.0098" y="103.476" width="9.72" height="0.9" transform="rotate(-60 90.0098 103.476)" fill="#E6E5FF"/>
<rect x="94.8696" y="95.0578" width="9.72" height="3.6" transform="rotate(-60 94.8696 95.0578)" fill="white"/>
<rect x="99.73" y="86.64" width="9.72" height="1.8" transform="rotate(-60 99.73 86.64)" fill="#E6E5FF"/>
<rect x="59.1079" y="164.2" width="9.72" height="3.6" transform="rotate(-60 59.1079 164.2)" fill="white"/>
<rect x="63.9678" y="155.782" width="9.72" height="3.6" transform="rotate(-60 63.9678 155.782)" fill="white"/>
<rect x="68.8276" y="147.364" width="9.72" height="3.6" transform="rotate(-60 68.8276 147.364)" fill="white"/>
<rect x="73.688" y="138.947" width="9.72" height="3.6" transform="rotate(-60 73.688 138.947)" fill="white"/>
<rect x="78.5479" y="130.529" width="9.72" height="3.6" transform="rotate(-60 78.5479 130.529)" fill="white"/>
<rect x="83.4077" y="122.111" width="9.72" height="0.45" transform="rotate(-60 83.4077 122.111)" fill="#E6E5FF"/>
<rect x="88.2681" y="113.693" width="9.72" height="3.6" transform="rotate(-60 88.2681 113.693)" fill="white"/>
<rect x="93.1279" y="105.276" width="9.72" height="3.6" transform="rotate(-60 93.1279 105.276)" fill="white"/>
<rect x="97.9878" y="96.8577" width="9.72" height="0.9" transform="rotate(-60 97.9878 96.8577)" fill="#E6E5FF"/>
<rect x="102.848" y="88.4399" width="9.72" height="3.6" transform="rotate(-60 102.848 88.4399)" fill="white"/>
<rect x="62.2256" y="166" width="9.72" height="3.6" transform="rotate(-60 62.2256 166)" fill="white"/>
<rect x="67.0854" y="157.582" width="9.72" height="3.6" transform="rotate(-60 67.0854 157.582)" fill="white"/>
<rect x="71.9453" y="149.164" width="9.72" height="3.6" transform="rotate(-60 71.9453 149.164)" fill="white"/>
<rect x="76.8052" y="140.747" width="9.72" height="3.6" transform="rotate(-60 76.8052 140.747)" fill="white"/>
<rect x="81.6655" y="132.329" width="9.72" height="3.6" transform="rotate(-60 81.6655 132.329)" fill="white"/>
<rect x="86.5254" y="123.911" width="9.72" height="3.6" transform="rotate(-60 86.5254 123.911)" fill="white"/>
<rect x="91.3853" y="115.493" width="9.72" height="0.45" transform="rotate(-60 91.3853 115.493)" fill="#E6E5FF"/>
<rect x="96.2456" y="107.075" width="9.72" height="3.6" transform="rotate(-60 96.2456 107.075)" fill="white"/>
<rect x="101.105" y="98.6577" width="9.72" height="3.6" transform="rotate(-60 101.105 98.6577)" fill="white"/>
<rect x="105.965" y="90.2399" width="9.72" height="0.9" transform="rotate(-60 105.965 90.2399)" fill="#E6E5FF"/>
<rect x="65.3433" y="167.8" width="9.72" height="3.6" transform="rotate(-60 65.3433 167.8)" fill="white"/>
<rect x="70.2036" y="159.382" width="9.72" height="3.6" transform="rotate(-60 70.2036 159.382)" fill="white"/>
<rect x="75.0635" y="150.964" width="9.72" height="3.6" transform="rotate(-60 75.0635 150.964)" fill="white"/>
<rect x="79.9233" y="142.547" width="9.72" height="3.6" transform="rotate(-60 79.9233 142.547)" fill="white"/>
<rect x="84.7832" y="134.129" width="9.72" height="3.6" transform="rotate(-60 84.7832 134.129)" fill="white"/>
<rect x="89.6436" y="125.711" width="9.72" height="3.6" transform="rotate(-60 89.6436 125.711)" fill="white"/>
<rect x="94.5034" y="117.293" width="9.72" height="3.6" transform="rotate(-60 94.5034 117.293)" fill="white"/>
<rect x="99.3633" y="108.876" width="9.72" height="0.45" transform="rotate(-60 99.3633 108.876)" fill="#E6E5FF"/>
<rect x="104.224" y="100.458" width="9.72" height="3.6" transform="rotate(-60 104.224 100.458)" fill="white"/>
<rect x="109.083" y="92.04" width="9.72" height="3.6" transform="rotate(-60 109.083 92.04)" fill="white"/>
<rect x="68.4609" y="169.6" width="9.72" height="3.6" transform="rotate(-60 68.4609 169.6)" fill="white"/>
<rect x="73.3208" y="161.182" width="9.72" height="3.6" transform="rotate(-60 73.3208 161.182)" fill="white"/>
<rect x="78.1812" y="152.764" width="9.72" height="3.6" transform="rotate(-60 78.1812 152.764)" fill="white"/>
<rect x="83.041" y="144.347" width="9.72" height="3.6" transform="rotate(-60 83.041 144.347)" fill="white"/>
<rect x="87.9009" y="135.929" width="9.72" height="3.6" transform="rotate(-60 87.9009 135.929)" fill="white"/>
<rect x="92.7612" y="127.511" width="9.72" height="3.6" transform="rotate(-60 92.7612 127.511)" fill="white"/>
<rect x="97.6211" y="119.093" width="9.72" height="3.6" transform="rotate(-60 97.6211 119.093)" fill="white"/>
<rect x="102.481" y="110.676" width="9.72" height="3.6" transform="rotate(-60 102.481 110.676)" fill="white"/>
<rect x="107.341" y="102.258" width="9.72" height="0.45" transform="rotate(-60 107.341 102.258)" fill="#E6E5FF"/>
<rect x="112.201" y="93.84" width="9.72" height="3.6" transform="rotate(-60 112.201 93.84)" fill="white"/>
<rect x="71.5786" y="171.4" width="9.72" height="3.6" transform="rotate(-60 71.5786 171.4)" fill="white"/>
<rect x="76.4385" y="162.982" width="9.72" height="3.6" transform="rotate(-60 76.4385 162.982)" fill="white"/>
<rect x="81.2983" y="154.564" width="9.72" height="3.6" transform="rotate(-60 81.2983 154.564)" fill="white"/>
<rect x="86.1587" y="146.147" width="9.72" height="3.6" transform="rotate(-60 86.1587 146.147)" fill="white"/>
<rect x="91.0186" y="137.729" width="9.72" height="3.6" transform="rotate(-60 91.0186 137.729)" fill="white"/>
<rect x="95.8784" y="129.311" width="9.72" height="3.6" transform="rotate(-60 95.8784 129.311)" fill="white"/>
<rect x="100.739" y="120.893" width="9.72" height="3.6" transform="rotate(-60 100.739 120.893)" fill="white"/>
<rect x="105.599" y="112.476" width="9.72" height="3.6" transform="rotate(-60 105.599 112.476)" fill="white"/>
<rect x="110.458" y="104.058" width="9.72" height="3.6" transform="rotate(-60 110.458 104.058)" fill="white"/>
<rect x="115.319" y="95.64" width="9.72" height="0.45" transform="rotate(-60 115.319 95.64)" fill="#E6E5FF"/>
</g>
<path d="M139.902 204.725C141.315 202.277 138.023 199.084 139.436 196.637L135.584 194.413C134.171 196.861 137.463 200.053 136.05 202.501L139.902 204.725Z" fill="#F50032"/>
<path d="M143.29 198.857C144.703 196.409 141.411 193.216 142.824 190.769L138.973 188.545C137.56 190.993 140.851 194.186 139.438 196.633L143.29 198.857Z" fill="#F50032"/>
<path d="M146.675 192.992C146.974 192.474 147.059 191.86 146.909 191.285C146.76 190.709 146.389 190.221 145.878 189.926C145.367 189.631 144.759 189.554 144.186 189.712C143.613 189.87 143.123 190.25 142.824 190.769L146.675 192.992Z" fill="#F50032"/>
<rect x="11.4224" y="138.644" width="114.95" height="158.887" rx="9.975" transform="rotate(-60 11.4224 138.644)" stroke="#ADADAD" stroke-width="0.95"/>
<rect x="15.9645" y="137.427" width="108.3" height="152.238" rx="6.65" transform="rotate(-60 15.9645 137.427)" fill="white"/>
<rect x="15.9645" y="137.427" width="108.3" height="152.238" rx="6.65" transform="rotate(-60 15.9645 137.427)" stroke="white" stroke-width="5.7"/>
<mask id="mask2_3301_86222" style="mask-type:alpha" maskUnits="userSpaceOnUse" x="12" y="39" width="194" height="179">
<rect x="12.0713" y="138.47" width="114" height="157.938" transform="rotate(-60 12.0713 138.47)" fill="#D9D9D9"/>
</mask>
<g mask="url(#mask2_3301_86222)">
<rect x="19.7705" y="136.534" width="10.26" height="3.8" transform="rotate(-60 19.7705 136.534)" fill="#E6E5FF"/>
<rect x="24.9004" y="127.648" width="10.26" height="3.8" transform="rotate(-60 24.9004 127.648)" fill="white"/>
<rect x="30.0303" y="118.763" width="10.26" height="3.8" transform="rotate(-60 30.0303 118.763)" fill="#E6E5FF"/>
<rect x="35.1602" y="109.878" width="10.26" height="3.8" transform="rotate(-60 35.1602 109.878)" fill="#E6E5FF"/>
<rect x="40.2905" y="100.992" width="10.26" height="3.8" transform="rotate(-60 40.2905 100.992)" fill="#E6E5FF"/>
<rect x="45.4204" y="92.1067" width="10.26" height="3.8" transform="rotate(-60 45.4204 92.1067)" fill="#E6E5FF"/>
<rect x="50.5503" y="83.2213" width="10.26" height="3.8" transform="rotate(-60 50.5503 83.2213)" fill="#E6E5FF"/>
<rect x="55.6802" y="74.3359" width="10.26" height="3.8" transform="rotate(-60 55.6802 74.3359)" fill="#E6E5FF"/>
<rect x="60.8105" y="65.4504" width="10.26" height="3.8" transform="rotate(-60 60.8105 65.4504)" fill="#E6E5FF"/>
<rect x="65.9404" y="56.5649" width="10.26" height="3.8" transform="rotate(-60 65.9404 56.5649)" fill="#E6E5FF"/>
<rect x="23.0615" y="138.434" width="10.26" height="3.8" transform="rotate(-60 23.0615 138.434)" fill="white"/>
<rect x="28.1914" y="129.548" width="10.26" height="3.8" transform="rotate(-60 28.1914 129.548)" fill="#E6E5FF"/>
<rect x="33.3218" y="120.663" width="10.26" height="3.8" transform="rotate(-60 33.3218 120.663)" fill="white"/>
<rect x="38.4517" y="111.778" width="10.26" height="3.8" transform="rotate(-60 38.4517 111.778)" fill="#E6E5FF"/>
<rect x="43.5815" y="102.892" width="10.26" height="3.8" transform="rotate(-60 43.5815 102.892)" fill="#E6E5FF"/>
<rect x="48.7114" y="94.0068" width="10.26" height="3.8" transform="rotate(-60 48.7114 94.0068)" fill="#E6E5FF"/>
<rect x="53.8418" y="85.1213" width="10.26" height="3.8" transform="rotate(-60 53.8418 85.1213)" fill="#E6E5FF"/>
<rect x="58.9717" y="76.236" width="10.26" height="3.8" transform="rotate(-60 58.9717 76.236)" fill="#E6E5FF"/>
<rect x="64.1016" y="67.3505" width="10.26" height="3.8" transform="rotate(-60 64.1016 67.3505)" fill="#E6E5FF"/>
<rect x="69.2314" y="58.4651" width="10.26" height="3.8" transform="rotate(-60 69.2314 58.4651)" fill="#E6E5FF"/>
<rect x="26.3525" y="140.334" width="10.26" height="1.9" transform="rotate(-60 26.3525 140.334)" fill="#E6E5FF"/>
<rect x="31.4829" y="131.449" width="10.26" height="3.8" transform="rotate(-60 31.4829 131.449)" fill="white"/>
<rect x="36.6128" y="122.563" width="10.26" height="3.8" transform="rotate(-60 36.6128 122.563)" fill="#E6E5FF"/>
<rect x="41.7427" y="113.678" width="10.26" height="3.8" transform="rotate(-60 41.7427 113.678)" fill="white"/>
<rect x="46.8726" y="104.792" width="10.26" height="3.8" transform="rotate(-60 46.8726 104.792)" fill="#E6E5FF"/>
<rect x="52.0029" y="95.9069" width="10.26" height="3.8" transform="rotate(-60 52.0029 95.9069)" fill="#E6E5FF"/>
<rect x="57.1328" y="87.0215" width="10.26" height="3.8" transform="rotate(-60 57.1328 87.0215)" fill="#E6E5FF"/>
<rect x="62.2627" y="78.1361" width="10.26" height="3.8" transform="rotate(-60 62.2627 78.1361)" fill="#E6E5FF"/>
<rect x="67.3926" y="69.2507" width="10.26" height="3.8" transform="rotate(-60 67.3926 69.2507)" fill="#E6E5FF"/>
<rect x="72.5229" y="60.3652" width="10.26" height="3.8" transform="rotate(-60 72.5229 60.3652)" fill="#E6E5FF"/>
<rect x="29.6436" y="142.234" width="10.26" height="3.8" transform="rotate(-60 29.6436 142.234)" fill="white"/>
<rect x="34.7734" y="133.348" width="10.26" height="1.9" transform="rotate(-60 34.7734 133.348)" fill="#E6E5FF"/>
<rect x="39.9033" y="124.463" width="10.26" height="3.8" transform="rotate(-60 39.9033 124.463)" fill="white"/>
<rect x="45.0337" y="115.578" width="10.26" height="3.8" transform="rotate(-60 45.0337 115.578)" fill="#E6E5FF"/>
<rect x="50.1636" y="106.692" width="10.26" height="3.8" transform="rotate(-60 50.1636 106.692)" fill="white"/>
<rect x="55.2935" y="97.8068" width="10.26" height="3.8" transform="rotate(-60 55.2935 97.8068)" fill="#E6E5FF"/>
<rect x="60.4233" y="88.9213" width="10.26" height="3.8" transform="rotate(-60 60.4233 88.9213)" fill="#E6E5FF"/>
<rect x="65.5537" y="80.0359" width="10.26" height="3.8" transform="rotate(-60 65.5537 80.0359)" fill="#E6E5FF"/>
<rect x="70.6836" y="71.1505" width="10.26" height="3.8" transform="rotate(-60 70.6836 71.1505)" fill="#E6E5FF"/>
<rect x="75.8135" y="62.265" width="10.26" height="3.8" transform="rotate(-60 75.8135 62.265)" fill="#E6E5FF"/>
<rect x="32.9341" y="144.134" width="10.26" height="0.95" transform="rotate(-60 32.9341 144.134)" fill="#E6E5FF"/>
<rect x="38.0645" y="135.249" width="10.26" height="3.8" transform="rotate(-60 38.0645 135.249)" fill="white"/>
<rect x="43.1943" y="126.363" width="10.26" height="1.9" transform="rotate(-60 43.1943 126.363)" fill="#E6E5FF"/>
<rect x="48.3242" y="117.478" width="10.26" height="3.8" transform="rotate(-60 48.3242 117.478)" fill="white"/>
<rect x="53.4541" y="108.592" width="10.26" height="3.8" transform="rotate(-60 53.4541 108.592)" fill="#E6E5FF"/>
<rect x="58.584" y="99.7069" width="10.26" height="3.8" transform="rotate(-60 58.584 99.7069)" fill="white"/>
<rect x="63.7144" y="90.8214" width="10.26" height="3.8" transform="rotate(-60 63.7144 90.8214)" fill="#E6E5FF"/>
<rect x="68.8442" y="81.936" width="10.26" height="3.8" transform="rotate(-60 68.8442 81.936)" fill="#E6E5FF"/>
<rect x="73.9741" y="73.0506" width="10.26" height="3.8" transform="rotate(-60 73.9741 73.0506)" fill="#E6E5FF"/>
<rect x="79.104" y="64.1652" width="10.26" height="3.8" transform="rotate(-60 79.104 64.1652)" fill="#E6E5FF"/>
<rect x="36.2251" y="146.034" width="10.26" height="3.8" transform="rotate(-60 36.2251 146.034)" fill="white"/>
<rect x="41.355" y="137.148" width="10.26" height="0.95" transform="rotate(-60 41.355 137.148)" fill="#E6E5FF"/>
<rect x="46.4849" y="128.263" width="10.26" height="3.8" transform="rotate(-60 46.4849 128.263)" fill="white"/>
<rect x="51.6147" y="119.378" width="10.26" height="1.9" transform="rotate(-60 51.6147 119.378)" fill="#E6E5FF"/>
<rect x="56.7451" y="110.492" width="10.26" height="3.8" transform="rotate(-60 56.7451 110.492)" fill="white"/>
<rect x="61.875" y="101.607" width="10.26" height="3.8" transform="rotate(-60 61.875 101.607)" fill="#E6E5FF"/>
<rect x="67.0049" y="92.7213" width="10.26" height="3.8" transform="rotate(-60 67.0049 92.7213)" fill="white"/>
<rect x="72.1348" y="83.8359" width="10.26" height="3.8" transform="rotate(-60 72.1348 83.8359)" fill="#E6E5FF"/>
<rect x="77.2651" y="74.9504" width="10.26" height="3.8" transform="rotate(-60 77.2651 74.9504)" fill="#E6E5FF"/>
<rect x="82.395" y="66.0649" width="10.26" height="3.8" transform="rotate(-60 82.395 66.0649)" fill="#E6E5FF"/>
<rect x="39.5161" y="147.934" width="10.26" height="3.8" transform="rotate(-60 39.5161 147.934)" fill="white"/>
<rect x="44.646" y="139.048" width="10.26" height="3.8" transform="rotate(-60 44.646 139.048)" fill="white"/>
<rect x="49.7759" y="130.163" width="10.26" height="0.95" transform="rotate(-60 49.7759 130.163)" fill="#E6E5FF"/>
<rect x="54.9062" y="121.278" width="10.26" height="3.8" transform="rotate(-60 54.9062 121.278)" fill="white"/>
<rect x="60.0361" y="112.392" width="10.26" height="1.9" transform="rotate(-60 60.0361 112.392)" fill="#E6E5FF"/>
<rect x="65.166" y="103.507" width="10.26" height="3.8" transform="rotate(-60 65.166 103.507)" fill="white"/>
<rect x="70.2964" y="94.6213" width="10.26" height="3.8" transform="rotate(-60 70.2964 94.6213)" fill="#E6E5FF"/>
<rect x="75.4263" y="85.736" width="10.26" height="3.8" transform="rotate(-60 75.4263 85.736)" fill="white"/>
<rect x="80.5562" y="76.8505" width="10.26" height="3.8" transform="rotate(-60 80.5562 76.8505)" fill="#E6E5FF"/>
<rect x="85.686" y="67.9651" width="10.26" height="3.8" transform="rotate(-60 85.686 67.9651)" fill="#E6E5FF"/>
<rect x="42.8071" y="149.834" width="10.26" height="0.475" transform="rotate(-60 42.8071 149.834)" fill="#E6E5FF"/>
<rect x="47.9375" y="140.949" width="10.26" height="3.8" transform="rotate(-60 47.9375 140.949)" fill="white"/>
<rect x="53.0674" y="132.063" width="10.26" height="3.8" transform="rotate(-60 53.0674 132.063)" fill="white"/>
<rect x="58.1973" y="123.178" width="10.26" height="0.95" transform="rotate(-60 58.1973 123.178)" fill="#E6E5FF"/>
<rect x="63.3271" y="114.292" width="10.26" height="3.8" transform="rotate(-60 63.3271 114.292)" fill="white"/>
<rect x="68.4575" y="105.407" width="10.26" height="1.9" transform="rotate(-60 68.4575 105.407)" fill="#E6E5FF"/>
<rect x="73.5874" y="96.5215" width="10.26" height="3.8" transform="rotate(-60 73.5874 96.5215)" fill="white"/>
<rect x="78.7173" y="87.6361" width="10.26" height="3.8" transform="rotate(-60 78.7173 87.6361)" fill="#E6E5FF"/>
<rect x="83.8472" y="78.7507" width="10.26" height="3.8" transform="rotate(-60 83.8472 78.7507)" fill="white"/>
<rect x="88.9775" y="69.8652" width="10.26" height="3.8" transform="rotate(-60 88.9775 69.8652)" fill="#E6E5FF"/>
<rect x="46.0977" y="151.734" width="10.26" height="3.8" transform="rotate(-60 46.0977 151.734)" fill="white"/>
<rect x="51.2275" y="142.848" width="10.26" height="0.475" transform="rotate(-60 51.2275 142.848)" fill="#E6E5FF"/>
<rect x="56.3574" y="133.963" width="10.26" height="3.8" transform="rotate(-60 56.3574 133.963)" fill="white"/>
<rect x="61.4878" y="125.078" width="10.26" height="3.8" transform="rotate(-60 61.4878 125.078)" fill="white"/>
<rect x="66.6177" y="116.192" width="10.26" height="0.95" transform="rotate(-60 66.6177 116.192)" fill="#E6E5FF"/>
<rect x="71.7476" y="107.307" width="10.26" height="3.8" transform="rotate(-60 71.7476 107.307)" fill="white"/>
<rect x="76.8774" y="98.4213" width="10.26" height="1.9" transform="rotate(-60 76.8774 98.4213)" fill="#E6E5FF"/>
<rect x="82.0078" y="89.5359" width="10.26" height="3.8" transform="rotate(-60 82.0078 89.5359)" fill="white"/>
<rect x="87.1377" y="80.6505" width="10.26" height="3.8" transform="rotate(-60 87.1377 80.6505)" fill="#E6E5FF"/>
<rect x="92.2676" y="71.765" width="10.26" height="3.8" transform="rotate(-60 92.2676 71.765)" fill="white"/>
<rect x="49.3887" y="153.634" width="10.26" height="3.8" transform="rotate(-60 49.3887 153.634)" fill="white"/>
<rect x="54.519" y="144.749" width="10.26" height="3.8" transform="rotate(-60 54.519 144.749)" fill="white"/>
<rect x="59.6489" y="135.863" width="10.26" height="0.475" transform="rotate(-60 59.6489 135.863)" fill="#E6E5FF"/>
<rect x="64.7788" y="126.978" width="10.26" height="3.8" transform="rotate(-60 64.7788 126.978)" fill="white"/>
<rect x="69.9087" y="118.092" width="10.26" height="3.8" transform="rotate(-60 69.9087 118.092)" fill="white"/>
<rect x="75.0386" y="109.207" width="10.26" height="0.95" transform="rotate(-60 75.0386 109.207)" fill="#E6E5FF"/>
<rect x="80.1689" y="100.321" width="10.26" height="3.8" transform="rotate(-60 80.1689 100.321)" fill="white"/>
<rect x="85.2988" y="91.436" width="10.26" height="1.9" transform="rotate(-60 85.2988 91.436)" fill="#E6E5FF"/>
<rect x="90.4287" y="82.5506" width="10.26" height="3.8" transform="rotate(-60 90.4287 82.5506)" fill="white"/>
<rect x="95.5586" y="73.6652" width="10.26" height="3.8" transform="rotate(-60 95.5586 73.6652)" fill="#E6E5FF"/>
<rect x="52.6797" y="155.534" width="10.26" height="3.8" transform="rotate(-60 52.6797 155.534)" fill="white"/>
<rect x="57.8096" y="146.648" width="10.26" height="3.8" transform="rotate(-60 57.8096 146.648)" fill="white"/>
<rect x="62.9395" y="137.763" width="10.26" height="3.8" transform="rotate(-60 62.9395 137.763)" fill="white"/>
<rect x="68.0693" y="128.878" width="10.26" height="0.475" transform="rotate(-60 68.0693 128.878)" fill="#E6E5FF"/>
<rect x="73.1997" y="119.992" width="10.26" height="3.8" transform="rotate(-60 73.1997 119.992)" fill="white"/>
<rect x="78.3296" y="111.107" width="10.26" height="3.8" transform="rotate(-60 78.3296 111.107)" fill="white"/>
<rect x="83.4595" y="102.221" width="10.26" height="0.95" transform="rotate(-60 83.4595 102.221)" fill="#E6E5FF"/>
<rect x="88.5894" y="93.3359" width="10.26" height="3.8" transform="rotate(-60 88.5894 93.3359)" fill="white"/>
<rect x="93.7197" y="84.4504" width="10.26" height="1.9" transform="rotate(-60 93.7197 84.4504)" fill="#E6E5FF"/>
<rect x="98.8496" y="75.5649" width="10.26" height="3.8" transform="rotate(-60 98.8496 75.5649)" fill="white"/>
<rect x="55.9707" y="157.434" width="10.26" height="3.8" transform="rotate(-60 55.9707 157.434)" fill="white"/>
<rect x="61.1006" y="148.548" width="10.26" height="3.8" transform="rotate(-60 61.1006 148.548)" fill="white"/>
<rect x="66.2305" y="139.663" width="10.26" height="3.8" transform="rotate(-60 66.2305 139.663)" fill="white"/>
<rect x="71.3608" y="130.778" width="10.26" height="3.8" transform="rotate(-60 71.3608 130.778)" fill="white"/>
<rect x="76.4907" y="121.892" width="10.26" height="0.475" transform="rotate(-60 76.4907 121.892)" fill="#E6E5FF"/>
<rect x="81.6206" y="113.007" width="10.26" height="3.8" transform="rotate(-60 81.6206 113.007)" fill="white"/>
<rect x="86.751" y="104.121" width="10.26" height="3.8" transform="rotate(-60 86.751 104.121)" fill="white"/>
<rect x="91.8809" y="95.236" width="10.26" height="0.95" transform="rotate(-60 91.8809 95.236)" fill="#E6E5FF"/>
<rect x="97.0107" y="86.3505" width="10.26" height="3.8" transform="rotate(-60 97.0107 86.3505)" fill="white"/>
<rect x="102.141" y="77.4651" width="10.26" height="1.9" transform="rotate(-60 102.141 77.4651)" fill="#E6E5FF"/>
<rect x="59.2617" y="159.334" width="10.26" height="3.8" transform="rotate(-60 59.2617 159.334)" fill="white"/>
<rect x="64.3921" y="150.449" width="10.26" height="3.8" transform="rotate(-60 64.3921 150.449)" fill="white"/>
<rect x="69.522" y="141.563" width="10.26" height="3.8" transform="rotate(-60 69.522 141.563)" fill="white"/>
<rect x="74.6519" y="132.678" width="10.26" height="3.8" transform="rotate(-60 74.6519 132.678)" fill="white"/>
<rect x="79.7817" y="123.792" width="10.26" height="3.8" transform="rotate(-60 79.7817 123.792)" fill="white"/>
<rect x="84.9121" y="114.907" width="10.26" height="0.475" transform="rotate(-60 84.9121 114.907)" fill="#E6E5FF"/>
<rect x="90.042" y="106.021" width="10.26" height="3.8" transform="rotate(-60 90.042 106.021)" fill="white"/>
<rect x="95.1719" y="97.1361" width="10.26" height="3.8" transform="rotate(-60 95.1719 97.1361)" fill="white"/>
<rect x="100.302" y="88.2507" width="10.26" height="0.95" transform="rotate(-60 100.302 88.2507)" fill="#E6E5FF"/>
<rect x="105.432" y="79.3652" width="10.26" height="3.8" transform="rotate(-60 105.432 79.3652)" fill="white"/>
<rect x="62.5522" y="161.234" width="10.26" height="3.8" transform="rotate(-60 62.5522 161.234)" fill="white"/>
<rect x="67.6821" y="152.348" width="10.26" height="3.8" transform="rotate(-60 67.6821 152.348)" fill="white"/>
<rect x="72.812" y="143.463" width="10.26" height="3.8" transform="rotate(-60 72.812 143.463)" fill="white"/>
<rect x="77.9424" y="134.578" width="10.26" height="3.8" transform="rotate(-60 77.9424 134.578)" fill="white"/>
<rect x="83.0723" y="125.692" width="10.26" height="3.8" transform="rotate(-60 83.0723 125.692)" fill="white"/>
<rect x="88.2021" y="116.807" width="10.26" height="3.8" transform="rotate(-60 88.2021 116.807)" fill="white"/>
<rect x="93.332" y="107.921" width="10.26" height="0.475" transform="rotate(-60 93.332 107.921)" fill="#E6E5FF"/>
<rect x="98.4624" y="99.0359" width="10.26" height="3.8" transform="rotate(-60 98.4624 99.0359)" fill="white"/>
<rect x="103.592" y="90.1505" width="10.26" height="3.8" transform="rotate(-60 103.592 90.1505)" fill="white"/>
<rect x="108.722" y="81.265" width="10.26" height="0.95" transform="rotate(-60 108.722 81.265)" fill="#E6E5FF"/>
<rect x="65.8433" y="163.134" width="10.26" height="3.8" transform="rotate(-60 65.8433 163.134)" fill="white"/>
<rect x="70.9736" y="154.249" width="10.26" height="3.8" transform="rotate(-60 70.9736 154.249)" fill="white"/>
<rect x="76.1035" y="145.363" width="10.26" height="3.8" transform="rotate(-60 76.1035 145.363)" fill="white"/>
<rect x="81.2334" y="136.478" width="10.26" height="3.8" transform="rotate(-60 81.2334 136.478)" fill="white"/>
<rect x="86.3633" y="127.592" width="10.26" height="3.8" transform="rotate(-60 86.3633 127.592)" fill="white"/>
<rect x="91.4932" y="118.707" width="10.26" height="3.8" transform="rotate(-60 91.4932 118.707)" fill="white"/>
<rect x="96.6235" y="109.821" width="10.26" height="3.8" transform="rotate(-60 96.6235 109.821)" fill="white"/>
<rect x="101.753" y="100.936" width="10.26" height="0.475" transform="rotate(-60 101.753 100.936)" fill="#E6E5FF"/>
<rect x="106.883" y="92.0506" width="10.26" height="3.8" transform="rotate(-60 106.883 92.0506)" fill="white"/>
<rect x="112.013" y="83.1652" width="10.26" height="3.8" transform="rotate(-60 112.013 83.1652)" fill="white"/>
<rect x="69.1343" y="165.034" width="10.26" height="3.8" transform="rotate(-60 69.1343 165.034)" fill="white"/>
<rect x="74.2642" y="156.148" width="10.26" height="3.8" transform="rotate(-60 74.2642 156.148)" fill="white"/>
<rect x="79.394" y="147.263" width="10.26" height="3.8" transform="rotate(-60 79.394 147.263)" fill="white"/>
<rect x="84.5239" y="138.378" width="10.26" height="3.8" transform="rotate(-60 84.5239 138.378)" fill="white"/>
<rect x="89.6543" y="129.492" width="10.26" height="3.8" transform="rotate(-60 89.6543 129.492)" fill="white"/>
<rect x="94.7842" y="120.607" width="10.26" height="3.8" transform="rotate(-60 94.7842 120.607)" fill="white"/>
<rect x="99.9141" y="111.721" width="10.26" height="3.8" transform="rotate(-60 99.9141 111.721)" fill="white"/>
<rect x="105.044" y="102.836" width="10.26" height="3.8" transform="rotate(-60 105.044 102.836)" fill="white"/>
<rect x="110.174" y="93.9504" width="10.26" height="0.475" transform="rotate(-60 110.174 93.9504)" fill="#E6E5FF"/>
<rect x="115.304" y="85.0649" width="10.26" height="3.8" transform="rotate(-60 115.304 85.0649)" fill="white"/>
<rect x="72.4253" y="166.934" width="10.26" height="3.8" transform="rotate(-60 72.4253 166.934)" fill="white"/>
<rect x="77.5552" y="158.048" width="10.26" height="3.8" transform="rotate(-60 77.5552 158.048)" fill="white"/>
<rect x="82.6851" y="149.163" width="10.26" height="3.8" transform="rotate(-60 82.6851 149.163)" fill="white"/>
<rect x="87.8154" y="140.278" width="10.26" height="3.8" transform="rotate(-60 87.8154 140.278)" fill="white"/>
<rect x="92.9453" y="131.392" width="10.26" height="3.8" transform="rotate(-60 92.9453 131.392)" fill="white"/>
<rect x="98.0752" y="122.507" width="10.26" height="3.8" transform="rotate(-60 98.0752 122.507)" fill="white"/>
<rect x="103.206" y="113.621" width="10.26" height="3.8" transform="rotate(-60 103.206 113.621)" fill="white"/>
<rect x="108.335" y="104.736" width="10.26" height="3.8" transform="rotate(-60 108.335 104.736)" fill="white"/>
<rect x="113.465" y="95.8505" width="10.26" height="3.8" transform="rotate(-60 113.465 95.8505)" fill="white"/>
<rect x="118.595" y="86.9651" width="10.26" height="0.475" transform="rotate(-60 118.595 86.9651)" fill="#E6E5FF"/>
</g>
<path d="M144.544 202.11C146.036 199.527 142.561 196.156 144.052 193.573L139.987 191.226C138.495 193.809 141.97 197.179 140.478 199.763L144.544 202.11Z" fill="#F50032"/>
<path d="M148.12 195.916C149.611 193.333 146.137 189.962 147.628 187.379L143.563 185.032C142.072 187.615 145.546 190.986 144.055 193.569L148.12 195.916Z" fill="#F50032"/>
<path d="M151.694 189.726C152.01 189.179 152.099 188.53 151.941 187.923C151.783 187.316 151.391 186.8 150.852 186.489C150.313 186.178 149.671 186.097 149.066 186.264C148.462 186.43 147.944 186.832 147.628 187.379L151.694 189.726Z" fill="#F50032"/>
<rect x="9.92441" y="133.189" width="121" height="167.25" rx="10.5" transform="rotate(-60 9.92441 133.189)" stroke="#ADADAD"/>
<rect x="14.7055" y="131.908" width="114" height="160.25" rx="7" transform="rotate(-60 14.7055 131.908)" fill="white"/>
<rect x="14.7055" y="131.908" width="114" height="160.25" rx="7" transform="rotate(-60 14.7055 131.908)" stroke="white" stroke-width="6"/>
<mask id="mask3_3301_86222" style="mask-type:alpha" maskUnits="userSpaceOnUse" x="10" y="29" width="205" height="188">
<rect x="10.6074" y="133.006" width="120" height="166.25" transform="rotate(-60 10.6074 133.006)" fill="#D9D9D9"/>
</mask>
<g mask="url(#mask3_3301_86222)">
<rect x="18.7124" y="130.968" width="10.8" height="4" transform="rotate(-60 18.7124 130.968)" fill="#E6E5FF"/>
<rect x="24.1123" y="121.615" width="10.8" height="4" transform="rotate(-60 24.1123 121.615)" fill="white"/>
<rect x="29.5122" y="112.262" width="10.8" height="4" transform="rotate(-60 29.5122 112.262)" fill="#E6E5FF"/>
<rect x="34.9126" y="102.909" width="10.8" height="4" transform="rotate(-60 34.9126 102.909)" fill="#E6E5FF"/>
<rect x="40.3125" y="93.5556" width="10.8" height="4" transform="rotate(-60 40.3125 93.5556)" fill="#E6E5FF"/>
<rect x="45.7124" y="84.2025" width="10.8" height="4" transform="rotate(-60 45.7124 84.2025)" fill="#E6E5FF"/>
<rect x="51.1123" y="74.8494" width="10.8" height="4" transform="rotate(-60 51.1123 74.8494)" fill="#E6E5FF"/>
<rect x="56.5122" y="65.4963" width="10.8" height="4" transform="rotate(-60 56.5122 65.4963)" fill="#E6E5FF"/>
<rect x="61.9126" y="56.1433" width="10.8" height="4" transform="rotate(-60 61.9126 56.1433)" fill="#E6E5FF"/>
<rect x="67.3125" y="46.7902" width="10.8" height="4" transform="rotate(-60 67.3125 46.7902)" fill="#E6E5FF"/>
<rect x="22.1763" y="132.968" width="10.8" height="4" transform="rotate(-60 22.1763 132.968)" fill="white"/>
<rect x="27.5762" y="123.615" width="10.8" height="4" transform="rotate(-60 27.5762 123.615)" fill="#E6E5FF"/>
<rect x="32.9761" y="114.262" width="10.8" height="4" transform="rotate(-60 32.9761 114.262)" fill="white"/>
<rect x="38.3765" y="104.909" width="10.8" height="4" transform="rotate(-60 38.3765 104.909)" fill="#E6E5FF"/>
<rect x="43.7764" y="95.5556" width="10.8" height="4" transform="rotate(-60 43.7764 95.5556)" fill="#E6E5FF"/>
<rect x="49.1763" y="86.2025" width="10.8" height="4" transform="rotate(-60 49.1763 86.2025)" fill="#E6E5FF"/>
<rect x="54.5762" y="76.8494" width="10.8" height="4" transform="rotate(-60 54.5762 76.8494)" fill="#E6E5FF"/>
<rect x="59.9761" y="67.4963" width="10.8" height="4" transform="rotate(-60 59.9761 67.4963)" fill="#E6E5FF"/>
<rect x="65.3765" y="58.1433" width="10.8" height="4" transform="rotate(-60 65.3765 58.1433)" fill="#E6E5FF"/>
<rect x="70.7764" y="48.7902" width="10.8" height="4" transform="rotate(-60 70.7764 48.7902)" fill="#E6E5FF"/>
<rect x="25.6406" y="134.968" width="10.8" height="2" transform="rotate(-60 25.6406 134.968)" fill="#E6E5FF"/>
<rect x="31.0405" y="125.615" width="10.8" height="4" transform="rotate(-60 31.0405 125.615)" fill="white"/>
<rect x="36.4404" y="116.262" width="10.8" height="4" transform="rotate(-60 36.4404 116.262)" fill="#E6E5FF"/>
<rect x="41.8408" y="106.909" width="10.8" height="4" transform="rotate(-60 41.8408 106.909)" fill="white"/>
<rect x="47.2407" y="97.5556" width="10.8" height="4" transform="rotate(-60 47.2407 97.5556)" fill="#E6E5FF"/>
<rect x="52.6406" y="88.2025" width="10.8" height="4" transform="rotate(-60 52.6406 88.2025)" fill="#E6E5FF"/>
<rect x="58.0405" y="78.8494" width="10.8" height="4" transform="rotate(-60 58.0405 78.8494)" fill="#E6E5FF"/>
<rect x="63.4404" y="69.4963" width="10.8" height="4" transform="rotate(-60 63.4404 69.4963)" fill="#E6E5FF"/>
<rect x="68.8408" y="60.1433" width="10.8" height="4" transform="rotate(-60 68.8408 60.1433)" fill="#E6E5FF"/>
<rect x="74.2407" y="50.7902" width="10.8" height="4" transform="rotate(-60 74.2407 50.7902)" fill="#E6E5FF"/>
<rect x="29.1045" y="136.968" width="10.8" height="4" transform="rotate(-60 29.1045 136.968)" fill="white"/>
<rect x="34.5044" y="127.615" width="10.8" height="2" transform="rotate(-60 34.5044 127.615)" fill="#E6E5FF"/>
<rect x="39.9043" y="118.262" width="10.8" height="4" transform="rotate(-60 39.9043 118.262)" fill="white"/>
<rect x="45.3047" y="108.909" width="10.8" height="4" transform="rotate(-60 45.3047 108.909)" fill="#E6E5FF"/>
<rect x="50.7046" y="99.5556" width="10.8" height="4" transform="rotate(-60 50.7046 99.5556)" fill="white"/>
<rect x="56.1045" y="90.2025" width="10.8" height="4" transform="rotate(-60 56.1045 90.2025)" fill="#E6E5FF"/>
<rect x="61.5044" y="80.8494" width="10.8" height="4" transform="rotate(-60 61.5044 80.8494)" fill="#E6E5FF"/>
<rect x="66.9043" y="71.4963" width="10.8" height="4" transform="rotate(-60 66.9043 71.4963)" fill="#E6E5FF"/>
<rect x="72.3047" y="62.1433" width="10.8" height="4" transform="rotate(-60 72.3047 62.1433)" fill="#E6E5FF"/>
<rect x="77.7046" y="52.7902" width="10.8" height="4" transform="rotate(-60 77.7046 52.7902)" fill="#E6E5FF"/>
<rect x="32.5688" y="138.968" width="10.8" height="1" transform="rotate(-60 32.5688 138.968)" fill="#E6E5FF"/>
<rect x="37.9688" y="129.615" width="10.8" height="4" transform="rotate(-60 37.9688 129.615)" fill="white"/>
<rect x="43.3687" y="120.262" width="10.8" height="2" transform="rotate(-60 43.3687 120.262)" fill="#E6E5FF"/>
<rect x="48.769" y="110.909" width="10.8" height="4" transform="rotate(-60 48.769 110.909)" fill="white"/>
<rect x="54.1689" y="101.556" width="10.8" height="4" transform="rotate(-60 54.1689 101.556)" fill="#E6E5FF"/>
<rect x="59.5688" y="92.2025" width="10.8" height="4" transform="rotate(-60 59.5688 92.2025)" fill="white"/>
<rect x="64.9688" y="82.8494" width="10.8" height="4" transform="rotate(-60 64.9688 82.8494)" fill="#E6E5FF"/>
<rect x="70.3687" y="73.4963" width="10.8" height="4" transform="rotate(-60 70.3687 73.4963)" fill="#E6E5FF"/>
<rect x="75.769" y="64.1433" width="10.8" height="4" transform="rotate(-60 75.769 64.1433)" fill="#E6E5FF"/>
<rect x="81.1689" y="54.7902" width="10.8" height="4" transform="rotate(-60 81.1689 54.7902)" fill="#E6E5FF"/>
<rect x="36.0327" y="140.968" width="10.8" height="4" transform="rotate(-60 36.0327 140.968)" fill="white"/>
<rect x="41.4326" y="131.615" width="10.8" height="1" transform="rotate(-60 41.4326 131.615)" fill="#E6E5FF"/>
<rect x="46.8325" y="122.262" width="10.8" height="4" transform="rotate(-60 46.8325 122.262)" fill="white"/>
<rect x="52.2329" y="112.909" width="10.8" height="2" transform="rotate(-60 52.2329 112.909)" fill="#E6E5FF"/>
<rect x="57.6328" y="103.556" width="10.8" height="4" transform="rotate(-60 57.6328 103.556)" fill="white"/>
<rect x="63.0327" y="94.2025" width="10.8" height="4" transform="rotate(-60 63.0327 94.2025)" fill="#E6E5FF"/>
<rect x="68.4326" y="84.8494" width="10.8" height="4" transform="rotate(-60 68.4326 84.8494)" fill="white"/>
<rect x="73.8325" y="75.4963" width="10.8" height="4" transform="rotate(-60 73.8325 75.4963)" fill="#E6E5FF"/>
<rect x="79.2329" y="66.1433" width="10.8" height="4" transform="rotate(-60 79.2329 66.1433)" fill="#E6E5FF"/>
<rect x="84.6328" y="56.7902" width="10.8" height="4" transform="rotate(-60 84.6328 56.7902)" fill="#E6E5FF"/>
<rect x="39.4971" y="142.968" width="10.8" height="4" transform="rotate(-60 39.4971 142.968)" fill="white"/>
<rect x="44.897" y="133.615" width="10.8" height="4" transform="rotate(-60 44.897 133.615)" fill="white"/>
<rect x="50.2969" y="124.262" width="10.8" height="1" transform="rotate(-60 50.2969 124.262)" fill="#E6E5FF"/>
<rect x="55.6973" y="114.909" width="10.8" height="4" transform="rotate(-60 55.6973 114.909)" fill="white"/>
<rect x="61.0972" y="105.556" width="10.8" height="2" transform="rotate(-60 61.0972 105.556)" fill="#E6E5FF"/>
<rect x="66.4971" y="96.2025" width="10.8" height="4" transform="rotate(-60 66.4971 96.2025)" fill="white"/>
<rect x="71.897" y="86.8494" width="10.8" height="4" transform="rotate(-60 71.897 86.8494)" fill="#E6E5FF"/>
<rect x="77.2969" y="77.4963" width="10.8" height="4" transform="rotate(-60 77.2969 77.4963)" fill="white"/>
<rect x="82.6973" y="68.1433" width="10.8" height="4" transform="rotate(-60 82.6973 68.1433)" fill="#E6E5FF"/>
<rect x="88.0972" y="58.7902" width="10.8" height="4" transform="rotate(-60 88.0972 58.7902)" fill="#E6E5FF"/>
<rect x="42.9609" y="144.968" width="10.8" height="0.5" transform="rotate(-60 42.9609 144.968)" fill="#E6E5FF"/>
<rect x="48.3608" y="135.615" width="10.8" height="4" transform="rotate(-60 48.3608 135.615)" fill="white"/>
<rect x="53.7607" y="126.262" width="10.8" height="4" transform="rotate(-60 53.7607 126.262)" fill="white"/>
<rect x="59.1611" y="116.909" width="10.8" height="1" transform="rotate(-60 59.1611 116.909)" fill="#E6E5FF"/>
<rect x="64.561" y="107.556" width="10.8" height="4" transform="rotate(-60 64.561 107.556)" fill="white"/>
<rect x="69.9609" y="98.2025" width="10.8" height="2" transform="rotate(-60 69.9609 98.2025)" fill="#E6E5FF"/>
<rect x="75.3608" y="88.8494" width="10.8" height="4" transform="rotate(-60 75.3608 88.8494)" fill="white"/>
<rect x="80.7607" y="79.4963" width="10.8" height="4" transform="rotate(-60 80.7607 79.4963)" fill="#E6E5FF"/>
<rect x="86.1611" y="70.1433" width="10.8" height="4" transform="rotate(-60 86.1611 70.1433)" fill="white"/>
<rect x="91.561" y="60.7902" width="10.8" height="4" transform="rotate(-60 91.561 60.7902)" fill="#E6E5FF"/>
<rect x="46.4253" y="146.968" width="10.8" height="4" transform="rotate(-60 46.4253 146.968)" fill="white"/>
<rect x="51.8252" y="137.615" width="10.8" height="0.5" transform="rotate(-60 51.8252 137.615)" fill="#E6E5FF"/>
<rect x="57.2251" y="128.262" width="10.8" height="4" transform="rotate(-60 57.2251 128.262)" fill="white"/>
<rect x="62.6255" y="118.909" width="10.8" height="4" transform="rotate(-60 62.6255 118.909)" fill="white"/>
<rect x="68.0254" y="109.556" width="10.8" height="1" transform="rotate(-60 68.0254 109.556)" fill="#E6E5FF"/>
<rect x="73.4253" y="100.203" width="10.8" height="4" transform="rotate(-60 73.4253 100.203)" fill="white"/>
<rect x="78.8252" y="90.8494" width="10.8" height="2" transform="rotate(-60 78.8252 90.8494)" fill="#E6E5FF"/>
<rect x="84.2251" y="81.4963" width="10.8" height="4" transform="rotate(-60 84.2251 81.4963)" fill="white"/>
<rect x="89.6255" y="72.1433" width="10.8" height="4" transform="rotate(-60 89.6255 72.1433)" fill="#E6E5FF"/>
<rect x="95.0254" y="62.7902" width="10.8" height="4" transform="rotate(-60 95.0254 62.7902)" fill="white"/>
<rect x="49.8892" y="148.968" width="10.8" height="4" transform="rotate(-60 49.8892 148.968)" fill="white"/>
<rect x="55.2891" y="139.615" width="10.8" height="4" transform="rotate(-60 55.2891 139.615)" fill="white"/>
<rect x="60.689" y="130.262" width="10.8" height="0.5" transform="rotate(-60 60.689 130.262)" fill="#E6E5FF"/>
<rect x="66.0894" y="120.909" width="10.8" height="4" transform="rotate(-60 66.0894 120.909)" fill="white"/>
<rect x="71.4893" y="111.556" width="10.8" height="4" transform="rotate(-60 71.4893 111.556)" fill="white"/>
<rect x="76.8892" y="102.203" width="10.8" height="1" transform="rotate(-60 76.8892 102.203)" fill="#E6E5FF"/>
<rect x="82.2891" y="92.8494" width="10.8" height="4" transform="rotate(-60 82.2891 92.8494)" fill="white"/>
<rect x="87.689" y="83.4963" width="10.8" height="2" transform="rotate(-60 87.689 83.4963)" fill="#E6E5FF"/>
<rect x="93.0894" y="74.1433" width="10.8" height="4" transform="rotate(-60 93.0894 74.1433)" fill="white"/>
<rect x="98.4893" y="64.7902" width="10.8" height="4" transform="rotate(-60 98.4893 64.7902)" fill="#E6E5FF"/>
<rect x="53.3535" y="150.968" width="10.8" height="4" transform="rotate(-60 53.3535 150.968)" fill="white"/>
<rect x="58.7534" y="141.615" width="10.8" height="4" transform="rotate(-60 58.7534 141.615)" fill="white"/>
<rect x="64.1533" y="132.262" width="10.8" height="4" transform="rotate(-60 64.1533 132.262)" fill="white"/>
<rect x="69.5537" y="122.909" width="10.8" height="0.5" transform="rotate(-60 69.5537 122.909)" fill="#E6E5FF"/>
<rect x="74.9536" y="113.556" width="10.8" height="4" transform="rotate(-60 74.9536 113.556)" fill="white"/>
<rect x="80.3535" y="104.203" width="10.8" height="4" transform="rotate(-60 80.3535 104.203)" fill="white"/>
<rect x="85.7534" y="94.8494" width="10.8" height="1" transform="rotate(-60 85.7534 94.8494)" fill="#E6E5FF"/>
<rect x="91.1533" y="85.4963" width="10.8" height="4" transform="rotate(-60 91.1533 85.4963)" fill="white"/>
<rect x="96.5537" y="76.1433" width="10.8" height="2" transform="rotate(-60 96.5537 76.1433)" fill="#E6E5FF"/>
<rect x="101.954" y="66.7902" width="10.8" height="4" transform="rotate(-60 101.954 66.7902)" fill="white"/>
<rect x="56.8174" y="152.968" width="10.8" height="4" transform="rotate(-60 56.8174 152.968)" fill="white"/>
<rect x="62.2173" y="143.615" width="10.8" height="4" transform="rotate(-60 62.2173 143.615)" fill="white"/>
<rect x="67.6172" y="134.262" width="10.8" height="4" transform="rotate(-60 67.6172 134.262)" fill="white"/>
<rect x="73.0176" y="124.909" width="10.8" height="4" transform="rotate(-60 73.0176 124.909)" fill="white"/>
<rect x="78.4175" y="115.556" width="10.8" height="0.5" transform="rotate(-60 78.4175 115.556)" fill="#E6E5FF"/>
<rect x="83.8174" y="106.203" width="10.8" height="4" transform="rotate(-60 83.8174 106.203)" fill="white"/>
<rect x="89.2173" y="96.8494" width="10.8" height="4" transform="rotate(-60 89.2173 96.8494)" fill="white"/>
<rect x="94.6172" y="87.4963" width="10.8" height="1" transform="rotate(-60 94.6172 87.4963)" fill="#E6E5FF"/>
<rect x="100.018" y="78.1433" width="10.8" height="4" transform="rotate(-60 100.018 78.1433)" fill="white"/>
<rect x="105.417" y="68.7902" width="10.8" height="2" transform="rotate(-60 105.417 68.7902)" fill="#E6E5FF"/>
<rect x="60.2812" y="154.968" width="10.8" height="4" transform="rotate(-60 60.2812 154.968)" fill="white"/>
<rect x="65.6812" y="145.615" width="10.8" height="4" transform="rotate(-60 65.6812 145.615)" fill="white"/>
<rect x="71.0811" y="136.262" width="10.8" height="4" transform="rotate(-60 71.0811 136.262)" fill="white"/>
<rect x="76.4814" y="126.909" width="10.8" height="4" transform="rotate(-60 76.4814 126.909)" fill="white"/>
<rect x="81.8813" y="117.556" width="10.8" height="4" transform="rotate(-60 81.8813 117.556)" fill="white"/>
<rect x="87.2812" y="108.203" width="10.8" height="0.5" transform="rotate(-60 87.2812 108.203)" fill="#E6E5FF"/>
<rect x="92.6812" y="98.8494" width="10.8" height="4" transform="rotate(-60 92.6812 98.8494)" fill="white"/>
<rect x="98.0811" y="89.4963" width="10.8" height="4" transform="rotate(-60 98.0811 89.4963)" fill="white"/>
<rect x="103.481" y="80.1433" width="10.8" height="1" transform="rotate(-60 103.481 80.1433)" fill="#E6E5FF"/>
<rect x="108.881" y="70.7902" width="10.8" height="4" transform="rotate(-60 108.881 70.7902)" fill="white"/>
<rect x="63.7456" y="156.968" width="10.8" height="4" transform="rotate(-60 63.7456 156.968)" fill="white"/>
<rect x="69.1455" y="147.615" width="10.8" height="4" transform="rotate(-60 69.1455 147.615)" fill="white"/>
<rect x="74.5454" y="138.262" width="10.8" height="4" transform="rotate(-60 74.5454 138.262)" fill="white"/>
<rect x="79.9458" y="128.909" width="10.8" height="4" transform="rotate(-60 79.9458 128.909)" fill="white"/>
<rect x="85.3457" y="119.556" width="10.8" height="4" transform="rotate(-60 85.3457 119.556)" fill="white"/>
<rect x="90.7456" y="110.203" width="10.8" height="4" transform="rotate(-60 90.7456 110.203)" fill="white"/>
<rect x="96.1455" y="100.849" width="10.8" height="0.5" transform="rotate(-60 96.1455 100.849)" fill="#E6E5FF"/>
<rect x="101.545" y="91.4963" width="10.8" height="4" transform="rotate(-60 101.545 91.4963)" fill="white"/>
<rect x="106.946" y="82.1433" width="10.8" height="4" transform="rotate(-60 106.946 82.1433)" fill="white"/>
<rect x="112.346" y="72.7902" width="10.8" height="1" transform="rotate(-60 112.346 72.7902)" fill="#E6E5FF"/>
<rect x="67.2095" y="158.968" width="10.8" height="4" transform="rotate(-60 67.2095 158.968)" fill="white"/>
<rect x="72.6094" y="149.615" width="10.8" height="4" transform="rotate(-60 72.6094 149.615)" fill="white"/>
<rect x="78.0093" y="140.262" width="10.8" height="4" transform="rotate(-60 78.0093 140.262)" fill="white"/>
<rect x="83.4097" y="130.909" width="10.8" height="4" transform="rotate(-60 83.4097 130.909)" fill="white"/>
<rect x="88.8096" y="121.556" width="10.8" height="4" transform="rotate(-60 88.8096 121.556)" fill="white"/>
<rect x="94.2095" y="112.203" width="10.8" height="4" transform="rotate(-60 94.2095 112.203)" fill="white"/>
<rect x="99.6094" y="102.849" width="10.8" height="4" transform="rotate(-60 99.6094 102.849)" fill="white"/>
<rect x="105.009" y="93.4963" width="10.8" height="0.5" transform="rotate(-60 105.009 93.4963)" fill="#E6E5FF"/>
<rect x="110.41" y="84.1433" width="10.8" height="4" transform="rotate(-60 110.41 84.1433)" fill="white"/>
<rect x="115.81" y="74.7902" width="10.8" height="4" transform="rotate(-60 115.81 74.7902)" fill="white"/>
<rect x="70.6738" y="160.968" width="10.8" height="4" transform="rotate(-60 70.6738 160.968)" fill="white"/>
<rect x="76.0737" y="151.615" width="10.8" height="4" transform="rotate(-60 76.0737 151.615)" fill="white"/>
<rect x="81.4736" y="142.262" width="10.8" height="4" transform="rotate(-60 81.4736 142.262)" fill="white"/>
<rect x="86.874" y="132.909" width="10.8" height="4" transform="rotate(-60 86.874 132.909)" fill="white"/>
<rect x="92.2739" y="123.556" width="10.8" height="4" transform="rotate(-60 92.2739 123.556)" fill="white"/>
<rect x="97.6738" y="114.203" width="10.8" height="4" transform="rotate(-60 97.6738 114.203)" fill="white"/>
<rect x="103.074" y="104.849" width="10.8" height="4" transform="rotate(-60 103.074 104.849)" fill="white"/>
<rect x="108.474" y="95.4963" width="10.8" height="4" transform="rotate(-60 108.474 95.4963)" fill="white"/>
<rect x="113.874" y="86.1433" width="10.8" height="0.5" transform="rotate(-60 113.874 86.1433)" fill="#E6E5FF"/>
<rect x="119.274" y="76.7902" width="10.8" height="4" transform="rotate(-60 119.274 76.7902)" fill="white"/>
<rect x="74.1377" y="162.968" width="10.8" height="4" transform="rotate(-60 74.1377 162.968)" fill="white"/>
<rect x="79.5376" y="153.615" width="10.8" height="4" transform="rotate(-60 79.5376 153.615)" fill="white"/>
<rect x="84.9375" y="144.262" width="10.8" height="4" transform="rotate(-60 84.9375 144.262)" fill="white"/>
<rect x="90.3379" y="134.909" width="10.8" height="4" transform="rotate(-60 90.3379 134.909)" fill="white"/>
<rect x="95.7378" y="125.556" width="10.8" height="4" transform="rotate(-60 95.7378 125.556)" fill="white"/>
<rect x="101.138" y="116.203" width="10.8" height="4" transform="rotate(-60 101.138 116.203)" fill="white"/>
<rect x="106.538" y="106.849" width="10.8" height="4" transform="rotate(-60 106.538 106.849)" fill="white"/>
<rect x="111.938" y="97.4963" width="10.8" height="4" transform="rotate(-60 111.938 97.4963)" fill="white"/>
<rect x="117.338" y="88.1433" width="10.8" height="4" transform="rotate(-60 117.338 88.1433)" fill="white"/>
<rect x="122.738" y="78.7902" width="10.8" height="0.5" transform="rotate(-60 122.738 78.7902)" fill="#E6E5FF"/>
</g>
<path d="M150.052 199.996C151.622 197.276 147.964 193.728 149.534 191.009L145.255 188.539C143.685 191.258 147.343 194.805 145.773 197.525L150.052 199.996Z" fill="#F50032"/>
<path d="M153.817 193.475C155.386 190.756 151.729 187.208 153.299 184.489L149.02 182.018C147.45 184.738 151.107 188.285 149.537 191.005L153.817 193.475Z" fill="#F50032"/>
<path d="M157.578 186.96C157.911 186.384 158.004 185.701 157.838 185.062C157.672 184.423 157.26 183.88 156.692 183.552C156.125 183.225 155.449 183.139 154.812 183.315C154.176 183.491 153.631 183.913 153.299 184.489L157.578 186.96Z" fill="#F50032"/>
</g>
<defs>
<filter id="filter0_dd_3301_86222" x="-1" y="0.0407104" width="253.805" height="242.141" filterUnits="userSpaceOnUse" color-interpolation-filters="sRGB">
<feFlood flood-opacity="0" result="BackgroundImageFix"/>
<feColorMatrix in="SourceAlpha" type="matrix" values="0 0 0 0 0 0 0 0 0 0 0 0 0 0 0 0 0 0 127 0" result="hardAlpha"/>
<feOffset dx="11"/>
<feGaussianBlur stdDeviation="7.5"/>
<feComposite in2="hardAlpha" operator="out"/>
<feColorMatrix type="matrix" values="0 0 0 0 0 0 0 0 0 0 0 0 0 0 0 0 0 0 0.25 0"/>
<feBlend mode="normal" in2="BackgroundImageFix" result="effect1_dropShadow_3301_86222"/>
<feColorMatrix in="SourceAlpha" type="matrix" values="0 0 0 0 0 0 0 0 0 0 0 0 0 0 0 0 0 0 127 0" result="hardAlpha"/>
<feOffset dx="4" dy="1"/>
<feGaussianBlur stdDeviation="2"/>
<feComposite in2="hardAlpha" operator="out"/>
<feColorMatrix type="matrix" values="0 0 0 0 0 0 0 0 0 0 0 0 0 0 0 0 0 0 0.15 0"/>
<feBlend mode="normal" in2="effect1_dropShadow_3301_86222" result="effect2_dropShadow_3301_86222"/>
<feBlend mode="normal" in="SourceGraphic" in2="effect2_dropShadow_3301_86222" result="shape"/>
</filter>
</defs>
</svg>
