<svg width="1440" height="900" viewBox="0 0 1440 900" fill="none" xmlns="http://www.w3.org/2000/svg">
<path d="M1339.92 -6.55423L1351.95 13.4634L1344.35 16.9874L1332.33 -3.03025L1339.92 -6.55423Z" fill="white"/>
<path d="M1411.02 189.504L1430.46 203.459L1416.73 218.234L1397.29 204.28L1411.02 189.504Z" fill="white"/>
<path d="M1421.71 154.474C1430.09 156.756 1437.57 153.44 1440.17 148.998C1438.26 148.906 1436.67 148.359 1435.42 147.598C1432.58 150.61 1425.42 152.071 1419.01 147.72C1419.33 150.002 1420.19 152.314 1421.71 154.474Z" fill="#14C57A"/>
<path d="M1242.52 96.0915L1263.12 98.4238L1261.68 108.262L1241.08 105.929L1242.52 96.0915Z" fill="#FFA800"/>
<path d="M1098.07 -20.3255L1133.15 16.8721L1110.47 33.3982L1075.39 -3.79948L1098.07 -20.3255Z" fill="#0500FF"/>
<path d="M1058.63 113.029C1058 114.155 1056.58 114.733 1055.23 114.428C1055.13 114.885 1055.03 115.341 1054.92 115.798C1056.97 116.071 1058.9 115.067 1059.6 113.394C1059.29 113.272 1058.94 113.151 1058.63 113.029Z" fill="black"/>
<path d="M1199.22 62.318L1213.97 72.0033L1201.24 86.9969L1186.48 77.3117L1199.22 62.318Z" fill="white"/>
<path d="M963.596 162.811C979.624 175.955 1000.5 175.59 1011.82 168.074C1007.67 166.066 1004.72 163.328 1002.92 160.407C992.78 164.484 974.881 160.894 965.915 145.072C963.769 150.518 962.903 156.573 963.63 162.811H963.596Z" fill="#14C57A"/>
<path d="M695.365 85.4311C698.377 85.4311 700.939 87.2567 701.527 89.7518C702.601 89.5084 703.674 89.265 704.747 89.0216C703.466 85.3703 699.45 83.0578 695.227 83.4838C695.261 84.1228 695.331 84.7922 695.365 85.4311Z" fill="black"/>
<path d="M783.617 16.7032L793.243 24.9367L774.507 41.8583L764.881 33.6248L783.617 16.7032Z" fill="white"/>
<path d="M854.966 79.8965L857.535 99.1772L846.567 100.306L843.997 81.0256L854.966 79.8965Z" fill="#FFA800"/>
<path d="M676.035 133.408L678.89 134.844L676.998 137.748L674.143 136.312L676.035 133.408Z" fill="white"/>
<path d="M606.705 181.31C608.886 168.439 600.647 158.368 591.577 155.721C591.888 158.52 591.3 161.015 590.123 162.993C596.596 166.401 601.166 176.502 594.589 186.969C598.847 185.935 603.001 184.048 606.705 181.31Z" fill="#14C57A"/>
<path d="M590.994 34.4653L598.79 45.1801L576.304 57.8193L568.507 47.1045L590.994 34.4653Z" fill="#FFA800"/>
<path d="M501.522 38.8928L502.565 47.363L497.403 47.8543L496.359 39.3842L501.522 38.8928Z" fill="#0500FF"/>
<path d="M443.441 -14.9178C451.75 -12.4836 456.873 -5.30284 455.696 2.09096C458.916 2.30395 462.135 2.4865 465.355 2.69949C465.736 -8.40642 457.185 -18.0518 445.103 -20.3947C444.549 -18.5691 443.995 -16.7434 443.441 -14.9178Z" fill="black"/>
<path d="M282.888 121.611L294.189 122.189L292.872 142.085L281.571 141.507L282.888 121.611Z" fill="white"/>
<path d="M224.03 7.59186L238.423 30.4984L229.756 34.7053L215.362 11.7988L224.03 7.59186Z" fill="white"/>
<path d="M306.152 128.326L318.276 137.353L306.394 149.681L294.269 140.653L306.152 128.326Z" fill="white"/>
<path d="M325.562 56.3466C325.805 53.9124 324.143 52.1172 322.412 51.7216C322.516 52.2389 322.412 52.7257 322.239 53.0908C323.485 53.6689 324.489 55.525 323.381 57.5332C324.178 57.2898 324.939 56.8942 325.562 56.3466Z" fill="#14C57A"/>
<path d="M32.6132 103.085C38.7063 105.032 42.3067 110.448 41.2681 115.895C43.6568 116.108 46.0109 116.321 48.3997 116.534C48.9536 108.318 42.8604 101.016 33.9632 99.0382C33.5132 100.377 33.0633 101.716 32.6132 103.055V103.085Z" fill="black"/>
<path d="M19.8883 131.95L31.3066 161.961L14.2667 166.969L2.84834 136.958L19.8883 131.95Z" fill="white"/>
<path d="M26.7706 146.479L37.3359 163.596L20.5082 171.619L9.94288 154.503L26.7706 146.479Z" fill="white"/>
<path d="M1415.52 60.2103C1427.88 73.8112 1427.53 92.9194 1415 105.729C1420.81 109.594 1426.63 113.458 1432.45 117.322C1448.65 96.6924 1445.95 69.095 1426.32 51.5994C1422.72 54.4595 1419.12 57.3197 1415.52 60.2103Z" fill="#0500FF"/>
<path d="M1421.46 231.678L1424.58 238.313L1409.48 243.802L1406.36 237.167L1421.46 231.678Z" fill="black"/>
<path d="M1378.01 232.199L1381.62 234.758L1372.91 244.256L1369.3 241.697L1378.01 232.199Z" fill="white"/>
<path d="M1210.4 293.372C1209.64 290.056 1206.59 288.23 1204.1 288.291C1204.44 288.96 1204.55 289.599 1204.48 290.177C1206.42 290.512 1208.56 292.612 1208.01 295.685C1208.94 295.107 1209.78 294.315 1210.4 293.342V293.372Z" fill="#FFA800"/>
<path d="M1381.28 484.603C1394.05 470.363 1392.05 453.172 1383.15 444.469C1381.35 448.029 1378.61 450.707 1375.67 452.411C1380.79 460.444 1378.41 475.475 1362.2 484.116C1368.19 485.455 1374.7 485.698 1381.31 484.633L1381.28 484.603Z" fill="#14C57A"/>
<path d="M1277.79 397.117L1303.62 414.462L1292.9 426.793L1267.07 409.448L1277.79 397.117Z" fill="#FFA800"/>
<path d="M1151.11 182.033L1174.87 225.202L1148.56 236.383L1124.81 193.214L1151.11 182.033Z" fill="#0500FF"/>
<path d="M946.461 114.339C944.142 107.128 947.881 99.5821 955.289 96.3264C953.697 93.9531 952.139 91.5493 950.546 89.176C940.195 94.9876 936.041 106.337 940.541 116.165C942.515 115.556 944.488 114.948 946.461 114.339Z" fill="#0500FF"/>
<path d="M1105.57 366.976C1096.19 371.54 1084.63 369.623 1077.98 362.594C1075.11 364.967 1072.23 367.341 1069.36 369.714C1080.4 379.207 1097.37 380.424 1109.79 372.818C1108.38 370.87 1106.96 368.923 1105.57 366.976Z" fill="black"/>
<path d="M1070.71 129.524C1072.61 135.335 1069.64 141.421 1063.65 144.068C1064.93 145.985 1066.21 147.902 1067.49 149.819C1075.83 145.103 1079.12 135.914 1075.45 128.002C1073.86 128.489 1072.27 129.007 1070.67 129.493L1070.71 129.524Z" fill="#FFA800"/>
<path d="M929.461 169.521L938.198 184.97L903.012 200.341L894.275 184.892L929.461 169.521Z" fill="black"/>
<path d="M1043.64 270.167L1043.68 280.421L1020.32 280.493L1020.27 270.239L1043.64 270.167Z" fill="white"/>
<path d="M1049.69 404.663L1086.72 417.612L1079.36 433.868L1042.33 420.919L1049.69 404.663Z" fill="white"/>
<path d="M994.558 210.037L1026.38 260.113L1007.39 269.43L975.577 219.353L994.558 210.037Z" fill="white"/>
<path d="M1069.15 371.377L1075.24 373.021L1073.07 379.216L1066.98 377.573L1069.15 371.377Z" fill="white"/>
<path d="M937.113 210.945C936.075 203.126 929.428 198.409 923.646 198.135C924.339 199.718 924.443 201.269 924.131 202.578C928.493 203.643 933.028 208.907 931.055 215.935C933.34 214.718 935.452 213.045 937.113 210.945Z" fill="#FFA800"/>
<path d="M1007.91 489.688C1014.38 480.925 1012.2 471.158 1006.56 466.533C1005.73 468.662 1004.34 470.336 1002.75 471.431C1006.18 475.813 1005.69 484.545 996.901 490.266C1000.4 490.753 1004.17 490.6 1007.91 489.657V489.688Z" fill="#14C57A"/>
<path d="M1260.13 249.609L1267.26 262.836L1239.54 274.374L1232.41 261.147L1260.13 249.609Z" fill="#14C57A"/>
<path d="M782.766 321.541L804.976 355.067L784.542 365.524L762.332 331.998L782.766 321.541Z" fill="#0500FF"/>
<path d="M659.778 182.498C661.543 173.369 670.302 166.706 680.515 166.523C680.203 163.115 679.892 159.738 679.545 156.33C664.486 158.004 652.992 168.714 652.058 181.767C654.619 182.011 657.216 182.254 659.778 182.498Z" fill="#0500FF"/>
<path d="M751.518 320.422C753.734 320.422 755.603 321.791 755.984 323.678C756.781 323.495 757.577 323.343 758.373 323.161C757.473 320.453 754.53 318.749 751.415 318.992C751.415 319.479 751.484 319.935 751.518 320.422Z" fill="black"/>
<path d="M765.539 126.325C761.177 129.246 755.188 129.064 751.242 125.93C749.995 127.329 748.749 128.699 747.503 130.098C753.907 134.145 762.597 133.658 768.205 128.973C767.34 128.09 766.439 127.177 765.574 126.295L765.539 126.325Z" fill="#FFA800"/>
<path d="M688.074 184.455L688.95 190.093L676.087 191.637L675.211 186L688.074 184.455Z" fill="black"/>
<path d="M788.525 190.469L793.525 205.034L760.316 213.841L755.315 199.276L788.525 190.469Z" fill="white"/>
<path d="M604.635 390.158L610.725 390.331L610.329 401.036L604.239 400.862L604.635 390.158Z" fill="white"/>
<path d="M940.139 407.085L948.608 432.774L934.011 436.492L925.542 410.803L940.139 407.085Z" fill="#FFA800"/>
<path d="M706.511 224.628L750.152 245.995L742.049 258.781L698.407 237.414L706.511 224.628Z" fill="white"/>
<path d="M544.322 287.043C542.245 272.681 529.99 264.101 519.362 263.644C520.677 266.535 520.85 269.395 520.296 271.829C528.363 273.746 536.775 283.361 533.313 296.323C537.502 294.071 541.31 290.968 544.322 287.043Z" fill="#FFA800"/>
<path d="M540.064 476.756C552.527 465.194 552.319 450.011 545.291 441.735C543.387 444.747 540.756 446.877 538.021 448.155C541.795 455.549 538.333 468.541 523.377 474.991C528.501 476.574 534.179 477.243 540.064 476.756Z" fill="#14C57A"/>
<path d="M520.044 269.592L535.209 271.142L531.963 295.683L516.798 294.134L520.044 269.592Z" fill="#FFA800"/>
<path d="M880.224 182.313L914.227 196.053L905.753 212.253L871.75 198.514L880.224 182.313Z" fill="#14C57A"/>
<path d="M512.421 273.386L561.589 305.374L542.104 328.509L492.936 296.521L512.421 273.386Z" fill="#0500FF"/>
<path d="M159.147 77.0045C161.709 74.9355 165.482 74.7834 168.183 76.5481C168.875 75.6049 169.567 74.6617 170.26 73.7489C165.967 71.4972 160.532 72.2579 157.312 75.4528C157.935 75.97 158.524 76.4873 159.147 77.0045Z" fill="#0500FF"/>
<path d="M389.47 388.52C388.293 390.345 385.869 391.197 383.688 390.558C383.48 391.288 383.238 392.049 383.03 392.779C386.388 393.418 389.747 391.897 391.097 389.189C390.577 388.976 390.058 388.733 389.504 388.52H389.47Z" fill="black"/>
<path d="M383.169 63.0079C378.703 69.7019 369.598 72.5924 361.566 70.067C360.666 72.8054 359.766 75.5439 358.866 78.2823C371.19 80.9295 383.792 75.5438 388.95 65.5942C387.012 64.7422 385.108 63.8903 383.169 63.0079Z" fill="#FFA800"/>
<path d="M315.197 181.076L350.791 206.699L336.225 222.329L300.632 196.706L315.197 181.076Z" fill="black"/>
<path d="M330.522 280.827L332.422 286.552L319.361 289.9L317.461 284.175L330.522 280.827Z" fill="white"/>
<path d="M336.646 385.995L337.383 395.619L331.925 395.941L331.188 386.318L336.646 385.995Z" fill="white"/>
<path d="M204.146 305.554L209.384 309.581L195.662 323.367L190.424 319.341L204.146 305.554Z" fill="white"/>
<path d="M401.215 452.116L407.393 465.575L394.165 470.265L387.987 456.806L401.215 452.116Z" fill="white"/>
<path d="M179.19 166.854C170.501 182.342 176.317 198.012 186.599 204.584C187.464 200.933 189.403 197.981 191.757 195.882C185.145 189.31 183.968 174.857 197.123 163.964C191.238 163.751 185.11 164.694 179.225 166.854H179.19Z" fill="#FFA800"/>
<path d="M221.704 380.058C229.493 375.463 231.363 367.765 228.905 362.897C227.555 364.236 225.962 365.027 224.404 365.422C225.339 369.53 221.912 375.737 213.534 377.502C215.922 378.81 218.692 379.723 221.738 380.058H221.704Z" fill="#14C57A"/>
<path d="M543.011 256.851L565.581 257.971L564.891 268.725L542.32 267.606L543.011 256.851Z" fill="#14C57A"/>
<path d="M124.223 322.223L139.26 344.419L125.725 351.502L110.689 329.306L124.223 322.223Z" fill="#0500FF"/>
<path d="M81.772 439.999C82.1529 441.946 80.9066 443.833 78.8295 444.502C79.1757 445.172 79.4872 445.841 79.8334 446.511C82.7414 445.263 84.2301 442.372 83.3993 439.664C82.8454 439.786 82.326 439.877 81.772 439.999Z" fill="black"/>
<path d="M66.6087 112.6C69.6898 117.225 68.6167 123.006 64.1508 126.414C65.7087 127.814 67.3011 129.213 68.859 130.613C74.8482 124.984 75.402 116.495 70.313 110.379C69.0667 111.109 67.8205 111.84 66.5742 112.57L66.6087 112.6Z" fill="#FFA800"/>
<path d="M69.0184 194.273L88.1396 201.005L84.3163 209.394L65.195 202.661L69.0184 194.273Z" fill="white"/>
<path d="M154.995 270.382L165.727 286.155L156.754 290.871L146.022 275.099L154.995 270.382Z" fill="#FFA800"/>
<path d="M28.3394 517.75L30.3984 525.576L20.0773 527.674L18.0182 519.847L28.3394 517.75Z" fill="white"/>
<path d="M62.5227 168.947L72.9658 169.386L72.6944 174.371L62.2513 173.931L62.5227 168.947Z" fill="#14C57A"/>
<path d="M1402.33 423.784C1393.81 420.559 1389.17 412.587 1391.15 404.858C1387.79 404.371 1384.4 403.915 1381.04 403.458C1379.51 415.112 1387.51 426.005 1400.01 429.413C1400.77 427.526 1401.57 425.64 1402.33 423.784Z" fill="#0500FF"/>
<path d="M1441.62 497.81C1442.11 507.425 1434.87 515.884 1424.52 518.014C1425.7 521.422 1426.87 524.799 1428.05 528.176C1442.94 523.582 1451.94 510.468 1449.65 497.049C1446.99 497.293 1444.32 497.567 1441.62 497.81Z" fill="#FFA800"/>
<path d="M1416.37 480.511L1433.82 486.322L1420.6 516.995L1403.15 511.184L1416.37 480.511Z" fill="black"/>
<path d="M1364.81 661.185L1371.02 676.812L1335.43 687.737L1329.22 672.11L1364.81 661.185Z" fill="white"/>
<path d="M1408.5 522.666L1430.67 526.712L1416.85 585.193L1394.68 581.148L1408.5 522.666Z" fill="white"/>
<path d="M1420.74 834L1428.55 840.112L1420.51 848.042L1412.71 841.93L1420.74 834Z" fill="white"/>
<path d="M1287.91 485.458C1283.13 502.314 1292.59 516.615 1304.29 521.149C1304.29 517.406 1305.46 514.15 1307.26 511.655C1299.2 506.422 1294.56 492.456 1304.84 479.311C1299.02 480.194 1293.21 482.263 1287.91 485.488V485.458Z" fill="#FFA800"/>
<path d="M1261.95 785.473C1263.02 780.666 1260.15 776.771 1256.79 775.645C1256.86 776.71 1256.58 777.623 1256.1 778.353C1258.45 779.723 1259.97 783.587 1257.31 787.421C1258.94 787.086 1260.53 786.447 1261.95 785.473Z" fill="#14C57A"/>
<path d="M1334.75 692.391L1339.52 708.372L1306 716.101L1301.23 700.12L1334.75 692.391Z" fill="#FFA800"/>
<path d="M1147.98 527.377L1170.39 544.643L1133.73 581.417L1111.31 564.15L1147.98 527.377Z" fill="#0500FF"/>
<path d="M1222.51 647.972C1217.91 652.506 1210.4 653.51 1204.65 650.467C1203.47 652.445 1202.3 654.423 1201.12 656.431C1210.15 660.143 1220.78 657.709 1226.5 650.741C1225.18 649.828 1223.83 648.885 1222.51 647.972Z" fill="black"/>
<path d="M1147.63 496.47C1153.9 503.438 1153.62 513.174 1147.18 519.655C1150.13 521.633 1153.07 523.611 1156.05 525.619C1164.39 515.152 1163.11 501.095 1153.17 492.119C1151.34 493.579 1149.47 495.009 1147.63 496.47Z" fill="#FFA800"/>
<path d="M981.222 540.953L985.66 551.514L961.596 559.325L957.158 548.764L981.222 540.953Z" fill="black"/>
<path d="M1064.81 514.249L1070.36 515.779L1069.49 518.217L1063.94 516.688L1064.81 514.249Z" fill="white"/>
<path d="M971.509 689.466L979.1 691.476L974.515 704.848L966.924 702.838L971.509 689.466Z" fill="white"/>
<path d="M953.03 656.185L967.717 697.577L952.018 701.88L937.332 660.487L953.03 656.185Z" fill="white"/>
<path d="M1147.53 818.075L1158.2 820.703L1155.61 828.818L1144.94 826.19L1147.53 818.075Z" fill="white"/>
<path d="M981.634 617.45C974.537 596.85 954.147 586.961 938.464 588.635C941.199 592.621 942.307 596.729 942.168 600.41C954.527 601.475 969.552 613.737 968.133 633.454C973.672 629.255 978.345 623.839 981.669 617.48L981.634 617.45Z" fill="#FFA800"/>
<path d="M944.453 796.668C926.381 796.303 913.78 806.557 911.53 816.628C915.338 815.868 918.869 816.141 921.777 817.054C925.481 809.66 938.706 803.24 954.111 808.656C952.034 804.275 948.78 800.137 944.487 796.638L944.453 796.668Z" fill="#14C57A"/>
<path d="M1204.53 531.03L1220.54 541.485L1198.63 567.395L1182.62 556.941L1204.53 531.03Z" fill="#14C57A"/>
<path d="M865.477 527.914L871.666 542.219L841.281 552.375L835.092 538.069L865.477 527.914Z" fill="#0500FF"/>
<path d="M757.646 704.84C761.038 707.882 761.488 712.538 758.788 715.946C760.311 716.767 761.835 717.589 763.358 718.38C766.716 712.994 765.296 706.331 760.034 702.497C759.238 703.258 758.442 704.049 757.646 704.84Z" fill="black"/>
<path d="M735.564 567.537L736.751 589.815L724.094 590.336L722.908 568.057L735.564 567.537Z" fill="black"/>
<path d="M628.776 695.004L631.506 708.824L600.023 713.629L597.293 699.809L628.776 695.004Z" fill="white"/>
<path d="M848.602 606.912L863.676 622.004L829.282 648.541L814.208 633.45L848.602 606.912Z" fill="#FFA800"/>
<path d="M578.991 656.28L638.742 676.376L631.121 693.881L571.369 673.786L578.991 656.28Z" fill="white"/>
<path d="M679.406 813.567L686.655 823.615L676.773 829.122L669.524 819.075L679.406 813.567Z" fill="white"/>
<path d="M501.048 588.881C504.96 608.203 522.235 619.126 536.671 619.065C534.663 615.201 534.178 611.367 534.767 608.051C523.689 605.921 511.572 593.385 515.276 575.676C509.737 578.962 504.821 583.435 501.082 588.881H501.048Z" fill="#FFA800"/>
<path d="M598.639 765.118C589.257 762.593 580.949 766.335 578.075 771.325C580.187 771.417 581.987 772.025 583.372 772.877C586.522 769.5 594.554 767.826 601.686 772.664C601.339 770.108 600.335 767.522 598.639 765.149V765.118Z" fill="#14C57A"/>
<path d="M535.49 704.742L535.765 710.853L522.931 711.299L522.656 705.188L535.49 704.742Z" fill="#FFA800"/>
<path d="M855.915 531.162L858.597 537.719L844.816 542.073L842.134 535.516L855.915 531.162Z" fill="#14C57A"/>
<path d="M372.719 503.829L398.036 552.973L368.076 564.896L342.758 515.752L372.719 503.829Z" fill="#0500FF"/>
<path d="M190.131 513.057C168.944 504.111 158.142 483.512 164.028 464.16C155.546 462.669 147.064 461.148 138.583 459.657C133.32 489.05 152.361 517.317 183.588 527.145C185.769 522.459 187.95 517.773 190.131 513.057Z" fill="#0500FF"/>
<path d="M356.651 758.604C352.323 760.186 347.407 758.908 344.915 755.561C343.53 756.474 342.18 757.387 340.795 758.3C345.088 762.864 352.392 764.111 358.174 761.312C357.655 760.399 357.17 759.517 356.651 758.604Z" fill="black"/>
<path d="M405.983 459.319C397.293 455.607 392.862 447.088 395.355 439.146C391.858 438.507 388.396 437.868 384.9 437.26C382.684 449.339 390.439 461.023 403.283 465.131C404.183 463.214 405.083 461.267 406.018 459.35L405.983 459.319Z" fill="#FFA800"/>
<path d="M189.786 598.813L194.086 599.24L193.111 606.829L188.811 606.402L189.786 598.813Z" fill="black"/>
<path d="M326.433 497.34L329.755 505.441L311.288 511.291L307.967 503.19L326.433 497.34Z" fill="white"/>
<path d="M403.319 710.301L403.453 720.25L380.779 720.487L380.645 710.538L403.319 710.301Z" fill="white"/>
<path d="M312.093 601.048L350.922 610.173L347.461 621.549L308.632 612.424L312.093 601.048Z" fill="white"/>
<path d="M394.929 733.522L401.066 735.427L399.199 740.075L393.062 738.17L394.929 733.522Z" fill="white"/>
<path d="M135.916 605.617C135.847 595.15 127.884 588.06 120.303 586.935C120.96 589.125 120.822 591.164 120.164 592.868C125.773 594.876 130.827 602.392 127.088 611.429C130.342 610.151 133.354 608.173 135.916 605.617Z" fill="#FFA800"/>
<path d="M294.231 780.694C285.092 779.751 278.133 784.437 276.402 789.457C278.375 789.214 280.141 789.518 281.595 790.096C283.88 786.506 290.942 783.798 298.489 787.206C297.658 784.893 296.239 782.641 294.266 780.694H294.231Z" fill="#14C57A"/>
<path d="M149.112 655.183L166.931 663.896L161.612 672.298L143.793 663.585L149.112 655.183Z" fill="#0500FF"/>
<path d="M53.0733 618.79C45.4224 623.932 34.8635 623.598 27.905 618.121C25.7239 620.555 23.5084 623.02 21.3274 625.454C32.5787 632.574 47.8458 631.691 57.6777 623.476C56.1199 621.924 54.5965 620.342 53.0386 618.79H53.0733Z" fill="black"/>
<path d="M49.7147 477.396C54.146 485.429 51.5148 494.983 43.587 500.126C46.0104 502.651 48.399 505.146 50.8223 507.671C61.589 498.969 63.8046 484.882 56.2229 474.171C54.0419 475.236 51.8957 476.331 49.7147 477.396Z" fill="#FFA800"/>
<path d="M60.1166 533.861L61.79 540.858L57.7923 541.597L56.1189 534.599L60.1166 533.861Z" fill="white"/>
<path d="M145.593 689.59L157.571 689.649L157.437 710.704L145.459 710.645L145.593 689.59Z" fill="#FFA800"/>
<path d="M0.250071 572.037L0.637695 580.032L-2.40606 580.146L-2.79369 572.151L0.250071 572.037Z" fill="white"/>
<path d="M17.7446 842.643L32.9766 847.758L27.9478 859.326L12.7159 854.211L17.7446 842.643Z" fill="white"/>
<path d="M70.9016 472.458L74.3271 476.438L65.9894 481.982L62.5638 478.003L70.9016 472.458Z" fill="#14C57A"/>
<path d="M1346.31 733.865C1334.06 726.289 1329.73 712.353 1335.76 700.76C1330.6 699.026 1325.47 697.322 1320.32 695.588C1313.53 713.57 1322.12 733.074 1340.57 742.111C1342.51 739.372 1344.41 736.604 1346.35 733.865H1346.31Z" fill="#0500FF"/>
<path d="M1263.45 815.244L1307 835.552L1295.46 854.662L1251.91 834.354L1263.45 815.244Z" fill="black"/>
<path d="M1452.71 787.138L1462.12 797.159L1439.27 813.737L1429.86 803.716L1452.71 787.138Z" fill="white"/>
<path d="M881.723 741.173C888.647 748.749 888.508 759.429 881.515 766.61C884.77 768.74 888.024 770.9 891.313 773.061C900.314 761.498 898.756 746.072 887.747 736.335C885.739 737.948 883.731 739.56 881.723 741.143V741.173Z" fill="#0500FF"/>
<path d="M1164.67 703.742C1168.54 710.984 1166.02 719.504 1158.85 724.037C1160.96 726.319 1163.11 728.601 1165.22 730.853C1174.98 723.155 1177.16 710.589 1170.55 700.913C1168.58 701.856 1166.64 702.799 1164.67 703.712V703.742Z" fill="#FFA800"/>
<path d="M1052.87 839.973L1062.62 848.007L1058.05 852.29L1048.3 844.256L1052.87 839.973Z" fill="black"/>
<path d="M1125.47 879.478L1145.73 884.017L1135.38 919.693L1115.12 915.154L1125.47 879.478Z" fill="white"/>
<path d="M1303.57 789.047L1304.57 791.673L1299.09 793.283L1298.09 790.657L1303.57 789.047Z" fill="#14C57A"/>
<path d="M679.406 809.231C664.624 794.474 663.862 772.901 677.225 757.87C670.44 753.793 663.654 749.715 656.834 745.638C639.802 769.676 644.51 800.65 667.739 819.454C671.617 816.047 675.529 812.639 679.406 809.261V809.231Z" fill="#0500FF"/>
<path d="M752.42 805.795C747.227 803.209 744.872 797.823 746.742 793.016C744.63 792.499 742.484 792.012 740.372 791.495C738.468 798.858 742.761 806.313 750.515 809.264C751.139 808.108 751.796 806.952 752.454 805.795H752.42Z" fill="#FFA800"/>
<path d="M606.524 848.216L613.006 848.738L612.709 851.586L606.228 851.064L606.524 848.216Z" fill="black"/>
<path d="M744.247 880.603L754.157 897.883L714.803 915.317L704.893 898.037L744.247 880.603Z" fill="white"/>
<path d="M678.906 860.279L692.859 869.837L660.236 906.629L646.283 897.071L678.906 860.279Z" fill="white"/>
<path d="M614.635 910.742C603.314 899.727 587.285 898.814 578.042 903.926C581.089 905.691 583.131 908.003 584.308 910.316C592.374 907.79 605.876 911.533 611.554 924.221C613.596 920.174 614.704 915.579 614.635 910.742Z" fill="#FFA800"/>
<path d="M926.954 765.21L944.336 769.556L935.214 797.74L917.832 793.394L926.954 765.21Z" fill="#14C57A"/>
<path d="M478.995 767.73C477.818 767.152 477.299 765.935 477.749 764.87C477.264 764.748 476.814 764.657 476.329 764.535C475.914 766.178 476.849 767.852 478.58 768.521C478.718 768.278 478.857 768.004 478.995 767.761V767.73Z" fill="#FFA800"/>
<path d="M389.445 823.498L396.848 833.093L374.985 846.122L367.583 836.527L389.445 823.498Z" fill="black"/>
<path d="M302.111 865.148L329.854 892.162L314.511 904.333L286.769 877.319L302.111 865.148Z" fill="white"/>
<path d="M578.814 771.82L590.706 773.313L587.578 792.561L575.685 791.068L578.814 771.82Z" fill="#14C57A"/>
<path d="M-2.59361 729.818C-6.3325 736.543 -14.8487 739.92 -22.8112 737.973C-23.469 740.65 -24.0921 743.358 -24.7499 746.066C-12.6677 747.831 -0.966383 741.867 3.15332 731.948C1.21464 731.248 -0.68958 730.548 -2.62826 729.818H-2.59361Z" fill="#FFA800"/>
<path d="M78.1032 780.702L81.0459 785.564L70.868 790.323L67.9252 785.461L78.1032 780.702Z" fill="#14C57A"/>
</svg>
