<?xml version="1.0" encoding="utf-8"?><!-- Uploaded to: SVG Repo, www.svgrepo.com, Generator: SVG Repo Mixer Tools -->
<svg fill="#707070" height="800px" width="800px" id="Layer_1" data-name="Layer 1"
    xmlns="http://www.w3.org/2000/svg" viewBox="0 0 16 16">
    <path class="cls-1" d="m7.03,7.75l0,3.69l-1.46,0l0,1.58l5.94,0l0,-1.58l-1.43,0l0,-5.27l-4.51,0l0,1.58l1.46,0zm0.38,-2.7a1.67,1.19 0 0 0 2.86,-0.84a1.62,1.16 0 0 0 -0.49,-0.84a1.67,1.19 0 0 0 -2.37,0a1.62,1.16 0 0 0 -0.49,0.84a1.6,1.14 0 0 0 0.49,0.84z"/>
</svg>