<svg width="163" height="21" viewBox="0 0 163 21" fill="none" xmlns="http://www.w3.org/2000/svg">
<g clip-path="url(#clip0_3301_86001)">
<path d="M0.973633 15.5591C5.57172 15.5591 7.39219 8.21522 11.9894 8.21522V0.871338C7.39219 0.871338 5.57172 8.21522 0.973633 8.21522V15.5591Z" fill="#F50032"/>
<path d="M11.9973 15.5591C16.5946 15.5591 18.4158 8.21516 23.0131 8.21516V0.871277C18.4158 0.871277 16.5946 8.21516 11.9973 8.21516V15.5591Z" fill="#F50032"/>
<path d="M23.0139 15.5592C23.9878 15.5592 24.9217 15.1724 25.6103 14.4837C26.299 13.7951 26.6858 12.8611 26.6858 11.8873C26.6858 10.9134 26.299 9.97944 25.6103 9.29082C24.9217 8.6022 23.9878 8.21533 23.0139 8.21533V15.5592Z" fill="#F50032"/>
</g>
<g clip-path="url(#clip1_3301_86001)">
<path d="M47.1319 0.871277H52.9231V15.6145H49.1322V3.92528L46.0149 15.6145H42.0538L39.2097 4.01242V15.6145H36.1597V0.871277H42.0577L44.4344 10.9404L47.1319 0.871277Z" fill="#F50032"/>
<path d="M62.5092 5.08618H66.0742L59.7285 19.8294H56.2507L58.1044 15.5514L53.5889 5.08618H57.5499L59.8672 11.4675L62.5092 5.08618Z" fill="#F50032"/>
<path d="M65.9832 12.1843H69.9839C70.0275 13.3409 70.6573 14.141 71.8813 14.141C72.7011 14.141 73.2716 13.8043 73.2716 13.234C73.2716 12.4418 72.4794 12.2041 71.0812 11.7604L69.1639 11.1702C67.2032 10.5404 66.1932 9.52637 66.1932 8.00135C66.1932 5.93366 68.1103 4.7572 71.4811 4.7572C74.7649 4.7572 76.6821 5.94554 76.9356 8.10434H73.2716C73.2322 7.66099 73.0198 7.25102 72.6801 6.96332C72.3405 6.67562 71.9012 6.53337 71.4574 6.56743C70.5939 6.56743 70.1938 6.96354 70.1938 7.38738C70.1938 8.08453 71.0812 8.35783 72.3012 8.73811L74.2381 9.34812C75.3354 9.68481 77.2723 10.4216 77.2723 12.4854C77.2723 14.549 75.3354 15.9592 71.6912 15.9592C68.3004 15.9513 66.3199 14.6243 65.9832 12.1843Z" fill="#F50032"/>
<path d="M84.6438 7.20979H82.79V12.3593C82.79 13.3059 82.9169 13.4326 84.3072 13.4326H84.6438V15.6232H82.2672C79.7202 15.6232 78.9835 14.8864 78.9835 12.0027V7.20979H77.7119V5.10248H78.9993V2.78524L82.79 1.31171V5.10248H84.6438V7.20979Z" fill="#F50032"/>
<path d="M96.6453 10.9197H89.238C89.3212 13.4865 89.955 14.0568 90.9651 14.0568C91.9117 14.0568 92.399 13.4666 92.5257 12.1833H96.4432C96.1897 14.3936 94.4389 15.9503 90.9651 15.9503C86.9365 15.9503 85.2769 13.5459 85.2769 10.4562C85.2769 7.2121 86.9841 4.74829 91.068 4.74829C94.5458 4.74829 96.6492 6.93878 96.6492 10.5196L96.6453 10.9197ZM89.337 9.02231H92.5812V8.95894C92.5812 7.19229 91.8245 6.6417 91.0442 6.6417C89.9272 6.6417 89.4004 7.71514 89.337 9.02231Z" fill="#F50032"/>
<path d="M108.348 8.55887V15.6136H104.557V9.18868C104.557 7.90132 104.161 7.27151 103.166 7.27151C102.172 7.27151 101.63 7.9647 101.63 9.64818V15.5898H97.8387V7.04177C97.8387 6.55851 97.8387 5.58805 97.7952 5.08499H101.566V6.49514C102.049 5.48506 103.151 4.74829 104.83 4.74829C107.084 4.74829 108.348 5.88512 108.348 8.55887Z" fill="#F50032"/>
<path d="M118.3 13.0239H124.987V15.6145H114.292V0.871277H118.292L118.3 13.0239Z" fill="#F50032"/>
<path d="M132.811 15.6147V14.1411C132.201 15.175 131.147 15.7652 129.396 15.7652C126.996 15.7652 125.693 14.5412 125.693 12.6479C125.693 10.6039 127.277 9.95032 129.587 9.47894L130.537 9.2888C132.241 8.95211 132.748 8.6788 132.748 7.85885C132.748 7.12209 132.284 6.63487 131.44 6.63487C131.244 6.61203 131.045 6.63394 130.858 6.69892C130.671 6.76391 130.502 6.8703 130.362 7.01012C130.222 7.14995 130.116 7.31959 130.051 7.50636C129.986 7.69313 129.964 7.89217 129.987 8.08859H126.077C126.18 5.79512 127.887 4.74146 131.468 4.74146C135.176 4.74146 136.459 6.02485 136.459 8.23515V13.9431C136.459 14.6363 136.459 15.2067 136.522 15.6266L132.811 15.6147ZM132.664 11.6971V10.4336C132.387 10.5603 132.05 10.6871 131.504 10.8772L131.187 10.9842C130.157 11.3209 129.65 11.5506 129.65 12.3111C129.65 13.0043 130.113 13.4994 131.021 13.4994C132.066 13.4875 132.656 12.7944 132.656 11.6971H132.664Z" fill="#F50032"/>
<path d="M149.051 10.267C149.051 13.4042 147.364 15.7413 144.299 15.7413C143.804 15.7589 143.31 15.6704 142.853 15.4819C142.395 15.2934 141.983 15.009 141.644 14.648L141.351 15.6145H137.98V0.871277H141.771V6.15935C142.1 5.71617 142.529 5.3573 143.024 5.11216C143.518 4.86703 144.063 4.74265 144.615 4.74919C147.717 4.74919 149.051 7.08624 149.051 10.267ZM144.901 10.267C144.901 7.92996 144.25 6.95949 143.261 6.95949C142.12 6.95949 141.675 7.92996 141.675 10.267C141.675 12.1604 142.115 13.531 143.261 13.531C144.472 13.5467 144.912 12.1604 144.912 10.267H144.901Z" fill="#F50032"/>
<path d="M149.684 12.1843H153.685C153.728 13.3409 154.359 14.141 155.583 14.141C156.402 14.141 156.969 13.8043 156.969 13.234C156.969 12.4418 156.176 12.2041 154.779 11.7604L152.865 11.1702C150.885 10.5404 149.894 9.52637 149.894 8.00135C149.894 5.93366 151.811 4.7572 155.182 4.7572C158.466 4.7572 160.383 5.94554 160.636 8.10434H156.972C156.934 7.66133 156.723 7.25136 156.384 6.96356C156.045 6.67577 155.606 6.53341 155.163 6.56743C154.299 6.56743 153.899 6.96354 153.899 7.38738C153.899 8.08453 154.782 8.35783 156.006 8.73811L157.943 9.34812C159.041 9.68481 160.978 10.4216 160.978 12.4854C160.978 14.549 159.041 15.9592 155.396 15.9592C152.002 15.9513 150.021 14.6243 149.684 12.1843Z" fill="#F50032"/>
</g>
<defs>
<clipPath id="clip0_3301_86001">
<rect width="26.3158" height="14.7368" fill="white" transform="translate(0.973633 0.871338)"/>
</clipPath>
<clipPath id="clip1_3301_86001">
<rect width="126.316" height="20" fill="white" transform="translate(35.7109 0.871338)"/>
</clipPath>
</defs>
</svg>
