<svg width="172" height="192" viewBox="0 0 172 192" fill="none" xmlns="http://www.w3.org/2000/svg">
<rect x="0.152764" y="30.7047" width="121" height="167.25" rx="10.5" transform="rotate(-15 0.152764 30.7047)" fill="white"/>
<rect x="0.152764" y="30.7047" width="121" height="167.25" rx="10.5" transform="rotate(-15 0.152764 30.7047)" stroke="#ADADAD"/>
<mask id="mask0_3301_85961" style="mask-type:alpha" maskUnits="userSpaceOnUse" x="0" y="0" width="160" height="192">
<rect x="0.765137" y="31.0583" width="120" height="166.25" transform="rotate(-15 0.765137 31.0583)" fill="#D9D9D9"/>
</mask>
<g mask="url(#mask0_3301_85961)">
<path d="M17.5473 48.6005C14.748 49.3505 11.9949 48.9515 11.1703 45.874L14.6129 44.9516C14.9856 46.3425 16.0481 46.6914 16.987 46.4399C18.4648 46.0439 18.8023 45.0776 18.4063 43.5998L16.2632 35.6019L19.4798 34.74L21.6694 42.9118C22.5639 46.25 20.5204 47.8038 17.5473 48.6005Z" fill="black"/>
<path d="M23.3712 73.3622C24.6367 73.0228 25.6031 72.1318 26.0882 71.0175C27.0674 71.7391 28.3492 72.0272 29.6147 71.6878C31.8209 71.0962 33.1275 68.8287 32.5335 66.6238C32.0152 64.6816 25.2394 61.4324 23.6174 60.6791C23.4143 60.5847 23.1782 60.6481 23.0496 60.8315C22.0233 62.2961 17.7868 68.5024 18.3073 70.4434C18.8988 72.6496 21.1663 73.9562 23.3712 73.3622Z" fill="black"/>
<path d="M26.2038 72.2379C26.2507 72.0626 26.4698 72.0039 26.5981 72.1322L29.1962 74.7303C29.3245 74.8586 29.2658 75.0777 29.0905 75.1246L25.5415 76.0756C25.3662 76.1226 25.2058 75.9622 25.2528 75.7869L26.2038 72.2379Z" fill="black"/>
<mask id="mask1_3301_85961" style="mask-type:alpha" maskUnits="userSpaceOnUse" x="15" y="31" width="136" height="152">
<rect x="14.0839" y="58.5479" width="108" height="130" rx="6" transform="rotate(-15 14.0839 58.5479)" fill="white"/>
</mask>
<g mask="url(#mask1_3301_85961)">
<path d="M52.4783 199.947L42.9048 164.218L146.279 136.52L155.836 172.189L122.003 197.82C120.933 197.727 116.029 197.394 110.473 198.883C109.557 199.128 108.649 199.403 107.816 199.721C107.491 199.808 104.236 200.902 100.11 204.89C99.8954 204.916 99.5545 204.944 99.1112 205.063C98.3724 205.261 97.3106 205.672 96.1745 206.515C96.1745 206.515 96.1154 206.531 96.0858 206.539C95.9676 206.57 95.5834 206.673 93.5549 207.85C93.3344 207.973 91.2742 209.031 90.5634 209.57C90.061 209.705 88.4731 210.162 87.5654 210.912L52.4783 199.947Z" fill="#FFCE57"/>
<path d="M145.941 137.148L155.284 172.02L121.839 197.326C120.45 197.223 115.666 196.984 110.317 198.417C109.401 198.663 108.493 198.938 107.63 199.264C107.216 199.375 103.94 200.506 99.8575 204.419C99.6506 204.475 99.3097 204.503 98.9551 204.598C98.2163 204.796 97.0954 205.223 95.9297 206.073C95.6638 206.145 95.1181 206.354 93.3102 207.409C92.7213 207.693 91.0886 208.574 90.3186 209.129C89.6685 209.303 88.3545 209.719 87.4526 210.372L52.88 199.554L43.5045 164.564L145.933 137.119M146.625 135.92L42.3054 163.872L52.0769 200.34L87.657 211.489C88.4601 210.704 90.2174 210.17 90.6607 210.051C90.7198 210.035 90.7493 210.027 90.7493 210.027C91.2828 209.536 93.7625 208.27 93.7625 208.27C95.3794 207.33 95.9763 207.075 96.1831 207.019C96.3309 206.98 96.2876 207.054 96.2876 207.054C97.4158 206.182 98.4776 205.771 99.246 205.565C99.8961 205.391 100.334 205.369 100.334 205.369C104.627 201.177 107.98 200.216 107.98 200.216C108.872 199.882 109.751 199.614 110.608 199.385C116.755 197.738 122.154 198.382 122.154 198.382L156.404 172.417L146.633 135.949L146.625 135.92Z" fill="black"/>
<path d="M128.731 155.665L104.409 162.182L104.663 163.127L128.984 156.61L128.731 155.665Z" fill="black"/>
<path d="M130.728 157.917L105.254 164.743L105.507 165.688L130.981 158.863L130.728 157.917Z" fill="black"/>
<path d="M131.801 160.385L107.479 166.902L107.733 167.848L132.054 161.331L131.801 160.385Z" fill="black"/>
<path d="M134.064 162.566L109.743 169.083L109.996 170.029L134.317 163.512L134.064 162.566Z" fill="black"/>
<path d="M136.29 164.725L111.998 171.234L112.251 172.18L136.543 165.671L136.29 164.725Z" fill="black"/>
<path d="M138.582 166.898L114.26 173.415L114.514 174.361L138.835 167.844L138.582 166.898Z" fill="black"/>
<path d="M139.359 169.446L115.068 175.955L115.321 176.9L139.613 170.391L139.359 169.446Z" fill="black"/>
<path d="M143.435 173.897L118.167 180.667L118.421 181.613L143.688 174.842L143.435 173.897Z" fill="black"/>
<path d="M87.657 211.489L52.0769 200.34L42.3054 163.872L92.2783 150.482L129.254 192.963L121.427 198.861C121.427 198.861 113.746 197.974 107.459 201.464C107.459 201.464 106.22 201.922 101.944 205.824C101.944 205.824 97.609 206.194 95.9214 207.343C95.9214 207.343 95.3203 207.345 92.5414 208.913C92.5414 208.913 90.4021 209.677 89.8686 210.168C89.8686 210.168 88.5466 210.554 87.649 211.46L87.657 211.489Z" fill="black"/>
<path d="M114.02 181.62C113.601 180.054 113.13 178.533 112.622 176.99L75.0015 187.07L76.2526 191.74L114.02 181.62Z" fill="white"/>
<path d="M111.045 172.408C110.648 171.279 110.213 170.129 109.756 169.016C109.756 169.016 109.689 169.002 109.681 168.973C109.202 168.721 108.782 168.453 108.346 168.127L72.4993 177.732L73.7504 182.401L111.045 172.408Z" fill="white"/>
<path d="M104.997 164.02C104.728 163.49 104.459 162.96 104.242 162.385C103.411 161.531 102.5 160.73 101.559 159.936L69.9969 168.393L71.2481 173.063L104.997 164.02Z" fill="white"/>
<path d="M96.8206 156.202C95.8579 155.446 94.9327 154.712 94.0883 153.925C93.5083 153.415 93.0976 152.828 92.8211 152.269L67.4948 159.055L68.7459 163.724L96.8206 156.202Z" fill="white"/>
<path d="M125.465 195.372C119.339 192.959 111.132 187.747 106.373 176.606C100.053 161.765 86.8438 154.314 84.6351 153.164L84.7786 152.872L95.9199 149.886C101.782 154.27 109.702 161.84 114.501 173.129C119.886 185.781 131.274 188.209 134.369 188.647L125.465 195.372Z" fill="white"/>
<path d="M95.8378 150.288C101.633 154.659 109.433 162.134 114.162 173.283C119.208 185.139 129.448 188.129 133.475 188.855L125.414 194.943C119.384 192.536 111.378 187.364 106.712 176.451C100.716 162.348 88.5455 154.871 85.3093 153.078L95.8299 150.259M95.9728 149.492L84.5065 152.564L84.1704 153.32C84.1704 153.32 99.1887 160.667 106.035 176.76C110.825 188.019 119.085 193.312 125.517 195.802L135.153 188.5L135.13 188.412C135.13 188.412 120.947 187.492 114.788 173.02C109.921 161.592 101.926 153.978 95.9512 149.53L95.9728 149.492Z" fill="black"/>
<path d="M146.845 179.413L117.103 143.83L138.499 138.097L151.114 171.586L146.845 179.413Z" fill="black"/>
<path d="M146.684 179.171C147.596 176.899 148.551 172.779 146.832 167.665L139.097 138.444L146.279 136.52L155.836 172.189L146.684 179.171Z" fill="#FFCE57"/>
<path d="M145.941 137.148L155.285 172.02L147.687 177.825C148.358 175.365 148.736 171.811 147.343 167.56L139.743 138.841L145.979 137.17M146.625 135.92L138.469 138.105L146.331 167.8C148.902 175.504 145.266 180.849 145.266 180.849L156.367 172.395L146.596 135.928L146.625 135.92Z" fill="black"/>
<path d="M106.88 159.112C103.055 154.531 99.1833 151.546 95.3386 150.201L122.379 142.955C122.822 142.836 123.373 143.354 123.555 144.034L125.859 152.633C126.041 153.313 125.823 154.037 125.38 154.155L106.88 159.112Z" fill="#FFCE57"/>
<path d="M122.514 143.457C122.514 143.457 122.918 143.666 123.053 144.168L125.357 152.768C125.492 153.27 125.334 153.629 125.246 153.653L107.071 158.523C103.732 154.571 100.339 151.838 96.9728 150.269L122.536 143.42M122.245 142.453L93.4016 150.181C98.4817 151.29 103.031 155.266 106.69 159.702L125.515 154.658C126.254 154.46 126.631 153.503 126.362 152.499L124.058 143.899C123.788 142.894 122.983 142.255 122.245 142.453Z" fill="black"/>
<path d="M109.26 154.991C107.877 153.492 106.466 152.128 104.839 151.139L119.911 147.101L121.17 151.799L109.26 154.991Z" fill="#FFCE57"/>
<path d="M119.053 148.629L119.679 150.963L109.69 153.64C109.033 152.961 108.376 152.282 107.676 151.677L119.083 148.621M119.919 145.831L100.917 150.923C104.199 151.469 106.555 153.878 108.876 156.392L121.82 152.924C122.293 152.797 122.55 152.221 122.392 151.63L121.053 146.636C120.903 146.074 120.392 145.705 119.919 145.831Z" fill="black"/>
<path d="M141.623 171.627L117.331 178.136L117.584 179.081L141.876 172.572L141.623 171.627Z" fill="black"/>
<path d="M52.3515 199.474L43.1185 165.016L71.1637 157.502L85.0369 209.277L84.9799 209.419L52.3515 199.474Z" fill="#F50032"/>
<path d="M70.8257 158.131L84.3822 208.724L52.7534 199.082L43.7263 165.392L70.8257 158.131ZM71.5101 156.902L42.5193 164.67L51.9502 199.867L85.2351 210.016L85.5575 209.328L71.5101 156.902Z" fill="black"/>
<path d="M61.9661 160.41L68.3198 158.707L81.4883 207.853L74.0656 205.566L61.9661 160.41Z" fill="#FFCE57"/>
<path d="M81.835 208.203L73.8682 205.777L61.6658 160.237L68.4924 158.408L81.835 208.203ZM74.2698 205.384L81.1326 207.473L68.1462 159.007L62.2653 160.583L74.2698 205.384Z" fill="black"/>
<path d="M53.1584 161.819L59.5122 160.117L71.675 205.509L64.4006 203.657L53.1584 161.819Z" fill="black"/>
<path d="M45.5052 164.82L51.5635 163.197L61.9605 201.999L54.9204 199.958L45.5052 164.82Z" fill="white"/>
<path d="M62.3159 202.379L54.6942 200.177L45.1761 164.655L51.7368 162.897L62.3159 202.379ZM55.1253 199.776L61.643 201.641L51.4202 163.489L45.8052 164.993L55.1174 199.747L55.1253 199.776Z" fill="black"/>
<path d="M86.1143 52.2969C86.1143 52.2969 85.8262 58.5506 90.8764 62.7403C96.1082 67.1348 95.8139 69.9376 95.8139 69.9376C95.8139 69.9376 92.445 70.8404 92.7735 73.603C93.1458 76.7657 96.3516 81.1646 101.954 77.6045C101.954 77.6045 105.325 74.5793 101.842 67.8473C98.3299 61.1233 90.5882 55.7543 91.5894 50.8616L86.1518 52.3186L86.1143 52.2969Z" fill="#F50032"/>
<path d="M99.5577 78.9436C97.9619 79.3712 96.4736 79.1365 95.235 78.2964C93.4934 77.116 92.6868 75.0516 92.5215 73.6072C92.2189 71.0594 94.8427 69.9762 95.544 69.7566C95.5039 69.1339 95.0456 66.5961 90.7094 62.9435C85.6434 58.6947 85.8703 52.3307 85.884 52.2637L85.8956 52.0705L91.8947 50.4631L91.8124 50.8652C91.2522 53.7393 93.7745 56.7693 96.7211 60.3191C98.6671 62.6167 100.645 65.0325 102.055 67.6953C105.628 74.5296 102.274 77.614 102.12 77.7502L102.091 77.7581C101.232 78.3365 100.385 78.7219 99.5577 78.9436ZM86.3553 52.4858C86.3506 53.5323 86.6112 58.8788 91.0144 62.5451C96.2916 66.9907 96.0427 69.8447 96.0449 69.9709L96.0254 70.1345L95.8776 70.174C95.8776 70.174 92.7155 71.0213 93.0181 73.5692C93.1813 74.8875 93.8812 76.7904 95.5104 77.9059C97.2225 79.0942 99.4236 78.9161 101.803 77.3919C102.058 77.1649 104.919 74.2447 101.614 67.9402C100.249 65.3286 98.2792 62.9423 96.3707 60.6664C93.4774 57.1973 90.9551 54.1673 91.2984 51.193L86.3927 52.5075L86.3553 52.4858Z" fill="black"/>
<path d="M80.9434 54.1577C80.9434 54.1577 80.6553 60.4114 85.7055 64.6011C90.9373 68.9956 90.6431 71.7984 90.6431 71.7984C90.6431 71.7984 87.2741 72.7011 87.5947 75.4342C87.967 78.5969 91.1728 82.9958 96.7754 79.4358C96.7754 79.4358 100.175 76.4026 96.6632 69.6785C93.1511 62.9545 85.4173 57.615 86.4106 52.6928L80.973 54.1498L80.9434 54.1577Z" fill="#F50032"/>
<path d="M94.3946 80.8339C92.7988 81.2615 91.3106 81.0268 90.0719 80.1867C88.3303 79.0063 87.5237 76.9419 87.3584 75.4975C87.0558 72.9497 89.6796 71.8665 90.4105 71.639C90.3703 71.0163 89.9121 68.4785 85.5759 64.8259C80.5098 60.577 80.7447 54.2426 80.7584 54.1756L80.77 53.9825L86.7691 52.375L86.6868 52.7772C86.1266 55.6512 88.6568 58.7108 91.5955 62.231C93.5414 64.5286 95.5191 66.9444 96.9294 69.6072C100.503 76.4416 97.1561 79.5555 96.9946 79.6621L96.9651 79.67C96.1065 80.2485 95.2595 80.6338 94.4321 80.8555L94.3946 80.8339ZM81.1843 54.3466C81.2092 55.3851 81.4402 60.7395 85.8434 64.4058C91.1206 68.8515 90.8717 71.7055 90.8739 71.8316L90.8544 71.9952L90.7066 72.0348C90.7066 72.0348 87.5524 72.9116 87.8471 75.4299C88.0103 76.7482 88.7102 78.6511 90.3315 79.7371C92.0436 80.9254 94.2447 80.7473 96.6236 79.223C96.8795 78.9961 99.71 76.0838 96.4349 69.7714C95.07 67.1598 93.0707 64.7814 91.1543 62.476C88.261 59.0069 85.7387 55.9769 86.082 53.0025L81.1764 54.317L81.1843 54.3466Z" fill="black"/>
<path d="M76.8065 55.2662C76.8065 55.2662 76.5184 61.5199 81.539 65.7175C86.7708 70.112 86.4766 72.9148 86.4766 72.9148C86.4766 72.9148 83.1372 73.8096 83.4282 76.5506C83.8005 79.7133 87.0063 84.1122 92.609 80.5522C92.609 80.5522 95.9793 77.5269 92.4968 70.795C88.9847 64.0709 81.2508 58.7315 82.2441 53.8092L76.8065 55.2662Z" fill="#F50032"/>
<path d="M90.228 81.9503C88.6322 82.3779 87.1439 82.1432 85.9053 81.3032C84.1637 80.1228 83.3571 78.0584 83.1918 76.614C82.8892 74.0661 85.513 72.983 86.2439 72.7555C86.2037 72.1328 85.7454 69.5949 81.4093 65.9423C76.3432 61.6935 76.578 55.3591 76.5917 55.2921L76.6033 55.0989L82.6025 53.4915L82.5202 53.8936C81.9304 56.7756 84.4902 59.8273 87.4289 63.3475C89.3453 65.653 91.3524 68.0609 92.7332 70.7316C96.3066 77.5659 92.9599 80.6798 92.7985 80.7865L92.7689 80.7944C91.9103 81.3728 91.0634 81.7582 90.2359 81.9799L90.228 81.9503ZM77.0472 55.4551C77.0425 56.5016 77.3032 61.848 81.7063 65.5143C86.9835 69.96 86.7347 72.814 86.7368 72.9401L86.7173 73.1037L86.54 73.1512C86.54 73.1512 83.3858 74.0281 83.6805 76.5464C83.8437 77.8646 84.5732 79.7597 86.1649 80.8535C87.9065 82.0339 90.0781 81.8638 92.457 80.3395C92.7129 80.1126 95.573 77.1924 92.2683 70.8878C90.9034 68.2762 88.9337 65.89 86.9877 63.5924C84.0944 60.1233 81.5721 57.0933 81.9154 54.119L77.0097 55.4335L77.0472 55.4551Z" fill="black"/>
<path d="M126.182 72.9817L113.208 76.4579L113.826 78.763L126.799 75.2867L126.182 72.9817Z" fill="black"/>
<path d="M60.2457 76.6809C60.2457 76.6809 62.8653 75.3455 64.1694 76.5481C64.1694 76.5481 62.9093 77.5192 61.6231 76.5019C61.6231 76.5019 60.6278 76.4518 60.2457 76.6809Z" fill="black"/>
<path d="M64.2666 83.6487C64.9779 83.5848 66.0302 83.4929 66.7901 82.7825C66.7901 82.7825 66.0773 84.969 63.7357 84.7412L64.2666 83.6487Z" fill="black"/>
<path d="M73.3513 89.418C69.2435 90.5187 65.952 90.2921 65.885 90.2784C65.1282 90.2911 64.515 90.012 64.0827 89.4626C62.9221 87.9682 63.5667 84.8181 63.7667 83.9094C62.804 83.1537 62.7173 81.5299 62.6872 81.0629L62.1642 80.4112L61.9096 78.5156C59.6985 78.5379 58.2888 78.1238 57.6729 77.2436C57.1636 76.5248 57.4031 75.7638 57.4327 75.7559L59.1204 69.7607C58.8812 69.223 57.842 66.9992 57.6007 66.3354C57.0037 64.8166 56.9606 60.0454 56.9722 59.8522L57.6698 59.8553C57.6698 59.8553 57.6914 64.664 58.2567 66.0646C58.5433 66.7796 59.8217 69.5411 59.8296 69.5707L59.8613 69.6889L58.0892 75.9601C58.0971 75.9896 57.9341 76.4451 58.2302 76.8409C58.5796 77.3174 59.5538 77.8799 62.1946 77.8057L62.5059 77.7857L62.8122 80.1108L63.3727 80.7842L63.4044 80.9024C63.3617 81.4523 63.5212 82.9932 64.3002 83.418L64.525 83.5478L64.4701 83.8159C64.1757 84.845 63.6472 87.8373 64.5946 89.0088C64.8828 89.375 65.3087 89.5459 65.8802 89.5512C66.0142 89.5786 77.1362 90.3043 83.5886 82.1139L84.1154 82.5429C81.02 86.4763 76.8601 88.4462 73.3138 89.3964L73.3513 89.418Z" fill="black"/>
<path d="M91.1669 48.2192L56.1475 57.6027L56.8997 60.4101L91.9192 51.0267L91.1669 48.2192Z" fill="white"/>
<path d="M92.144 51.1565L56.7403 60.6429L55.8851 57.4512L91.2888 47.9649L92.144 51.1565ZM57.0216 60.1558L91.6569 50.8753L91.0075 48.452L56.3722 57.7325L57.0216 60.1558Z" fill="black"/>
<path d="M56.0015 55.5196C55.4109 54.3793 53.4026 51.0215 50.0582 49.4153L92.318 38.0919C90.2248 41.155 90.1939 45.0592 90.2231 46.35L55.972 55.5276L56.0015 55.5196Z" fill="#FFCE57"/>
<path d="M91.2922 38.8735C89.9198 41.5535 89.7401 44.5473 89.7418 45.9722L56.2591 54.9439C55.5481 53.709 53.9251 51.1982 51.3671 49.5714L91.2922 38.8735ZM93.6985 37.2152L48.454 49.3384C53.2031 50.6315 55.7441 56.0954 55.7441 56.0954L90.7636 46.712C90.7636 46.712 90.2242 40.6801 93.6985 37.2152Z" fill="black"/>
<path d="M53.99 53.3346C53.99 53.3346 55.9334 56.8048 56.1472 57.6027L91.1667 48.2193C91.1667 48.2193 90.4587 44.5131 90.6644 43.5077L53.9604 53.3425L53.99 53.3346Z" fill="black"/>
<path d="M39.6186 151.954L30.0609 116.285L63.8942 90.6535C64.9349 90.7547 69.8682 91.0799 75.424 89.5912C76.3401 89.3458 77.2404 89.0412 78.0816 88.7524C78.3771 88.6733 81.6611 87.5716 85.7871 83.5837C85.9644 83.5362 86.3349 83.5003 86.7782 83.3815C87.517 83.1835 88.5787 82.7723 89.7149 81.9295C89.7444 81.9215 89.774 81.9136 89.8035 81.9057C89.9217 81.874 90.3059 81.7711 92.3344 80.5941C92.555 80.4716 94.6152 79.4128 95.326 78.8739C95.8284 78.7393 97.4163 78.2822 98.3239 77.5322L133.382 88.5049L142.955 124.234L39.6106 151.925L39.6186 151.954Z" fill="#FFCE57"/>
<path d="M98.4746 78.0936L133.018 88.9191L142.393 123.909L39.965 151.355L30.6211 116.483L64.0291 91.1558C65.4186 91.2586 70.202 91.4972 75.551 90.064C76.4671 89.8185 77.3674 89.5139 78.2381 89.2173C78.6518 89.1064 81.9279 87.9752 86.0106 84.0622C86.2175 84.0068 86.5584 83.9788 86.913 83.8838C87.6518 83.6858 88.7727 83.2588 89.9384 82.408C90.2044 82.3367 90.75 82.1272 92.5579 81.0726C93.1469 80.7881 94.7796 79.9072 95.5495 79.3525C96.1996 79.1783 97.5137 78.7628 98.445 78.1015M98.2407 76.9843C97.4671 77.7617 95.6803 78.3039 95.237 78.4226L95.1483 78.4464C94.6148 78.9378 92.1351 80.204 92.1351 80.204C90.5183 81.144 89.9214 81.399 89.7145 81.4544C89.5668 81.494 89.618 81.4486 89.618 81.4486C88.4898 82.321 87.428 82.7322 86.6596 82.9381C86.0095 83.1123 85.572 83.1345 85.572 83.1345C81.2708 87.2961 77.8961 88.2953 77.8961 88.2953C77.0332 88.6216 76.125 88.8966 75.268 89.1262C69.1211 90.7733 63.7224 90.1294 63.7224 90.1294L29.5012 116.086L39.2727 152.554L143.592 124.601L133.821 88.1338L98.2407 76.9843Z" fill="black"/>
<path d="M81.1985 125.324L56.9065 131.833L57.1599 132.779L81.4519 126.27L81.1985 125.324Z" fill="black"/>
<path d="M80.3917 122.785L54.9176 129.611L55.171 130.556L80.6451 123.731L80.3917 122.785Z" fill="black"/>
<path d="M78.1573 120.596L53.8358 127.113L54.0892 128.059L78.4107 121.542L78.1573 120.596Z" fill="black"/>
<path d="M75.8729 118.453L51.5809 124.962L51.8343 125.907L76.1263 119.398L75.8729 118.453Z" fill="black"/>
<path d="M73.6096 116.272L49.3176 122.781L49.571 123.727L73.863 117.218L73.6096 116.272Z" fill="black"/>
<path d="M71.3838 114.113L47.0623 120.629L47.3156 121.575L71.6372 115.058L71.3838 114.113Z" fill="black"/>
<path d="M70.5398 111.551L46.2478 118.06L46.5012 119.006L70.7932 112.497L70.5398 111.551Z" fill="black"/>
<path d="M67.4689 106.831L42.2017 113.602L42.4551 114.547L67.7223 107.777L67.4689 106.831Z" fill="black"/>
<path d="M98.2408 76.9842L133.821 88.1337L143.592 124.601L93.6194 137.991L56.644 95.5101L64.4708 89.6121C64.4708 89.6121 72.1224 90.5075 78.4385 87.0097C78.4385 87.0097 79.6776 86.551 83.9535 82.6496C83.9535 82.6496 88.2888 82.2798 89.9764 81.1308C89.9764 81.1308 90.6149 81.1498 93.3564 79.56C93.3564 79.56 95.4957 78.7967 96.0292 78.3053C96.0292 78.3053 97.3591 77.949 98.2487 77.0138L98.2408 76.9842Z" fill="black"/>
<path d="M65.9769 98.4257L66.8163 101.558C67.8037 101.579 68.7737 101.889 69.5627 102.469L108.394 92.0644L107.143 87.3952L65.9769 98.4257Z" fill="white"/>
<path d="M71.8778 106.854C72.2975 108.42 72.7979 109.933 73.2767 111.483L110.897 101.403L109.646 96.7337L71.8778 106.854Z" fill="white"/>
<path d="M74.8533 116.065C75.2803 117.186 75.6857 118.344 76.1423 119.457C76.1423 119.457 76.1798 119.479 76.2172 119.501C76.6964 119.752 77.1244 120.049 77.5525 120.346L113.399 110.741L112.148 106.072L74.8533 116.065Z" fill="white"/>
<path d="M80.872 124.462C81.1406 124.991 81.4093 125.521 81.6268 126.096C82.487 126.943 83.3985 127.744 84.31 128.545L115.872 120.088L114.621 115.419L80.8424 124.469L80.872 124.462Z" fill="white"/>
<path d="M89.0775 132.272C90.0402 133.028 90.9653 133.762 91.8098 134.549C92.3898 135.059 92.7925 135.616 93.077 136.205L118.403 129.419L117.152 124.749L89.0775 132.272Z" fill="white"/>
<path d="M89.9783 138.587C84.1159 134.203 76.1961 126.633 71.3975 115.344C66.012 102.692 54.6238 100.264 51.5292 99.8264L60.433 93.1013C66.5591 95.514 74.7658 100.727 79.5248 111.868C85.853 126.738 99.0544 134.16 101.263 135.31L101.119 135.602L90.0078 138.579L89.9783 138.587Z" fill="white"/>
<path d="M60.4769 93.5012C66.536 95.9003 74.5121 101.08 79.1782 111.992C85.1744 126.096 97.3451 133.572 100.611 135.358L90.0902 138.177C84.2948 133.807 76.4954 126.331 71.7659 115.182C66.7203 103.326 56.4805 100.337 52.4533 99.6104L60.5144 93.5228M60.3597 92.7091L50.7234 100.011L50.7551 100.129C50.7551 100.129 64.938 101.048 71.0588 115.498C75.9265 126.927 83.9292 134.57 89.8961 138.989L101.362 135.917L101.698 135.162C101.698 135.162 86.6802 127.815 79.8341 111.722C75.0435 100.462 66.7835 95.1688 60.3597 92.7091Z" fill="black"/>
<path d="M39.0537 109.061L68.7664 144.651L47.4001 150.376L34.7845 116.888L39.0537 109.061Z" fill="black"/>
<path d="M39.6186 151.954L30.0609 116.285L39.2128 109.303C38.3011 111.574 37.3462 115.695 39.065 120.809L46.7919 150L39.6107 151.925L39.6186 151.954Z" fill="#FFCE57"/>
<path d="M38.2194 110.678C37.5484 113.138 37.1703 116.692 38.5707 120.973L46.1709 149.692L39.965 151.355L30.6211 116.483L38.2194 110.678ZM40.5945 107.602L29.5012 116.086L39.2727 152.554L47.3996 150.376L39.538 120.682C36.9668 112.977 40.6024 107.632 40.6024 107.632L40.5945 107.602Z" fill="black"/>
<path d="M63.5188 145.519C63.0755 145.637 62.525 145.12 62.3429 144.44L60.0307 135.811C59.8485 135.131 60.0664 134.407 60.5097 134.289L79.0094 129.332C82.8343 133.913 86.7065 136.898 90.5512 138.244L63.5108 145.489L63.5188 145.519Z" fill="#FFCE57"/>
<path d="M78.8192 129.921C82.1585 133.872 85.5594 136.635 88.947 138.167L63.3843 145.016C63.3843 145.016 62.9801 144.808 62.8454 144.305L60.5332 135.676C60.3986 135.174 60.5559 134.815 60.6445 134.791L78.8192 129.921ZM79.208 128.772L60.3832 133.816C59.6444 134.014 59.2671 134.97 59.5364 135.975L61.8486 144.604C62.1178 145.609 62.9227 146.248 63.6615 146.05L92.5045 138.322C87.4245 137.213 82.8672 133.207 79.2159 128.801L79.208 128.772Z" fill="black"/>
<path d="M65.9876 141.373L64.7285 136.674L76.6381 133.483C78.0135 134.951 79.4321 136.345 81.0297 137.342L65.9876 141.373Z" fill="#FFCE57"/>
<path d="M76.245 134.855C76.9021 135.534 77.5512 136.184 78.2516 136.788L66.8444 139.845L66.2268 137.539L76.2154 134.863M77.0221 132.081L64.0782 135.55C63.6054 135.676 63.3479 136.252 63.4983 136.814L64.8366 141.808C64.987 142.369 65.4979 142.739 65.9707 142.613L84.9728 137.521C81.6829 136.946 79.3348 134.566 77.0142 132.052L77.0221 132.081Z" fill="black"/>
<path d="M68.3141 109.392L43.9926 115.909L44.2459 116.855L68.5675 110.338L68.3141 109.392Z" fill="black"/>
<path d="M114.705 130.98L100.832 79.2041L100.918 79.0542L133.547 88.9991L142.78 123.457L114.705 130.98Z" fill="#F50032"/>
<path d="M101.516 79.7494L133.144 89.392L142.172 123.082L115.072 130.343L101.516 79.7494ZM100.663 78.4575L100.311 79.1537L114.358 131.579L143.379 123.803L133.948 88.6067L100.663 78.4575Z" fill="black"/>
<path d="M123.932 128.064L117.578 129.766L104.41 80.6209L111.832 82.908L123.932 128.064Z" fill="#FFCE57"/>
<path d="M124.232 128.237L117.405 130.066L104.063 80.2704L112.029 82.6968L124.232 128.237ZM117.751 129.467L123.632 127.891L111.628 83.0895L104.765 81.0008L117.751 129.467Z" fill="black"/>
<path d="M132.74 126.654L126.386 128.356L114.224 82.9642L121.498 84.8159L132.74 126.654Z" fill="black"/>
<path d="M140.393 123.653L134.305 125.284L123.9 86.4528L130.977 88.5156L140.393 123.653Z" fill="white"/>
<path d="M143.25 123.324L38.9304 151.277L47.7303 184.118L152.05 156.166L143.25 123.324Z" fill="black"/>
<path d="M143.25 123.324L38.9304 151.277L42.5539 164.8L146.874 136.847L143.25 123.324Z" fill="#FFCE57"/>
<path d="M140.692 123.826L134.132 125.584L123.553 86.1024L131.174 88.3045L140.692 123.826ZM134.478 124.985L140.063 123.488L130.751 88.7346L124.255 86.8327L134.478 124.985Z" fill="black"/>
<path d="M151.015 152.302L47.661 179.996L48.6963 183.859L152.05 156.166L151.015 152.302Z" fill="#F50032"/>
<path d="M149.289 136.2L149.159 135.717L148.676 135.847L40.4927 164.834L40.0097 164.964L40.1391 165.447L41.1744 169.31L41.3038 169.793L41.7868 169.664L149.97 140.676L150.453 140.547L150.324 140.064L149.289 136.2Z" fill="#FFCE57" stroke="black"/>
<path d="M151.359 143.928L151.23 143.445L150.747 143.574L42.5632 172.562L42.0803 172.691L42.2097 173.174L43.2449 177.038L43.3743 177.521L43.8573 177.391L152.041 148.404L152.524 148.274L152.395 147.791L151.359 143.928Z" fill="white" stroke="black"/>
<path d="M142.52 124.382L145.592 135.848L43.164 163.294L40.0916 151.827L142.52 124.382ZM143.204 123.153L38.8846 151.106L42.4638 164.463L146.783 136.511L143.204 123.153Z" fill="black"/>
<path d="M101.49 134.267L84.8818 138.717L88.4848 152.164L105.093 147.713L101.49 134.267Z" fill="#F50032"/>
<path d="M105.722 148.052L88.1086 152.771L84.2444 138.35L101.858 133.63L105.722 148.052ZM88.8146 151.505L104.448 147.316L101.114 134.875L85.4809 139.064L88.8146 151.505Z" fill="black"/>
<path d="M99.8866 136.439L87.3269 139.804L90.0509 149.97L102.611 146.605L99.8866 136.439Z" fill="#FFCE57"/>
<path d="M77.6975 150.556C77.8499 149.47 77.7638 148.321 77.4629 147.199C76.2276 142.588 71.4983 139.833 66.9177 141.06C62.3371 142.288 59.6192 147.039 60.8545 151.649C61.2979 153.304 62.1825 154.714 63.3505 155.763L73.876 166.911L77.727 150.549L77.6975 150.556Z" fill="#FFCE57"/>
<path d="M74.0914 167.835L63.0291 156.102C61.7703 154.951 60.8541 153.423 60.4106 151.768C59.112 146.921 61.9893 141.937 66.8063 140.647C71.6233 139.356 76.607 142.233 77.9056 147.08C78.2144 148.232 78.2868 149.448 78.1502 150.593L74.113 167.797L74.0914 167.835ZM67.036 141.504C62.6918 142.668 60.0957 147.164 61.2677 151.538C61.6715 153.045 62.4812 154.412 63.6491 155.461L73.6083 166.032L77.2652 150.482C77.396 149.434 77.3257 148.344 77.0486 147.31C75.8766 142.936 71.3801 140.34 67.036 141.504Z" fill="black"/>
<path d="M77.6975 150.556C77.8499 149.47 77.7638 148.321 77.4629 147.199C76.2276 142.588 71.4983 139.833 66.9177 141.06C62.3371 142.288 59.6192 147.039 60.8545 151.649C61.2979 153.304 62.1825 154.714 63.3505 155.763C63.3505 155.763 61.3739 147.677 68.1826 145.663C68.1826 145.663 75.7184 143.643 77.229 152.709L77.727 150.549L77.6975 150.556Z" fill="white"/>
<path d="M77.1031 154.96L76.7477 152.806C76.2852 150.016 75.1831 148.031 73.4652 146.939C71.0571 145.399 68.2712 146.114 68.2417 146.122C61.9355 148.002 63.6628 155.394 63.742 155.689L64.1142 157.078L63.0291 156.102C61.7624 154.921 60.8541 153.423 60.4106 151.768C59.112 146.921 61.9893 141.937 66.8063 140.647C71.6233 139.356 76.607 142.233 77.9056 147.08C78.2144 148.232 78.2868 149.448 78.1502 150.593L77.1542 154.915L77.1031 154.96ZM68.0121 145.265C68.1598 145.225 71.2412 144.431 73.957 146.174C75.4501 147.136 76.5299 148.684 77.1887 150.788L77.2573 150.453C77.3881 149.404 77.3178 148.314 77.0407 147.28C75.8687 142.906 71.3722 140.31 67.028 141.474C62.6838 142.638 60.0878 147.135 61.2597 151.508C61.5448 152.572 62.0288 153.551 62.6743 154.424C62.4762 151.911 62.7243 146.808 68.0041 145.235L68.0121 145.265Z" fill="black"/>
<path d="M76.2062 156.816C76.2763 156.132 76.2499 155.442 76.0598 154.733C75.2917 151.866 72.369 150.179 69.532 150.939C66.695 151.699 65.0075 154.622 65.7756 157.488C66.0449 158.493 66.5938 159.36 67.3179 160.052L73.8238 166.956L76.2062 156.816Z" fill="#FFCE57"/>
<path d="M73.9986 167.606L67.0921 160.271C66.293 159.535 65.7578 158.602 65.4807 157.567C64.665 154.523 66.4607 151.413 69.475 150.606C72.4893 149.798 75.5994 151.594 76.415 154.638C76.605 155.347 76.6473 156.096 76.5635 156.847L74.0281 167.598L73.9986 167.606ZM69.6196 151.264C66.9599 151.976 65.3886 154.741 66.1013 157.401C66.3467 158.317 66.8582 159.162 67.5369 159.804L73.6422 166.276L75.8716 156.747C75.9497 156.093 75.9016 155.44 75.7353 154.82C75.0147 152.13 72.2793 150.551 69.6196 151.264Z" fill="black"/>
<path d="M74.3465 156.966C74.3913 156.542 74.3691 156.104 74.2503 155.661C73.7673 153.858 71.9312 152.798 70.1581 153.273C68.385 153.749 67.3249 155.585 67.8079 157.387C67.9821 158.037 68.3178 158.581 68.7775 158.996L72.8504 163.321L74.3465 156.966Z" fill="#FFCE57"/>
<path d="M72.961 163.735L68.6237 159.132C68.1561 158.688 67.775 158.093 67.6008 157.443C67.094 155.551 68.211 153.573 70.1024 153.067C71.9937 152.56 73.9422 153.685 74.4569 155.606C74.5757 156.049 74.6058 156.516 74.5473 157.007L72.9689 163.764L72.961 163.735ZM70.2132 153.48C68.5288 153.932 67.5336 155.655 67.985 157.34C68.1433 157.931 68.4415 158.453 68.8933 158.838L72.7392 162.907L74.1451 156.924C74.1979 156.53 74.154 156.13 74.0432 155.716C73.5918 154.032 71.8682 153.037 70.1837 153.488L70.2132 153.48Z" fill="black"/>
<path d="M74.0437 167.657L64.9685 158.021C63.9209 157.067 63.1804 155.84 62.8161 154.48C61.7472 150.491 64.1052 146.407 68.0652 145.345C72.0252 144.284 76.1175 146.672 77.1786 150.632C77.432 151.578 77.508 152.571 77.383 153.523L74.0733 167.65L74.0437 167.657ZM68.2474 146.025C64.6715 146.983 62.5298 150.693 63.4959 154.298C63.8284 155.54 64.5077 156.656 65.435 157.516L73.6262 166.217L76.6321 153.439C76.7433 152.554 76.6694 151.687 76.4398 150.83C75.4737 147.225 71.7936 145.075 68.2178 146.033L68.2474 146.025Z" fill="black"/>
<path d="M62.84 152.795L63.0653 151.626L60.9428 146.779C60.8231 147.159 60.7329 147.532 60.6427 147.905L62.8105 152.803L62.84 152.795Z" fill="black"/>
<path d="M62.2581 144.241C62.0692 144.482 61.9098 144.714 61.7584 144.977L63.5018 149.356L64.1024 148.878L62.2581 144.241Z" fill="black"/>
<path d="M65.0765 147.667L65.6136 146.953L64.0316 142.467C63.819 142.619 63.6359 142.763 63.4311 142.945L65.0469 147.675L65.0765 147.667Z" fill="black"/>
<path d="M66.8422 146.338L67.5198 146.03L66.1267 141.304C65.8903 141.367 65.6697 141.49 65.4412 141.583L66.8343 146.309L66.8422 146.338Z" fill="black"/>
<path d="M68.434 140.812C68.1896 140.846 67.9374 140.85 67.7305 140.906L68.8476 145.548L69.5906 145.602L68.434 140.812Z" fill="black"/>
<path d="M70.8196 140.965C70.581 140.902 70.3208 140.877 70.0607 140.852L71.0105 145.697L71.7852 145.869L70.8196 140.965Z" fill="black"/>
<path d="M73.2418 146.461L74.0107 146.73L73.2757 141.859C73.0134 141.707 72.759 141.586 72.4751 141.472L73.2043 146.439L73.2418 146.461Z" fill="black"/>
<path d="M76.2962 149.348L75.7438 143.858C75.501 143.543 75.207 143.274 74.9209 143.033L75.5146 148.322L76.2962 149.348Z" fill="black"/>
<path d="M71.966 162.386L72.7297 163.227L70.069 153.297C69.8917 153.345 69.7144 153.392 69.5825 153.491L71.966 162.386Z" fill="black"/>
<path d="M70.7268 161.071L71.4372 161.831L69.2516 153.675C69.0902 153.781 68.9582 153.88 68.8263 153.979L70.7268 161.071Z" fill="black"/>
<path d="M69.4876 159.756L70.1526 160.465L68.5055 154.318C68.3895 154.476 68.2734 154.634 68.1573 154.791L69.4876 159.756Z" fill="black"/>
<path d="M68.2164 158.323C68.3763 158.565 68.5658 158.8 68.7769 158.996L68.8676 159.099L67.8699 155.375C67.7639 155.689 67.6953 156.024 67.6858 156.343L68.2084 158.294L68.2164 158.323Z" fill="black"/>
<path d="M72.9896 162.777L73.2386 161.697L70.958 153.186C70.8024 153.196 70.6171 153.214 70.4319 153.232L72.9896 162.777Z" fill="black"/>
<path d="M73.4112 160.922L73.6385 159.879L71.8648 153.26C71.6933 153.211 71.4922 153.169 71.3286 153.15L73.4033 160.893L73.4112 160.922Z" fill="black"/>
<path d="M73.8623 159.059L74.0622 158.15L72.8744 153.717C72.8744 153.717 72.5293 153.493 72.3499 153.415L73.8544 159.03L73.8623 159.059Z" fill="black"/>
<path d="M74.2696 157.271L74.3461 156.966C74.3909 156.542 74.3687 156.104 74.2499 155.661C74.0995 155.1 73.8092 154.607 73.454 154.227L74.2696 157.271Z" fill="black"/>
<path d="M108.361 136.86C108.209 137.946 108.295 139.095 108.596 140.218C109.831 144.828 114.56 147.584 119.141 146.357C123.722 145.129 126.448 140.408 125.204 135.768C124.761 134.113 123.884 132.733 122.708 131.654L112.183 120.506L108.332 136.868L108.361 136.86Z" fill="#FFCE57"/>
<path d="M111.967 119.582L123.03 131.315C124.288 132.466 125.197 133.965 125.648 135.649C126.947 140.496 124.069 145.479 119.252 146.77C114.435 148.061 109.452 145.184 108.153 140.337C107.844 139.184 107.75 138.006 107.908 136.823L111.916 119.627L111.967 119.582ZM119.023 145.913C123.367 144.749 125.963 140.253 124.791 135.879C124.387 134.372 123.578 133.005 122.439 131.948L112.48 121.377L108.823 136.927C108.692 137.975 108.762 139.065 109.04 140.099C110.212 144.473 114.708 147.069 119.052 145.905L119.023 145.913Z" fill="black"/>
<path d="M108.361 136.86C108.209 137.947 108.295 139.095 108.596 140.218C109.831 144.829 114.561 147.584 119.141 146.357C123.722 145.129 126.448 140.408 125.204 135.768C124.761 134.113 123.884 132.733 122.708 131.654C122.708 131.654 124.685 139.74 117.876 141.754C117.876 141.754 110.34 143.774 108.83 134.708L108.332 136.868L108.361 136.86Z" fill="white"/>
<path d="M108.926 132.465L109.281 134.618C109.744 137.409 110.846 139.394 112.534 140.493C114.913 142.042 117.728 141.319 117.758 141.311C124.064 139.431 122.344 132.068 122.257 131.743L121.885 130.354L122.97 131.331C124.229 132.482 125.145 134.01 125.589 135.665C126.887 140.512 124.01 145.495 119.193 146.786C114.376 148.077 109.392 145.199 108.094 140.353C107.785 139.2 107.691 138.022 107.849 136.839L108.845 132.518L108.926 132.465ZM118.017 142.16C117.869 142.2 114.788 142.994 112.064 141.221C110.571 140.259 109.491 138.712 108.832 136.608L108.756 136.913C108.625 137.962 108.695 139.051 108.972 140.086C110.144 144.46 114.641 147.056 118.985 145.892C123.329 144.728 125.925 140.231 124.753 135.857C124.468 134.793 123.984 133.815 123.309 132.95C123.545 135.484 123.259 140.565 117.979 142.138L118.017 142.16Z" fill="black"/>
<path d="M109.823 130.609C109.723 131.301 109.779 131.983 109.969 132.692C110.737 135.559 113.66 137.246 116.497 136.486C119.334 135.726 121.021 132.803 120.253 129.937C119.984 128.932 119.435 128.065 118.711 127.372L112.205 120.469L109.823 130.609Z" fill="#FFCE57"/>
<path d="M112.031 119.818L118.967 127.145C119.766 127.881 120.301 128.815 120.578 129.849C121.394 132.893 119.598 136.003 116.584 136.811C113.57 137.619 110.46 135.823 109.644 132.779C109.454 132.07 109.412 131.321 109.495 130.57L112.001 119.826L112.031 119.818ZM116.41 136.161C119.069 135.448 120.641 132.683 119.928 130.024C119.683 129.107 119.171 128.263 118.492 127.621L112.387 121.148L110.158 130.678C110.08 131.332 110.128 131.984 110.294 132.605C111.015 135.294 113.75 136.873 116.41 136.161Z" fill="black"/>
<path d="M111.682 130.459C111.637 130.883 111.66 131.321 111.778 131.764C112.261 133.567 114.098 134.627 115.871 134.151C117.644 133.676 118.704 131.84 118.221 130.038C118.047 129.387 117.711 128.844 117.251 128.429L113.178 124.104L111.682 130.459Z" fill="#FFCE57"/>
<path d="M113.068 123.69L117.405 128.292C117.902 128.729 118.254 129.332 118.428 129.982C118.935 131.873 117.818 133.851 115.927 134.358C114.035 134.865 112.087 133.74 111.572 131.819C111.453 131.376 111.423 130.909 111.482 130.418L113.06 123.66L113.068 123.69ZM115.816 133.945C117.5 133.493 118.495 131.769 118.044 130.085C117.886 129.494 117.587 128.972 117.136 128.586L113.29 124.517L111.884 130.5C111.831 130.895 111.875 131.295 111.986 131.708C112.437 133.393 114.161 134.388 115.845 133.937L115.816 133.945Z" fill="black"/>
<path d="M112.007 119.73L121.082 129.366C122.13 130.321 122.87 131.547 123.235 132.907C124.296 136.867 121.945 140.981 117.985 142.042C114.025 143.103 109.933 140.715 108.872 136.755C108.619 135.81 108.543 134.816 108.668 133.864L111.977 119.738L112.007 119.73ZM117.803 141.362C121.379 140.404 123.491 136.702 122.533 133.126C122.201 131.885 121.521 130.769 120.594 129.909L112.403 121.207L109.397 133.986C109.286 134.871 109.36 135.738 109.589 136.595C110.547 140.171 114.228 142.32 117.833 141.354L117.803 141.362Z" fill="black"/>
<path d="M123.189 134.629L122.964 135.798L125.086 140.646C125.206 140.265 125.296 139.893 125.387 139.52L123.189 134.629Z" fill="black"/>
<path d="M123.771 143.184C123.96 142.943 124.119 142.711 124.27 142.448L122.557 138.061L121.956 138.539L123.771 143.184Z" fill="black"/>
<path d="M120.982 139.75L120.445 140.464L122.027 144.95C122.239 144.798 122.422 144.654 122.627 144.472L121.011 139.742L120.982 139.75Z" fill="black"/>
<path d="M119.186 141.087L118.538 141.387L119.931 146.113C120.168 146.05 120.388 145.927 120.587 145.842L119.194 141.116L119.186 141.087Z" fill="black"/>
<path d="M117.624 146.605C117.868 146.571 118.091 146.575 118.327 146.511L117.21 141.869L116.467 141.815L117.624 146.605Z" fill="black"/>
<path d="M115.21 146.46C115.478 146.515 115.709 146.548 115.969 146.573L115.019 141.728L114.244 141.556L115.21 146.46Z" fill="black"/>
<path d="M112.787 140.964L112.018 140.695L112.753 145.566C113.016 145.717 113.27 145.839 113.524 145.961L112.795 140.994L112.787 140.964Z" fill="black"/>
<path d="M109.762 138.069L110.314 143.559C110.557 143.874 110.851 144.144 111.137 144.384L110.514 139.103L109.762 138.069Z" fill="black"/>
<path d="M114.063 125.039L113.269 124.206L115.922 134.106C116.099 134.059 116.277 134.011 116.438 133.904L114.055 125.009L114.063 125.039Z" fill="black"/>
<path d="M115.302 126.354L114.592 125.594L116.777 133.75C116.909 133.651 117.07 133.545 117.202 133.446L115.302 126.354Z" fill="black"/>
<path d="M116.542 127.669L115.877 126.96L117.524 133.107C117.64 132.949 117.756 132.791 117.872 132.633L116.542 127.669Z" fill="black"/>
<path d="M117.813 129.102C117.653 128.86 117.463 128.625 117.252 128.428L117.161 128.326L118.151 132.02C118.257 131.707 118.326 131.371 118.335 131.052L117.813 129.102Z" fill="black"/>
<path d="M113.039 124.648L112.79 125.728L115.071 134.239C115.256 134.221 115.412 134.211 115.597 134.193L113.039 124.648Z" fill="black"/>
<path d="M112.618 126.503L112.383 127.516L114.156 134.136C114.328 134.185 114.529 134.226 114.693 134.245L112.618 126.503Z" fill="black"/>
<path d="M112.167 128.366L111.967 129.275L113.155 133.707C113.312 133.823 113.5 133.932 113.679 134.01L112.175 128.395L112.167 128.366Z" fill="black"/>
<path d="M111.759 130.154L111.682 130.459C111.637 130.883 111.66 131.321 111.778 131.764C111.929 132.325 112.219 132.818 112.574 133.198L111.759 130.154Z" fill="black"/>
<path d="M123.085 75.9653L117.352 77.5015L120.48 89.1746L126.213 87.6384L123.085 75.9653Z" fill="#F50032"/>
<path d="M122.92 76.2945L125.921 87.4948L120.661 88.9043L117.66 77.704L122.92 76.2945ZM123.258 75.6654L117.052 77.3283L120.307 89.4743L126.513 87.8114L123.258 75.6654Z" fill="black"/>
<path d="M117 78.1974C117 78.1974 116.785 77.7484 117.689 77.2211C117.689 77.2211 124.512 74.3159 125.659 75.8773C125.659 75.8773 126.522 76.8499 121.63 78.0973C121.63 78.0973 117.611 79.1742 117 78.1974Z" fill="white"/>
<path d="M122.115 78.2524L121.672 78.3711C120.962 78.5612 117.43 79.4444 116.759 78.3573C116.735 78.2687 116.442 77.6502 117.529 76.9788C117.589 76.963 119.548 76.1211 121.558 75.5826C123.922 74.9491 125.325 74.9849 125.872 75.7253C125.955 75.7981 126.048 76.0266 125.956 76.273C125.738 76.9966 124.479 77.6189 122.115 78.2524ZM117.251 78.067C117.63 78.5356 119.756 78.3143 121.559 77.8313L121.972 77.7204C124.869 76.9444 125.333 76.3132 125.412 76.1338C125.425 76.0667 125.417 76.0372 125.417 76.0372C125.06 75.5311 123.71 75.5761 121.701 76.1146C119.691 76.653 117.79 77.4791 117.79 77.4791C117.327 77.7615 117.235 78.0079 117.251 78.067Z" fill="black"/>
<path d="M117.703 80.2264C117.703 80.2264 117.488 79.7774 118.392 79.2501C118.392 79.2501 125.215 76.3449 126.362 77.9063C126.362 77.9063 127.224 78.8788 122.332 80.1263C122.332 80.1263 118.343 81.1953 117.732 80.2185L117.703 80.2264Z" fill="white"/>
<path d="M122.817 80.2815L122.373 80.4003C121.664 80.5904 118.132 81.4736 117.46 80.3865C117.436 80.2978 117.136 79.6498 118.231 79.008C118.29 78.9922 120.25 78.1503 122.26 77.6118C124.624 76.9783 126.027 77.0141 126.574 77.7544C126.657 77.8273 126.75 78.0558 126.657 78.3022C126.461 78.9883 125.181 79.6481 122.817 80.2815ZM117.96 80.1257C118.339 80.5943 120.466 80.373 122.268 79.89L122.682 79.7792C125.578 79.0031 126.042 78.3719 126.129 78.222C126.172 78.1471 126.135 78.1255 126.135 78.1255C125.785 77.649 124.428 77.6644 122.418 78.2028C120.408 78.7413 118.537 79.5594 118.508 79.5674C118.045 79.8497 117.953 80.0962 117.968 80.1553L117.96 80.1257Z" fill="black"/>
<path d="M118.382 82.2933C118.382 82.2933 118.167 81.8442 119.071 81.3169C119.071 81.3169 125.894 78.4117 127.041 79.9731C127.041 79.9731 127.903 80.9457 123.011 82.1931C123.011 82.1931 119.022 83.2621 118.412 82.2854L118.382 82.2933Z" fill="white"/>
<path d="M123.526 82.3402L123.083 82.459C122.403 82.6411 118.841 83.5322 118.17 82.4451C118.146 82.3565 117.846 81.7085 118.941 81.0666C119 81.0508 120.96 80.2089 122.969 79.6704C125.334 79.037 126.766 79.0648 127.284 79.8131C127.366 79.8859 127.459 80.1144 127.367 80.3609C127.141 81.0549 125.891 81.7067 123.526 82.3402ZM118.641 82.1923C119.02 82.6609 121.138 82.4101 122.941 81.927C123.088 81.8874 123.236 81.8478 123.384 81.8083C126.457 80.9847 126.788 80.3261 126.823 80.2216C126.823 80.2216 126.823 80.2216 126.815 80.192C126.458 79.686 125.07 79.7093 123.09 80.2399C121.11 80.7704 119.18 81.6044 119.18 81.6044C118.717 81.8868 118.617 82.1037 118.641 82.1923Z" fill="black"/>
<path d="M118.121 78.2455C118.121 78.2455 117.817 77.8202 117.939 77.5658C117.939 77.5658 118.567 76.9541 119.003 77.2808C119.003 77.2808 119.506 77.6211 119.241 78.1673C119.241 78.1673 119.052 78.408 118.121 78.2455Z" fill="white"/>
<path d="M119.074 78.3703C118.838 78.4337 118.518 78.4242 118.087 78.3498L118.057 78.3577L118.041 78.2986C118.025 78.2395 117.684 77.7926 117.819 77.4712C117.819 77.4712 118.111 77.1397 118.465 77.0447C118.672 76.9893 118.873 77.0304 119.031 77.1465C119.226 77.2842 119.552 77.6721 119.308 78.1809C119.287 78.2183 119.214 78.3012 119.037 78.3487L119.074 78.3703ZM118.179 78.1034C118.841 78.211 119.062 78.0885 119.121 78.0727C119.321 77.6389 118.939 77.393 118.931 77.3634C118.848 77.2906 118.714 77.2632 118.566 77.3028C118.33 77.3661 118.095 77.5556 118.044 77.601C118.017 77.735 118.139 77.9556 118.179 78.1034Z" fill="black"/>
<path d="M118.684 80.3437C118.684 80.3437 118.38 79.9184 118.502 79.664C118.502 79.664 119.13 79.0523 119.565 79.3789C119.565 79.3789 120.068 79.7193 119.803 80.2655C119.803 80.2655 119.614 80.5061 118.684 80.3437Z" fill="white"/>
<path d="M119.636 80.4685C119.4 80.5319 119.08 80.5224 118.649 80.448L118.619 80.4559L118.603 80.3968C118.588 80.3377 118.246 79.8908 118.39 79.5989C118.39 79.5989 118.681 79.2675 119.035 79.1725C119.242 79.117 119.443 79.1582 119.601 79.2743C119.796 79.412 120.13 79.8294 119.886 80.3382C119.857 80.3461 119.784 80.4289 119.607 80.4764L119.636 80.4685ZM118.741 80.2016C119.403 80.3092 119.624 80.1867 119.683 80.1709C119.884 79.7371 119.493 79.4616 119.493 79.4616C119.41 79.3888 119.276 79.3614 119.128 79.401C118.892 79.4643 118.658 79.6538 118.606 79.6992C118.579 79.8332 118.701 80.0538 118.741 80.2016Z" fill="black"/>
<path d="M119.346 82.2249C119.346 82.2249 119.042 81.7996 119.164 81.5452C119.164 81.5452 119.792 80.9335 120.199 81.2681C120.199 81.2681 120.701 81.6084 120.436 82.1546C120.436 82.1546 120.247 82.3953 119.346 82.2249Z" fill="white"/>
<path d="M120.298 82.3499C120.062 82.4132 119.743 82.4038 119.311 82.3294L119.252 82.3452L119.236 82.2861C119.22 82.227 118.879 81.7801 119.014 81.4587C119.014 81.4587 119.306 81.1272 119.66 81.0322C119.867 80.9768 120.068 81.0179 120.226 81.134C120.421 81.2717 120.747 81.6596 120.503 82.1683C120.481 82.2058 120.409 82.2887 120.231 82.3362L120.298 82.3499ZM119.411 82.1125C120.074 82.2201 120.294 82.0976 120.353 82.0818C120.532 81.6855 120.171 81.4021 120.163 81.3725C120.051 81.3076 119.946 81.2723 119.798 81.3119C119.562 81.3752 119.328 81.5647 119.277 81.6101C119.22 81.7521 119.372 81.9647 119.411 82.1125Z" fill="black"/>
<path d="M126.399 83.2493C124.851 84.3291 121.29 84.3965 121.29 84.3965C119.685 83.8446 120.795 82.7869 120.795 82.7869C120.795 82.7869 126.847 80.7853 127.824 81.9488C127.824 81.9488 128.985 83.4433 125.487 85.0457L125.024 84.0294L126.407 83.2788L126.399 83.2493Z" fill="white"/>
<path d="M125.36 85.3965L124.82 84.2107C123.195 84.6462 121.4 84.6838 121.333 84.6701L121.244 84.6939C120.639 84.4443 120.27 84.1314 120.196 83.7393C120.038 83.1483 120.563 82.6274 120.644 82.574L120.703 82.5582L120.754 82.5128C120.754 82.5128 121.507 82.2478 122.541 81.9707C127.24 80.7116 127.862 81.4953 128.081 81.7216C128.081 81.7216 128.468 82.2198 128.272 82.9059C128.056 83.7555 127.186 84.5271 125.631 85.2286L125.381 85.359L125.36 85.3965ZM125.405 84.1489L125.637 84.6571C127.153 83.934 127.602 83.2437 127.714 82.8336C127.826 82.4236 127.62 82.1302 127.62 82.1302C127.34 81.7935 125.862 81.7144 122.67 82.5696C121.843 82.7914 121.2 82.9951 121.001 83.0801C120.907 83.2004 120.726 83.4707 120.752 83.6854C120.815 83.9219 121.107 84.0654 121.391 84.1793C121.702 84.1593 123.334 84.1021 124.782 83.7141C125.166 83.6112 125.521 83.5162 125.793 83.3483L126.315 83.0501L126.597 83.5129C126.436 83.6195 126.245 83.734 126.016 83.8269L125.405 84.1489Z" fill="black"/>
<path d="M121.266 83.8328C121.266 83.8328 120.962 83.4075 121.084 83.1531C121.084 83.1531 121.712 82.5414 122.148 82.8681C122.148 82.8681 122.651 83.2084 122.385 83.7546C122.385 83.7546 122.196 83.9953 121.266 83.8328Z" fill="white"/>
<path d="M122.189 83.9656C121.952 84.029 121.633 84.0195 121.201 83.9451L121.142 83.9609L121.126 83.9018C121.11 83.8427 120.769 83.3958 120.905 83.0744C120.905 83.0744 121.204 82.7725 121.558 82.6775C121.765 82.622 121.966 82.6632 122.124 82.7793C122.319 82.917 122.653 83.3344 122.401 83.8136C122.38 83.8511 122.307 83.9339 122.13 83.9814L122.189 83.9656ZM121.331 83.7203C121.964 83.8358 122.214 83.7054 122.243 83.6975C122.444 83.2637 122.061 83.0178 122.053 82.9883C121.941 82.9234 121.837 82.888 121.689 82.9276C121.452 82.991 121.248 83.1725 121.167 83.2258C121.11 83.3678 121.262 83.5804 121.301 83.7282L121.331 83.7203Z" fill="black"/>
<path d="M127.684 86.3892C127.937 87.3348 126.126 88.6121 123.673 89.2693C121.22 89.9266 119.004 89.6967 118.759 88.7806C118.513 87.8644 120.317 86.5576 122.77 85.9004C125.223 85.2431 127.438 85.473 127.684 86.3892Z" fill="#F50032"/>
<path d="M123.728 89.4761C121.128 90.1729 118.837 89.8998 118.552 88.8359C118.267 87.772 120.084 86.3981 122.715 85.6934C125.345 84.9886 127.606 85.2697 127.891 86.3336C128.176 87.3975 126.358 88.7713 123.728 89.4761ZM122.825 86.1071C120.313 86.7802 118.754 88.0532 118.944 88.7625C119.134 89.4717 121.092 89.8025 123.633 89.1215C126.175 88.4405 127.675 87.1833 127.485 86.474C127.295 85.7648 125.337 85.4341 122.825 86.1071Z" fill="black"/>
<path d="M127.978 87.1337C128.232 88.0794 126.391 89.3646 123.849 90.0456C121.308 90.7266 119.063 90.5046 118.817 89.5885C118.572 88.6724 120.405 87.3576 122.946 86.6766C125.488 85.9956 127.733 86.2176 127.978 87.1337Z" fill="#F50032"/>
<path d="M123.913 90.2819C121.194 91.0104 118.933 90.7293 118.648 89.6654C118.332 88.4833 120.565 87.1247 122.899 86.4992C125.234 85.8736 127.847 85.9335 128.164 87.1156C128.457 88.2091 126.632 89.5534 123.913 90.2819ZM123.002 86.8833C120.431 87.5723 118.842 88.8532 119.032 89.5625C119.222 90.2717 121.239 90.5866 123.81 89.8977C126.381 89.2088 127.97 87.9278 127.78 87.2186C127.59 86.5093 125.573 86.1944 123.002 86.8833Z" fill="black"/>
<path d="M119.451 86.2827C119.451 86.2827 117.075 86.6344 116.635 84.7568C116.635 84.7568 112.518 81.3306 115.197 78.6806C117.876 76.0306 119.95 77.9773 121.614 80.287C121.614 80.287 120.905 82.2507 117.536 79.606" fill="white"/>
<path d="M119.486 86.5269C118.605 86.6679 116.843 86.4749 116.415 84.8791C116.046 84.5662 114.146 82.7947 114.061 80.8221C114.017 79.9471 114.345 79.1623 115.024 78.5053C116.003 77.5463 116.989 77.0918 117.963 77.1793C119.554 77.3233 120.848 78.8451 121.798 80.1428L121.829 80.261L121.853 80.3496C121.853 80.3496 121.633 80.947 120.961 81.1587C120.075 81.3963 118.88 80.9562 117.399 79.8012L117.704 79.4027C119.388 80.725 120.332 80.8205 120.835 80.6859C121.13 80.6067 121.298 80.4035 121.362 80.2911C120.474 79.1038 119.324 77.765 117.964 77.6543C117.124 77.5942 116.307 77.9716 115.401 78.8477C114.824 79.414 114.524 80.0647 114.566 80.8136C114.635 82.7271 116.795 84.5239 116.803 84.5534L116.878 84.5967L116.902 84.6854C117.278 86.3266 119.351 86.0245 119.448 86.0303L119.515 86.519L119.486 86.5269Z" fill="black"/>
<path d="M120.267 78.6842L119.686 79.4732C119.686 79.4732 120.202 80.5703 121.027 79.7475L120.267 78.6842Z" fill="white"/>
<path d="M120.625 80.1402C119.975 80.3144 119.576 79.5344 119.568 79.5049L119.552 79.4458L120.262 78.432L121.182 79.7375L121.109 79.8203C120.934 79.994 120.794 80.0631 120.617 80.1106L120.625 80.1402ZM119.85 79.4927C119.956 79.6542 120.215 80.0283 120.57 79.9333C120.57 79.9333 120.776 79.8779 120.871 79.7576L120.263 78.9069L119.85 79.4927Z" fill="black"/>
<path d="M68.1314 80.4594C68.1314 80.4594 67.8417 80.442 67.7509 80.3396L67.1883 79.5401C67.0816 79.3787 67.1228 79.1776 67.2843 79.071C67.4457 78.9643 67.6389 78.9759 67.7534 79.167L68.3161 79.9664C68.4227 80.1279 68.4111 80.3211 68.2201 80.4356C68.1905 80.4435 68.1314 80.4594 68.1018 80.4673L68.1314 80.4594Z" fill="black"/>
<path d="M62.9309 81.0293L62.392 80.3185C62.392 80.3185 63.887 79.6329 64.8238 80.1737C64.8238 80.1737 65.8645 80.2749 67.807 79.7228C67.807 79.7228 66.0566 81.1103 64.0264 80.8625C64.0264 80.8625 63.2185 80.9206 62.9604 81.0214L62.9309 81.0293Z" fill="black"/>
<path d="M61.8123 68.3426C66.0306 70.7281 68.3138 66.6005 68.3138 66.6005C64.0954 64.215 61.8123 68.3426 61.8123 68.3426Z" fill="white"/>
<path d="M65.4098 69.1208C64.2573 69.4296 62.9997 69.2281 61.7256 68.4926L61.5758 68.406L61.6623 68.2561C61.6623 68.2561 62.7281 66.3235 64.7377 65.785C65.8902 65.4762 67.1478 65.6777 68.4218 66.4133L68.5717 66.4998L68.4931 66.6792C68.4931 66.6792 67.4273 68.6119 65.4177 69.1503L65.4098 69.1208ZM62.0781 68.2714C63.216 68.8534 64.31 69.0354 65.3148 68.7661C66.8219 68.3623 67.7506 67.0999 68.0398 66.6423C66.902 66.0603 65.8375 65.8704 64.8327 66.1397C63.3256 66.5435 62.3969 67.8059 62.1077 68.2635L62.0781 68.2714Z" fill="black"/>
<path d="M66.4444 67.0698C66.6582 67.8677 66.2039 68.6546 65.4355 68.8605C64.6672 69.0664 63.8803 68.6121 63.6369 67.8221C63.4231 67.0242 63.8774 66.2373 64.6458 66.0314C65.4142 65.8255 66.2306 66.2719 66.4365 67.0403L66.4444 67.0698Z" fill="white"/>
<path d="M65.4908 69.0673C64.6042 69.3049 63.7049 68.7857 63.4674 67.8991C63.2298 67.0125 63.749 66.1132 64.6356 65.8757C65.5222 65.6381 66.4215 66.1573 66.659 67.0439C66.7778 67.4872 66.7034 67.9189 66.4871 68.2936C66.2708 68.6683 65.9045 68.9565 65.4908 69.0673ZM64.7306 66.2303C64.0509 66.4124 63.6694 67.1165 63.8516 67.7962C64.0337 68.4759 64.7377 68.8574 65.3879 68.6832C65.713 68.596 65.9768 68.3987 66.1499 68.0989C66.3229 67.7991 66.362 67.4719 66.2749 67.1468C66.0927 66.4671 65.4183 66.0777 64.7386 66.2599L64.7306 66.2303Z" fill="black"/>
<path d="M65.7135 67.2973C65.8165 67.6815 65.6001 68.0562 65.216 68.1592C64.8613 68.2542 64.4866 68.0378 64.3541 67.6616C64.2591 67.3069 64.4675 66.9027 64.8221 66.8077C65.2063 66.7047 65.581 66.9211 65.684 67.3052L65.7135 67.2973Z" fill="black"/>
<path d="M68.0857 63.621C68.0857 63.621 68.0857 63.621 67.9891 63.6152C67.93 63.631 67.8551 63.5878 67.7506 63.5524C67.5495 63.5113 67.2223 63.4722 66.836 63.449C66.6429 63.4375 66.4497 63.4259 66.227 63.4222C66.0043 63.4185 65.7816 63.4148 65.5668 63.4407C65.3441 63.437 65.1077 63.5004 64.8634 63.5342C64.627 63.5975 64.3906 63.6609 64.1541 63.7242C63.9177 63.7876 63.6813 63.8509 63.4903 63.9655C63.3721 63.9971 63.2913 64.0504 63.181 64.1117C63.0707 64.1729 62.99 64.2262 62.8797 64.2874C62.7911 64.3112 62.6887 64.402 62.6079 64.4553C62.5272 64.5086 62.4544 64.5914 62.3736 64.6447C62.2929 64.698 62.2201 64.7809 62.1393 64.8342C62.0665 64.9171 62.0153 64.9625 61.9425 65.0453C61.8185 65.1736 61.6866 65.2723 61.6217 65.3847C61.5272 65.505 61.4544 65.5879 61.4191 65.6924C61.303 65.8502 61.2302 65.933 61.2302 65.933L61.1869 66.008C60.9764 66.2861 60.6059 66.322 60.3357 66.141C60.0575 65.9305 60.0216 65.56 60.2026 65.2898C60.2026 65.2898 60.2026 65.2898 60.2538 65.2444C60.2538 65.2444 60.3483 65.1241 60.5234 64.9505C60.6258 64.8597 60.7203 64.7393 60.8147 64.619C60.9387 64.4908 61.1002 64.3842 61.2458 64.2184C61.3266 64.1651 61.3994 64.0823 61.5097 64.021C61.62 63.9598 61.7007 63.9065 61.8031 63.8157C61.9213 63.784 62.0237 63.6933 62.1261 63.6025C62.2443 63.5708 62.3466 63.48 62.4569 63.4188C62.5672 63.3576 62.6775 63.2964 62.8253 63.2568C62.9435 63.2251 63.0912 63.1855 63.2094 63.1538C63.4754 63.0826 63.7414 63.0113 64.0074 62.94C64.2733 62.8688 64.5551 62.8566 64.829 62.8149C65.0813 62.8106 65.3552 62.7689 65.6153 62.7942C65.8676 62.79 66.0982 62.8232 66.3209 62.8269C66.5515 62.8601 66.7822 62.8933 66.9753 62.9049C67.3695 62.9577 67.683 63.0637 67.9216 63.1265C68.0261 63.1619 68.1305 63.1972 68.1976 63.2109C68.2646 63.2246 68.3021 63.2463 68.3021 63.2463C68.4066 63.2816 68.4678 63.3919 68.4403 63.526C68.405 63.6305 68.2947 63.6917 68.1902 63.6563L68.0857 63.621Z" fill="black"/>
<path d="M69.3694 65.8109C69.3694 65.8109 69.2807 65.8347 69.2432 65.813C63.8269 63.6851 61.4847 67.8286 61.471 67.8956C61.4356 68.0001 61.3174 68.0318 61.205 67.9669C61.1005 67.9315 61.0688 67.8133 61.1337 67.7009C61.1258 67.6713 63.6628 63.1907 69.3788 65.4916C69.4833 65.527 69.5446 65.6373 69.4797 65.7497C69.4659 65.8167 69.4148 65.8621 69.3556 65.8779L69.3694 65.8109Z" fill="black"/>
<path d="M70.3897 66.8995C70.3897 66.8995 70.1829 66.955 70.0351 66.9945L69.8578 67.0421L69.6726 67.06C69.6135 67.0759 69.5544 67.0917 69.5169 67.0701C69.4578 67.0859 69.3987 67.1017 69.3237 67.0585C69.1976 67.0606 69.0931 67.0252 68.967 67.0274C68.8329 66.9999 68.7284 66.9646 68.6319 66.9588C68.4978 66.9314 68.3933 66.896 68.2888 66.8607C68.1843 66.8253 68.0719 66.7604 67.9674 66.7251C67.855 66.6602 67.7801 66.6169 67.6598 66.5224C67.6598 66.5224 67.4054 66.4005 67.2713 66.3731C67.1294 66.3161 66.9953 66.2887 66.8317 66.2692C66.6977 66.2418 66.5341 66.2222 66.408 66.2244C66.2444 66.2049 66.1182 66.207 65.9625 66.217L65.7398 66.2133L65.533 66.2688C65.533 66.2688 65.3773 66.2788 65.3103 66.2651L65.1034 66.3205C65.1034 66.3205 64.8079 66.3997 64.6897 66.4314C64.5419 66.471 64.4237 66.5027 64.2839 66.5718L63.8939 66.7713C63.8939 66.7713 63.6517 66.9312 63.5493 67.022L63.3583 67.1366C63.3583 67.1366 63.2559 67.2273 63.1752 67.2806L62.8385 67.5609C62.8385 67.5609 62.6121 67.7799 62.5097 67.8707L62.181 68.1805C61.9921 68.4212 61.8032 68.6618 61.5768 68.8809C61.5768 68.8809 61.3778 68.9658 61.295 68.893C61.2121 68.8202 61.2179 68.7236 61.2316 68.6566C61.4126 68.3864 61.5561 68.0945 61.7371 67.8243C61.8316 67.704 61.9556 67.5757 62.0421 67.4259C62.1366 67.3055 62.2606 67.1773 62.355 67.057L62.7054 66.7097C62.7054 66.7097 62.8294 66.5814 62.8806 66.536L63.0933 66.384C63.2252 66.2853 63.3571 66.1866 63.4891 66.0879L63.9302 65.843C64.0701 65.7739 64.2474 65.7264 64.4168 65.6493C64.5941 65.6018 64.7418 65.5622 64.9192 65.5147L65.1556 65.4513C65.1556 65.4513 65.3192 65.4709 65.4158 65.4767L65.668 65.4724L65.9282 65.4977C66.0918 65.5172 66.2849 65.5288 66.4269 65.5858C66.5905 65.6053 66.762 65.6544 66.904 65.7114C67.0459 65.7684 67.2175 65.8174 67.3673 65.904C67.5172 65.9905 67.6592 66.0475 67.817 66.1636C67.817 66.1636 67.9748 66.2796 68.0872 66.3445C68.1917 66.3799 68.2746 66.4527 68.3791 66.4881C68.5585 66.5667 68.7675 66.6374 68.9685 66.6785C69.073 66.7139 69.1696 66.7197 69.2957 66.7176C69.3548 66.7017 69.3844 66.6938 69.4514 66.7075C69.5105 66.6917 69.5696 66.6758 69.5992 66.6679L69.7469 66.6283L69.8947 66.5887C69.9834 66.565 70.1016 66.5333 70.2198 66.5016C70.2198 66.5016 70.4425 66.5053 70.4742 66.6235C70.5058 66.7417 70.4705 66.8462 70.3523 66.8779L70.3897 66.8995Z" fill="black"/>
<path d="M62.7731 68.9721C62.2263 68.2317 62.251 67.4966 62.2727 67.4591L62.659 67.4823C62.659 67.4823 62.64 68.1209 63.0881 68.7293L62.7731 68.9721Z" fill="black"/>
<path d="M65.2227 70.7863C65.2227 70.7863 65.2227 70.7863 65.1636 70.8021C63.5571 70.5991 61.6736 69.3617 61.5907 69.2889C61.5158 69.2456 61.5216 69.1491 61.5432 69.1116C61.5865 69.0367 61.6751 69.0129 61.7205 69.0641C61.7205 69.0641 63.612 70.331 65.1514 70.5203C65.2105 70.5045 65.3013 70.6069 65.2876 70.6739C65.3034 70.733 65.2227 70.7863 65.1931 70.7942L65.2227 70.7863Z" fill="black"/>
<path d="M73.2304 56.2244C73.2304 56.2244 72.9719 62.4701 77.9925 66.6678C83.2243 71.0623 82.9301 73.8651 82.9301 73.8651C82.9301 73.8651 79.5907 74.7599 79.8817 77.5009C80.254 80.6636 83.4598 85.0625 89.0625 81.5024C89.0625 81.5024 92.4328 78.4772 88.9503 71.7452C85.4382 65.0212 77.7043 59.6817 78.6976 54.7595L73.26 56.2165L73.2304 56.2244Z" fill="#F50032"/>
<path d="M86.6818 82.9005C85.086 83.3281 83.5978 83.0934 82.3591 82.2534C80.6175 81.073 79.811 79.0086 79.6457 77.5642C79.3431 75.0163 81.9668 73.9332 82.6977 73.7057C82.6576 73.0829 82.1993 70.5451 77.8631 66.8925C72.7971 62.6437 73.0319 56.3093 73.0456 56.2423L73.0572 56.0491L79.0563 54.4417L78.974 54.8438C78.4138 57.7179 80.944 60.7774 83.8827 64.2977C85.8287 66.5953 87.8063 69.0111 89.2166 71.6739C92.79 78.5082 89.4434 81.6221 89.2819 81.7287L89.2523 81.7367C88.3938 82.3151 87.5468 82.7004 86.7193 82.9222L86.6818 82.9005ZM73.4715 56.4132C73.4668 57.4597 73.7275 62.8061 78.1307 66.4724C83.4078 70.9181 83.159 73.7721 83.1611 73.8983L83.1416 74.0618L82.9938 74.1014C82.9938 74.1014 79.8396 74.9783 80.1343 77.4966C80.2975 78.8148 81.027 80.7099 82.6187 81.8037C84.3308 82.992 86.532 82.814 88.9108 81.2897C89.1668 81.0627 91.9973 78.1505 88.7222 71.838C87.3572 69.2264 85.3875 66.8402 83.4711 64.5347C80.5778 61.0656 78.0555 58.0356 78.3988 55.0613L73.4931 56.3758L73.4715 56.4132Z" fill="black"/>
<path d="M84.1994 78.7195C84.1994 78.7195 84.229 78.7116 84.3176 78.6879C84.3767 78.672 84.5029 78.6699 84.629 78.6678C84.7472 78.6361 84.9403 78.6477 85.1256 78.6297C85.3029 78.5822 85.5177 78.5563 85.7166 78.4714C85.8348 78.4397 85.9235 78.4159 86.0417 78.3843C86.152 78.323 86.2327 78.2697 86.343 78.2085C86.5341 78.094 86.6718 77.8987 86.8095 77.7034L86.8881 77.524C86.8881 77.524 86.9155 77.3899 86.9372 77.3525L86.9725 77.248L86.9567 77.1889L86.982 76.9287C86.982 76.9287 86.972 76.773 86.9857 76.706C86.9698 76.6469 86.9836 76.5799 86.9973 76.5128C86.9656 76.3946 86.9851 76.231 86.9455 76.0833C86.8742 75.8173 86.7734 75.5592 86.6135 75.317C86.4536 75.0748 86.2504 74.9075 86.0176 74.7482C85.9052 74.6833 85.7849 74.5888 85.6804 74.5535C85.5384 74.4965 85.426 74.4316 85.3215 74.3963C85.1875 74.3688 85.0751 74.3039 84.941 74.2765C84.807 74.2491 84.7025 74.2137 84.5764 74.2158C84.3457 74.1826 84.1447 74.1415 83.922 74.1378C83.7288 74.1262 83.5652 74.1067 83.4095 74.1167C83.1277 74.1289 82.9641 74.1094 82.9641 74.1094C82.9641 74.1094 82.7098 73.9875 82.7076 73.8614C82.7055 73.7352 82.8 73.6149 82.9261 73.6128C82.9261 73.6128 83.1034 73.5653 83.4069 73.5156C83.5546 73.476 83.7478 73.4876 83.9626 73.4618C84.1694 73.4063 84.408 73.4691 84.6898 73.4569C84.8238 73.4844 84.9499 73.4823 85.1135 73.5018C85.2476 73.5292 85.4191 73.5783 85.5531 73.6057C85.7167 73.6252 85.8666 73.7117 86.0086 73.7687C86.1801 73.8178 86.33 73.9043 86.4799 73.9909C86.7876 74.1935 87.0736 74.4336 87.3164 74.7486C87.5592 75.0636 87.7508 75.4241 87.8242 75.8162C87.8717 75.9935 87.8976 76.2083 87.9155 76.3935C87.9039 76.5866 87.9298 76.8014 87.9182 76.9946L87.885 77.2252L87.9008 77.2843L87.8792 77.3218L87.895 77.3809L87.8676 77.5149C87.8676 77.5149 87.8264 77.716 87.7832 77.7909C87.7478 77.8954 87.7046 77.9704 87.6692 78.0749C87.4745 78.4121 87.2049 78.7061 86.9035 78.8818C86.6101 79.0871 86.2851 79.1743 86.0112 79.216C85.7452 79.2872 85.4929 79.2915 85.2407 79.2957C85.018 79.292 84.8248 79.2804 84.6908 79.253C84.5272 79.2335 84.4227 79.1982 84.3261 79.1924C84.2216 79.157 84.1921 79.1649 84.1921 79.1649C84.058 79.1375 83.9889 78.9977 84.0163 78.8636C84.0517 78.7591 84.154 78.6683 84.2802 78.6662L84.1994 78.7195Z" fill="black"/>
<path d="M123.351 74.1201L116.2 76.0364L108.392 46.8978L110.184 38.6893L115.544 44.9816L123.351 74.1201ZM116.697 75.1746L122.49 73.6225L114.912 45.341L110.574 40.2635L109.119 46.893L116.697 75.1746Z" fill="black"/>
<path d="M110.478 39.434L110.241 39.4974L119.68 74.7237L119.917 74.6604L110.478 39.434Z" fill="black"/>
<path d="M109.913 41.5808L109.677 41.6441L118.704 75.3337L118.94 75.2704L109.913 41.5808Z" fill="black"/>
<path d="M112.045 41.263L111.808 41.3264L120.867 75.1342L121.104 75.0708L112.045 41.263Z" fill="black"/>
</g>
</g>
<g clip-path="url(#clip0_3301_85961)">
<rect x="50.2351" y="11.125" width="120" height="166.25" rx="10" fill="white"/>
<mask id="mask2_3301_85961" style="mask-type:alpha" maskUnits="userSpaceOnUse" x="50" y="11" width="121" height="167">
<rect x="50.2351" y="11.125" width="120" height="166.25" fill="#D9D9D9"/>
</mask>
<g mask="url(#mask2_3301_85961)">
<path d="M66.1711 32.125L65.2891 29.317H60.4111L59.4751 32.125H56.3251L60.6631 19.525H65.5411L69.7711 32.125H66.1711ZM61.1491 27.103H64.5871L62.9311 21.793L61.1491 27.103Z" fill="#F50032"/>
<path d="M67.91 46.6926C66.4987 46.6864 65.2389 47.3398 64.4153 48.3602C63.6035 47.3299 62.3498 46.6657 60.9385 46.6596C58.4784 46.6475 56.474 48.6331 56.4611 51.0961C56.4497 53.2751 62.6414 58.6309 64.0691 59.8368C64.2402 59.9813 64.4812 59.9824 64.6537 59.8395C66.0927 58.6471 72.3351 53.3494 72.3458 51.1729C72.3579 48.7128 70.373 46.7055 67.91 46.6926Z" fill="#F50032"/>
<path fill-rule="evenodd" clip-rule="evenodd" d="M137.545 113.23C139.39 110.694 140.479 107.572 140.479 104.196C140.479 95.7089 133.599 88.8286 125.112 88.8286C118.206 88.8286 112.365 93.383 110.427 99.6517C108.489 93.383 102.648 88.8286 95.7425 88.8286C87.2553 88.8286 80.375 95.7089 80.375 104.196C80.375 107.572 81.4634 110.693 83.3084 113.229C83.7642 113.933 84.2727 114.607 84.8317 115.245L108.171 141.866C109.366 143.229 111.488 143.229 112.683 141.866L136.022 115.245C136.581 114.607 137.089 113.934 137.545 113.23Z" fill="#F50032"/>
<path d="M137.545 113.23L134.397 111.192L134.452 111.106L134.513 111.023L137.545 113.23ZM110.427 99.6517L114.01 100.759L110.427 112.349L106.844 100.759L110.427 99.6517ZM83.3084 113.229L86.3405 111.022L86.4009 111.105L86.4567 111.191L83.3084 113.229ZM84.8317 115.245L87.6515 112.773H87.6515L84.8317 115.245ZM108.171 141.866L105.351 144.338V144.338L108.171 141.866ZM112.683 141.866L115.503 144.338V144.338L112.683 141.866ZM136.022 115.245L138.842 117.717L138.842 117.717L136.022 115.245ZM134.513 111.023C135.907 109.107 136.729 106.753 136.729 104.196H144.229C144.229 108.392 142.873 112.281 140.577 115.437L134.513 111.023ZM136.729 104.196C136.729 97.7799 131.528 92.5786 125.112 92.5786V85.0786C135.67 85.0786 144.229 93.6378 144.229 104.196H136.729ZM125.112 92.5786C119.897 92.5786 115.476 96.017 114.01 100.759L106.844 98.5442C109.254 90.7489 116.516 85.0786 125.112 85.0786V92.5786ZM106.844 100.759C105.378 96.017 100.957 92.5786 95.7425 92.5786V85.0786C104.338 85.0786 111.6 90.7489 114.01 98.5442L106.844 100.759ZM95.7425 92.5786C89.3263 92.5786 84.125 97.7799 84.125 104.196H76.625C76.625 93.6378 85.1842 85.0786 95.7425 85.0786V92.5786ZM84.125 104.196C84.125 106.753 84.9464 109.106 86.3405 111.022L80.2762 115.435C77.9804 112.28 76.625 108.391 76.625 104.196H84.125ZM86.4567 111.191C86.8141 111.744 87.213 112.272 87.6515 112.773L82.012 117.717C81.3325 116.942 80.7142 116.122 80.1601 115.266L86.4567 111.191ZM87.6515 112.773L110.991 139.394L105.351 144.338L82.012 117.717L87.6515 112.773ZM110.991 139.394C110.692 139.053 110.162 139.053 109.863 139.394L115.503 144.338C112.814 147.405 108.04 147.405 105.351 144.338L110.991 139.394ZM109.863 139.394L133.202 112.773L138.842 117.717L115.503 144.338L109.863 139.394ZM133.202 112.773C133.641 112.273 134.039 111.744 134.397 111.192L140.693 115.267C140.139 116.123 139.521 116.942 138.842 117.717L133.202 112.773Z" fill="#F50032"/>
<path fill-rule="evenodd" clip-rule="evenodd" d="M137.545 113.23C139.39 110.694 140.479 107.572 140.479 104.196C140.479 95.7089 133.599 88.8286 125.112 88.8286C118.206 88.8286 112.365 93.383 110.427 99.6517C108.489 93.383 102.648 88.8286 95.7425 88.8286C87.2553 88.8286 80.375 95.7089 80.375 104.196C80.375 107.572 81.4634 110.693 83.3084 113.229C83.7642 113.933 84.2727 114.607 84.8317 115.245L108.171 141.866C109.366 143.229 111.488 143.229 112.683 141.866L136.022 115.245C136.581 114.607 137.089 113.934 137.545 113.23Z" fill="#F50032"/>
<path d="M137.545 113.23L135.656 112.007L135.689 111.956L135.726 111.906L137.545 113.23ZM110.427 99.6517L112.577 100.316L110.427 107.27L108.277 100.316L110.427 99.6517ZM83.3084 113.229L85.1277 111.905L85.1639 111.955L85.1974 112.006L83.3084 113.229ZM84.8317 115.245L86.5236 113.761L86.5236 113.761L84.8317 115.245ZM108.171 141.866L106.479 143.349L106.479 143.349L108.171 141.866ZM112.683 141.866L114.375 143.349V143.349L112.683 141.866ZM136.022 115.245L137.714 116.728H137.714L136.022 115.245ZM135.726 111.906C137.301 109.742 138.229 107.081 138.229 104.196H142.729C142.729 108.064 141.48 111.646 139.364 114.554L135.726 111.906ZM138.229 104.196C138.229 96.9515 132.356 91.0786 125.112 91.0786V86.5786C134.841 86.5786 142.729 94.4662 142.729 104.196H138.229ZM125.112 91.0786C119.221 91.0786 114.231 94.9634 112.577 100.316L108.277 98.9872C110.498 91.8025 117.192 86.5786 125.112 86.5786V91.0786ZM108.277 100.316C106.623 94.9634 101.633 91.0786 95.7425 91.0786V86.5786C103.662 86.5786 110.356 91.8025 112.577 98.9872L108.277 100.316ZM95.7425 91.0786C88.4979 91.0786 82.625 96.9515 82.625 104.196H78.125C78.125 94.4662 86.0126 86.5786 95.7425 86.5786V91.0786ZM82.625 104.196C82.625 107.08 83.5532 109.741 85.1277 111.905L81.4891 114.552C79.3736 111.645 78.125 108.063 78.125 104.196H82.625ZM85.1974 112.006C85.5942 112.619 86.0369 113.206 86.5236 113.761L83.1399 116.728C82.5086 116.008 81.9342 115.247 81.4194 114.451L85.1974 112.006ZM86.5236 113.761L109.863 140.383L106.479 143.349L83.1399 116.728L86.5236 113.761ZM109.863 140.383C110.162 140.724 110.692 140.724 110.991 140.383L114.375 143.349C112.283 145.735 108.571 145.735 106.479 143.349L109.863 140.383ZM110.991 140.383L134.33 113.761L137.714 116.728L114.375 143.349L110.991 140.383ZM134.33 113.761C134.817 113.207 135.259 112.62 135.656 112.007L139.434 114.452C138.919 115.247 138.345 116.008 137.714 116.728L134.33 113.761Z" fill="white"/>
<path fill-rule="evenodd" clip-rule="evenodd" d="M137.545 113.2C139.39 110.664 140.479 107.542 140.479 104.166C140.479 95.679 133.599 88.7987 125.112 88.7987C118.206 88.7987 112.365 93.353 110.427 99.6218C108.489 93.353 102.648 88.7987 95.7425 88.7987C87.2553 88.7987 80.375 95.679 80.375 104.166C80.375 107.542 81.4634 110.663 83.3084 113.199C83.7642 113.903 84.2727 114.577 84.8317 115.215L108.171 141.836C109.366 143.199 111.488 143.199 112.683 141.836L136.022 115.215C136.581 114.578 137.089 113.904 137.545 113.2Z" fill="#F50032"/>
</g>
</g>
<rect x="49.7351" y="10.625" width="121" height="167.25" rx="10.5" stroke="#ADADAD"/>
<defs>
<clipPath id="clip0_3301_85961">
<rect x="50.2351" y="11.125" width="120" height="166.25" rx="10" fill="white"/>
</clipPath>
</defs>
</svg>
