<svg width="16" height="14" viewBox="0 0 16 14" fill="none" xmlns="http://www.w3.org/2000/svg">
<path d="M2.46289 10.6855H3.47656V11.5469C3.47656 12.877 4.20312 13.6035 5.54492 13.6035H13.5312C14.8672 13.6035 15.5996 12.877 15.5996 11.5469V5.91016C15.5996 4.58008 14.8672 3.85352 13.5312 3.85352H12.4883V2.99219C12.4883 1.66797 11.75 0.935547 10.4141 0.935547H2.46289C1.12695 0.935547 0.394531 1.66211 0.394531 2.99219V8.63477C0.394531 9.95898 1.12695 10.6855 2.46289 10.6855ZM2.62695 9.17383C2.1582 9.17383 1.90625 8.94531 1.90625 8.44727V3.17969C1.90625 2.68164 2.1582 2.44727 2.62695 2.44727H10.25C10.7188 2.44727 10.9766 2.68164 10.9766 3.17969V3.85352H5.54492C4.20312 3.85352 3.47656 4.58008 3.47656 5.91016V9.17383H2.62695ZM5.70898 12.0918C5.23438 12.0918 4.98828 11.8574 4.98828 11.3594V6.0918C4.98828 5.59375 5.23438 5.36523 5.70898 5.36523H13.3613C13.8301 5.36523 14.0879 5.59375 14.0879 6.0918V11.3594C14.0879 11.8574 13.8301 12.0918 13.3613 12.0918H5.70898ZM6.8457 8.72852C6.8457 9.09766 7.11523 9.37305 7.49023 9.37305H8.89062V10.7734C8.89062 11.1484 9.16016 11.418 9.53516 11.418C9.91602 11.418 10.1914 11.1484 10.1914 10.7734V9.37305H11.5918C11.9609 9.37305 12.2305 9.09766 12.2305 8.72852C12.2305 8.34766 11.9668 8.07227 11.5918 8.07227H10.1914V6.67188C10.1914 6.29688 9.91602 6.02734 9.53516 6.02734C9.16016 6.02734 8.89062 6.29688 8.89062 6.67188V8.07227H7.49023C7.11523 8.07227 6.8457 8.34766 6.8457 8.72852Z" fill="#FFFFFF"/>
</svg>
