<svg width="16" height="16" viewBox="0 0 16 16" fill="none" xmlns="http://www.w3.org/2000/svg">
<path d="M16 12C16 14.2091 12.4183 16 8 16C3.58172 16 0 14.2091 0 12C0 9.79086 3.58172 8 8 8C12.4183 8 16 9.79086 16 12Z" fill="white"/>
<path fill-rule="evenodd" clip-rule="evenodd" d="M12.986 13.4868C14.2743 12.8427 14.5 12.2303 14.5 12C14.5 11.7697 14.2743 11.1573 12.986 10.5132C11.7875 9.91395 10.0268 9.5 8 9.5C5.97324 9.5 4.2125 9.91395 3.01397 10.5132C1.72571 11.1573 1.5 11.7697 1.5 12C1.5 12.2303 1.72571 12.8427 3.01397 13.4868C4.2125 14.0861 5.97324 14.5 8 14.5C10.0268 14.5 11.7875 14.0861 12.986 13.4868ZM8 16C12.4183 16 16 14.2091 16 12C16 9.79086 12.4183 8 8 8C3.58172 8 0 9.79086 0 12C0 14.2091 3.58172 16 8 16Z" fill="#383F47"/>
<path d="M16 8C16 10.2091 12.4183 12 8 12C3.58172 12 0 10.2091 0 8C0 5.79086 3.58172 4 8 4C12.4183 4 16 5.79086 16 8Z" fill="white"/>
<path fill-rule="evenodd" clip-rule="evenodd" d="M12.986 9.48679C14.2743 8.84266 14.5 8.23033 14.5 8C14.5 7.76967 14.2743 7.15734 12.986 6.51321C11.7875 5.91395 10.0268 5.5 8 5.5C5.97324 5.5 4.2125 5.91395 3.01397 6.51321C1.72571 7.15734 1.5 7.76967 1.5 8C1.5 8.23033 1.72571 8.84266 3.01397 9.48679C4.2125 10.0861 5.97324 10.5 8 10.5C10.0268 10.5 11.7875 10.0861 12.986 9.48679ZM8 12C12.4183 12 16 10.2091 16 8C16 5.79086 12.4183 4 8 4C3.58172 4 0 5.79086 0 8C0 10.2091 3.58172 12 8 12Z" fill="#383F47"/>
<path d="M16 4C16 6.20914 12.4183 8 8 8C3.58172 8 0 6.20914 0 4C0 1.79086 3.58172 0 8 0C12.4183 0 16 1.79086 16 4Z" fill="#383F47"/>
</svg>
