<svg width="10" height="16" viewBox="0 0 10 16" fill="none" xmlns="http://www.w3.org/2000/svg">
<path fill-rule="evenodd" clip-rule="evenodd" d="M0.676752 12.6284C1.57909 14.1915 3.19533 15.1245 5 15.1245C6.80467 15.1245 8.42061 14.1915 9.32325 12.6284C10.2256 11.0657 10.2256 9.19959 9.32325 7.63653L5.52086 1.05072C5.28937 0.64976 4.71063 0.649761 4.47914 1.05072L0.676752 7.63653C-0.225584 9.19928 -0.225584 11.0653 0.676752 12.6284ZM3.92886 4.18388L4.73957 2.77968C4.85531 2.57919 5.14469 2.57919 5.26043 2.77968L8.37928 8.18176C8.95226 9.17418 9.05982 10.3228 8.70194 11.3739C8.66467 11.2024 8.61259 11.027 8.54237 10.8497C8.11158 9.76253 7.13749 8.9236 5.64663 8.35602C4.62163 7.96721 3.96736 7.39538 3.70151 6.65632C3.35908 5.70373 3.71674 4.66495 3.92886 4.18388ZM2.54647 6.57829L1.62072 8.18176C0.915328 9.40352 0.915328 10.862 1.62072 12.0838C2.32612 13.3055 3.58921 14.0346 5 14.0346C5.93702 14.0346 6.80912 13.7127 7.49584 13.1385C7.5854 12.913 7.86274 12.0877 7.52011 11.237C7.20365 10.4515 6.44206 9.82444 5.25639 9.37281C3.91614 8.86441 3.04541 8.07071 2.66888 7.01447C2.61702 6.86904 2.57673 6.72331 2.54647 6.57829Z" fill="#FFFFFF"/>
</svg>
