<svg width="122" height="169" viewBox="0 0 122 169" fill="none" xmlns="http://www.w3.org/2000/svg">
<g clip-path="url(#clip0_2070_80620)">
<rect x="1" y="1.69727" width="120" height="166.25" rx="10" fill="white"/>
<mask id="mask0_2070_80620" style="mask-type:alpha" maskUnits="userSpaceOnUse" x="1" y="1" width="120" height="167">
<rect x="1" y="1.69727" width="120" height="166.25" fill="#D9D9D9"/>
</mask>
<g mask="url(#mask0_2070_80620)">
<path d="M13.462 22.9853C9.322 22.9853 7.702 21.3653 7.702 19.2413C7.702 17.4773 8.728 16.4333 10.744 16.1273V16.0913C9.034 15.9113 8.008 14.9033 8.008 13.4273C8.008 11.3393 9.538 9.80927 13.462 9.80927C17.386 9.80927 18.916 11.3393 18.916 13.4273C18.916 14.9033 17.89 15.9113 16.18 16.0913V16.1273C18.196 16.4333 19.222 17.4773 19.222 19.2413C19.222 21.3653 17.602 22.9853 13.462 22.9853ZM11.392 19.0253C11.392 20.0873 12.13 20.8253 13.462 20.8253C14.794 20.8253 15.532 20.0873 15.532 19.0253C15.532 17.9633 14.794 17.2073 13.462 17.2073C12.13 17.2073 11.392 17.9633 11.392 19.0253ZM11.608 13.6073C11.608 14.5793 12.274 15.2453 13.462 15.2453C14.65 15.2453 15.316 14.5793 15.316 13.6073C15.316 12.6353 14.65 11.9693 13.462 11.9693C12.274 11.9693 11.608 12.6353 11.608 13.6073Z" fill="#F50032"/>
<path d="M110.175 10.2647C108.764 10.2586 107.504 10.912 106.68 11.9323C105.868 10.902 104.615 10.2379 103.203 10.2317C100.743 10.2196 98.7388 12.2052 98.726 14.6682C98.7146 16.8473 104.906 22.2031 106.334 23.4089C106.505 23.5534 106.746 23.5546 106.919 23.4116C108.358 22.2192 114.6 16.9215 114.611 14.745C114.623 12.2849 112.638 10.2776 110.175 10.2647Z" fill="#F50032"/>
<path fill-rule="evenodd" clip-rule="evenodd" d="M88.3098 90.7722C90.1553 88.2366 91.244 85.1147 91.244 81.7385C91.244 73.2513 84.3638 66.371 75.8765 66.371C68.9713 66.371 63.1298 70.9254 61.192 77.1942C59.2542 70.9254 53.4127 66.371 46.5075 66.371C38.0202 66.371 31.14 73.2513 31.14 81.7385C31.14 85.1143 32.2284 88.2358 34.0735 90.7713C34.5293 91.4756 35.0378 92.1496 35.5967 92.7871L58.9361 119.409C60.1312 120.772 62.2528 120.772 63.4478 119.409L86.7872 92.7871C87.3459 92.1498 87.8542 91.4762 88.3098 90.7722Z" fill="#F50032"/>
</g>
</g>
<rect x="0.5" y="1.19727" width="121" height="167.25" rx="10.5" stroke="#ADADAD"/>
<defs>
<clipPath id="clip0_2070_80620">
<rect x="1" y="1.69727" width="120" height="166.25" rx="10" fill="white"/>
</clipPath>
</defs>
</svg>
