<svg width="122" height="169" viewBox="0 0 122 169" fill="none" xmlns="http://www.w3.org/2000/svg">
<g clip-path="url(#clip0_2070_80621)">
<rect x="1" y="1.69727" width="120" height="166.25" rx="10" fill="white"/>
<mask id="mask0_2070_80621" style="mask-type:alpha" maskUnits="userSpaceOnUse" x="1" y="1" width="120" height="167">
<rect x="1" y="1.69727" width="120" height="166.25" fill="#D9D9D9"/>
</mask>
<g mask="url(#mask0_2070_80621)">
<path d="M13.246 22.9853C9.628 22.9853 7.792 21.1493 7.666 18.8273H11.446C11.554 20.1593 12.13 20.7353 13.246 20.7353C14.506 20.7353 15.37 19.9073 15.406 16.9913C14.92 17.4953 14.038 17.8373 12.67 17.8373C9.376 17.8373 7.756 16.2173 7.756 13.9673C7.756 11.6093 9.556 9.80927 13.12 9.80927C16.918 9.80927 19.06 11.9513 19.06 16.1813C19.06 20.5913 16.666 22.9853 13.246 22.9853ZM11.428 13.8233C11.428 14.8853 12.112 15.5873 13.3 15.5873C14.488 15.5873 15.19 14.8853 15.19 13.8233C15.19 12.7613 14.488 12.0593 13.3 12.0593C12.112 12.0593 11.428 12.7613 11.428 13.8233Z" fill="#F50032"/>
<path d="M110.175 10.2647C108.764 10.2586 107.504 10.912 106.68 11.9323C105.868 10.902 104.615 10.2379 103.203 10.2317C100.743 10.2196 98.7388 12.2052 98.726 14.6682C98.7146 16.8473 104.906 22.2031 106.334 23.4089C106.505 23.5534 106.746 23.5546 106.919 23.4116C108.358 22.2192 114.6 16.9215 114.611 14.745C114.623 12.2849 112.638 10.2776 110.175 10.2647Z" fill="#F50032"/>
<path fill-rule="evenodd" clip-rule="evenodd" d="M88.3098 90.7722C90.1553 88.2366 91.244 85.1147 91.244 81.7385C91.244 73.2513 84.3638 66.371 75.8765 66.371C68.9713 66.371 63.1298 70.9254 61.192 77.1942C59.2542 70.9254 53.4127 66.371 46.5075 66.371C38.0202 66.371 31.14 73.2513 31.14 81.7385C31.14 85.1143 32.2284 88.2358 34.0735 90.7713C34.5293 91.4756 35.0378 92.1496 35.5967 92.7871L58.9361 119.409C60.1312 120.772 62.2528 120.772 63.4478 119.409L86.7872 92.7871C87.3459 92.1498 87.8542 91.4762 88.3098 90.7722Z" fill="#F50032"/>
</g>
</g>
<rect x="0.5" y="1.19727" width="121" height="167.25" rx="10.5" stroke="#ADADAD"/>
<defs>
<clipPath id="clip0_2070_80621">
<rect x="1" y="1.69727" width="120" height="166.25" rx="10" fill="white"/>
</clipPath>
</defs>
</svg>
