<svg width="122" height="169" viewBox="0 0 122 169" fill="none" xmlns="http://www.w3.org/2000/svg">
<g clip-path="url(#clip0_2070_80617)">
<rect x="1" y="1.69727" width="120" height="166.25" rx="10" fill="white"/>
<mask id="mask0_2070_80617" style="mask-type:alpha" maskUnits="userSpaceOnUse" x="1" y="1" width="120" height="167">
<rect x="1" y="1.69727" width="120" height="166.25" fill="#D9D9D9"/>
</mask>
<g mask="url(#mask0_2070_80617)">
<path d="M13.264 22.9853C9.61 22.9853 7.81 21.2393 7.648 18.8273H11.428C11.5 20.0513 12.202 20.7353 13.264 20.7353C14.326 20.7353 15.1 19.9613 15.1 18.5753C15.1 17.1893 14.326 16.4153 13.264 16.4153C12.418 16.4153 11.95 16.8113 11.68 17.1893H8.098V10.0973H17.998V12.2213H11.428V15.0833C11.95 14.6153 12.868 14.1653 14.164 14.1653C17.062 14.1653 18.772 15.8933 18.772 18.5753C18.772 20.9693 16.756 22.9853 13.264 22.9853Z" fill="#F50032"/>
<path d="M110.175 10.2649C108.764 10.2587 107.504 10.9121 106.68 11.9324C105.868 10.9022 104.615 10.238 103.203 10.2318C100.743 10.2197 98.7388 12.2054 98.726 14.6683C98.7146 16.8474 104.906 22.2032 106.334 23.409C106.505 23.5536 106.746 23.5547 106.919 23.4118C108.358 22.2193 114.6 16.9216 114.611 14.7451C114.623 12.2851 112.638 10.2777 110.175 10.2649Z" fill="#F50032"/>
<path fill-rule="evenodd" clip-rule="evenodd" d="M88.3098 90.7722C90.1553 88.2365 91.244 85.1146 91.244 81.7385C91.244 73.2512 84.3638 66.3709 75.8765 66.3709C68.9713 66.3709 63.1298 70.9253 61.192 77.1941C59.2542 70.9253 53.4127 66.3709 46.5075 66.3709C38.0202 66.3709 31.14 73.2512 31.14 81.7385C31.14 85.1142 32.2284 88.2357 34.0735 90.7712C34.5293 91.4755 35.0378 92.1495 35.5967 92.787L58.9361 119.409C60.1312 120.772 62.2528 120.772 63.4478 119.409L86.7872 92.787C87.3459 92.1498 87.8542 91.4761 88.3098 90.7722Z" fill="#F50032"/>
</g>
</g>
<rect x="0.5" y="1.19727" width="121" height="167.25" rx="10.5" stroke="#ADADAD"/>
<defs>
<clipPath id="clip0_2070_80617">
<rect x="1" y="1.69727" width="120" height="166.25" rx="10" fill="white"/>
</clipPath>
</defs>
</svg>
