<svg width="122" height="169" viewBox="0 0 122 169" fill="none" xmlns="http://www.w3.org/2000/svg">
<g clip-path="url(#clip0_2070_80614)">
<rect x="1" y="1.34863" width="120" height="166.25" rx="10" fill="white"/>
<mask id="mask0_2070_80614" style="mask-type:alpha" maskUnits="userSpaceOnUse" x="1" y="1" width="120" height="167">
<rect x="1" y="1.34863" width="120" height="166.25" fill="#D9D9D9"/>
</mask>
<g mask="url(#mask0_2070_80614)">
<path d="M7.702 22.3486V20.4046L12.418 15.6706C13.822 14.2666 14.236 13.6186 14.236 12.8806C14.236 12.1066 13.714 11.5846 12.688 11.5846C11.662 11.5846 11.14 12.1066 11.14 13.1686V13.2586H7.612C7.738 10.8826 9.16 9.46063 12.688 9.46063C16.162 9.46063 17.764 11.0626 17.764 12.8806C17.764 14.3026 17.314 15.0406 15.46 16.8766C14.416 17.9206 13.336 19.1266 12.256 20.2246H18.088V22.3486H7.702Z" fill="#F50032"/>
<path d="M110.175 9.9162C108.764 9.91004 107.504 10.5634 106.68 11.5838C105.868 10.5535 104.615 9.88932 103.203 9.88315C100.743 9.87107 98.7388 11.8567 98.726 14.3197C98.7146 16.4987 104.906 21.8545 106.334 23.0604C106.505 23.2049 106.746 23.206 106.919 23.0631C108.358 21.8707 114.6 16.573 114.611 14.3965C114.623 11.9364 112.638 9.92907 110.175 9.9162Z" fill="#F50032"/>
<path fill-rule="evenodd" clip-rule="evenodd" d="M88.3098 90.4235C90.1553 87.8879 91.244 84.766 91.244 81.3898C91.244 72.9026 84.3638 66.0223 75.8765 66.0223C68.9713 66.0223 63.1298 70.5767 61.192 76.8455C59.2542 70.5767 53.4127 66.0223 46.5075 66.0223C38.0202 66.0223 31.14 72.9026 31.14 81.3898C31.14 84.7656 32.2284 87.8871 34.0735 90.4226C34.5293 91.1269 35.0378 91.8009 35.5967 92.4384L58.9361 119.06C60.1312 120.423 62.2528 120.423 63.4478 119.06L86.7872 92.4384C87.3459 91.8011 87.8542 91.1275 88.3098 90.4235Z" fill="#F50032"/>
</g>
</g>
<rect x="0.5" y="0.848633" width="121" height="167.25" rx="10.5" stroke="#ADADAD"/>
<defs>
<clipPath id="clip0_2070_80614">
<rect x="1" y="1.34863" width="120" height="166.25" rx="10" fill="white"/>
</clipPath>
</defs>
</svg>
