<svg width="122" height="169" viewBox="0 0 122 169" fill="none" xmlns="http://www.w3.org/2000/svg">
<g clip-path="url(#clip0_2070_80622)">
<rect x="1" y="1.69727" width="120" height="166.25" rx="10" fill="white"/>
<mask id="mask0_2070_80622" style="mask-type:alpha" maskUnits="userSpaceOnUse" x="1" y="1" width="120" height="167">
<rect x="1" y="1.69727" width="120" height="166.25" fill="#D9D9D9"/>
</mask>
<g mask="url(#mask0_2070_80622)">
<path d="M9.592 22.6973V12.2573H6.982L8.332 10.0973H12.922V22.6973H9.592ZM20.7264 22.9853C17.1804 22.9853 14.7684 20.5013 14.7684 16.3793C14.7684 12.1313 17.0364 9.80927 20.7264 9.80927C24.4164 9.80927 26.6844 12.1313 26.6844 16.3793C26.6844 20.5013 24.2724 22.9853 20.7264 22.9853ZM18.3684 16.3793C18.3684 19.7093 19.3944 20.7533 20.7264 20.7533C22.0584 20.7533 23.0844 19.7093 23.0844 16.3793C23.0844 13.0313 22.1304 12.0413 20.7264 12.0413C19.3224 12.0413 18.3684 13.0313 18.3684 16.3793Z" fill="#F50032"/>
<path d="M110.175 10.2647C108.764 10.2586 107.504 10.912 106.68 11.9323C105.868 10.902 104.615 10.2379 103.203 10.2317C100.743 10.2196 98.7388 12.2052 98.726 14.6682C98.7146 16.8473 104.906 22.2031 106.334 23.4089C106.505 23.5534 106.746 23.5546 106.919 23.4116C108.358 22.2192 114.6 16.9215 114.611 14.745C114.623 12.2849 112.638 10.2776 110.175 10.2647Z" fill="#F50032"/>
<path fill-rule="evenodd" clip-rule="evenodd" d="M88.3098 90.7722C90.1553 88.2366 91.244 85.1147 91.244 81.7385C91.244 73.2513 84.3638 66.371 75.8765 66.371C68.9713 66.371 63.1298 70.9254 61.192 77.1942C59.2542 70.9254 53.4127 66.371 46.5075 66.371C38.0202 66.371 31.14 73.2513 31.14 81.7385C31.14 85.1143 32.2284 88.2358 34.0735 90.7713C34.5293 91.4756 35.0378 92.1496 35.5967 92.7871L58.9361 119.409C60.1312 120.772 62.2528 120.772 63.4478 119.409L86.7872 92.7871C87.3459 92.1498 87.8542 91.4762 88.3098 90.7722Z" fill="#F50032"/>
</g>
</g>
<rect x="0.5" y="1.19727" width="121" height="167.25" rx="10.5" stroke="#ADADAD"/>
<defs>
<clipPath id="clip0_2070_80622">
<rect x="1" y="1.69727" width="120" height="166.25" rx="10" fill="white"/>
</clipPath>
</defs>
</svg>
