<svg width="122" height="169" viewBox="0 0 122 169" fill="none" xmlns="http://www.w3.org/2000/svg">
<g clip-path="url(#clip0_2070_80635)">
<rect x="1" y="1.34863" width="120" height="166.25" rx="10" fill="white"/>
<mask id="mask0_2070_80635" style="mask-type:alpha" maskUnits="userSpaceOnUse" x="1" y="1" width="120" height="167">
<rect x="1" y="1.34863" width="120" height="166.25" fill="#D9D9D9"/>
</mask>
<g mask="url(#mask0_2070_80635)">
<path d="M12.67 22.6366C9.772 22.6366 7.216 21.5386 7.216 18.3526H10.78C10.78 19.7926 11.716 20.4046 12.688 20.4046C14.218 20.4046 14.794 19.5586 14.794 18.0286V9.74863H18.124V18.2086C18.124 21.6646 15.748 22.6366 12.67 22.6366Z" fill="#F50032"/>
<path d="M110.175 9.91611C108.764 9.90995 107.504 10.5633 106.68 11.5837C105.868 10.5534 104.615 9.88923 103.203 9.88306C100.743 9.87098 98.7388 11.8566 98.726 14.3196C98.7146 16.4987 104.906 21.8544 106.334 23.0603C106.505 23.2048 106.746 23.2059 106.919 23.063C108.358 21.8706 114.6 16.5729 114.611 14.3964C114.623 11.9363 112.638 9.92898 110.175 9.91611Z" fill="#F50032"/>
<mask id="mask1_2070_80635" style="mask-type:alpha" maskUnits="userSpaceOnUse" x="6" y="31" width="109" height="131">
<rect x="6.75" y="31.3486" width="108" height="130" rx="6" fill="white"/>
</mask>
<g mask="url(#mask1_2070_80635)">
<path d="M7.23926 177.867V140.878H114.26V177.806L74.9455 193.807C73.9359 193.44 69.2855 191.849 63.5337 191.849C62.5852 191.849 61.6368 191.879 60.7495 191.971C60.413 191.971 56.9864 192.185 51.9688 194.97C51.7547 194.939 51.4181 194.878 50.9592 194.878C50.1943 194.878 49.0623 195 47.7467 195.52C47.7467 195.52 47.6856 195.52 47.655 195.52C47.5326 195.52 47.1349 195.52 44.8708 196.132C44.6261 196.193 42.3621 196.683 41.536 197.019C41.0159 197.019 39.3638 197.05 38.293 197.539L7.23926 177.867Z" fill="#F50032"/>
<path d="M113.771 141.398V177.5L74.9152 193.287C73.5997 192.828 69.041 191.359 63.5034 191.359C62.5549 191.359 61.6065 191.39 60.6887 191.482C60.2603 191.482 56.8031 191.726 51.8468 194.449C51.6326 194.449 51.2961 194.388 50.9289 194.388C50.1641 194.388 48.9709 194.511 47.6247 195.031C47.3493 195.031 46.768 195.092 44.7488 195.643C44.1063 195.765 42.3012 196.193 41.414 196.53C40.7409 196.53 39.3641 196.591 38.3239 196.989L7.72909 177.592V141.367H113.771M114.75 140.388H6.75006V178.142L38.2321 198.121C39.2111 197.57 41.0468 197.509 41.5057 197.509C41.5669 197.509 41.5975 197.509 41.5975 197.509C42.24 197.172 44.9629 196.591 44.9629 196.591C46.768 196.102 47.4105 196.01 47.6247 196.01C47.7777 196.01 47.7165 196.071 47.7165 196.071C49.0321 195.52 50.1641 195.398 50.9595 195.398C51.6326 195.398 52.0609 195.49 52.0609 195.49C57.2926 192.553 60.7804 192.491 60.7804 192.491C61.7289 192.4 62.6467 192.369 63.534 192.369C69.8977 192.369 74.9458 194.388 74.9458 194.388L114.75 178.173V140.419V140.388Z" fill="black"/>
<path d="M92.3546 154.829H67.1751V155.808H92.3546V154.829Z" fill="black"/>
<path d="M93.7006 157.521H67.3279V158.501H93.7006V157.521Z" fill="black"/>
<path d="M94.0983 160.183H68.9188V161.162H94.0983V160.183Z" fill="black"/>
<path d="M38.2321 198.121L6.75006 178.142V140.388H58.4858L83.2064 190.992L74.1198 194.664C74.1198 194.664 66.93 191.818 59.9544 193.562C59.9544 193.562 58.6388 193.685 53.4989 196.346C53.4989 196.346 49.2156 195.581 47.2881 196.255C47.2881 196.255 46.7068 196.102 43.6168 196.897C43.6168 196.897 41.3528 197.081 40.7103 197.417C40.7103 197.417 39.3335 197.448 38.2321 198.09V198.121Z" fill="black"/>
<path d="M67.2671 156.757C67.1447 156.175 67.0224 155.594 66.9612 154.982C66.3799 153.942 65.7068 152.932 65.0031 151.923H32.3279V156.757H67.2671Z" fill="white"/>
<path d="M61.3929 147.089C60.6586 146.11 59.955 145.161 59.3431 144.182C58.9147 143.54 58.67 142.867 58.5476 142.255H32.3279V147.089H61.3929Z" fill="white"/>
<path d="M78.9233 192.338C73.6304 188.422 67.0525 181.263 65.3392 169.27C63.0752 153.299 52.2446 142.683 50.4089 141L50.6231 140.756H62.1573C66.6854 146.507 72.376 155.869 74.0893 168.016C76.0168 181.63 86.3884 186.923 89.2643 188.147L78.9233 192.338Z" fill="white"/>
<path d="M61.9741 141.123C66.4409 146.844 72.0398 156.084 73.7225 168.077C75.5276 180.835 84.6448 186.372 88.3468 188.116L78.9848 191.91C73.7837 188.025 67.3894 180.957 65.7066 169.209C63.565 154.034 53.7441 143.662 51.0823 141.092H61.9741M62.3106 140.388H50.4399L49.9197 141.031C49.9197 141.031 62.5248 152.014 64.9724 169.331C66.6857 181.447 73.2941 188.698 78.8624 192.767L90.0601 188.208V188.116C90.0601 188.116 76.5984 183.558 74.3956 167.985C72.6517 155.686 66.8998 146.263 62.28 140.419L62.3106 140.388Z" fill="black"/>
<path d="M103.705 182.456L84.1859 140.388H106.337L109.855 176.001L103.705 182.456Z" fill="black"/>
<path d="M103.613 182.181C105.081 180.223 107.07 176.49 106.734 171.106L106.825 140.878H114.26V177.806L103.613 182.181Z" fill="#F50032"/>
<path d="M113.771 141.398V177.5L104.929 181.141C106.214 178.938 107.499 175.603 107.254 171.136L107.346 141.429H113.802M114.75 140.388H106.306L106.214 171.106C106.704 179.213 101.808 183.435 101.808 183.435L114.719 178.142V140.388H114.75Z" fill="black"/>
<path d="M70.3565 152.504C67.8478 147.089 64.8801 143.203 61.5146 140.909H89.5089C89.9678 140.909 90.3655 141.551 90.3655 142.255V151.158C90.3655 151.862 89.9678 152.504 89.5089 152.504H70.3565Z" fill="#F50032"/>
<path d="M89.5092 141.429C89.5092 141.429 89.8457 141.735 89.8457 142.255V151.158C89.8457 151.678 89.6009 151.984 89.5092 151.984H70.6934C68.4905 147.303 65.9206 143.784 63.0753 141.398H89.5398M89.5092 140.388H59.6487C64.2685 142.775 67.6339 147.792 70.0203 153.024H89.5092C90.274 153.024 90.8859 152.198 90.8859 151.158V142.255C90.8859 141.214 90.274 140.388 89.5092 140.388Z" fill="black"/>
<path d="M73.7222 149.138C72.7738 147.333 71.7641 145.651 70.4485 144.274H86.0519V149.138H73.7222Z" fill="#F50032"/>
<path d="M84.8282 145.528V147.945H74.4872C74.0283 147.119 73.5694 146.293 73.0492 145.528H84.8588M86.3886 143.05H66.7161C69.745 144.427 71.3971 147.364 72.9881 150.393H86.3886C86.8781 150.393 87.2758 149.903 87.2758 149.291V144.121C87.2758 143.54 86.8781 143.05 86.3886 143.05Z" fill="black"/>
<path d="M7.23926 177.378V141.704H36.2737V195.306L36.1819 195.429L7.23926 177.378Z" fill="#FFCE57"/>
<path d="M35.7845 142.224V194.602L7.72909 177.102V142.224H35.7845ZM36.7635 141.214H6.75006V177.653L36.274 196.071L36.7635 195.49V141.214Z" fill="black"/>
<path d="M26.6369 142.132H33.2148V193.011L26.6369 188.881V142.132Z" fill="#F50032"/>
<path d="M33.459 193.44L26.3916 189.034V141.888H33.459V193.44ZM26.8811 188.759L32.9695 192.553V142.377H26.8811V188.759Z" fill="black"/>
<path d="M17.7646 141.214H24.3425V188.208L17.7952 184.537L17.7646 141.214Z" fill="black"/>
<path d="M9.5954 142.132H15.8673V182.303L9.5954 178.51V142.132Z" fill="white"/>
<path d="M16.1124 182.762L9.32037 178.663V141.888H16.1124V182.762ZM9.84048 178.387L15.6535 181.875V142.377H9.84048V178.357V178.387Z" fill="black"/>
<path d="M77.944 43.9536C77.944 43.9536 76.0471 49.9196 79.8409 55.2737C83.757 60.8725 82.7474 63.5037 82.7474 63.5037C82.7474 63.5037 79.2596 63.5037 78.8618 66.2572C78.4029 69.4085 80.361 74.4872 86.6941 72.4985C86.6941 72.4985 90.7326 70.4487 89.1111 63.0448C87.459 55.6408 81.3706 48.451 83.604 43.9842H77.9746L77.944 43.9536Z" fill="#FFCE57"/>
<path d="M84.0327 73.1716C82.3805 73.1716 81.0038 72.5597 80.0247 71.4277C78.648 69.8368 78.4032 67.6339 78.6174 66.196C78.9845 63.6566 81.7992 63.2895 82.5335 63.2589C82.6559 62.647 82.8701 60.077 79.627 55.4266C75.8333 50.0113 77.6995 43.923 77.7301 43.8618L77.7913 43.6782H84.0021L83.8185 44.0454C82.5335 46.6765 84.1856 50.2561 86.1131 54.4476C87.3981 57.1705 88.6831 60.0158 89.3561 62.9529C91.0389 70.4793 87.0003 72.5903 86.8168 72.6821H86.7862C85.8072 73.0186 84.8893 73.1716 84.0327 73.1716ZM78.1279 44.1983C77.8525 45.208 76.7205 50.4397 80.0247 55.1207C83.9715 60.7807 82.9924 63.473 82.9618 63.5954L82.9007 63.7484H82.7477C82.7477 63.7484 79.474 63.7484 79.1069 66.2878C78.9233 67.6033 79.1069 69.6226 80.3919 71.1217C81.738 72.7127 83.9103 73.1104 86.6026 72.2537C86.9086 72.1008 90.427 70.0203 88.8666 63.0753C88.2241 60.1994 86.9392 57.3847 85.6848 54.6923C83.7879 50.5926 82.1358 47.0131 83.2372 44.2289H78.1585L78.1279 44.1983Z" fill="black"/>
<path d="M72.4677 44.4126C72.4677 44.4126 70.5708 50.3786 74.3645 55.7327C78.2807 61.3315 77.271 63.9627 77.271 63.9627C77.271 63.9627 73.7832 63.9627 73.3855 66.6856C72.9266 69.8369 74.8846 74.9156 81.2178 72.9269C81.2178 72.9269 85.2869 70.8771 83.6348 63.4731C81.9826 56.0692 75.8943 48.91 78.1277 44.4126H72.4983H72.4677Z" fill="#FFCE57"/>
<path d="M78.5562 73.6613C76.9041 73.6613 75.5273 73.0494 74.5482 71.9174C73.1715 70.3264 72.9267 68.1236 73.1409 66.6856C73.508 64.1463 76.3227 63.7791 77.0876 63.7486C77.21 63.1367 77.4242 60.5667 74.1811 55.9163C70.3874 50.501 72.2536 44.4432 72.2842 44.3821L72.3454 44.1985H78.5562L78.3726 44.5656C77.0876 47.1968 78.7397 50.807 80.6672 54.9678C81.9522 57.6908 83.2372 60.5361 83.9103 63.4732C85.593 70.9995 81.5545 73.1411 81.3709 73.2023H81.3403C80.3613 73.5389 79.4434 73.6919 78.5868 73.6919L78.5562 73.6613ZM72.6514 44.6574C72.4066 45.667 71.244 50.8987 74.5482 55.5797C78.495 61.2398 77.5159 63.9321 77.4854 64.0545L77.4242 64.2075H77.2712C77.2712 64.2075 73.9975 64.2381 73.6304 66.7468C73.4468 68.0624 73.6304 70.0817 74.9154 71.5502C76.2616 73.1411 78.4338 73.5389 81.1261 72.6822C81.4321 72.5293 84.9199 70.4488 83.3901 63.5038C82.7477 60.6279 81.4321 57.8132 80.1777 55.0902C78.2808 50.9905 76.6287 47.4109 77.7301 44.6268H72.6514V44.6574Z" fill="black"/>
<path d="M68.1848 44.4126C68.1848 44.4126 66.2879 50.3786 70.0511 55.7327C73.9672 61.3315 72.9576 63.9627 72.9576 63.9627C72.9576 63.9627 69.5004 63.9627 69.072 66.6856C68.6131 69.8369 70.5712 74.9156 76.9043 72.9269C76.9043 72.9269 80.9428 70.8771 79.3213 63.4731C77.6692 56.0692 71.5808 48.91 73.8142 44.4126H68.1848Z" fill="#FFCE57"/>
<path d="M74.2427 73.6613C72.5905 73.6613 71.2138 73.0494 70.2347 71.9174C68.858 70.3264 68.6132 68.1236 68.8274 66.6856C69.1945 64.1463 72.0092 63.7791 72.7741 63.7486C72.8965 63.1367 73.1107 60.5667 69.8676 55.9163C66.0739 50.501 67.9401 44.4432 67.9707 44.3821L68.0319 44.1985H74.2427L74.0591 44.5656C72.7435 47.1968 74.4262 50.807 76.3537 54.9678C77.6081 57.6908 78.9237 60.5361 79.5662 63.4732C81.2489 70.9995 77.2104 73.1411 77.0268 73.2023H76.9962C76.0172 73.5389 75.0993 73.6919 74.2427 73.6919V73.6613ZM68.3685 44.6574C68.0931 45.667 66.9611 50.8987 70.2653 55.5797C74.2121 61.2398 73.233 63.9321 73.2024 64.0545L73.1412 64.2075H72.9577C72.9577 64.2075 69.684 64.2381 69.3169 66.7468C69.1333 68.0624 69.3475 70.0817 70.6019 71.5502C71.9786 73.1411 74.1203 73.5389 76.8126 72.6822C77.1186 72.5293 80.637 70.4488 79.0766 63.5038C78.4341 60.6279 77.1492 57.8132 75.8642 55.0902C73.9673 50.9905 72.3152 47.4109 73.4166 44.6268H68.3379L68.3685 44.6574Z" fill="black"/>
<path d="M111.293 74.3037H97.8614V76.6901H111.293V74.3037Z" fill="black"/>
<path d="M46.6458 60.8113C46.6458 60.8113 49.5217 60.1994 50.4702 61.6986C50.4702 61.6986 49.0016 62.3105 48.0226 60.9949C48.0226 60.9949 47.0741 60.689 46.6458 60.8113Z" fill="black"/>
<path d="M48.7262 68.5825C49.4299 68.7049 50.4701 68.8884 51.3879 68.3989C51.3879 68.3989 50.1335 70.3264 47.9307 69.5003L48.7262 68.5825Z" fill="black"/>
<path d="M56.0081 76.5066C51.7554 76.5066 48.6348 75.4358 48.5736 75.4052C47.8393 75.2216 47.3192 74.7933 47.0438 74.1508C46.3096 72.4069 47.7475 69.531 48.1759 68.7049C47.4416 67.7259 47.7781 66.135 47.8699 65.676L47.5334 64.9112L47.7781 63.0143C45.6365 62.4636 44.3821 61.6987 44.015 60.6891C43.709 59.863 44.1373 59.1899 44.1679 59.1899L47.3498 53.8359C47.258 53.2546 46.8297 50.8376 46.7685 50.1339C46.5849 48.5124 47.7781 43.8926 47.8393 43.709L48.5124 43.8926C48.5124 43.8926 47.2886 48.543 47.4722 50.0421C47.564 50.807 48.0841 53.8053 48.0841 53.8359V53.9582L44.7492 59.5571C44.7492 59.5877 44.4739 59.9854 44.6575 60.4443C44.8716 60.995 45.6671 61.7905 48.237 62.4024L48.543 62.4636L48.237 64.7888L48.6042 65.5843V65.7066C48.4206 66.2267 48.1758 67.7565 48.8183 68.3684L49.0019 68.5519L48.8795 68.7967C48.3288 69.7146 47.0438 72.4681 47.6557 73.8448C47.8393 74.2732 48.2064 74.5485 48.7572 74.7015C48.8795 74.7627 59.4347 78.3423 67.7871 72.1009L68.1848 72.6516C64.1769 75.6499 59.6489 76.476 55.9775 76.476L56.0081 76.5066Z" fill="black"/>
<path d="M83.8798 41.3225H47.625V44.229H83.8798V41.3225Z" fill="white"/>
<path d="M84.0634 44.4126H47.4108V41.1084H84.0634V44.4126ZM47.8086 44.0149H83.6656V41.5061H47.8086V44.0149Z" fill="black"/>
<path d="M48.0232 39.2727C47.7478 38.0183 46.677 34.2551 43.8623 31.8381H87.6128C84.7981 34.2551 83.7579 38.0183 83.452 39.2727H47.9926H48.0232Z" fill="#F50032"/>
<path d="M86.4196 32.3277C84.4003 34.5611 83.4519 37.4064 83.0848 38.7832H48.4209C48.0537 37.4064 47.1359 34.5611 45.0861 32.3277H86.4196ZM89.1731 31.3486H42.3325C46.5852 33.8268 47.6254 39.7622 47.6254 39.7622H83.8802C83.8802 39.7622 84.9205 33.7962 89.1731 31.3486Z" fill="black"/>
<path d="M46.6457 36.6416C46.6457 36.6416 47.6247 40.4965 47.6247 41.3226H83.8796C83.8796 41.3226 84.1549 37.5594 84.6138 36.6416H46.6151H46.6457Z" fill="black"/>
<path d="M7.23926 128.181V91.2532L46.5536 75.2522C47.5326 75.6193 52.2136 77.2102 57.9654 77.2102C58.9138 77.2102 59.8623 77.149 60.7495 77.0879C61.0555 77.0879 64.5127 76.8737 69.5302 74.0896C69.7138 74.0896 70.0809 74.1508 70.5399 74.1508C71.3047 74.1508 72.4367 74.0284 73.7523 73.5083C73.7829 73.5083 73.8135 73.5083 73.8441 73.5083C73.9665 73.5083 74.3642 73.5083 76.6282 72.8964C76.873 72.8352 79.137 72.3457 79.9631 72.0091C80.4832 72.0091 82.1353 71.9785 83.2061 71.489L114.229 91.1615V128.151H7.23926V128.181Z" fill="#F50032"/>
<path d="M83.2064 72.0702L113.771 91.4673V127.692H7.72909V91.5897L46.5539 75.7722C47.8694 76.2311 52.4281 77.6997 57.9657 77.6997C58.9142 77.6997 59.8626 77.6385 60.7804 77.5773C61.2088 77.5773 64.666 77.3325 69.6223 74.6096C69.8365 74.6096 70.173 74.6708 70.5402 74.6708C71.3051 74.6708 72.4983 74.5484 73.8444 74.0283C74.1198 74.0283 74.7011 73.9671 76.7203 73.4164C77.3628 73.294 79.1679 72.8657 80.0552 72.5292C80.7282 72.5292 82.105 72.468 83.1758 72.0702M83.2676 70.9382C82.3192 71.4889 80.4529 71.5501 79.994 71.5501H79.9022C79.2597 71.8867 76.5368 72.468 76.5368 72.468C74.7317 72.9575 74.0892 73.0493 73.875 73.0493C73.722 73.0493 73.7832 73.0187 73.7832 73.0187C72.4677 73.5694 71.3356 73.6918 70.5402 73.6918C69.8671 73.6918 69.4388 73.6 69.4388 73.6C64.2071 76.5065 60.6887 76.5983 60.6887 76.5983C59.7708 76.6901 58.8224 76.7206 57.9351 76.7206C51.5714 76.7206 46.5233 74.7014 46.5233 74.7014L6.75006 90.9166V128.671H114.75V90.9166L83.2676 70.9382Z" fill="black"/>
<path d="M54.2947 113.22H29.1458V114.199H54.2947V113.22Z" fill="black"/>
<path d="M54.1727 110.559H27.8V111.538H54.1727V110.559Z" fill="black"/>
<path d="M52.5809 107.866H27.4014V108.845H52.5809V107.866Z" fill="black"/>
<path d="M50.9292 105.205H25.7803V106.184H50.9292V105.205Z" fill="black"/>
<path d="M49.3074 102.512H24.1584V103.491H49.3074V102.512Z" fill="black"/>
<path d="M47.7164 99.8503H22.5369V100.829H47.7164V99.8503Z" fill="black"/>
<path d="M47.5639 97.158H22.415V98.137H47.5639V97.158Z" fill="black"/>
<path d="M45.8194 91.804H19.6608V92.783H45.8194V91.804Z" fill="black"/>
<path d="M83.2678 70.9382L114.75 90.9166V128.671H63.014L38.2935 78.0668L47.3801 74.3954C47.3801 74.3954 54.5393 77.2408 61.5455 75.4969C61.5455 75.4969 62.8611 75.3745 68.001 72.7127C68.001 72.7127 72.2843 73.4776 74.2117 72.8045C74.2117 72.8045 74.8236 72.9881 77.8831 72.162C77.8831 72.162 80.1471 71.9785 80.7896 71.6419C80.7896 71.6419 82.1664 71.6419 83.2678 70.9688V70.9382Z" fill="black"/>
<path d="M46.5538 83.2986V86.5416C47.5022 86.817 48.3589 87.3677 48.9708 88.1326H89.1723V83.2986H46.5538Z" fill="white"/>
<path d="M50.0723 92.9666C50.0723 94.5881 50.164 96.179 50.2252 97.8005H89.1724V92.9666H50.0723Z" fill="white"/>
<path d="M50.5622 102.635C50.6845 103.828 50.7763 105.052 50.9293 106.245C50.9293 106.245 50.9599 106.275 50.9905 106.306C51.3882 106.673 51.7248 107.071 52.0613 107.468H89.1728V102.635H50.5622Z" fill="white"/>
<path d="M54.2027 112.302C54.325 112.884 54.4474 113.465 54.5086 114.077C55.1205 115.117 55.7936 116.127 56.4667 117.136H89.1419V112.302H54.1721H54.2027Z" fill="white"/>
<path d="M60.1072 121.97C60.8415 122.949 61.5451 123.898 62.157 124.877C62.5854 125.519 62.8301 126.162 62.9525 126.804H89.1722V121.97H60.1072Z" fill="white"/>
<path d="M59.3428 128.304C54.8147 122.552 49.1241 113.19 47.4108 101.044C45.4833 87.4289 35.1117 82.136 32.2358 80.9122L42.5768 76.7207C47.8697 80.6368 54.4476 87.796 56.1609 99.7892C58.4249 115.79 69.2555 126.376 71.0912 128.059L70.877 128.304H59.3734H59.3428Z" fill="white"/>
<path d="M42.5158 77.1185C47.7475 81.004 54.1112 88.0714 55.7939 99.8198C57.9355 114.995 67.7564 125.366 70.4488 127.936H59.557C55.0902 122.215 49.4914 112.976 47.8087 100.982C46.0036 88.2244 36.8863 82.6867 33.1843 80.9428L42.5464 77.1491M42.6075 76.323L31.4099 80.8816V81.004C31.4099 81.004 44.8716 85.5626 47.0438 101.105C48.7877 113.404 54.5395 122.858 59.1593 128.671H71.0301L71.5502 128.028C71.5502 128.028 58.9452 117.045 56.4976 99.728C54.7843 87.6125 48.1758 80.3615 42.6075 76.323Z" fill="black"/>
<path d="M17.7954 86.6028L37.2842 128.671H15.1642L11.6458 93.0583L17.7954 86.6028Z" fill="black"/>
<path d="M7.23926 128.181V91.2532L17.8862 86.8782C16.4177 88.8362 14.429 92.5688 14.7656 97.9535L14.6738 128.151H7.23926V128.181Z" fill="#F50032"/>
<path d="M16.571 87.9491C15.286 90.1519 14.001 93.4867 14.2458 97.9841L14.154 127.692H7.72909V91.5898L16.571 87.9491ZM19.6611 85.5933L6.75006 90.9168V128.671H15.1636L15.2554 97.9536C14.7659 89.8459 19.6611 85.6239 19.6611 85.6239V85.5933Z" fill="black"/>
<path d="M31.9907 128.151C31.5318 128.151 31.1341 127.508 31.1341 126.805V117.871C31.1341 117.167 31.5318 116.525 31.9907 116.525H51.1431C53.6519 121.94 56.6195 125.825 59.985 128.12H31.9907V128.151Z" fill="#F50032"/>
<path d="M50.8068 117.045C53.0096 121.726 55.5795 125.275 58.4555 127.63H31.991C31.991 127.63 31.6544 127.324 31.6544 126.804V117.871C31.6544 117.35 31.8992 117.045 31.991 117.045H50.8068ZM51.4798 116.035H31.991C31.2261 116.035 30.6142 116.861 30.6142 117.901V126.835C30.6142 127.875 31.2261 128.701 31.991 128.701H61.8515C57.2317 126.315 53.8662 121.267 51.4798 116.066V116.035Z" fill="black"/>
<path d="M35.4485 124.785V119.92H47.7782C48.7267 121.695 49.7363 123.408 51.0213 124.785H35.4485Z" fill="#F50032"/>
<path d="M47.0433 121.144C47.5022 121.97 47.9611 122.766 48.4812 123.531H36.6716V121.144H47.0127M48.5118 118.666H35.1113C34.6218 118.666 34.2241 119.156 34.2241 119.737V124.907C34.2241 125.489 34.6218 125.978 35.1113 125.978H54.7838C51.7549 124.571 50.1027 121.664 48.5118 118.635V118.666Z" fill="black"/>
<path d="M45.9729 94.4963H20.7934V95.4754H45.9729V94.4963Z" fill="black"/>
<path d="M85.1957 127.355V73.753L85.3181 73.6306L114.261 91.6815V127.355H85.1957Z" fill="#FFCE57"/>
<path d="M85.7152 74.4568L113.771 91.9571V126.835H85.7152V74.4568ZM85.2257 72.9883L84.7056 73.5696V127.845H114.75V91.4063L85.2257 72.9883Z" fill="black"/>
<path d="M94.8629 126.927H88.285V76.0476L94.8629 80.1779V126.927Z" fill="#F50032"/>
<path d="M95.108 127.172H88.0406V75.6194L95.108 80.025V127.172ZM88.5302 126.682H94.6185V80.3004L88.5302 76.5066V126.682Z" fill="black"/>
<path d="M103.736 127.845H97.1581V80.8511L103.705 84.5225L103.736 127.845Z" fill="black"/>
<path d="M111.904 126.927H105.602V86.7251L111.904 90.5494V126.927Z" fill="white"/>
<path d="M112.149 127.172H105.357V86.2969L112.149 90.3966V127.172ZM105.847 126.682H111.629V90.7025L105.847 87.1841V126.682Z" fill="black"/>
<path d="M114.75 127.349H6.75V161.349H114.75V127.349Z" fill="#FFCE57"/>
<path d="M113.75 156.349H6.75V160.349H113.75V156.349Z" fill="black"/>
<path d="M116.25 140.349V139.849H115.75H3.75H3.25V140.349V145.349V145.849H3.75H115.75H116.25V145.349V140.349Z" fill="#F50032" stroke="black"/>
<path d="M116.25 149.849V149.349H115.75H3.75H3.25V149.849V152.849V153.349H3.75H115.75H116.25V152.849V149.849Z" fill="white" stroke="black"/>
<path d="M114.26 127.661H7.23926V140.511H114.26V127.661Z" fill="#FFCE57"/>
<path d="M113.771 128.181V140.052H7.72909V128.181H113.771ZM114.75 127.171H6.75006V141H114.75V127.171Z" fill="black"/>
<path d="M71.5805 127.11H54.3862V141.031H71.5805V127.11Z" fill="#FFCE57"/>
<path d="M72.1001 141.52H53.8656V126.59H72.1001V141.52ZM54.8753 140.48H71.0599V127.6H54.8753V140.48Z" fill="black"/>
<path d="M69.4694 128.793H56.4666V139.318H69.4694V128.793Z" fill="black"/>
<path d="M44.3825 136.686C44.8108 135.677 45.025 134.545 45.025 133.382C45.025 128.609 41.17 124.724 36.4278 124.724C31.6856 124.724 27.8307 128.609 27.8307 133.382C27.8307 135.096 28.3202 136.686 29.1769 138.002L36.4584 151.494L44.4131 136.686H44.3825Z" fill="#F50032"/>
<path d="M36.4273 152.443L28.7786 138.247C27.8607 136.809 27.3712 135.096 27.3712 133.382C27.3712 128.365 31.4403 124.296 36.4273 124.296C41.4142 124.296 45.4833 128.365 45.4833 133.382C45.4833 134.576 45.2386 135.769 44.8102 136.84L36.4579 152.412L36.4273 152.443ZM36.4273 125.183C31.9298 125.183 28.2585 128.854 28.2585 133.382C28.2585 134.943 28.6868 136.472 29.5434 137.788L36.4273 150.577L43.9842 136.503C44.3819 135.524 44.5961 134.453 44.5961 133.382C44.5961 128.854 40.9247 125.183 36.4273 125.183Z" fill="black"/>
<path d="M44.3825 136.686C44.8108 135.677 45.025 134.545 45.025 133.382C45.025 128.609 41.17 124.724 36.4278 124.724C31.6856 124.724 27.8307 128.609 27.8307 133.382C27.8307 135.096 28.3202 136.686 29.1769 138.002C29.1769 138.002 29.3604 129.68 36.4584 129.497C36.4584 129.497 44.2601 129.497 43.3728 138.645L44.4131 136.686H44.3825Z" fill="white"/>
<path d="M42.6686 140.786L42.8828 138.614C43.1581 135.799 42.6074 133.596 41.2307 132.097C39.3032 129.986 36.4273 129.956 36.3967 129.956C29.8188 130.139 29.574 137.727 29.574 138.033V139.471L28.7786 138.247C27.8607 136.778 27.3712 135.096 27.3712 133.382C27.3712 128.365 31.4403 124.296 36.4273 124.296C41.4142 124.296 45.4833 128.365 45.4833 133.382C45.4833 134.576 45.2386 135.769 44.8102 136.84L42.7298 140.756L42.6686 140.786ZM36.3967 129.068C36.5497 129.068 39.7315 129.099 41.9037 131.485C43.0969 132.801 43.7394 134.575 43.8312 136.778L43.9842 136.472C44.3819 135.493 44.5961 134.423 44.5961 133.352C44.5961 128.824 40.9247 125.152 36.4273 125.152C31.9298 125.152 28.2585 128.824 28.2585 133.352C28.2585 134.453 28.4726 135.524 28.8704 136.534C29.3293 134.055 30.8896 129.191 36.3967 129.038V129.068Z" fill="black"/>
<path d="M41.3219 142.347C41.5667 141.704 41.7197 141.031 41.7197 140.297C41.7197 137.329 39.3333 134.943 36.3962 134.943C33.4591 134.943 31.0727 137.329 31.0727 140.297C31.0727 141.337 31.3786 142.316 31.8988 143.173L36.3962 151.525L41.3219 142.347Z" fill="#F50032"/>
<path d="M36.3968 152.198L31.624 143.325C31.0427 142.408 30.7674 141.367 30.7674 140.297C30.7674 137.145 33.3068 134.606 36.4274 134.606C39.5481 134.606 42.0875 137.145 42.0875 140.297C42.0875 141.031 41.9345 141.765 41.6591 142.469L36.4274 152.198H36.3968ZM36.3968 135.279C33.6433 135.279 31.4099 137.543 31.4099 140.297C31.4099 141.245 31.6852 142.193 32.1748 142.989L36.3968 150.821L41.0166 142.193C41.2614 141.582 41.3838 140.939 41.3838 140.297C41.3838 137.512 39.1504 135.279 36.3968 135.279Z" fill="black"/>
<path d="M39.4869 142.01C39.6398 141.612 39.7316 141.184 39.7316 140.725C39.7316 138.859 38.2325 137.36 36.3968 137.36C34.5611 137.36 33.062 138.859 33.062 140.725C33.062 141.398 33.2455 142.01 33.5821 142.53L36.3968 147.762L39.4869 142.01Z" fill="#F50032"/>
<path d="M36.3965 148.19L33.3982 142.622C33.0617 142.071 32.8475 141.398 32.8475 140.725C32.8475 138.767 34.4385 137.145 36.3965 137.145C38.3546 137.145 39.9455 138.736 39.9455 140.725C39.9455 141.184 39.8537 141.643 39.6702 142.102L36.3965 148.221V148.19ZM36.3965 137.574C34.6526 137.574 33.2453 138.981 33.2453 140.725C33.2453 141.337 33.3982 141.918 33.7348 142.408L36.3965 147.333L39.303 141.918C39.456 141.551 39.5172 141.153 39.5172 140.725C39.5172 138.981 38.1098 137.574 36.3659 137.574H36.3965Z" fill="black"/>
<path d="M36.4271 152.259L30.1552 140.603C29.3903 139.409 28.9926 138.033 28.9926 136.625C28.9926 132.495 32.3274 129.16 36.4271 129.16C40.5268 129.16 43.8616 132.526 43.8616 136.625C43.8616 137.604 43.678 138.583 43.3109 139.471L36.4577 152.259H36.4271ZM36.4271 129.864C32.7251 129.864 29.6962 132.893 29.6962 136.625C29.6962 137.91 30.0634 139.165 30.7365 140.235L36.3965 150.76L42.6072 139.195C42.9438 138.369 43.0967 137.513 43.0967 136.625C43.0967 132.893 40.0985 129.864 36.3965 129.864H36.4271Z" fill="black"/>
<path d="M29.4519 135.004L29.972 133.933L29.1765 128.701C28.9624 129.038 28.7788 129.374 28.5952 129.711L29.4213 135.004H29.4519Z" fill="black"/>
<path d="M31.1038 126.59C30.8591 126.774 30.6449 126.957 30.4307 127.171L30.9814 131.852L31.6851 131.546L31.1038 126.59Z" fill="black"/>
<path d="M32.9394 130.629L33.6431 130.078L33.2759 125.336C33.0312 125.428 32.817 125.52 32.5723 125.642L32.9088 130.629H32.9394Z" fill="black"/>
<path d="M34.9889 129.803L35.7232 129.68L35.6008 124.755C35.356 124.755 35.1113 124.816 34.8665 124.846L34.9889 129.772V129.803Z" fill="black"/>
<path d="M37.9567 124.877C37.7119 124.846 37.4672 124.785 37.253 124.785L37.1306 129.558L37.8343 129.803L37.9567 124.877Z" fill="black"/>
<path d="M40.2214 125.642C40.0073 125.52 39.7625 125.428 39.5178 125.336L39.1812 130.262L39.8849 130.629L40.2214 125.642Z" fill="black"/>
<path d="M41.1387 131.577L41.8118 132.036L42.3625 127.141C42.1483 126.927 41.9342 126.743 41.6894 126.56L41.1081 131.547L41.1387 131.577Z" fill="black"/>
<path d="M43.3417 135.157L44.229 129.711C44.076 129.344 43.8619 129.007 43.6477 128.701L42.8522 133.963L43.3417 135.157Z" fill="black"/>
<path d="M35.7845 146.63L36.3047 147.639V137.36C36.1211 137.36 35.9375 137.36 35.7845 137.421V146.63Z" fill="black"/>
<path d="M34.9279 145.039L35.4174 145.957V137.512C35.2339 137.574 35.0809 137.635 34.9279 137.696V145.039Z" fill="black"/>
<path d="M34.0713 143.448L34.5302 144.305V137.941C34.3772 138.063 34.2243 138.186 34.0713 138.308V143.448Z" fill="black"/>
<path d="M33.2142 141.735C33.306 142.01 33.4284 142.285 33.5814 142.53L33.6426 142.653V138.798C33.459 139.073 33.306 139.379 33.2142 139.685V141.704V141.735Z" fill="black"/>
<path d="M36.6721 147.272L37.1922 146.293V137.482C37.0392 137.451 36.8556 137.421 36.6721 137.39V147.272Z" fill="black"/>
<path d="M37.5593 145.59L38.0488 144.641V137.788C37.8959 137.696 37.7123 137.604 37.5593 137.543V145.559V145.59Z" fill="black"/>
<path d="M38.4774 143.907L38.9057 143.081V138.492C38.9057 138.492 38.6303 138.186 38.4774 138.063V143.876V143.907Z" fill="black"/>
<path d="M39.3335 142.285L39.4865 142.01C39.6394 141.612 39.7312 141.184 39.7312 140.725C39.7312 140.144 39.5783 139.593 39.3335 139.134V142.285Z" fill="black"/>
<path d="M77.5463 131.394C77.118 132.403 76.9038 133.535 76.9038 134.698C76.9038 139.471 80.7587 143.356 85.5009 143.356C90.2431 143.356 94.0981 139.501 94.0981 134.698C94.0981 132.984 93.6086 131.424 92.7519 130.078L85.4703 116.586L77.5157 131.394H77.5463Z" fill="#F50032"/>
<path d="M85.5013 115.637L93.15 129.833C94.0679 131.271 94.5574 132.954 94.5574 134.698C94.5574 139.715 90.4883 143.784 85.5013 143.784C80.5144 143.784 76.4453 139.715 76.4453 134.698C76.4453 133.505 76.6594 132.342 77.1184 131.241L85.4401 115.668L85.5013 115.637ZM85.5013 142.897C89.9988 142.897 93.6701 139.226 93.6701 134.698C93.6701 133.137 93.2418 131.608 92.4158 130.292L85.5319 117.503L77.975 131.577C77.5773 132.556 77.3631 133.627 77.3631 134.698C77.3631 139.226 81.0345 142.897 85.5319 142.897H85.5013Z" fill="black"/>
<path d="M77.5463 131.394C77.118 132.403 76.9038 133.535 76.9038 134.698C76.9038 139.471 80.7587 143.356 85.5009 143.356C90.2431 143.356 94.0981 139.501 94.0981 134.698C94.0981 132.985 93.6086 131.424 92.7519 130.078C92.7519 130.078 92.5683 138.4 85.4703 138.583C85.4703 138.583 77.6687 138.583 78.5559 129.436L77.5157 131.394H77.5463Z" fill="white"/>
<path d="M79.2292 127.294L79.0151 129.466C78.7397 132.281 79.2904 134.484 80.6366 135.983C82.5335 138.094 85.44 138.125 85.4706 138.125C92.0484 137.941 92.2932 130.384 92.2932 130.047V128.61L93.0887 129.833C94.0065 131.271 94.496 132.985 94.496 134.698C94.496 139.715 90.4269 143.785 85.44 143.785C80.453 143.785 76.3839 139.715 76.3839 134.698C76.3839 133.505 76.5981 132.342 77.057 131.241L79.1374 127.325L79.2292 127.294ZM85.5012 139.012C85.3482 139.012 82.1663 138.981 79.9941 136.564C78.8009 135.249 78.1584 133.474 78.0666 131.271L77.9137 131.547C77.5159 132.526 77.3018 133.596 77.3018 134.667C77.3018 139.195 80.9731 142.867 85.4706 142.867C89.968 142.867 93.6394 139.195 93.6394 134.667C93.6394 133.566 93.4252 132.495 92.9969 131.485C92.5686 133.994 90.9776 138.828 85.4706 138.981L85.5012 139.012Z" fill="black"/>
<path d="M80.5757 125.734C80.3003 126.376 80.1779 127.049 80.1779 127.783C80.1779 130.751 82.5643 133.138 85.5014 133.138C88.4385 133.138 90.8249 130.751 90.8249 127.783C90.8249 126.743 90.519 125.764 89.9989 124.908L85.5014 116.555L80.5757 125.734Z" fill="#F50032"/>
<path d="M85.5015 115.882L90.3049 124.755C90.8862 125.672 91.1616 126.713 91.1616 127.783C91.1616 130.935 88.6222 133.474 85.5015 133.474C82.3809 133.474 79.8415 130.935 79.8415 127.783C79.8415 127.049 79.9945 126.315 80.2698 125.611L85.4709 115.882H85.5015ZM85.5015 132.801C88.2551 132.801 90.4885 130.537 90.4885 127.783C90.4885 126.835 90.2131 125.887 89.7236 125.091L85.5015 117.259L80.8817 125.887C80.637 126.498 80.5146 127.141 80.5146 127.783C80.5146 130.568 82.748 132.801 85.5015 132.801Z" fill="black"/>
<path d="M82.4108 126.07C82.2578 126.468 82.166 126.896 82.166 127.355C82.166 129.221 83.6652 130.721 85.5008 130.721C87.3365 130.721 88.8357 129.221 88.8357 127.355C88.8357 126.682 88.6521 126.07 88.3156 125.55L85.5008 120.318L82.4108 126.07Z" fill="#F50032"/>
<path d="M85.5013 119.89L88.4996 125.458C88.8668 126.009 89.0503 126.682 89.0503 127.355C89.0503 129.313 87.4594 130.935 85.5013 130.935C83.5433 130.935 81.9523 129.344 81.9523 127.355C81.9523 126.896 82.0441 126.437 82.2277 125.978L85.5013 119.859V119.89ZM85.5013 130.506C87.2452 130.506 88.6526 129.099 88.6526 127.355C88.6526 126.743 88.4996 126.162 88.1631 125.672L85.5013 120.747L82.5948 126.162C82.4419 126.529 82.3807 126.927 82.3807 127.355C82.3807 129.099 83.788 130.506 85.5319 130.506H85.5013Z" fill="black"/>
<path d="M85.5014 115.79L91.7734 127.447C92.5382 128.64 92.936 130.017 92.936 131.424C92.936 135.524 89.6011 138.889 85.5014 138.889C81.4017 138.889 78.0669 135.524 78.0669 131.424C78.0669 130.445 78.2505 129.466 78.6176 128.579L85.4708 115.79H85.5014ZM85.5014 138.186C89.2034 138.186 92.2017 135.157 92.2017 131.455C92.2017 130.17 91.8345 128.915 91.1615 127.845L85.5014 117.32L79.2907 128.885C78.9541 129.711 78.8012 130.568 78.8012 131.455C78.8012 135.157 81.7995 138.186 85.532 138.186H85.5014Z" fill="black"/>
<path d="M92.4464 133.076L91.9263 134.147L92.7218 139.379C92.936 139.042 93.1195 138.706 93.3031 138.369L92.4464 133.076Z" fill="black"/>
<path d="M90.7941 141.49C91.0388 141.306 91.253 141.123 91.4671 140.909L90.947 136.228L90.2433 136.533L90.7941 141.49Z" fill="black"/>
<path d="M88.9887 137.451L88.285 138.002L88.6522 142.744C88.8969 142.653 89.1111 142.561 89.3559 142.438L89.0193 137.451H88.9887Z" fill="black"/>
<path d="M86.9083 138.277L86.2047 138.4L86.327 143.325C86.5718 143.325 86.8165 143.264 87.0307 143.234L86.9083 138.308V138.277Z" fill="black"/>
<path d="M83.9713 143.203C84.2161 143.234 84.4302 143.295 84.675 143.295L84.7974 138.522L84.0937 138.277L83.9713 143.203Z" fill="black"/>
<path d="M81.677 142.438C81.9218 142.561 82.1359 142.653 82.3807 142.744L82.7172 137.819L82.0135 137.451L81.677 142.438Z" fill="black"/>
<path d="M80.7593 136.503L80.0862 136.044L79.5355 140.939C79.7497 141.153 79.9638 141.337 80.178 141.52L80.7593 136.533V136.503Z" fill="black"/>
<path d="M78.5863 132.923L77.699 138.369C77.852 138.736 78.0662 139.073 78.2803 139.379L79.0452 134.117L78.5863 132.923Z" fill="black"/>
<path d="M86.1129 121.45L85.5622 120.441V130.69C85.7458 130.69 85.9293 130.69 86.1129 130.629V121.42V121.45Z" fill="black"/>
<path d="M86.9697 123.041L86.4802 122.123V130.567C86.6332 130.506 86.8168 130.445 86.9697 130.384V123.041Z" fill="black"/>
<path d="M87.8269 124.632L87.368 123.775V130.139C87.521 130.017 87.6739 129.894 87.8269 129.772V124.632Z" fill="black"/>
<path d="M88.6836 126.345C88.5918 126.07 88.4694 125.795 88.3165 125.55L88.2553 125.427V129.252C88.4388 128.976 88.5918 128.671 88.6836 128.365V126.345Z" fill="black"/>
<path d="M85.2257 120.808L84.7056 121.787V130.598C84.8892 130.629 85.0421 130.659 85.2257 130.69V120.808Z" fill="black"/>
<path d="M84.3385 122.49L83.849 123.408V130.262C84.002 130.353 84.1855 130.445 84.3385 130.506V122.49Z" fill="black"/>
<path d="M83.4205 124.173L82.9922 124.999V129.589C83.1145 129.742 83.2675 129.895 83.4205 130.017V124.204V124.173Z" fill="black"/>
<path d="M82.5638 125.795L82.4108 126.07C82.2578 126.468 82.166 126.896 82.166 127.355C82.166 127.936 82.319 128.487 82.5638 128.946V125.795Z" fill="black"/>
<path d="M107.529 76.3843H101.594V88.4692H107.529V76.3843Z" fill="#FFCE57"/>
<path d="M107.284 76.6595V88.2549H101.839V76.6595H107.284ZM107.774 76.1394H101.349V88.7139H107.774V76.1394Z" fill="black"/>
<path d="M101.074 76.9654C101.074 76.9654 100.982 76.4759 101.992 76.2006C101.992 76.2006 109.335 75.1603 110.038 76.9654C110.038 76.9654 110.62 78.128 105.571 78.0668C105.571 78.0668 101.411 78.0668 101.074 76.9654Z" fill="white"/>
<path d="M106 78.3423H105.541C104.807 78.3423 101.166 78.2811 100.799 77.0573C100.799 76.9656 100.677 76.2925 101.9 75.9253C101.962 75.9253 104.073 75.6194 106.153 75.6194C108.601 75.6194 109.947 76.0171 110.283 76.8738C110.345 76.9656 110.375 77.2103 110.222 77.4245C109.825 78.067 108.448 78.3423 106 78.3423ZM101.35 76.9044C101.595 77.4551 103.706 77.7916 105.572 77.7916H106C108.998 77.7916 109.61 77.3021 109.733 77.1491C109.763 77.0879 109.763 77.0573 109.763 77.0573C109.549 76.476 108.234 76.1701 106.153 76.1701C104.073 76.1701 102.023 76.476 102.023 76.476C101.503 76.629 101.35 76.8432 101.35 76.9044Z" fill="black"/>
<path d="M101.228 79.107C101.228 79.107 101.136 78.6175 102.145 78.3422C102.145 78.3422 109.488 77.3019 110.192 79.107C110.192 79.107 110.773 80.2696 105.725 80.2084C105.725 80.2084 101.595 80.2084 101.258 79.107H101.228Z" fill="white"/>
<path d="M106.153 80.4839H105.694C104.959 80.4839 101.319 80.4227 100.952 79.1989C100.952 79.1072 100.829 78.4035 102.053 78.0669C102.114 78.0669 104.225 77.761 106.306 77.761C108.753 77.761 110.099 78.1587 110.436 79.0154C110.497 79.1072 110.528 79.3519 110.375 79.5661C110.008 80.178 108.6 80.4839 106.153 80.4839ZM101.502 79.0766C101.747 79.6273 103.858 79.9638 105.724 79.9638H106.153C109.151 79.9638 109.763 79.4743 109.885 79.3519C109.946 79.2907 109.916 79.2601 109.916 79.2601C109.702 78.7094 108.386 78.3729 106.306 78.3729C104.225 78.3729 102.206 78.6788 102.175 78.6788C101.655 78.8318 101.502 79.046 101.502 79.1072V79.0766Z" fill="black"/>
<path d="M101.349 81.2794C101.349 81.2794 101.257 80.7899 102.267 80.5145C102.267 80.5145 109.609 79.4743 110.313 81.2794C110.313 81.2794 110.894 82.442 105.846 82.3808C105.846 82.3808 101.716 82.3808 101.379 81.2794H101.349Z" fill="white"/>
<path d="M106.305 82.656H105.847C105.143 82.656 101.471 82.5948 101.104 81.3711C101.104 81.2793 100.982 80.5756 102.206 80.2391C102.267 80.2391 104.378 79.9331 106.458 79.9331C108.906 79.9331 110.283 80.3308 110.589 81.1875C110.65 81.2793 110.681 81.524 110.528 81.7382C110.13 82.3501 108.753 82.656 106.305 82.656ZM101.624 81.2487C101.869 81.7994 103.98 82.1053 105.847 82.1053C106 82.1053 106.152 82.1053 106.305 82.1053C109.487 82.1053 109.977 81.5546 110.038 81.4628C110.038 81.4628 110.038 81.4628 110.038 81.4322C109.824 80.8509 108.478 80.5144 106.428 80.5144C104.378 80.5144 102.298 80.8204 102.298 80.8204C101.777 80.9733 101.624 81.1569 101.624 81.2487Z" fill="black"/>
<path d="M102.145 77.302C102.145 77.302 101.961 76.8125 102.145 76.5983C102.145 76.5983 102.909 76.17 103.246 76.5983C103.246 76.5983 103.644 77.0572 103.246 77.5162C103.246 77.5162 103.001 77.6997 102.145 77.302Z" fill="white"/>
<path d="M103.032 77.6692C102.788 77.6692 102.482 77.5774 102.084 77.3938H102.053V77.3326C102.053 77.2714 101.839 76.7513 102.053 76.476C102.053 76.476 102.42 76.2312 102.788 76.2312C103.002 76.2312 103.185 76.323 103.308 76.476C103.461 76.6595 103.675 77.1184 103.308 77.5468C103.277 77.5774 103.185 77.6386 103.002 77.6386L103.032 77.6692ZM102.237 77.1796C102.849 77.455 103.093 77.3938 103.155 77.3938C103.461 77.0267 103.155 76.6901 103.155 76.6595C103.093 76.5677 102.971 76.5066 102.818 76.5066C102.573 76.5066 102.298 76.6289 102.237 76.6595C102.176 76.7819 102.237 77.0267 102.237 77.1796Z" fill="black"/>
<path d="M102.145 79.4744C102.145 79.4744 101.961 78.9849 102.145 78.7707C102.145 78.7707 102.909 78.3424 103.246 78.7707C103.246 78.7707 103.644 79.2296 103.246 79.6885C103.246 79.6885 103.001 79.8721 102.145 79.4744Z" fill="white"/>
<path d="M103.032 79.8414C102.788 79.8414 102.482 79.7497 102.084 79.5661H102.053V79.5049C102.053 79.4437 101.839 78.9236 102.053 78.6788C102.053 78.6788 102.42 78.4341 102.788 78.4341C103.002 78.4341 103.185 78.5259 103.308 78.6788C103.461 78.8624 103.675 79.3519 103.308 79.7803C103.277 79.7803 103.185 79.8414 103.002 79.8414H103.032ZM102.237 79.3519C102.849 79.6273 103.093 79.5661 103.155 79.5661C103.461 79.199 103.155 78.8318 103.155 78.8318C103.093 78.74 102.971 78.6788 102.818 78.6788C102.573 78.6788 102.298 78.8012 102.237 78.8318C102.176 78.9542 102.237 79.199 102.237 79.3519Z" fill="black"/>
<path d="M102.298 81.4629C102.298 81.4629 102.114 80.9734 102.298 80.7592C102.298 80.7592 103.063 80.3309 103.369 80.7592C103.369 80.7592 103.766 81.2181 103.369 81.6771C103.369 81.6771 103.124 81.8606 102.298 81.4629Z" fill="white"/>
<path d="M103.185 81.83C102.94 81.83 102.634 81.7383 102.236 81.5547H102.175V81.4935C102.175 81.4323 101.961 80.9122 102.175 80.6368C102.175 80.6368 102.542 80.3921 102.91 80.3921C103.124 80.3921 103.307 80.4839 103.43 80.6368C103.583 80.8204 103.797 81.2793 103.43 81.7077C103.399 81.7383 103.307 81.7994 103.124 81.7994L103.185 81.83ZM102.389 81.3711C103.001 81.6465 103.246 81.5853 103.307 81.5853C103.583 81.2487 103.307 80.8816 103.307 80.851C103.216 80.7592 103.124 80.698 102.971 80.698C102.726 80.698 102.451 80.8204 102.389 80.851C102.298 80.9734 102.389 81.2181 102.389 81.3711Z" fill="black"/>
<path d="M108.845 84.2777C107.07 84.9202 103.613 84.0636 103.613 84.0636C102.206 83.1151 103.552 82.3808 103.552 82.3808C103.552 82.3808 109.916 82.0137 110.558 83.3905C110.558 83.3905 111.292 85.1344 107.499 85.7769L107.315 84.6755L108.845 84.3083V84.2777Z" fill="white"/>
<path d="M107.285 86.0827L107.071 84.7977C105.388 84.7977 103.645 84.3694 103.583 84.3388H103.492C102.971 83.9411 102.696 83.5433 102.727 83.1456C102.727 82.5337 103.369 82.1666 103.461 82.136H103.522L103.583 82.1054C103.583 82.1054 104.379 82.0442 105.45 82.0442C110.314 82.0442 110.712 82.962 110.865 83.2374C110.865 83.2374 111.11 83.8187 110.743 84.4306C110.314 85.1955 109.274 85.7156 107.591 85.9909L107.316 86.0521L107.285 86.0827ZM107.652 84.8895L107.744 85.4402C109.396 85.1343 110.008 84.5836 110.222 84.2164C110.437 83.8493 110.314 83.5127 110.314 83.5127C110.131 83.115 108.723 82.6561 105.419 82.6561C104.562 82.6561 103.889 82.6867 103.675 82.7173C103.553 82.8091 103.308 83.0232 103.277 83.2374C103.277 83.4821 103.522 83.6963 103.767 83.8799C104.073 83.9411 105.664 84.3082 107.163 84.3082C107.561 84.3082 107.928 84.3082 108.234 84.2164L108.815 84.0635L108.968 84.5836C108.784 84.6448 108.57 84.7059 108.326 84.7365L107.652 84.8895Z" fill="black"/>
<path d="M103.736 83.5127C103.736 83.5127 103.552 83.0232 103.736 82.809C103.736 82.809 104.501 82.3807 104.837 82.809C104.837 82.809 105.235 83.2679 104.837 83.7269C104.837 83.7269 104.592 83.9104 103.736 83.5127Z" fill="white"/>
<path d="M104.593 83.8798C104.348 83.8798 104.042 83.788 103.644 83.6044H103.583V83.5432C103.583 83.482 103.369 82.9619 103.583 82.6866C103.583 82.6866 103.95 82.4724 104.317 82.4724C104.531 82.4724 104.715 82.5642 104.837 82.7172C104.99 82.9007 105.205 83.3903 104.837 83.788C104.807 83.8186 104.715 83.8798 104.531 83.8798H104.593ZM103.828 83.4208C104.409 83.6962 104.684 83.635 104.715 83.635C105.021 83.2679 104.715 82.9313 104.715 82.9007C104.623 82.809 104.531 82.7478 104.378 82.7478C104.134 82.7478 103.889 82.8701 103.797 82.9007C103.705 83.0231 103.797 83.2679 103.797 83.4208H103.828Z" fill="black"/>
<path d="M109.273 87.6431C109.273 88.6221 107.193 89.387 104.653 89.387C102.114 89.387 100.034 88.5915 100.034 87.6431C100.034 86.6946 102.114 85.8992 104.653 85.8992C107.193 85.8992 109.273 86.6946 109.273 87.6431Z" fill="#FFCE57"/>
<path d="M104.653 89.6009C101.961 89.6009 99.8195 88.7443 99.8195 87.6429C99.8195 86.5415 101.931 85.6848 104.653 85.6848C107.376 85.6848 109.487 86.5415 109.487 87.6429C109.487 88.7443 107.376 89.6009 104.653 89.6009ZM104.653 86.1131C102.053 86.1131 100.217 86.9392 100.217 87.6735C100.217 88.4077 102.022 89.2338 104.653 89.2338C107.285 89.2338 109.059 88.4077 109.059 87.6735C109.059 86.9392 107.254 86.1131 104.653 86.1131Z" fill="black"/>
<path d="M109.365 88.4385C109.365 89.4175 107.254 90.1824 104.623 90.1824C101.992 90.1824 99.8806 89.3869 99.8806 88.4385C99.8806 87.49 101.992 86.6946 104.623 86.6946C107.254 86.6946 109.365 87.49 109.365 88.4385Z" fill="#FFCE57"/>
<path d="M104.623 90.4271C101.809 90.4271 99.6976 89.5705 99.6976 88.4691C99.6976 87.2453 102.206 86.511 104.623 86.511C107.04 86.511 109.549 87.2453 109.549 88.4691C109.549 89.6011 107.438 90.4271 104.623 90.4271ZM104.623 86.9087C101.962 86.9087 100.095 87.7348 100.095 88.4691C100.095 89.2033 101.962 90.0294 104.623 90.0294C107.285 90.0294 109.151 89.2033 109.151 88.4691C109.151 87.7348 107.285 86.9087 104.623 86.9087Z" fill="black"/>
<path d="M101.349 85.4096C101.349 85.4096 98.9625 85.1343 99.0237 83.2068C99.0237 83.2068 95.9336 78.8318 99.2073 76.9655C102.481 75.0992 103.98 77.5162 104.99 80.1779C104.99 80.1779 103.796 81.8912 101.227 78.4646" fill="white"/>
<path d="M101.319 85.6545C100.432 85.5627 98.7796 84.9202 98.7796 83.2681C98.5043 82.8703 97.1275 80.6675 97.5558 78.74C97.7394 77.8834 98.2595 77.2103 99.0856 76.7514C100.279 76.0783 101.35 75.8947 102.267 76.2313C103.767 76.782 104.623 78.5871 105.205 80.0862V80.2086V80.3004C105.205 80.3004 104.837 80.8205 104.134 80.8511C103.216 80.8511 102.176 80.1168 101.044 78.6177L101.441 78.3117C102.726 80.025 103.614 80.3616 104.134 80.3616C104.44 80.3616 104.654 80.2086 104.746 80.1168C104.195 78.74 103.43 77.1491 102.145 76.6902C101.35 76.4148 100.462 76.5678 99.3609 77.1797C98.6572 77.5774 98.1983 78.1281 98.0453 78.8624C97.617 80.7287 99.2385 83.0233 99.2385 83.0539L99.2997 83.1151V83.2069C99.2385 84.8896 101.319 85.1343 101.411 85.1649L101.35 85.6545H101.319Z" fill="black"/>
<path d="M104.103 78.281L103.338 78.8929C103.338 78.8929 103.552 80.0861 104.562 79.5048L104.103 78.281Z" fill="white"/>
<path d="M104.072 79.78C103.399 79.78 103.216 78.9234 103.216 78.8928V78.8316L104.164 78.0361L104.715 79.5353L104.623 79.5965C104.409 79.7188 104.256 79.7494 104.072 79.7494V79.78ZM103.491 78.954C103.552 79.1375 103.705 79.5659 104.072 79.5659C104.072 79.5659 104.287 79.5659 104.409 79.4741L104.042 78.4951L103.491 78.954Z" fill="black"/>
<path d="M53.2848 66.502C53.2848 66.502 53.0094 66.4102 52.9483 66.2879L52.6117 65.37C52.5505 65.1864 52.6423 65.0029 52.8259 64.9417C53.0094 64.8805 53.193 64.9417 53.2542 65.1558L53.5907 66.0737C53.6519 66.2573 53.5907 66.4408 53.3766 66.502C53.346 66.502 53.2848 66.502 53.2542 66.502H53.2848Z" fill="black"/>
<path d="M48.1141 65.7066L47.7775 64.8805C47.7775 64.8805 49.399 64.6052 50.1639 65.37C50.1639 65.37 51.143 65.7372 53.1622 65.7066C53.1622 65.7066 51.1124 66.5938 49.2155 65.829C49.2155 65.829 48.42 65.676 48.1447 65.7066H48.1141Z" fill="black"/>
<path d="M50.3171 53.1627C53.7743 56.5587 57.048 53.1627 57.048 53.1627C53.5907 49.7666 50.3171 53.1627 50.3171 53.1627Z" fill="white"/>
<path d="M53.5907 54.8455C52.3975 54.8455 51.2349 54.3254 50.1946 53.2851L50.0723 53.1628L50.1946 53.0404C50.1946 53.0404 51.7244 51.4495 53.8048 51.4495C54.998 51.4495 56.1606 51.9696 57.2008 53.0098L57.3232 53.1322L57.2008 53.2851C57.2008 53.2851 55.6711 54.8761 53.5907 54.8761V54.8455ZM50.5924 53.1628C51.5408 54.0194 52.5504 54.4783 53.5907 54.4783C55.151 54.4783 56.3748 53.4993 56.7725 53.1322C55.8241 52.2755 54.845 51.8166 53.8048 51.8166C52.2445 51.8166 51.0207 52.7956 50.623 53.1628H50.5924Z" fill="black"/>
<path d="M55.1207 53.1321C55.1207 53.9582 54.4782 54.6007 53.6828 54.6007C52.8873 54.6007 52.2448 53.9582 52.2142 53.1321C52.2142 52.3061 52.8567 51.6636 53.6522 51.6636C54.4477 51.6636 55.1207 52.3061 55.1207 53.1015V53.1321Z" fill="white"/>
<path d="M53.6827 54.8147C52.7648 54.8147 52.0305 54.0805 52.0305 53.1626C52.0305 52.2448 52.7648 51.5105 53.6827 51.5105C54.6005 51.5105 55.3348 52.2448 55.3348 53.1626C55.3348 53.6215 55.1512 54.0193 54.8453 54.3252C54.5393 54.6312 54.111 54.8147 53.6827 54.8147ZM53.6827 51.8776C52.979 51.8776 52.4283 52.4589 52.4283 53.1626C52.4283 53.8663 53.0096 54.417 53.6827 54.417C54.0192 54.417 54.3252 54.2946 54.5699 54.0499C54.8147 53.8051 54.9371 53.4992 54.9371 53.1626C54.9371 52.4589 54.3863 51.9082 53.6827 51.9082V51.8776Z" fill="black"/>
<path d="M54.3559 53.1627C54.3559 53.5604 54.05 53.8663 53.6522 53.8663C53.2851 53.8663 52.9791 53.5604 52.9485 53.1627C52.9485 52.7955 53.2545 52.459 53.6216 52.459C54.0194 52.459 54.3253 52.7649 54.3253 53.1627H54.3559Z" fill="black"/>
<path d="M57.5989 50.2255C57.5989 50.2255 57.5989 50.2255 57.5071 50.1949C57.4459 50.1949 57.3847 50.1337 57.2929 50.0725C57.1093 49.9808 56.8034 49.8584 56.4363 49.736C56.2527 49.6748 56.0691 49.6136 55.855 49.5524C55.6408 49.4912 55.4266 49.4301 55.2125 49.3995C54.9983 49.3383 54.7535 49.3383 54.5088 49.3077C54.264 49.3077 54.0193 49.3077 53.7745 49.3077C53.5298 49.3077 53.285 49.3077 53.0708 49.3689C52.9484 49.3689 52.8567 49.3995 52.7343 49.4301C52.6119 49.4606 52.5201 49.4912 52.3977 49.5218C52.306 49.5218 52.1836 49.583 52.0918 49.6136C52 49.6442 51.9082 49.7054 51.8164 49.736C51.7247 49.7666 51.6329 49.8278 51.5411 49.8584C51.4493 49.9196 51.3881 49.9502 51.2963 50.0114C51.1434 50.1031 50.9904 50.1643 50.8986 50.2561C50.7762 50.3479 50.6844 50.4091 50.6232 50.5009C50.4703 50.6232 50.3785 50.6844 50.3785 50.6844L50.3173 50.7456C50.0419 50.9598 49.6748 50.8986 49.4606 50.6538C49.2465 50.3785 49.3077 50.0114 49.5524 49.7972C49.5524 49.7972 49.5524 49.7972 49.6136 49.7666C49.6136 49.7666 49.736 49.6748 49.9502 49.5524C50.0725 49.4912 50.1949 49.3995 50.3173 49.3077C50.4703 49.2159 50.6538 49.1547 50.8374 49.0323C50.9292 49.0017 51.021 48.9405 51.1434 48.9099C51.2657 48.8793 51.3575 48.8488 51.4799 48.7876C51.6023 48.7876 51.7247 48.7264 51.847 48.6652C51.9694 48.6652 52.0918 48.604 52.2142 48.5734C52.3366 48.5428 52.4589 48.5122 52.6119 48.5122C52.7343 48.5122 52.8873 48.5122 53.0096 48.5122C53.285 48.5122 53.5603 48.5122 53.8357 48.5122C54.1111 48.5122 54.3864 48.5734 54.6618 48.604C54.9065 48.6652 55.1819 48.6958 55.4266 48.7876C55.6714 48.8488 55.8856 48.9405 56.0997 49.0017C56.3139 49.0935 56.528 49.1853 56.7116 49.2465C57.0787 49.3995 57.3541 49.583 57.5683 49.7054C57.66 49.7666 57.7518 49.8278 57.813 49.8584C57.8742 49.889 57.9048 49.9196 57.9048 49.9196C57.9966 49.9808 58.0272 50.1031 57.966 50.2255C57.9048 50.3173 57.7824 50.3479 57.6906 50.2867L57.5989 50.2255Z" fill="black"/>
<path d="M58.2719 52.6732C58.2719 52.6732 58.1801 52.6732 58.1495 52.6426C53.4685 49.1854 50.1337 52.5814 50.1031 52.6426C50.0419 52.7344 49.9195 52.7344 49.8277 52.6426C49.736 52.5814 49.736 52.459 49.8277 52.3672C49.8277 52.3366 53.4379 48.6653 58.3637 52.3672C58.4555 52.4284 58.4861 52.5508 58.3943 52.6426C58.3637 52.7038 58.3025 52.7344 58.2413 52.7344L58.2719 52.6732Z" fill="black"/>
<path d="M58.9757 53.9889C58.9757 53.9889 58.7616 53.9889 58.6086 53.9889H58.425L58.2415 53.9583C58.1803 53.9583 58.1191 53.9583 58.0885 53.9277C58.0273 53.9277 57.9661 53.9277 57.9049 53.8665C57.7825 53.8359 57.6907 53.7747 57.5684 53.7441C57.446 53.6829 57.3542 53.6217 57.2624 53.5912C57.14 53.53 57.0483 53.4688 56.9565 53.4076C56.8647 53.3464 56.7729 53.2546 56.6811 53.1934C56.5893 53.1016 56.5281 53.0404 56.4364 52.9181C56.4364 52.9181 56.2222 52.7345 56.0998 52.6733C55.9774 52.5815 55.8551 52.5203 55.7021 52.4591C55.5797 52.398 55.4267 52.3368 55.3044 52.3062C55.1514 52.245 55.029 52.2144 54.876 52.1838L54.6619 52.1226H54.4477C54.4477 52.1226 54.2947 52.092 54.2335 52.0614H54.0194C54.0194 52.0614 53.7134 52.0614 53.591 52.0614C53.4381 52.0614 53.3157 52.0614 53.1627 52.092L52.7344 52.1838C52.7344 52.1838 52.459 52.2756 52.3367 52.3368L52.1225 52.398C52.1225 52.398 52.0001 52.4591 51.9083 52.4897L51.5106 52.6733C51.5106 52.6733 51.2352 52.8263 51.1129 52.8875L50.7151 53.1016C50.4704 53.2852 50.2256 53.4688 49.9503 53.6217C49.9503 53.6217 49.7361 53.6523 49.6749 53.5606C49.6137 53.4688 49.6443 53.377 49.6749 53.3158C49.9197 53.1016 50.1338 52.8569 50.3786 52.6427C50.501 52.5509 50.6539 52.4591 50.7763 52.3368C50.8987 52.245 51.0517 52.1532 51.1741 52.0614L51.6024 51.8167C51.6024 51.8167 51.7554 51.7249 51.8165 51.6943L52.0613 51.6025C52.2143 51.5413 52.3673 51.4801 52.5202 51.4189L53.0097 51.2965C53.1627 51.2659 53.3463 51.2659 53.5299 51.2354C53.7134 51.2354 53.8664 51.2354 54.05 51.2354H54.2947C54.2947 51.2354 54.4477 51.2965 54.5395 51.3271L54.7842 51.3883L55.029 51.4801C55.182 51.5413 55.3655 51.6025 55.4879 51.6943C55.6409 51.7555 55.7939 51.8472 55.9162 51.939C56.0386 52.0308 56.1916 52.1226 56.314 52.245C56.4364 52.3674 56.5587 52.4591 56.6811 52.6121C56.6811 52.6121 56.8035 52.7651 56.8953 52.8569C56.9871 52.9181 57.0483 53.0098 57.14 53.071C57.293 53.1934 57.4766 53.3158 57.6602 53.4076C57.7519 53.4688 57.8437 53.4994 57.9661 53.53C58.0273 53.53 58.0579 53.53 58.1191 53.5606C58.1803 53.5606 58.2415 53.5606 58.272 53.5606H58.425H58.578C58.6698 53.5606 58.7922 53.5606 58.9145 53.5606C58.9145 53.5606 59.1287 53.6217 59.1287 53.7441C59.1287 53.8665 59.0675 53.9583 58.9451 53.9583L58.9757 53.9889Z" fill="black"/>
<path d="M51.0823 54.0194C50.7457 53.1627 50.9599 52.4591 50.9905 52.4285L51.3576 52.5508C51.3576 52.5508 51.174 53.1627 51.4494 53.8664L51.0823 54.0194Z" fill="black"/>
<path d="M52.9788 56.4059C52.9788 56.4059 52.9788 56.4059 52.9176 56.4059C51.4185 55.794 49.9193 54.1113 49.8581 54.0195C49.797 53.9583 49.8275 53.8665 49.8581 53.8359C49.9193 53.7747 50.0111 53.7747 50.0417 53.8359C50.0417 53.8359 51.5409 55.5492 52.9788 56.1305C53.04 56.1305 53.1012 56.2529 53.0706 56.3141C53.0706 56.3753 52.9788 56.4059 52.9482 56.4059H52.9788Z" fill="black"/>
<path d="M64.4826 44.4126C64.4826 44.4126 62.6164 50.3786 66.3795 55.7327C70.2956 61.3315 69.286 63.9627 69.286 63.9627C69.286 63.9627 65.8288 63.9627 65.4005 66.6856C64.9416 69.8369 66.8996 74.9156 73.2327 72.9269C73.2327 72.9269 77.2713 70.8771 75.6497 63.4731C73.9976 56.0692 67.9093 48.91 70.1427 44.4126H64.5132H64.4826Z" fill="#FFCE57"/>
<path d="M70.5714 73.6613C68.9193 73.6613 67.5425 73.0494 66.5635 71.9174C65.1867 70.3264 64.942 68.1236 65.1561 66.6856C65.5233 64.1463 68.338 63.7791 69.1028 63.7486C69.2252 63.1367 69.4394 60.5667 66.1963 55.9163C62.4026 50.501 64.2689 44.4432 64.2995 44.3821L64.3607 44.1985H70.5714L70.3878 44.5656C69.1028 47.1968 70.755 50.807 72.6824 54.9678C73.9674 57.6908 75.2524 60.5361 75.9255 63.4732C77.6082 70.9995 73.5697 73.1411 73.3861 73.2023H73.3555C72.3765 73.5389 71.4586 73.6919 70.602 73.6919L70.5714 73.6613ZM64.6666 44.6574C64.3912 45.667 63.2592 50.8987 66.5635 55.5797C70.5102 61.2398 69.5312 63.9321 69.5006 64.0545L69.4394 64.2075H69.2864C69.2864 64.2075 66.0128 64.2381 65.6456 66.7468C65.4621 68.0624 65.6762 70.0817 66.9306 71.5502C68.2768 73.1411 70.449 73.5389 73.1414 72.6822C73.4473 72.5293 76.9351 70.4488 75.4054 63.5038C74.7629 60.6279 73.4779 57.8132 72.2235 55.0902C70.3266 50.9905 68.6745 47.4109 69.7759 44.6268H64.6972L64.6666 44.6574Z" fill="black"/>
<path d="M69.2556 68.9801C69.2556 68.9801 69.2862 68.9801 69.378 68.9801C69.4392 68.9801 69.5616 69.0107 69.6839 69.0413C69.8063 69.0413 69.9899 69.1025 70.1735 69.1331C70.357 69.1331 70.5712 69.1637 70.7854 69.1331C70.9077 69.1331 70.9995 69.1331 71.1219 69.1331C71.2443 69.1025 71.3361 69.0719 71.4584 69.0413C71.6726 68.9801 71.8562 68.8272 72.0397 68.6742L72.1621 68.5212C72.1621 68.5212 72.2233 68.3988 72.2539 68.3682L72.3151 68.2765V68.2153L72.4069 67.9705C72.4069 67.9705 72.4375 67.8175 72.4681 67.7564C72.4681 67.6952 72.4987 67.634 72.5293 67.5728C72.5293 67.4504 72.5905 67.2974 72.5905 67.1445C72.5905 66.8691 72.5599 66.5938 72.4681 66.3184C72.3763 66.043 72.2233 65.8289 72.0397 65.6147C71.948 65.5229 71.8562 65.4006 71.7644 65.3394C71.642 65.2476 71.5502 65.1558 71.4584 65.0946C71.3361 65.0334 71.2443 64.9416 71.1219 64.8804C70.9995 64.8193 70.9077 64.7581 70.7854 64.7275C70.5712 64.6357 70.3876 64.5439 70.1735 64.4827C69.9899 64.4215 69.8369 64.3603 69.6839 64.3297C69.4086 64.2685 69.2556 64.2074 69.2556 64.2074C69.2556 64.2074 69.0415 64.0238 69.0721 63.9014C69.1026 63.779 69.225 63.6872 69.3474 63.7178C69.3474 63.7178 69.531 63.7178 69.8369 63.7484C69.9899 63.7484 70.1735 63.8096 70.3876 63.8402C70.6018 63.8402 70.816 63.9626 71.0913 64.0238C71.2137 64.085 71.3361 64.1156 71.489 64.1768C71.6114 64.238 71.7644 64.3297 71.8868 64.3909C72.0397 64.4521 72.1621 64.5745 72.2845 64.6663C72.4375 64.7581 72.5599 64.8804 72.6822 65.0028C72.927 65.2782 73.1412 65.5841 73.2941 65.9513C73.4471 66.3184 73.5389 66.7161 73.5083 67.1139C73.5083 67.2974 73.4777 67.5116 73.4471 67.6952C73.3859 67.8787 73.3553 68.0929 73.2941 68.2765L73.2024 68.4906V68.5518L73.1718 68.5824V68.6436L73.1106 68.766C73.1106 68.766 73.0188 68.9496 72.9576 69.0107C72.8964 69.1025 72.8352 69.1637 72.774 69.2555C72.4987 69.5309 72.1621 69.745 71.8256 69.8368C71.489 69.9592 71.1525 69.9592 70.8771 69.9286C70.6018 69.9286 70.357 69.8674 70.1123 69.8062C69.8981 69.745 69.7145 69.6838 69.5922 69.6226C69.4392 69.5614 69.3474 69.5003 69.2556 69.4697C69.1638 69.4085 69.1332 69.4085 69.1332 69.4085C69.0109 69.3473 68.9803 69.1943 69.0415 69.0719C69.1026 68.9801 69.225 68.919 69.3474 68.9496L69.2556 68.9801Z" fill="black"/>
<path d="M108.264 74.6709H100.86V44.5044L104.715 37.0393L108.264 44.5044V74.6709ZM101.564 73.9672H107.56V44.688L104.684 38.6608L101.564 44.688V73.9672Z" fill="black"/>
<path d="M104.807 37.8347H104.562V74.3037H104.807V37.8347Z" fill="black"/>
<path d="M103.706 39.7622H103.461V74.6403H103.706V39.7622Z" fill="black"/>
<path d="M105.847 40.0068H105.602V75.0073H105.847V40.0068Z" fill="black"/>
</g>
<rect x="7.25" y="31.8486" width="107" height="129" rx="5.5" stroke="#F50032"/>
</g>
</g>
<rect x="0.5" y="0.848633" width="121" height="167.25" rx="10.5" stroke="#ADADAD"/>
<defs>
<clipPath id="clip0_2070_80635">
<rect x="1" y="1.34863" width="120" height="166.25" rx="10" fill="white"/>
</clipPath>
</defs>
</svg>
