<svg width="122" height="169" viewBox="0 0 122 169" fill="none" xmlns="http://www.w3.org/2000/svg">
<g clip-path="url(#clip0_2070_80647)">
<rect x="1" y="1.34863" width="120" height="166.25" rx="10" fill="white"/>
<mask id="mask0_2070_80647" style="mask-type:alpha" maskUnits="userSpaceOnUse" x="1" y="1" width="120" height="167">
<rect x="1" y="1.34863" width="120" height="166.25" fill="#D9D9D9"/>
</mask>
<g mask="url(#mask0_2070_80647)">
<path d="M16.936 22.3486L16.054 19.5406H11.176L10.24 22.3486H7.09L11.428 9.74863H16.306L20.536 22.3486H16.936ZM11.914 17.3266H15.352L13.696 12.0166L11.914 17.3266Z" fill="#F50032"/>
<path d="M110.175 9.91611C108.764 9.90995 107.504 10.5633 106.68 11.5837C105.868 10.5534 104.615 9.88923 103.203 9.88306C100.743 9.87098 98.7388 11.8566 98.726 14.3196C98.7146 16.4987 104.906 21.8544 106.334 23.0603C106.505 23.2048 106.746 23.2059 106.919 23.063C108.358 21.8706 114.6 16.5729 114.611 14.3964C114.623 11.9363 112.638 9.92898 110.175 9.91611Z" fill="#F50032"/>
<path fill-rule="evenodd" clip-rule="evenodd" d="M88.3098 90.4534C90.1553 87.9177 91.244 84.7958 91.244 81.4197C91.244 72.9324 84.3638 66.0522 75.8765 66.0522C68.9713 66.0522 63.1298 70.6065 61.192 76.8753C59.2542 70.6065 53.4127 66.0522 46.5075 66.0522C38.0202 66.0522 31.14 72.9324 31.14 81.4197C31.14 84.7954 32.2284 87.917 34.0735 90.4525C34.5293 91.1567 35.0378 91.8307 35.5967 92.4682L58.9361 119.09C60.1312 120.453 62.2528 120.453 63.4478 119.09L86.7872 92.4682C87.3459 91.831 87.8542 91.1573 88.3098 90.4534Z" fill="#F50032"/>
<path d="M88.3098 90.4534L85.1616 88.4158L85.2174 88.3296L85.2778 88.2466L88.3098 90.4534ZM61.192 76.8753L64.7747 77.9828L61.192 89.5731L57.6093 77.9828L61.192 76.8753ZM34.0735 90.4525L37.1057 88.2459L37.166 88.3289L37.2218 88.4151L34.0735 90.4525ZM35.5967 92.4682L38.4165 89.9961L38.4165 89.9961L35.5967 92.4682ZM58.9361 119.09L56.1164 121.562V121.562L58.9361 119.09ZM63.4478 119.09L66.2675 121.562V121.562L63.4478 119.09ZM86.7872 92.4682L89.607 94.9403L89.607 94.9403L86.7872 92.4682ZM85.2778 88.2466C86.6724 86.3306 87.494 83.9766 87.494 81.4197H94.994C94.994 85.6151 93.6382 89.5048 91.3418 92.6601L85.2778 88.2466ZM87.494 81.4197C87.494 75.0035 82.2927 69.8022 75.8765 69.8022V62.3022C86.4348 62.3022 94.994 70.8614 94.994 81.4197H87.494ZM75.8765 69.8022C70.6619 69.8022 66.2406 73.2406 64.7747 77.9828L57.6093 75.7678C60.0189 67.9725 67.2806 62.3022 75.8765 62.3022V69.8022ZM57.6093 77.9828C56.1434 73.2406 51.7221 69.8022 46.5075 69.8022V62.3022C55.1034 62.3022 62.3651 67.9725 64.7747 75.7678L57.6093 77.9828ZM46.5075 69.8022C40.0913 69.8022 34.89 75.0035 34.89 81.4197H27.39C27.39 70.8614 35.9492 62.3022 46.5075 62.3022V69.8022ZM34.89 81.4197C34.89 83.9763 35.7114 86.33 37.1057 88.2459L31.0414 92.659C28.7454 89.5039 27.39 85.6146 27.39 81.4197H34.89ZM37.2218 88.4151C37.5792 88.9674 37.978 89.496 38.4165 89.9961L32.7769 94.9403C32.0976 94.1654 31.4794 93.3461 30.9253 92.4898L37.2218 88.4151ZM38.4165 89.9961L61.7559 116.618L56.1164 121.562L32.7769 94.9403L38.4165 89.9961ZM61.7559 116.618C61.4572 116.277 60.9268 116.277 60.628 116.618L66.2675 121.562C63.5787 124.629 58.8052 124.629 56.1164 121.562L61.7559 116.618ZM60.628 116.618L83.9674 89.9961L89.607 94.9403L66.2675 121.562L60.628 116.618ZM83.9674 89.9961C84.4057 89.4962 84.8044 88.9678 85.1616 88.4158L91.4579 92.4909C90.904 93.3468 90.286 94.1658 89.607 94.9403L83.9674 89.9961Z" fill="#F50032"/>
<path fill-rule="evenodd" clip-rule="evenodd" d="M88.3098 90.4534C90.1553 87.9177 91.244 84.7958 91.244 81.4197C91.244 72.9324 84.3638 66.0522 75.8765 66.0522C68.9713 66.0522 63.1298 70.6065 61.192 76.8753C59.2542 70.6065 53.4127 66.0522 46.5075 66.0522C38.0202 66.0522 31.14 72.9324 31.14 81.4197C31.14 84.7954 32.2284 87.917 34.0735 90.4525C34.5293 91.1567 35.0378 91.8307 35.5967 92.4682L58.9361 119.09C60.1312 120.453 62.2528 120.453 63.4478 119.09L86.7872 92.4682C87.3459 91.831 87.8542 91.1573 88.3098 90.4534Z" fill="#F50032"/>
<path d="M88.3098 90.4534L86.4209 89.2308L86.4544 89.1791L86.4906 89.1293L88.3098 90.4534ZM61.192 76.8753L63.3416 77.5398L61.192 84.494L59.0424 77.5398L61.192 76.8753ZM34.0735 90.4525L35.8928 89.1285L35.929 89.1783L35.9625 89.23L34.0735 90.4525ZM35.5967 92.4682L37.2886 90.9849L37.2886 90.9849L35.5967 92.4682ZM58.9361 119.09L57.2443 120.573L57.2443 120.573L58.9361 119.09ZM63.4478 119.09L65.1396 120.573V120.573L63.4478 119.09ZM86.7872 92.4682L88.4791 93.9515H88.4791L86.7872 92.4682ZM86.4906 89.1293C88.0656 86.9654 88.994 84.3043 88.994 81.4197H93.494C93.494 85.2874 92.2451 88.87 90.129 91.7774L86.4906 89.1293ZM88.994 81.4197C88.994 74.1751 83.1211 68.3022 75.8765 68.3022V63.8022C85.6064 63.8022 93.494 71.6898 93.494 81.4197H88.994ZM75.8765 68.3022C69.9857 68.3022 64.9963 72.187 63.3416 77.5398L59.0424 76.2108C61.2632 69.0261 67.9569 63.8022 75.8765 63.8022V68.3022ZM59.0424 77.5398C57.3877 72.187 52.3983 68.3022 46.5075 68.3022V63.8022C54.4271 63.8022 61.1207 69.0261 63.3416 76.2108L59.0424 77.5398ZM46.5075 68.3022C39.2629 68.3022 33.39 74.1751 33.39 81.4197H28.89C28.89 71.6898 36.7776 63.8022 46.5075 63.8022V68.3022ZM33.39 81.4197C33.39 84.3039 34.3182 86.9648 35.8928 89.1285L32.2543 91.7764C30.1386 88.8691 28.89 85.2869 28.89 81.4197H33.39ZM35.9625 89.23C36.3592 89.8431 36.8019 90.4299 37.2886 90.9849L33.9048 93.9515C33.2737 93.2315 32.6993 92.4703 32.1846 91.6749L35.9625 89.23ZM37.2886 90.9849L60.628 117.606L57.2443 120.573L33.9048 93.9515L37.2886 90.9849ZM60.628 117.606C60.9268 117.947 61.4572 117.947 61.7559 117.606L65.1396 120.573C63.0483 122.958 59.3356 122.958 57.2443 120.573L60.628 117.606ZM61.7559 117.606L85.0953 90.9849L88.4791 93.9515L65.1396 120.573L61.7559 117.606ZM85.0953 90.9849C85.5818 90.4301 86.0243 89.8436 86.4209 89.2308L90.1987 91.6759C89.6841 92.471 89.11 93.2319 88.4791 93.9515L85.0953 90.9849Z" fill="white"/>
<path fill-rule="evenodd" clip-rule="evenodd" d="M88.3097 90.4236C90.1552 87.8879 91.244 84.7661 91.244 81.3899C91.244 72.9026 84.3637 66.0224 75.8764 66.0224C68.9712 66.0224 63.1297 70.5768 61.1919 76.8455C59.2542 70.5768 53.4127 66.0224 46.5074 66.0224C38.0202 66.0224 31.1399 72.9026 31.1399 81.3899C31.1399 84.7656 32.2284 87.8872 34.0735 90.4227C34.5292 91.1269 35.0377 91.8009 35.5966 92.4384L58.9361 119.06C60.1311 120.423 62.2527 120.423 63.4477 119.06L86.7871 92.4384C87.3458 91.8012 87.8541 91.1275 88.3097 90.4236Z" fill="#F50032"/>
</g>
</g>
<rect x="0.5" y="0.848633" width="121" height="167.25" rx="10.5" stroke="#ADADAD"/>
<defs>
<clipPath id="clip0_2070_80647">
<rect x="1" y="1.34863" width="120" height="166.25" rx="10" fill="white"/>
</clipPath>
</defs>
</svg>
