<svg width="122" height="169" viewBox="0 0 122 169" fill="none" xmlns="http://www.w3.org/2000/svg">
<g clip-path="url(#clip0_2070_80615)">
<rect x="1" y="1.69727" width="120" height="166.25" rx="10" fill="white"/>
<mask id="mask0_2070_80615" style="mask-type:alpha" maskUnits="userSpaceOnUse" x="1" y="1" width="120" height="167">
<rect x="1" y="1.69727" width="120" height="166.25" fill="#D9D9D9"/>
</mask>
<g mask="url(#mask0_2070_80615)">
<path d="M13.48 22.9853C9.466 22.9853 7.666 21.1853 7.486 18.8273H11.356C11.464 20.0693 12.184 20.7893 13.48 20.7893C14.758 20.7893 15.424 20.1053 15.424 19.0973C15.424 18.0533 14.758 17.3693 13.372 17.3693H11.662V15.1733H13.372C14.668 15.1733 15.352 14.4713 15.352 13.5713C15.352 12.6713 14.686 11.9873 13.372 11.9873C12.058 11.9873 11.446 12.5993 11.32 13.6073H7.684C7.864 11.4653 9.502 9.82727 13.372 9.82727C17.206 9.82727 18.808 11.4293 18.808 13.3913C18.808 14.9213 17.764 15.9833 16.18 16.1993V16.2353C18.052 16.3613 19.204 17.5133 19.204 19.1873C19.204 21.2573 17.494 22.9853 13.48 22.9853Z" fill="#F50032"/>
<path d="M110.175 10.2648C108.764 10.2587 107.504 10.9121 106.68 11.9324C105.868 10.9021 104.615 10.2379 103.203 10.2318C100.743 10.2197 98.7388 12.2053 98.726 14.6683C98.7146 16.8474 104.906 22.2032 106.334 23.409C106.505 23.5535 106.746 23.5547 106.919 23.4117C108.358 22.2193 114.6 16.9216 114.611 14.7451C114.623 12.285 112.638 10.2777 110.175 10.2648Z" fill="#F50032"/>
<path fill-rule="evenodd" clip-rule="evenodd" d="M88.3098 90.7722C90.1553 88.2365 91.244 85.1146 91.244 81.7385C91.244 73.2512 84.3638 66.3709 75.8765 66.3709C68.9713 66.3709 63.1298 70.9253 61.192 77.1941C59.2542 70.9253 53.4127 66.3709 46.5075 66.3709C38.0202 66.3709 31.14 73.2512 31.14 81.7385C31.14 85.1142 32.2284 88.2357 34.0735 90.7712C34.5293 91.4755 35.0378 92.1495 35.5967 92.787L58.9361 119.409C60.1312 120.772 62.2528 120.772 63.4478 119.409L86.7872 92.787C87.3459 92.1498 87.8542 91.4761 88.3098 90.7722Z" fill="#F50032"/>
</g>
</g>
<rect x="0.5" y="1.19727" width="121" height="167.25" rx="10.5" stroke="#ADADAD"/>
<defs>
<clipPath id="clip0_2070_80615">
<rect x="1" y="1.69727" width="120" height="166.25" rx="10" fill="white"/>
</clipPath>
</defs>
</svg>
