<svg width="122" height="169" viewBox="0 0 122 169" fill="none" xmlns="http://www.w3.org/2000/svg">
<g clip-path="url(#clip0_2070_80616)">
<rect x="1" y="1.69727" width="120" height="166.25" rx="10" fill="white"/>
<mask id="mask0_2070_80616" style="mask-type:alpha" maskUnits="userSpaceOnUse" x="1" y="1" width="120" height="167">
<rect x="1" y="1.69727" width="120" height="166.25" fill="#D9D9D9"/>
</mask>
<g mask="url(#mask0_2070_80616)">
<path d="M13.768 22.6973V20.4293H7.306V18.1793L12.886 10.0973H17.098V18.3053H19.42V20.4293H17.098V22.6973H13.768ZM10.402 18.3053H13.768V13.4093L10.402 18.3053Z" fill="#F50032"/>
<path d="M110.175 10.2649C108.764 10.2587 107.504 10.9121 106.68 11.9324C105.868 10.9022 104.615 10.238 103.203 10.2318C100.743 10.2197 98.7388 12.2054 98.726 14.6683C98.7146 16.8474 104.906 22.2032 106.334 23.409C106.505 23.5536 106.746 23.5547 106.919 23.4118C108.358 22.2193 114.6 16.9216 114.611 14.7451C114.623 12.2851 112.638 10.2777 110.175 10.2649Z" fill="#F50032"/>
<path fill-rule="evenodd" clip-rule="evenodd" d="M88.3098 90.7722C90.1553 88.2365 91.244 85.1146 91.244 81.7385C91.244 73.2512 84.3638 66.3709 75.8765 66.3709C68.9713 66.3709 63.1298 70.9253 61.192 77.1941C59.2542 70.9253 53.4127 66.3709 46.5075 66.3709C38.0202 66.3709 31.14 73.2512 31.14 81.7385C31.14 85.1142 32.2284 88.2357 34.0735 90.7712C34.5293 91.4755 35.0378 92.1495 35.5967 92.787L58.9361 119.409C60.1312 120.772 62.2528 120.772 63.4478 119.409L86.7872 92.787C87.3459 92.1498 87.8542 91.4761 88.3098 90.7722Z" fill="#F50032"/>
</g>
</g>
<rect x="0.5" y="1.19727" width="121" height="167.25" rx="10.5" stroke="#ADADAD"/>
<defs>
<clipPath id="clip0_2070_80616">
<rect x="1" y="1.69727" width="120" height="166.25" rx="10" fill="white"/>
</clipPath>
</defs>
</svg>
