<svg width="135" height="33" viewBox="0 0 135 33" fill="none" xmlns="http://www.w3.org/2000/svg">
<path d="M18 1C8.61116 1 1 8.61116 1 18V29C1 30.6569 2.34315 32 4 32H118.5C127.06 32 134 25.0604 134 16.5C134 7.93959 127.06 1 118.5 1H18Z" fill="black"/>
<path d="M18 1C8.61116 1 1 8.61116 1 18V29C1 30.6569 2.34315 32 4 32H118.5C127.06 32 134 25.0604 134 16.5C134 7.93959 127.06 1 118.5 1H18Z" stroke="white" stroke-width="2"/>
<path d="M20.2136 23V9.03636H25.8045C26.8318 9.03636 27.6886 9.18864 28.375 9.49318C29.0614 9.79773 29.5773 10.2205 29.9227 10.7614C30.2682 11.2977 30.4409 11.9159 30.4409 12.6159C30.4409 13.1614 30.3318 13.6409 30.1136 14.0545C29.8955 14.4636 29.5955 14.8 29.2136 15.0636C28.8364 15.3227 28.4045 15.5068 27.9182 15.6159V15.7523C28.45 15.775 28.9477 15.925 29.4114 16.2023C29.8795 16.4795 30.2591 16.8682 30.55 17.3682C30.8409 17.8636 30.9864 18.4545 30.9864 19.1409C30.9864 19.8818 30.8023 20.5432 30.4341 21.125C30.0705 21.7023 29.5318 22.1591 28.8182 22.4955C28.1045 22.8318 27.225 23 26.1795 23H20.2136ZM23.1659 20.5864H25.5727C26.3955 20.5864 26.9955 20.4295 27.3727 20.1159C27.75 19.7977 27.9386 19.375 27.9386 18.8477C27.9386 18.4614 27.8455 18.1205 27.6591 17.825C27.4727 17.5295 27.2068 17.2977 26.8614 17.1295C26.5205 16.9614 26.1136 16.8773 25.6409 16.8773H23.1659V20.5864ZM23.1659 14.8795H25.3545C25.7591 14.8795 26.1182 14.8091 26.4318 14.6682C26.75 14.5227 27 14.3182 27.1818 14.0545C27.3682 13.7909 27.4614 13.475 27.4614 13.1068C27.4614 12.6023 27.2818 12.1955 26.9227 11.8864C26.5682 11.5773 26.0636 11.4227 25.4091 11.4227H23.1659V14.8795ZM35.7574 9.03636V23H32.8528V9.03636H35.7574ZM41.0705 23.1977C40.4023 23.1977 39.8068 23.0818 39.2841 22.85C38.7614 22.6136 38.3477 22.2659 38.0432 21.8068C37.7432 21.3432 37.5932 20.7659 37.5932 20.075C37.5932 19.4932 37.7 19.0045 37.9136 18.6091C38.1273 18.2136 38.4182 17.8955 38.7864 17.6545C39.1545 17.4136 39.5727 17.2318 40.0409 17.1091C40.5136 16.9864 41.0091 16.9 41.5273 16.85C42.1364 16.7864 42.6273 16.7273 43 16.6727C43.3727 16.6136 43.6432 16.5273 43.8114 16.4136C43.9795 16.3 44.0636 16.1318 44.0636 15.9091V15.8682C44.0636 15.4364 43.9273 15.1023 43.6545 14.8659C43.3864 14.6295 43.0045 14.5114 42.5091 14.5114C41.9864 14.5114 41.5705 14.6273 41.2614 14.8591C40.9523 15.0864 40.7477 15.3727 40.6477 15.7182L37.9614 15.5C38.0977 14.8636 38.3659 14.3136 38.7659 13.85C39.1659 13.3818 39.6818 13.0227 40.3136 12.7727C40.95 12.5182 41.6864 12.3909 42.5227 12.3909C43.1045 12.3909 43.6614 12.4591 44.1932 12.5955C44.7295 12.7318 45.2045 12.9432 45.6182 13.2295C46.0364 13.5159 46.3659 13.8841 46.6068 14.3341C46.8477 14.7795 46.9682 15.3136 46.9682 15.9364V23H44.2136V21.5477H44.1318C43.9636 21.875 43.7386 22.1636 43.4568 22.4136C43.175 22.6591 42.8364 22.8523 42.4409 22.9932C42.0455 23.1295 41.5886 23.1977 41.0705 23.1977ZM41.9023 21.1932C42.3295 21.1932 42.7068 21.1091 43.0341 20.9409C43.3614 20.7682 43.6182 20.5364 43.8045 20.2455C43.9909 19.9545 44.0841 19.625 44.0841 19.2568V18.1455C43.9932 18.2045 43.8682 18.2591 43.7091 18.3091C43.5545 18.3545 43.3795 18.3977 43.1841 18.4386C42.9886 18.475 42.7932 18.5091 42.5977 18.5409C42.4023 18.5682 42.225 18.5932 42.0659 18.6159C41.725 18.6659 41.4273 18.7455 41.1727 18.8545C40.9182 18.9636 40.7205 19.1114 40.5795 19.2977C40.4386 19.4795 40.3682 19.7068 40.3682 19.9795C40.3682 20.375 40.5114 20.6773 40.7977 20.8864C41.0886 21.0909 41.4568 21.1932 41.9023 21.1932ZM53.9534 23.2045C52.8807 23.2045 51.958 22.9773 51.1852 22.5227C50.417 22.0636 49.8261 21.4273 49.4125 20.6136C49.0034 19.8 48.7989 18.8636 48.7989 17.8045C48.7989 16.7318 49.0057 15.7909 49.4193 14.9818C49.8375 14.1682 50.4307 13.5341 51.1989 13.0795C51.967 12.6205 52.8807 12.3909 53.9398 12.3909C54.8534 12.3909 55.6534 12.5568 56.3398 12.8886C57.0261 13.2205 57.5693 13.6864 57.9693 14.2864C58.3693 14.8864 58.5898 15.5909 58.6307 16.4H55.8898C55.8125 15.8773 55.608 15.4568 55.2761 15.1386C54.9489 14.8159 54.5193 14.6545 53.9875 14.6545C53.5375 14.6545 53.1443 14.7773 52.808 15.0227C52.4761 15.2636 52.217 15.6159 52.0307 16.0795C51.8443 16.5432 51.7511 17.1045 51.7511 17.7636C51.7511 18.4318 51.842 19 52.0239 19.4682C52.2102 19.9364 52.4716 20.2932 52.808 20.5386C53.1443 20.7841 53.5375 20.9068 53.9875 20.9068C54.4875 20.9068 54.908 20.7568 55.2489 20.4568C55.5898 20.1523 55.8034 19.7205 55.8898 19.1614H58.6307C58.5852 19.9614 58.367 20.6659 57.9761 21.275C57.5898 21.8795 57.0557 22.3523 56.3739 22.6932C55.692 23.0341 54.8852 23.2045 53.9534 23.2045ZM63.1222 19.9864L63.129 16.5023H63.5517L66.9063 12.5273H70.2403L65.7335 17.7909H65.0449L63.1222 19.9864ZM60.4903 23V9.03636H63.3949V23H60.4903ZM67.0358 23L63.954 18.4386L65.8903 16.3864L70.4381 23H67.0358ZM71.6653 12.5273H74.5699V23.5182C74.5699 24.3273 74.4108 24.9818 74.0926 25.4818C73.7744 25.9818 73.3176 26.3477 72.7222 26.5795C72.1313 26.8114 71.4244 26.9273 70.6017 26.9273C70.5017 26.9273 70.4063 26.925 70.3153 26.9205C70.2199 26.9205 70.1199 26.9182 70.0153 26.9136V24.6432C70.0926 24.6477 70.1608 24.65 70.2199 24.65C70.2744 24.6545 70.3335 24.6568 70.3972 24.6568C70.8653 24.6568 71.1926 24.5568 71.379 24.3568C71.5699 24.1614 71.6653 23.8659 71.6653 23.4705V12.5273ZM73.1108 11.1773C72.6835 11.1773 72.3153 11.0341 72.0063 10.7477C71.6972 10.4568 71.5426 10.1091 71.5426 9.70454C71.5426 9.30454 71.6972 8.96136 72.0063 8.675C72.3153 8.38409 72.6835 8.23864 73.1108 8.23864C73.5472 8.23864 73.9176 8.38409 74.2222 8.675C74.5313 8.96136 74.6858 9.30454 74.6858 9.70454C74.6858 10.1091 74.5313 10.4568 74.2222 10.7477C73.9176 11.0341 73.5472 11.1773 73.1108 11.1773ZM79.883 23.1977C79.2148 23.1977 78.6193 23.0818 78.0966 22.85C77.5739 22.6136 77.1602 22.2659 76.8557 21.8068C76.5557 21.3432 76.4057 20.7659 76.4057 20.075C76.4057 19.4932 76.5125 19.0045 76.7261 18.6091C76.9398 18.2136 77.2307 17.8955 77.5989 17.6545C77.967 17.4136 78.3852 17.2318 78.8534 17.1091C79.3261 16.9864 79.8216 16.9 80.3398 16.85C80.9489 16.7864 81.4398 16.7273 81.8125 16.6727C82.1852 16.6136 82.4557 16.5273 82.6239 16.4136C82.792 16.3 82.8761 16.1318 82.8761 15.9091V15.8682C82.8761 15.4364 82.7398 15.1023 82.467 14.8659C82.1989 14.6295 81.817 14.5114 81.3216 14.5114C80.7989 14.5114 80.383 14.6273 80.0739 14.8591C79.7648 15.0864 79.5602 15.3727 79.4602 15.7182L76.7739 15.5C76.9102 14.8636 77.1784 14.3136 77.5784 13.85C77.9784 13.3818 78.4943 13.0227 79.1261 12.7727C79.7625 12.5182 80.4989 12.3909 81.3352 12.3909C81.917 12.3909 82.4739 12.4591 83.0057 12.5955C83.542 12.7318 84.017 12.9432 84.4307 13.2295C84.8489 13.5159 85.1784 13.8841 85.4193 14.3341C85.6602 14.7795 85.7807 15.3136 85.7807 15.9364V23H83.0261V21.5477H82.9443C82.7761 21.875 82.5511 22.1636 82.2693 22.4136C81.9875 22.6591 81.6489 22.8523 81.2534 22.9932C80.858 23.1295 80.4011 23.1977 79.883 23.1977ZM80.7148 21.1932C81.142 21.1932 81.5193 21.1091 81.8466 20.9409C82.1739 20.7682 82.4307 20.5364 82.617 20.2455C82.8034 19.9545 82.8966 19.625 82.8966 19.2568V18.1455C82.8057 18.2045 82.6807 18.2591 82.5216 18.3091C82.367 18.3545 82.192 18.3977 81.9966 18.4386C81.8011 18.475 81.6057 18.5091 81.4102 18.5409C81.2148 18.5682 81.0375 18.5932 80.8784 18.6159C80.5375 18.6659 80.2398 18.7455 79.9852 18.8545C79.7307 18.9636 79.533 19.1114 79.392 19.2977C79.2511 19.4795 79.1807 19.7068 79.1807 19.9795C79.1807 20.375 79.3239 20.6773 79.6102 20.8864C79.9011 21.0909 80.2693 21.1932 80.7148 21.1932ZM92.7659 23.2045C91.6932 23.2045 90.7705 22.9773 89.9977 22.5227C89.2295 22.0636 88.6386 21.4273 88.225 20.6136C87.8159 19.8 87.6114 18.8636 87.6114 17.8045C87.6114 16.7318 87.8182 15.7909 88.2318 14.9818C88.65 14.1682 89.2432 13.5341 90.0114 13.0795C90.7795 12.6205 91.6932 12.3909 92.7523 12.3909C93.6659 12.3909 94.4659 12.5568 95.1523 12.8886C95.8386 13.2205 96.3818 13.6864 96.7818 14.2864C97.1818 14.8864 97.4023 15.5909 97.4432 16.4H94.7023C94.625 15.8773 94.4205 15.4568 94.0886 15.1386C93.7614 14.8159 93.3318 14.6545 92.8 14.6545C92.35 14.6545 91.9568 14.7773 91.6205 15.0227C91.2886 15.2636 91.0295 15.6159 90.8432 16.0795C90.6568 16.5432 90.5636 17.1045 90.5636 17.7636C90.5636 18.4318 90.6545 19 90.8364 19.4682C91.0227 19.9364 91.2841 20.2932 91.6205 20.5386C91.9568 20.7841 92.35 20.9068 92.8 20.9068C93.3 20.9068 93.7205 20.7568 94.0614 20.4568C94.4023 20.1523 94.6159 19.7205 94.7023 19.1614H97.4432C97.3977 19.9614 97.1795 20.6659 96.7886 21.275C96.4023 21.8795 95.8682 22.3523 95.1864 22.6932C94.5045 23.0341 93.6977 23.2045 92.7659 23.2045ZM101.935 19.9864L101.941 16.5023H102.364L105.719 12.5273H109.053L104.546 17.7909H103.857L101.935 19.9864ZM99.3028 23V9.03636H102.207V23H99.3028ZM105.848 23L102.766 18.4386L104.703 16.3864L109.251 23H105.848ZM113.948 9.03636L113.682 18.8136H111.187L110.914 9.03636H113.948ZM112.435 23.1773C111.985 23.1773 111.598 23.0182 111.276 22.7C110.953 22.3773 110.794 21.9909 110.798 21.5409C110.794 21.0955 110.953 20.7136 111.276 20.3955C111.598 20.0773 111.985 19.9182 112.435 19.9182C112.866 19.9182 113.246 20.0773 113.573 20.3955C113.901 20.7136 114.066 21.0955 114.071 21.5409C114.066 21.9909 113.901 22.3773 113.573 22.7C113.246 23.0182 112.866 23.1773 112.435 23.1773Z" fill="white"/>
</svg>
