<svg width="77" height="27" viewBox="0 0 77 27" fill="none" xmlns="http://www.w3.org/2000/svg">
<path d="M14.65 1.85C7.30461 1.85 1.35 7.80462 1.35 15.15V22.35C1.35 23.9516 2.64838 25.25 4.25 25.25H63.45C69.9117 25.25 75.15 20.0117 75.15 13.55C75.15 7.08827 69.9117 1.85 63.45 1.85H14.65Z" fill="#C34949"/>
<path d="M14.65 1.85C7.30461 1.85 1.35 7.80462 1.35 15.15V22.35C1.35 23.9516 2.64838 25.25 4.25 25.25H63.45C69.9117 25.25 75.15 20.0117 75.15 13.55C75.15 7.08827 69.9117 1.85 63.45 1.85H14.65Z" stroke="white" stroke-width="1.8"/>
<path d="M22.6602 18.55V8.07726H26.8534C27.6239 8.07726 28.2665 8.19147 28.7812 8.41987C29.296 8.64828 29.683 8.96533 29.942 9.37101C30.2011 9.77328 30.3307 10.2369 30.3307 10.7619C30.3307 11.171 30.2489 11.5307 30.0852 11.8409C29.9216 12.1477 29.6966 12.4 29.4102 12.5977C29.1273 12.792 28.8034 12.9301 28.4386 13.0119V13.1142C28.8375 13.1312 29.2108 13.2437 29.5585 13.4517C29.9097 13.6596 30.1943 13.9511 30.4125 14.3261C30.6307 14.6977 30.7398 15.1409 30.7398 15.6557C30.7398 16.2114 30.6017 16.7074 30.3256 17.1437C30.0528 17.5767 29.6489 17.9193 29.1136 18.1716C28.5784 18.4239 27.9187 18.55 27.1347 18.55H22.6602ZM24.8744 16.7398H26.6795C27.2966 16.7398 27.7466 16.6221 28.0295 16.3869C28.3125 16.1483 28.454 15.8312 28.454 15.4358C28.454 15.146 28.3841 14.8903 28.2443 14.6687C28.1045 14.4471 27.9051 14.2733 27.646 14.1471C27.3903 14.021 27.0852 13.9579 26.7307 13.9579H24.8744V16.7398ZM24.8744 12.4596H26.5159C26.8193 12.4596 27.0886 12.4068 27.3239 12.3011C27.5625 12.192 27.75 12.0386 27.8864 11.8409C28.0261 11.6432 28.096 11.4062 28.096 11.1301C28.096 10.7517 27.9614 10.4466 27.692 10.2148C27.4261 9.98294 27.0477 9.86703 26.5568 9.86703H24.8744V12.4596ZM37.1766 15.2057V10.6954H39.355V18.55H37.2635V17.1233H37.1817C37.0044 17.5835 36.7095 17.9534 36.297 18.2329C35.8879 18.5125 35.3885 18.6523 34.7987 18.6523C34.2737 18.6523 33.8118 18.5329 33.4129 18.2943C33.0141 18.0557 32.7021 17.7165 32.4771 17.2767C32.2555 16.8369 32.143 16.3102 32.1396 15.6966V10.6954H34.318V15.3079C34.3214 15.7716 34.4459 16.1381 34.6913 16.4074C34.9368 16.6767 35.2658 16.8114 35.6783 16.8114C35.9408 16.8114 36.1862 16.7517 36.4146 16.6324C36.643 16.5096 36.8271 16.329 36.9669 16.0903C37.1101 15.8517 37.18 15.5568 37.1766 15.2057ZM47.6327 12.9352L45.6384 13.0579C45.5838 12.8023 45.4457 12.5858 45.2241 12.4085C45.0026 12.2278 44.7026 12.1375 44.3241 12.1375C43.9866 12.1375 43.702 12.2091 43.4702 12.3523C43.2384 12.492 43.1224 12.6795 43.1224 12.9148C43.1224 13.1023 43.1974 13.2608 43.3474 13.3903C43.4974 13.5199 43.7548 13.6239 44.1196 13.7023L45.5412 13.9886C46.3048 14.1454 46.8741 14.3977 47.2491 14.7454C47.6241 15.0932 47.8116 15.55 47.8116 16.1159C47.8116 16.6307 47.6599 17.0824 47.3565 17.471C47.0565 17.8596 46.644 18.1631 46.119 18.3812C45.5974 18.596 44.9957 18.7034 44.3139 18.7034C43.2741 18.7034 42.4457 18.4869 41.8287 18.054C41.2151 17.6176 40.8554 17.0244 40.7497 16.2744L42.8923 16.1619C42.9571 16.479 43.1139 16.721 43.3628 16.8881C43.6116 17.0517 43.9304 17.1335 44.319 17.1335C44.7009 17.1335 45.0077 17.0602 45.2395 16.9136C45.4747 16.7636 45.594 16.571 45.5974 16.3358C45.5906 15.9506 45.2548 15.6898 44.5901 15.5534L43.2298 15.2824C42.4628 15.129 41.8918 14.8631 41.5168 14.4846C41.1452 14.1062 40.9594 13.6239 40.9594 13.0375C40.9594 12.5329 41.0957 12.0983 41.3685 11.7335C41.6446 11.3687 42.0315 11.0875 42.5293 10.8898C43.0304 10.692 43.6168 10.5932 44.2884 10.5932C45.2804 10.5932 46.0611 10.8028 46.6304 11.2221C47.2031 11.6415 47.5372 12.2125 47.6327 12.9352ZM53.3612 10.6954V12.3318H48.6311V10.6954H53.3612ZM49.705 8.81362H51.8834V16.1364C51.8834 16.3375 51.9141 16.4943 51.9754 16.6068C52.0368 16.7159 52.122 16.7926 52.2311 16.8369C52.3436 16.8812 52.4732 16.9034 52.6197 16.9034C52.722 16.9034 52.8243 16.8949 52.9266 16.8778C53.0288 16.8574 53.1072 16.842 53.1618 16.8318L53.5044 18.4528C53.3953 18.4869 53.2419 18.5261 53.0442 18.5704C52.8464 18.6182 52.6061 18.6471 52.3232 18.6574C51.7982 18.6778 51.3379 18.6079 50.9425 18.4477C50.5504 18.2875 50.2453 18.0386 50.0271 17.7011C49.8089 17.3636 49.7016 16.9375 49.705 16.4227V8.81362Z" fill="white"/>
</svg>
