<svg width="76" height="27" viewBox="0 0 76 27" fill="none" xmlns="http://www.w3.org/2000/svg">
<path d="M14.2506 1.85C6.9052 1.85 0.950586 7.80462 0.950586 15.15V22.35C0.950586 23.9516 2.24896 25.25 3.85059 25.25H63.0506C69.5123 25.25 74.7506 20.0117 74.7506 13.55C74.7506 7.08827 69.5123 1.85 63.0506 1.85H14.2506Z" fill="#C34949"/>
<path d="M14.2506 1.85C6.9052 1.85 0.950586 7.80462 0.950586 15.15V22.35C0.950586 23.9516 2.24896 25.25 3.85059 25.25H63.0506C69.5123 25.25 74.7506 20.0117 74.7506 13.55C74.7506 7.08827 69.5123 1.85 63.0506 1.85H14.2506Z" stroke="white" stroke-width="1.8"/>
<path d="M21.7608 18.55V8.07726H23.975V16.7244H28.4648V18.55H21.7608ZM33.4391 18.7034C32.6448 18.7034 31.9578 18.5346 31.3783 18.1971C30.8021 17.8562 30.3573 17.3824 30.0436 16.7756C29.73 16.1653 29.5732 15.4579 29.5732 14.6534C29.5732 13.842 29.73 13.1329 30.0436 12.5261C30.3573 11.9159 30.8021 11.442 31.3783 11.1045C31.9578 10.7636 32.6448 10.5932 33.4391 10.5932C34.2334 10.5932 34.9186 10.7636 35.4948 11.1045C36.0743 11.442 36.5209 11.9159 36.8345 12.5261C37.1482 13.1329 37.305 13.842 37.305 14.6534C37.305 15.4579 37.1482 16.1653 36.8345 16.7756C36.5209 17.3824 36.0743 17.8562 35.4948 18.1971C34.9186 18.5346 34.2334 18.7034 33.4391 18.7034ZM33.4493 17.0159C33.8107 17.0159 34.1124 16.9136 34.3544 16.7091C34.5965 16.5011 34.7789 16.2182 34.9016 15.8602C35.0277 15.5023 35.0908 15.0949 35.0908 14.6381C35.0908 14.1812 35.0277 13.7739 34.9016 13.4159C34.7789 13.0579 34.5965 12.775 34.3544 12.567C34.1124 12.3591 33.8107 12.2551 33.4493 12.2551C33.0845 12.2551 32.7777 12.3591 32.5289 12.567C32.2834 12.775 32.0976 13.0579 31.9715 13.4159C31.8487 13.7739 31.7874 14.1812 31.7874 14.6381C31.7874 15.0949 31.8487 15.5023 31.9715 15.8602C32.0976 16.2182 32.2834 16.5011 32.5289 16.7091C32.7777 16.9136 33.0845 17.0159 33.4493 17.0159ZM45.2567 12.9352L43.2624 13.0579C43.2078 12.8023 43.0698 12.5858 42.8482 12.4085C42.6266 12.2278 42.3266 12.1375 41.9482 12.1375C41.6107 12.1375 41.326 12.2091 41.0942 12.3523C40.8624 12.492 40.7465 12.6795 40.7465 12.9148C40.7465 13.1023 40.8215 13.2608 40.9715 13.3903C41.1215 13.5199 41.3789 13.6239 41.7436 13.7023L43.1652 13.9886C43.9289 14.1454 44.4982 14.3977 44.8732 14.7454C45.2482 15.0932 45.4357 15.55 45.4357 16.1159C45.4357 16.6307 45.284 17.0824 44.9806 17.471C44.6806 17.8596 44.2681 18.1631 43.7431 18.3812C43.2215 18.596 42.6198 18.7034 41.9379 18.7034C40.8982 18.7034 40.0698 18.4869 39.4527 18.054C38.8391 17.6176 38.4794 17.0244 38.3737 16.2744L40.5164 16.1619C40.5811 16.479 40.7379 16.721 40.9868 16.8881C41.2357 17.0517 41.5544 17.1335 41.9431 17.1335C42.3249 17.1335 42.6317 17.0602 42.8635 16.9136C43.0987 16.7636 43.2181 16.571 43.2215 16.3358C43.2146 15.9506 42.8789 15.6898 42.2141 15.5534L40.8539 15.2824C40.0868 15.129 39.5158 14.8631 39.1408 14.4846C38.7692 14.1062 38.5834 13.6239 38.5834 13.0375C38.5834 12.5329 38.7198 12.0983 38.9925 11.7335C39.2686 11.3687 39.6556 11.0875 40.1533 10.8898C40.6544 10.692 41.2408 10.5932 41.9124 10.5932C42.9044 10.5932 43.6851 10.8028 44.2544 11.2221C44.8271 11.6415 45.1612 12.2125 45.2567 12.9352ZM50.3869 18.7034C49.579 18.7034 48.8835 18.5398 48.3006 18.2125C47.721 17.8818 47.2744 17.4148 46.9608 16.8114C46.6472 16.2045 46.4904 15.4869 46.4904 14.6585C46.4904 13.8506 46.6472 13.1415 46.9608 12.5312C47.2744 11.921 47.7159 11.4454 48.2852 11.1045C48.858 10.7636 49.5296 10.5932 50.3 10.5932C50.8182 10.5932 51.3006 10.6767 51.7472 10.8437C52.1972 11.0074 52.5892 11.2545 52.9233 11.5852C53.2608 11.9159 53.5233 12.3318 53.7108 12.8329C53.8983 13.3307 53.9921 13.9136 53.9921 14.5818V15.1801H47.3597V13.8301H51.9415C51.9415 13.5165 51.8733 13.2386 51.7369 12.9966C51.6006 12.7545 51.4114 12.5653 51.1693 12.429C50.9307 12.2892 50.6529 12.2193 50.3358 12.2193C50.0051 12.2193 49.7119 12.296 49.4563 12.4494C49.204 12.5994 49.0063 12.8023 48.8631 13.0579C48.7199 13.3102 48.6466 13.5915 48.6432 13.9017V15.1852C48.6432 15.5739 48.7148 15.9096 48.858 16.1926C49.0046 16.4756 49.2108 16.6937 49.4767 16.8471C49.7426 17.0006 50.058 17.0773 50.4227 17.0773C50.6648 17.0773 50.8864 17.0432 51.0875 16.975C51.2887 16.9068 51.4608 16.8045 51.604 16.6682C51.7472 16.5318 51.8563 16.3648 51.9313 16.167L53.946 16.3C53.8438 16.7841 53.6341 17.2068 53.3171 17.5682C53.0034 17.9261 52.5977 18.2057 52.1 18.4068C51.6057 18.6045 51.0347 18.7034 50.3869 18.7034Z" fill="white"/>
</svg>
