<svg width="100" height="33" viewBox="0 0 100 33" fill="none" xmlns="http://www.w3.org/2000/svg">
<path d="M18 1C8.61116 1 1 8.61117 1 18V28.8C1 30.4569 2.34314 31.8 4 31.8H83.6C92.1052 31.8 99 24.9052 99 16.4C99 7.89482 92.1052 1 83.6 1H18Z" fill="url(#paint0_linear_3301_86839)"/>
<path d="M18 1C8.61116 1 1 8.61117 1 18V28.8C1 30.4569 2.34314 31.8 4 31.8H83.6C92.1052 31.8 99 24.9052 99 16.4C99 7.89482 92.1052 1 83.6 1H18Z" stroke="white" stroke-width="2"/>
<path d="M35.3568 22.9L31.3614 8.93636H34.5864L36.8977 18.6386H37.0136L39.5636 8.93636H42.325L44.8682 18.6591H44.9909L47.3023 8.93636H50.5273L46.5318 22.9H43.6545L40.9955 13.7704H40.8864L38.2341 22.9H35.3568ZM52.0528 22.9V12.4273H54.9574V22.9H52.0528ZM53.5119 11.0773C53.0801 11.0773 52.7097 10.9341 52.4006 10.6477C52.096 10.3568 51.9438 10.0091 51.9438 9.60454C51.9438 9.20454 52.096 8.86136 52.4006 8.57499C52.7097 8.28408 53.0801 8.13863 53.5119 8.13863C53.9438 8.13863 54.3119 8.28408 54.6165 8.57499C54.9256 8.86136 55.0801 9.20454 55.0801 9.60454C55.0801 10.0091 54.9256 10.3568 54.6165 10.6477C54.3119 10.9341 53.9438 11.0773 53.5119 11.0773ZM60.1886 16.8454V22.9H57.2841V12.4273H60.0523V14.275H60.175C60.4068 13.6659 60.7955 13.1841 61.3409 12.8295C61.8864 12.4704 62.5477 12.2909 63.325 12.2909C64.0523 12.2909 64.6864 12.45 65.2273 12.7682C65.7682 13.0864 66.1886 13.5409 66.4886 14.1318C66.7886 14.7182 66.9386 15.4182 66.9386 16.2318V22.9H64.0341V16.75C64.0386 16.1091 63.875 15.6091 63.5432 15.25C63.2114 14.8864 62.7545 14.7045 62.1727 14.7045C61.7818 14.7045 61.4364 14.7886 61.1364 14.9568C60.8409 15.125 60.6091 15.3704 60.4409 15.6932C60.2773 16.0114 60.1932 16.3954 60.1886 16.8454Z" fill="white"/>
<defs>
<linearGradient id="paint0_linear_3301_86839" x1="118.211" y1="-13.9158" x2="49.5047" y2="101.837" gradientUnits="userSpaceOnUse">
<stop offset="0.0621026" stop-color="#EFB715"/>
<stop offset="0.490987" stop-color="#E5A971"/>
<stop offset="1" stop-color="white"/>
</linearGradient>
</defs>
</svg>
