<svg width="123" height="169" viewBox="0 0 123 169" fill="none" xmlns="http://www.w3.org/2000/svg">
<g clip-path="url(#clip0_2109_90753)">
<rect x="1.5" y="1.34863" width="120" height="166.25" rx="10" fill="white"/>
<mask id="mask0_2109_90753" style="mask-type:alpha" maskUnits="userSpaceOnUse" x="1" y="1" width="121" height="167">
<rect x="1.5" y="1.34863" width="120" height="166.25" fill="#D9D9D9"/>
</mask>
<g mask="url(#mask0_2109_90753)">
<path d="M10.1104 22.3669V11.9269H7.50037L8.85037 9.76694H13.4404V22.3669H10.1104ZM21.2448 22.6549C17.6988 22.6549 15.2868 20.1709 15.2868 16.0489C15.2868 11.8009 17.5548 9.47894 21.2448 9.47894C24.9348 9.47894 27.2028 11.8009 27.2028 16.0489C27.2028 20.1709 24.7908 22.6549 21.2448 22.6549ZM18.8868 16.0489C18.8868 19.3789 19.9128 20.4229 21.2448 20.4229C22.5768 20.4229 23.6028 19.3789 23.6028 16.0489C23.6028 12.7009 22.6488 11.7109 21.2448 11.7109C19.8408 11.7109 18.8868 12.7009 18.8868 16.0489Z" fill="black"/>
<path d="M104.368 21.0803C105.679 21.08 106.843 20.4695 107.6 19.5188C108.359 20.4691 109.522 21.0792 110.833 21.0789C113.117 21.0785 114.966 19.2264 114.963 16.943C114.965 14.9328 109.261 10.0406 107.889 8.89309C107.717 8.7494 107.473 8.74954 107.301 8.89342C105.931 10.0424 100.232 14.9408 100.232 16.9503C100.233 19.2345 102.085 21.0834 104.368 21.0803Z" fill="black"/>
<path d="M107.395 20.7275C107.486 20.5703 107.713 20.5703 107.804 20.7275L109.641 23.9094C109.732 24.0666 109.618 24.263 109.437 24.263H105.762C105.581 24.263 105.468 24.0666 105.558 23.9094L107.395 20.7275Z" fill="black"/>
<path fill-rule="evenodd" clip-rule="evenodd" d="M85.5896 90.0638C87.1997 92.2754 88.1497 94.9985 88.1497 97.9435C88.1497 105.345 82.1495 111.345 74.748 111.345C68.7261 111.345 63.6319 107.373 61.942 101.906C60.2521 107.373 55.1579 111.345 49.136 111.345C41.7344 111.345 35.7343 105.345 35.7343 97.9435C35.7343 95.0004 36.683 92.2788 38.2913 90.068C38.6891 89.4532 39.1329 88.8648 39.6208 88.3083L59.686 65.4215C60.881 64.0584 63.0026 64.0584 64.1976 65.4215L84.2628 88.3083C84.7496 88.8636 85.1925 89.4505 85.5896 90.0638Z" fill="black"/>
<path d="M60.643 110.973C61.2203 109.973 62.6637 109.973 63.2411 110.973L69.0631 121.057C69.6405 122.057 68.9188 123.307 67.7641 123.307H56.12C54.9653 123.307 54.2436 122.057 54.8209 121.057L60.643 110.973Z" fill="black"/>
</g>
</g>
<rect x="1" y="0.848633" width="121" height="167.25" rx="10.5" stroke="#ADADAD"/>
<defs>
<clipPath id="clip0_2109_90753">
<rect x="1.5" y="1.34863" width="120" height="166.25" rx="10" fill="white"/>
</clipPath>
</defs>
</svg>
