<svg width="122" height="169" viewBox="0 0 122 169" fill="none" xmlns="http://www.w3.org/2000/svg">
<g clip-path="url(#clip0_2070_80644)">
<rect x="1" y="1.34863" width="120" height="166.25" rx="10" fill="white"/>
<mask id="mask0_2070_80644" style="mask-type:alpha" maskUnits="userSpaceOnUse" x="1" y="1" width="120" height="167">
<rect x="1" y="1.34863" width="120" height="166.25" fill="#D9D9D9"/>
</mask>
<g mask="url(#mask0_2070_80644)">
<path d="M16.936 22.3486L16.054 19.5406H11.176L10.24 22.3486H7.09L11.428 9.74863H16.306L20.536 22.3486H16.936ZM11.914 17.3266H15.352L13.696 12.0166L11.914 17.3266Z" fill="black"/>
<path d="M103.387 21.062C104.697 21.0617 105.861 20.4512 106.618 19.5005C107.377 20.4508 108.541 21.0609 109.851 21.0606C112.135 21.0602 113.984 19.2081 113.981 16.9246C113.983 14.9145 108.279 10.0223 106.907 8.87477C106.735 8.73108 106.491 8.73123 106.319 8.87511C104.949 10.0241 99.2504 14.9225 99.2508 16.932C99.2512 19.2162 101.103 21.0651 103.387 21.062Z" fill="black"/>
<path d="M106.414 20.7091C106.504 20.552 106.731 20.552 106.822 20.7091L108.659 23.8911C108.75 24.0483 108.636 24.2447 108.455 24.2447H104.781C104.599 24.2447 104.486 24.0483 104.577 23.8911L106.414 20.7091Z" fill="black"/>
<mask id="path-7-outside-1_2070_80644" maskUnits="userSpaceOnUse" x="28.9843" y="58.0505" width="65" height="71" fill="black">
<rect fill="white" x="28.9843" y="58.0505" width="65" height="71"/>
<path fill-rule="evenodd" clip-rule="evenodd" d="M87.3996 97.5949C87.3996 94.6504 86.45 91.9277 84.8404 89.7164C84.4431 89.1026 83.9999 88.5153 83.5129 87.9597L63.4477 65.0728C62.2526 63.7098 60.1311 63.7098 58.936 65.0728L38.8708 87.9597C38.3833 88.5158 37.9398 89.1037 37.5422 89.718C35.9333 91.9291 34.9843 94.6511 34.9843 97.5949C34.9843 104.996 40.9844 110.997 48.3859 110.997C54.4078 110.997 59.502 107.025 61.1919 101.558C62.8818 107.025 67.976 110.997 73.9979 110.997C81.3995 110.997 87.3996 104.996 87.3996 97.5949ZM62.491 110.625C61.9136 109.625 60.4703 109.625 59.8929 110.625L54.0709 120.709C53.4935 121.709 54.2152 122.959 55.3699 122.959H67.014C68.1687 122.959 68.8904 121.709 68.313 120.709L62.491 110.625Z"/>
</mask>
<path fill-rule="evenodd" clip-rule="evenodd" d="M87.3996 97.5949C87.3996 94.6504 86.45 91.9277 84.8404 89.7164C84.4431 89.1026 83.9999 88.5153 83.5129 87.9597L63.4477 65.0728C62.2526 63.7098 60.1311 63.7098 58.936 65.0728L38.8708 87.9597C38.3833 88.5158 37.9398 89.1037 37.5422 89.718C35.9333 91.9291 34.9843 94.6511 34.9843 97.5949C34.9843 104.996 40.9844 110.997 48.3859 110.997C54.4078 110.997 59.502 107.025 61.1919 101.558C62.8818 107.025 67.976 110.997 73.9979 110.997C81.3995 110.997 87.3996 104.996 87.3996 97.5949ZM62.491 110.625C61.9136 109.625 60.4703 109.625 59.8929 110.625L54.0709 120.709C53.4935 121.709 54.2152 122.959 55.3699 122.959H67.014C68.1687 122.959 68.8904 121.709 68.313 120.709L62.491 110.625Z" fill="black"/>
<path d="M84.8404 89.7164L79.8035 92.9766L79.8927 93.1145L79.9894 93.2473L84.8404 89.7164ZM83.5129 87.9597L79.0012 91.9151L79.0012 91.9151L83.5129 87.9597ZM63.4477 65.0728L67.9593 61.1174V61.1174L63.4477 65.0728ZM58.936 65.0728L54.4244 61.1174V61.1174L58.936 65.0728ZM38.8708 87.9597L34.3592 84.0043L34.3592 84.0043L38.8708 87.9597ZM37.5422 89.718L42.3938 93.2483L42.4904 93.1155L42.5796 92.9776L37.5422 89.718ZM61.1919 101.558L66.9243 99.7859L61.1919 81.2414L55.4595 99.7859L61.1919 101.558ZM59.8929 110.625L54.6968 107.625L59.8929 110.625ZM62.491 110.625L67.6871 107.625H67.6871L62.491 110.625ZM54.0709 120.709L59.267 123.709L54.0709 120.709ZM68.313 120.709L63.1169 123.709L68.313 120.709ZM79.9894 93.2473C80.8774 94.4673 81.3996 95.9613 81.3996 97.5949H93.3996C93.3996 93.3395 92.0226 89.3882 89.6914 86.1854L79.9894 93.2473ZM79.0012 91.9151C79.2957 92.251 79.5635 92.6059 79.8035 92.9766L89.8773 86.4561C89.3228 85.5994 88.7042 84.7796 88.0245 84.0043L79.0012 91.9151ZM58.936 69.0282L79.0012 91.9151L88.0245 84.0043L67.9593 61.1174L58.936 69.0282ZM63.4477 69.0282C62.2526 70.3913 60.131 70.3913 58.936 69.0282L67.9593 61.1174C64.3742 57.0282 58.0095 57.0282 54.4244 61.1174L63.4477 69.0282ZM43.3825 91.9151L63.4477 69.0282L54.4244 61.1174L34.3592 84.0043L43.3825 91.9151ZM42.5796 92.9776C42.8197 92.6065 43.0877 92.2513 43.3825 91.9151L34.3592 84.0043C33.6789 84.7803 33.0598 85.6008 32.5049 86.4584L42.5796 92.9776ZM40.9843 97.5949C40.9843 95.9617 41.5062 94.4681 42.3938 93.2483L32.6907 86.1878C30.3605 89.3901 28.9843 93.3406 28.9843 97.5949H40.9843ZM48.3859 104.997C44.2981 104.997 40.9843 101.683 40.9843 97.5949H28.9843C28.9843 108.31 37.6707 116.997 48.3859 116.997V104.997ZM55.4595 99.7859C54.5247 102.81 51.7027 104.997 48.3859 104.997V116.997C57.1129 116.997 64.4794 111.239 66.9243 103.33L55.4595 99.7859ZM73.9979 104.997C70.6811 104.997 67.8592 102.81 66.9243 99.7859L55.4595 103.33C57.9044 111.239 65.271 116.997 73.9979 116.997V104.997ZM81.3996 97.5949C81.3996 101.683 78.0857 104.997 73.9979 104.997V116.997C84.7132 116.997 93.3996 108.31 93.3996 97.5949H81.3996ZM65.0891 113.625C63.357 116.625 59.0269 116.625 57.2948 113.625L67.6871 107.625C64.8004 102.625 57.5835 102.625 54.6968 107.625L65.0891 113.625ZM59.267 123.709L65.0891 113.625L54.6968 107.625L48.8747 117.709L59.267 123.709ZM55.3699 116.959C58.834 116.959 60.9991 120.709 59.267 123.709L48.8747 117.709C45.988 122.709 49.5964 128.959 55.3699 128.959V116.959ZM67.014 116.959H55.3699V128.959H67.014V116.959ZM63.1169 123.709C61.3848 120.709 63.5499 116.959 67.014 116.959V128.959C72.7875 128.959 76.3959 122.709 73.5092 117.709L63.1169 123.709ZM57.2948 113.625L63.1169 123.709L73.5092 117.709L67.6871 107.625L57.2948 113.625Z" fill="black" mask="url(#path-7-outside-1_2070_80644)"/>
<mask id="path-9-outside-2_2070_80644" maskUnits="userSpaceOnUse" x="29.9843" y="59.0505" width="62" height="69" fill="black">
<rect fill="white" x="29.9843" y="59.0505" width="62" height="69"/>
<path fill-rule="evenodd" clip-rule="evenodd" d="M87.3996 97.5949C87.3996 94.6504 86.45 91.9277 84.8404 89.7164C84.4431 89.1026 83.9999 88.5153 83.5129 87.9597L63.4477 65.0728C62.2526 63.7098 60.1311 63.7098 58.936 65.0728L38.8708 87.9597C38.3833 88.5158 37.9398 89.1037 37.5422 89.718C35.9333 91.9291 34.9843 94.6511 34.9843 97.5949C34.9843 104.996 40.9844 110.997 48.3859 110.997C54.4078 110.997 59.502 107.025 61.1919 101.558C62.8818 107.025 67.976 110.997 73.9979 110.997C81.3995 110.997 87.3996 104.996 87.3996 97.5949ZM62.491 110.625C61.9136 109.625 60.4703 109.625 59.8929 110.625L54.0709 120.709C53.4935 121.709 54.2152 122.959 55.3699 122.959H67.014C68.1687 122.959 68.8904 121.709 68.313 120.709L62.491 110.625Z"/>
</mask>
<path fill-rule="evenodd" clip-rule="evenodd" d="M87.3996 97.5949C87.3996 94.6504 86.45 91.9277 84.8404 89.7164C84.4431 89.1026 83.9999 88.5153 83.5129 87.9597L63.4477 65.0728C62.2526 63.7098 60.1311 63.7098 58.936 65.0728L38.8708 87.9597C38.3833 88.5158 37.9398 89.1037 37.5422 89.718C35.9333 91.9291 34.9843 94.6511 34.9843 97.5949C34.9843 104.996 40.9844 110.997 48.3859 110.997C54.4078 110.997 59.502 107.025 61.1919 101.558C62.8818 107.025 67.976 110.997 73.9979 110.997C81.3995 110.997 87.3996 104.996 87.3996 97.5949ZM62.491 110.625C61.9136 109.625 60.4703 109.625 59.8929 110.625L54.0709 120.709C53.4935 121.709 54.2152 122.959 55.3699 122.959H67.014C68.1687 122.959 68.8904 121.709 68.313 120.709L62.491 110.625Z" fill="black"/>
<path d="M84.8404 89.7164L81.0627 92.1616L81.1296 92.265L81.2021 92.3646L84.8404 89.7164ZM83.5129 87.9597L80.1291 90.9263L80.1291 90.9263L83.5129 87.9597ZM63.4477 65.0728L66.8314 62.1063V62.1063L63.4477 65.0728ZM58.936 65.0728L55.5523 62.1063V62.1063L58.936 65.0728ZM38.8708 87.9597L35.4871 84.9931L35.4871 84.9931L38.8708 87.9597ZM37.5422 89.718L41.1809 92.3657L41.2533 92.2661L41.3202 92.1627L37.5422 89.718ZM61.1919 101.558L65.4912 100.229L61.1919 86.3205L56.8926 100.229L61.1919 101.558ZM59.8929 110.625L55.9958 108.375L59.8929 110.625ZM62.491 110.625L66.3881 108.375L62.491 110.625ZM54.0709 120.709L57.968 122.959L54.0709 120.709ZM68.313 120.709L64.4159 122.959L68.313 120.709ZM81.2021 92.3646C82.2705 93.8324 82.8996 95.6336 82.8996 97.5949H91.8996C91.8996 93.6672 90.6295 90.023 88.4786 87.0681L81.2021 92.3646ZM80.1291 90.9263C80.4718 91.3171 80.7834 91.7301 81.0627 92.1616L88.6181 87.2712C88.1029 86.4752 87.5281 85.7135 86.8966 84.9931L80.1291 90.9263ZM60.0639 68.0394L80.1291 90.9263L86.8966 84.9932L66.8314 62.1063L60.0639 68.0394ZM62.3198 68.0394C61.7222 68.7209 60.6614 68.7209 60.0639 68.0394L66.8314 62.1063C63.8438 58.6986 58.5399 58.6986 55.5523 62.1063L62.3198 68.0394ZM42.2546 90.9262L62.3198 68.0394L55.5523 62.1063L35.4871 84.9931L42.2546 90.9262ZM41.3202 92.1627C41.5997 91.7308 41.9116 91.3174 42.2546 90.9262L35.4871 84.9931C34.855 85.7141 34.2798 86.4766 33.7642 87.2733L41.3202 92.1627ZM39.4843 97.5949C39.4843 95.6341 40.113 93.8333 41.1809 92.3657L33.9036 87.0704C31.7537 90.0249 30.4843 93.6682 30.4843 97.5949H39.4843ZM48.3859 106.497C43.4697 106.497 39.4843 102.511 39.4843 97.5949H30.4843C30.4843 107.482 38.4991 115.497 48.3859 115.497V106.497ZM56.8926 100.229C55.769 103.864 52.379 106.497 48.3859 106.497V115.497C56.4366 115.497 63.2351 110.186 65.4912 102.887L56.8926 100.229ZM73.9979 106.497C70.0048 106.497 66.6148 103.864 65.4912 100.229L56.8926 102.887C59.1488 110.186 65.9472 115.497 73.9979 115.497V106.497ZM82.8996 97.5949C82.8996 102.511 78.9142 106.497 73.9979 106.497V115.497C83.8847 115.497 91.8996 107.482 91.8996 97.5949H82.8996ZM63.79 112.875C62.6353 114.875 59.7486 114.875 58.5939 112.875L66.3881 108.375C64.0787 104.375 58.3052 104.375 55.9958 108.375L63.79 112.875ZM57.968 122.959L63.79 112.875L55.9958 108.375L50.1738 118.459L57.968 122.959ZM55.3699 118.459C57.6793 118.459 59.1227 120.959 57.968 122.959L50.1738 118.459C47.8644 122.459 50.7511 127.459 55.3699 127.459V118.459ZM67.014 118.459H55.3699V127.459H67.014V118.459ZM64.4159 122.959C63.2612 120.959 64.7046 118.459 67.014 118.459V127.459C71.6328 127.459 74.5196 122.459 72.2102 118.459L64.4159 122.959ZM58.5939 112.875L64.4159 122.959L72.2102 118.459L66.3881 108.375L58.5939 112.875Z" fill="white" mask="url(#path-9-outside-2_2070_80644)"/>
</g>
</g>
<rect x="0.5" y="0.848633" width="121" height="167.25" rx="10.5" stroke="#ADADAD"/>
<defs>
<clipPath id="clip0_2070_80644">
<rect x="1" y="1.34863" width="120" height="166.25" rx="10" fill="white"/>
</clipPath>
</defs>
</svg>
