<svg width="123" height="169" viewBox="0 0 123 169" fill="none" xmlns="http://www.w3.org/2000/svg">
<g clip-path="url(#clip0_2109_90746)">
<rect x="1.5" y="1.34863" width="120" height="166.25" rx="10" fill="white"/>
<mask id="mask0_2109_90746" style="mask-type:alpha" maskUnits="userSpaceOnUse" x="1" y="1" width="121" height="167">
<rect x="1.5" y="1.34863" width="120" height="166.25" fill="#D9D9D9"/>
</mask>
<g mask="url(#mask0_2109_90746)">
<path d="M13.9984 22.655C9.98437 22.655 8.18437 20.855 8.00437 18.497H11.8744C11.9824 19.739 12.7024 20.459 13.9984 20.459C15.2764 20.459 15.9424 19.775 15.9424 18.767C15.9424 17.723 15.2764 17.039 13.8904 17.039H12.1804V14.843H13.8904C15.1864 14.843 15.8704 14.141 15.8704 13.241C15.8704 12.341 15.2044 11.657 13.8904 11.657C12.5764 11.657 11.9644 12.269 11.8384 13.277H8.20237C8.38237 11.135 10.0204 9.497 13.8904 9.497C17.7244 9.497 19.3264 11.099 19.3264 13.061C19.3264 14.591 18.2824 15.653 16.6984 15.869V15.905C18.5704 16.031 19.7224 17.183 19.7224 18.857C19.7224 20.927 18.0124 22.655 13.9984 22.655Z" fill="black"/>
<path d="M104.368 21.0804C105.679 21.0801 106.843 20.4696 107.6 19.5188C108.359 20.4692 109.522 21.0793 110.833 21.079C113.117 21.0786 114.966 19.2265 114.963 16.943C114.965 14.9328 109.261 10.0406 107.889 8.89315C107.717 8.74946 107.473 8.7496 107.301 8.89348C105.931 10.0425 100.232 14.9408 100.232 16.9504C100.233 19.2346 102.085 21.0835 104.368 21.0804Z" fill="black"/>
<path d="M107.395 20.7275C107.486 20.5704 107.713 20.5704 107.804 20.7275L109.641 23.9095C109.732 24.0666 109.618 24.263 109.437 24.263H105.762C105.581 24.263 105.468 24.0666 105.558 23.9095L107.395 20.7275Z" fill="black"/>
<path fill-rule="evenodd" clip-rule="evenodd" d="M85.5896 90.0638C87.1997 92.2754 88.1497 94.9985 88.1497 97.9435C88.1497 105.345 82.1495 111.345 74.748 111.345C68.7261 111.345 63.6319 107.373 61.942 101.906C60.2521 107.373 55.1579 111.345 49.136 111.345C41.7344 111.345 35.7343 105.345 35.7343 97.9435C35.7343 95.0004 36.683 92.2788 38.2913 90.068C38.6891 89.4531 39.1329 88.8648 39.6208 88.3083L59.686 65.4214C60.881 64.0584 63.0026 64.0584 64.1976 65.4214L84.2628 88.3083C84.7496 88.8635 85.1925 89.4505 85.5896 90.0638Z" fill="black"/>
<path d="M60.643 110.973C61.2203 109.973 62.6637 109.973 63.2411 110.973L69.0631 121.057C69.6405 122.057 68.9188 123.307 67.7641 123.307H56.12C54.9653 123.307 54.2436 122.057 54.8209 121.057L60.643 110.973Z" fill="black"/>
</g>
</g>
<rect x="1" y="0.848633" width="121" height="167.25" rx="10.5" stroke="#ADADAD"/>
<defs>
<clipPath id="clip0_2109_90746">
<rect x="1.5" y="1.34863" width="120" height="166.25" rx="10" fill="white"/>
</clipPath>
</defs>
</svg>
