<svg width="123" height="169" viewBox="0 0 123 169" fill="none" xmlns="http://www.w3.org/2000/svg">
<g clip-path="url(#clip0_2109_90745)">
<rect x="1.5" y="1" width="120" height="166.25" rx="10" fill="white"/>
<mask id="mask0_2109_90745" style="mask-type:alpha" maskUnits="userSpaceOnUse" x="1" y="1" width="121" height="167">
<rect x="1.5" y="1" width="120" height="166.25" fill="#D9D9D9"/>
</mask>
<g mask="url(#mask0_2109_90745)">
<path d="M8.22037 22.0184V20.0744L12.9364 15.3404C14.3404 13.9364 14.7544 13.2884 14.7544 12.5504C14.7544 11.7764 14.2324 11.2544 13.2064 11.2544C12.1804 11.2544 11.6584 11.7764 11.6584 12.8384V12.9284H8.13037C8.25637 10.5524 9.67837 9.13036 13.2064 9.13036C16.6804 9.13036 18.2824 10.7324 18.2824 12.5504C18.2824 13.9724 17.8324 14.7104 15.9784 16.5464C14.9344 17.5904 13.8544 18.7964 12.7744 19.8944H18.6064V22.0184H8.22037Z" fill="black"/>
<path d="M104.368 20.7318C105.679 20.7315 106.843 20.121 107.6 19.1702C108.359 20.1206 109.522 20.7307 110.833 20.7303C113.117 20.73 114.966 18.8779 114.963 16.5944C114.965 14.5842 109.261 9.69201 107.889 8.54453C107.717 8.40084 107.473 8.40098 107.301 8.54486C105.931 9.69386 100.232 14.5922 100.232 16.6017C100.233 18.8859 102.085 20.7349 104.368 20.7318Z" fill="black"/>
<path d="M107.395 20.3789C107.486 20.2217 107.713 20.2217 107.804 20.3789L109.641 23.5608C109.732 23.718 109.618 23.9144 109.437 23.9144H105.762C105.581 23.9144 105.468 23.718 105.558 23.5608L107.395 20.3789Z" fill="black"/>
<path fill-rule="evenodd" clip-rule="evenodd" d="M85.5896 89.7152C87.1997 91.9267 88.1497 94.6499 88.1497 97.5949C88.1497 104.996 82.1495 110.996 74.748 110.996C68.7261 110.996 63.6319 107.025 61.942 101.558C60.2521 107.025 55.1579 110.996 49.136 110.996C41.7344 110.996 35.7343 104.996 35.7343 97.5949C35.7343 94.6517 36.683 91.9302 38.2913 89.7193C38.6891 89.1045 39.1329 88.5162 39.6208 87.9597L59.686 65.0728C60.881 63.7097 63.0026 63.7097 64.1976 65.0728L84.2628 87.9597C84.7496 88.5149 85.1925 89.1018 85.5896 89.7152Z" fill="black"/>
<path d="M60.643 110.625C61.2203 109.625 62.6637 109.625 63.2411 110.625L69.0631 120.709C69.6405 121.709 68.9188 122.959 67.7641 122.959H56.12C54.9653 122.959 54.2436 121.709 54.8209 120.709L60.643 110.625Z" fill="black"/>
</g>
</g>
<rect x="1" y="0.5" width="121" height="167.25" rx="10.5" stroke="#ADADAD"/>
<defs>
<clipPath id="clip0_2109_90745">
<rect x="1.5" y="1" width="120" height="166.25" rx="10" fill="white"/>
</clipPath>
</defs>
</svg>
