<svg width="122" height="169" viewBox="0 0 122 169" fill="none" xmlns="http://www.w3.org/2000/svg">
<g clip-path="url(#clip0_2070_80640)">
<rect x="1" y="1.34863" width="120" height="166.25" rx="10" fill="white"/>
<mask id="mask0_2070_80640" style="mask-type:alpha" maskUnits="userSpaceOnUse" x="1" y="1" width="120" height="167">
<rect x="1" y="1.34863" width="120" height="166.25" fill="#D9D9D9"/>
</mask>
<g mask="url(#mask0_2070_80640)">
<path d="M15.496 22.3486L11.536 16.6786V22.3486H8.116V9.74863H11.536V14.8426L15.802 9.74863H19.582L14.668 15.4546L19.798 22.3486H15.496Z" fill="black"/>
<path d="M103.387 21.062C104.697 21.0617 105.861 20.4512 106.618 19.5005C107.377 20.4508 108.541 21.0609 109.851 21.0606C112.135 21.0602 113.984 19.2081 113.981 16.9246C113.983 14.9145 108.279 10.0223 106.907 8.87477C106.735 8.73108 106.491 8.73123 106.319 8.87511C104.949 10.0241 99.2504 14.9225 99.2508 16.932C99.2512 19.2162 101.103 21.0651 103.387 21.062Z" fill="black"/>
<path d="M106.414 20.7091C106.504 20.552 106.731 20.552 106.822 20.7091L108.659 23.8911C108.75 24.0483 108.636 24.2447 108.455 24.2447H104.781C104.599 24.2447 104.486 24.0483 104.577 23.8911L106.414 20.7091Z" fill="black"/>
<mask id="mask1_2070_80640" style="mask-type:alpha" maskUnits="userSpaceOnUse" x="6" y="31" width="109" height="131">
<rect x="6.75" y="31.3486" width="108" height="130" rx="6" fill="white"/>
</mask>
<g mask="url(#mask1_2070_80640)">
<path d="M113.75 127.349H6.75V157.349H113.75V127.349Z" fill="#FFCE57"/>
<path d="M113.75 156.349H6.75V160.349H113.75V156.349Z" fill="#F50032"/>
<path d="M114.57 140.313H6.75V126.549H114.57V140.313ZM7.71375 139.349H113.606V127.543H7.71375V139.349Z" fill="#000003"/>
<path d="M47.9195 53.4246C47.8593 53.2439 47.8292 53.033 47.9195 52.7921C48.1002 51.9789 47.7388 51.0754 47.6184 50.2924C47.6184 50.1117 47.6184 49.931 47.6184 49.7503C47.528 49.5997 47.4979 49.4491 47.4678 49.2383C47.4377 48.4552 47.4075 47.6722 47.3774 46.8891C47.3774 46.5578 47.3774 46.2266 47.3774 45.8953C47.257 48.0938 46.8654 52.3705 45.4198 54.569C45.5704 54.3281 46.6847 52.4307 44.8175 52.2801C43.8236 52.1898 43.1008 52.9427 42.9502 53.8161C42.7695 55.1412 43.4622 56.0749 44.3657 56.4062C45.209 56.7375 46.6546 56.2857 47.6786 54.9003C47.6485 54.7497 47.6485 54.569 47.6786 54.3883C47.769 54.057 47.8292 53.7559 47.8894 53.4246H47.9195Z" fill="white"/>
<path d="M47.7094 54.4484C46.9264 55.6832 45.812 56.2856 44.9989 56.2856C44.8181 56.2856 44.6374 56.2856 44.4869 56.1952C43.764 55.9242 43.0412 55.1411 43.2219 53.8461C43.3123 53.1835 43.8544 52.5209 44.6676 52.5209C44.6977 52.5209 44.7579 52.5209 44.788 52.5209C45.2097 52.551 45.4506 52.6715 45.5711 52.8823C45.812 53.3341 45.3904 54.1774 45.2097 54.4484C45.1193 54.5689 45.1494 54.7195 45.2699 54.7797C45.3904 54.8399 45.541 54.8098 45.6012 54.7195C46.6553 53.1534 47.1673 50.5934 47.4383 48.425C47.4383 47.913 47.4082 47.401 47.3781 46.8589C47.3781 46.1361 47.4685 45.4133 47.348 44.7206C47.3179 44.57 47.3179 44.4495 47.348 44.329C47.348 44.329 47.348 44.2989 47.348 44.2688C47.2576 44.2989 47.1974 44.3893 47.1974 44.4796C47.1974 44.5399 47.1974 49.3887 46.053 52.7016C46.053 52.7016 46.053 52.7016 46.053 52.6715C45.8723 52.28 45.4807 52.0692 44.8784 52.039C43.8243 51.9487 42.9208 52.7317 42.7702 53.7858C42.5895 55.0809 43.1918 56.1952 44.3363 56.647C44.5471 56.7072 44.7579 56.7674 45.029 56.7674C45.8421 56.7674 46.9565 56.2856 47.86 55.1712C47.7395 54.9604 47.7094 54.7195 47.7395 54.4484H47.7094Z" fill="#000003"/>
<path d="M59.816 53.2739C64.2131 57.5205 68.3391 53.2438 68.3391 53.2438C63.942 48.9973 59.816 53.2739 59.816 53.2739Z" fill="white"/>
<path d="M63.9725 55.3822C62.4365 55.3822 60.9909 54.7196 59.6657 53.4246L59.485 53.2439L59.6356 53.0632C59.6356 53.0632 61.5932 51.0754 64.2134 51.0754C65.7494 51.0754 67.195 51.738 68.5202 53.0331L68.7009 53.2138L68.5202 53.3945C68.5202 53.3945 66.5626 55.3822 63.9725 55.3822ZM60.1777 53.274C61.3523 54.3582 62.6473 54.9003 63.9725 54.9003C65.9301 54.9003 67.4962 53.6956 68.0082 53.2138C66.8336 52.1295 65.5386 51.5874 64.2436 51.5874C62.2859 51.5874 60.7199 52.7921 60.2079 53.274H60.1777Z" fill="#000003"/>
<path d="M65.9299 53.2439C65.9299 54.2679 65.1168 55.081 64.0928 55.081C63.0688 55.081 62.2556 54.2679 62.2255 53.2439C62.2255 52.2199 63.0387 51.4067 64.0627 51.4067C65.0867 51.4067 65.8998 52.2199 65.8998 53.2439H65.9299Z" fill="white"/>
<path d="M64.0926 55.3521C62.9481 55.3521 62.0145 54.4184 62.0145 53.274C62.0145 52.1295 62.9481 51.1959 64.0926 51.1658C65.237 51.1658 66.1706 52.0994 66.1706 53.2439C66.1706 53.8161 65.9598 54.3281 65.5683 54.7196C65.1768 55.1111 64.6648 55.3219 64.0926 55.3521ZM64.0926 51.6476C63.2192 51.6476 62.4963 52.3705 62.4963 53.2439C62.4963 54.1173 63.2192 54.8401 64.0926 54.8401C64.5142 54.8401 64.9358 54.6594 65.237 54.3582C65.5382 54.057 65.6888 53.6655 65.6888 53.2137C65.6888 52.3403 64.966 51.6175 64.0926 51.6175V51.6476Z" fill="#000003"/>
<path d="M64.9662 53.2438C64.9662 53.7256 64.5747 54.1172 64.0929 54.1172C63.611 54.1172 63.2194 53.7256 63.1893 53.2438C63.1893 52.7619 63.5809 52.3704 64.0627 52.3704C64.5446 52.3704 64.9361 52.7619 64.9361 53.2438H64.9662Z" fill="#000003"/>
<path d="M55.118 67.5496C54.2145 67.5496 53.2809 67.2785 53.2206 67.2785L53.311 66.9171C53.311 66.9171 55.0879 67.399 55.9011 67.0677C56.5938 66.7665 57.0154 66.887 57.1961 67.0074C57.3768 66.887 57.7985 66.7966 58.4911 67.0677C59.3043 67.399 61.0812 66.887 61.0812 66.887L61.1716 67.2484C61.1716 67.2484 59.2742 67.7905 58.3406 67.399C57.5876 67.0978 57.3166 67.3387 57.3166 67.3689L57.1961 67.4893L57.0756 67.3689C57.0756 67.3689 56.8046 67.1279 56.0517 67.4291C55.7806 67.5496 55.4493 67.5797 55.118 67.5797V67.5496Z" fill="#000003"/>
<path d="M61.0509 67.4291L60.8099 66.7666L61.2617 66.616L61.5026 67.2484L61.0509 67.4291Z" fill="#000003"/>
<path d="M53.2156 66.6656L52.9911 67.3843L53.3361 67.492L53.5605 66.7733L53.2156 66.6656Z" fill="#000003"/>
<path d="M55.4492 68.5435C55.4492 68.5435 57.4068 69.6277 59.3946 68.6037C59.3946 68.6037 57.437 71.7359 55.4492 68.5435Z" fill="#000003"/>
<path d="M47.4982 68.9951L47.4079 53.1836L47.0464 49.419V48.9973L47.197 44.0581L47.6789 44.0882L47.5283 48.9973V49.419L47.8897 53.1535L47.9801 68.965L47.4982 68.9951Z" fill="#000003"/>
<path d="M82.1164 39.9406L47.2712 40.1169L47.2935 44.514L82.1386 44.3376L82.1164 39.9406Z" fill="white"/>
<path d="M47.0464 44.7206V39.8416L82.3438 39.6609V44.5399L47.0464 44.7206ZM47.4982 40.3536V44.2688L81.8619 44.0881V40.1729L47.4982 40.3536Z" fill="#000003"/>
<path d="M63.37 31.7101H63.0086L42.1374 31.8305C46.2333 34.2399 47.2573 40.1128 47.2573 40.1128L63.0387 40.0224H63.4001L82.1029 39.9321C82.1029 39.9321 83.0968 34.0592 87.1626 31.5896L63.37 31.7101Z" fill="#FFCE57"/>
<path d="M47.0767 40.3537V40.1429C47.0767 40.1429 45.9623 34.3604 42.017 32.0413L41.264 31.5896L88.0059 31.3486L87.253 31.8004C83.3377 34.1796 82.3439 39.9019 82.3138 39.9621V40.173L47.0465 40.3537H47.0767ZM42.9205 32.0714C46.143 34.4507 47.2574 38.8779 47.4682 39.8718L81.9222 39.6911C82.1331 38.6972 83.157 34.27 86.3796 31.8305L42.9506 32.0413L42.9205 32.0714Z" fill="#000003"/>
<path d="M114.268 127.362L7.23138 127.904V90.7097L43.9442 75.4704C43.9442 75.4704 50.1183 78.9942 58.0692 72.1274C58.0692 72.1274 63.7011 77.7292 70.5678 75.9523C70.5678 75.9523 74.9951 75.0187 75.5974 71.3745C75.5974 71.3745 78.1273 73.9345 81.1691 73.1213C81.1691 73.1213 81.7413 73.031 82.4039 72.6997C82.4039 72.6997 83.6989 72.6997 84.8133 72.0672L114.117 91.0109" fill="#FFCE57"/>
<path d="M6.75 128.386V90.3784L43.9748 74.9282L44.1857 75.0487C44.4266 75.1692 50.179 78.3014 57.7384 71.7358L58.0697 71.4346L58.401 71.7659C58.401 71.7659 63.9124 77.1268 70.4177 75.4402C70.478 75.4402 74.5438 74.5066 75.0859 71.2539L75.2365 70.3203L75.8991 70.9829C75.8991 70.9829 78.2783 73.332 81.019 72.5791H81.0792C81.0792 72.5791 81.5912 72.4888 82.1333 72.2177L82.2538 72.1575H82.3743C82.3743 72.1575 83.5789 72.1575 84.5427 71.5852L84.8137 71.4346L114.359 90.5289L113.847 91.3421L84.7836 72.5791C83.85 73.0309 82.8561 73.1212 82.5248 73.1513C81.9225 73.4224 81.4105 73.5429 81.29 73.5429C78.9108 74.1753 76.8929 72.9706 75.8991 72.2177C74.8148 75.5005 70.8695 76.3739 70.6888 76.404C64.5449 78.0002 59.425 73.9645 58.0998 72.7598C50.9018 78.7832 45.1795 76.5847 43.9748 76.0125L7.71375 91.0108V127.392L114.268 126.85V127.814L6.75 128.386Z" fill="#000003"/>
<path d="M43.6435 89.5349H18.8269V90.2577H43.6435V89.5349Z" fill="#000003"/>
<path d="M45.9023 92.6372H21.0858V93.36H45.9023V92.6372Z" fill="#000003"/>
<path d="M48.1908 95.709H22.1394V96.4318H48.1908V95.709Z" fill="#000003"/>
<path d="M50.4502 98.781H24.0676V99.5038H50.4502V98.781Z" fill="#000003"/>
<path d="M116.25 140.349V139.849H115.75H3.75H3.25V140.349V145.349V145.849H3.75H115.75H116.25V145.349V140.349Z" fill="#F50032" stroke="black"/>
<path d="M116.25 151.349V150.849H115.75H3.75H3.25V151.349V156.349V156.849H3.75H115.75H116.25V156.349V151.349Z" fill="white" stroke="black"/>
<path d="M9.69563 151.849L8.25 153.806L9.72574 155.764L11.1413 153.806L9.69563 151.849Z" fill="#000003"/>
<path d="M12.6956 151.849L11.25 153.806L12.7257 155.764L14.1413 153.806L12.6956 151.849Z" fill="#000003"/>
<path d="M15.6956 151.849L14.25 153.806L15.7257 155.764L17.1413 153.806L15.6956 151.849Z" fill="#000003"/>
<path d="M18.6956 151.849L17.25 153.806L18.7257 155.764L20.1413 153.806L18.6956 151.849Z" fill="#000003"/>
<path d="M21.6956 151.849L20.25 153.806L21.7257 155.764L23.1413 153.806L21.6956 151.849Z" fill="#000003"/>
<path d="M24.6956 151.849L23.25 153.806L24.7257 155.764L26.1413 153.806L24.6956 151.849Z" fill="#000003"/>
<path d="M27.6956 151.849L26.25 153.806L27.7257 155.764L29.1413 153.806L27.6956 151.849Z" fill="#000003"/>
<path d="M30.6956 151.849L29.25 153.806L30.7257 155.764L32.1413 153.806L30.6956 151.849Z" fill="#000003"/>
<path d="M33.6956 151.849L32.25 153.806L33.7257 155.764L35.1413 153.806L33.6956 151.849Z" fill="#000003"/>
<path d="M36.6956 151.849L35.25 153.806L36.7257 155.764L38.1413 153.806L36.6956 151.849Z" fill="#000003"/>
<path d="M39.6956 151.849L38.25 153.806L39.7257 155.764L41.1413 153.806L39.6956 151.849Z" fill="#000003"/>
<path d="M42.6956 151.849L41.25 153.806L42.7257 155.764L44.1413 153.806L42.6956 151.849Z" fill="#000003"/>
<path d="M45.6956 151.849L44.25 153.806L45.7257 155.764L47.1413 153.806L45.6956 151.849Z" fill="#000003"/>
<path d="M48.6956 151.849L47.25 153.806L48.7257 155.764L50.1413 153.806L48.6956 151.849Z" fill="#000003"/>
<path d="M51.6956 151.849L50.25 153.806L51.7257 155.764L53.1413 153.806L51.6956 151.849Z" fill="#000003"/>
<path d="M54.6956 151.849L53.25 153.806L54.7257 155.764L56.1413 153.806L54.6956 151.849Z" fill="#000003"/>
<path d="M57.6956 151.849L56.25 153.806L57.7257 155.764L59.1413 153.806L57.6956 151.849Z" fill="#000003"/>
<path d="M60.6956 151.849L59.25 153.806L60.7257 155.764L62.1413 153.806L60.6956 151.849Z" fill="#000003"/>
<path d="M63.6956 151.849L62.25 153.806L63.7257 155.764L65.1413 153.806L63.6956 151.849Z" fill="#000003"/>
<path d="M66.6956 151.849L65.25 153.806L66.7257 155.764L68.1413 153.806L66.6956 151.849Z" fill="#000003"/>
<path d="M69.6956 151.849L68.25 153.806L69.7257 155.764L71.1413 153.806L69.6956 151.849Z" fill="#000003"/>
<path d="M72.6956 151.849L71.25 153.806L72.7257 155.764L74.1413 153.806L72.6956 151.849Z" fill="#000003"/>
<path d="M75.6956 151.849L74.25 153.806L75.7257 155.764L77.1413 153.806L75.6956 151.849Z" fill="#000003"/>
<path d="M78.6956 151.849L77.25 153.806L78.7257 155.764L80.1413 153.806L78.6956 151.849Z" fill="#000003"/>
<path d="M81.6956 151.849L80.25 153.806L81.7257 155.764L83.1413 153.806L81.6956 151.849Z" fill="#000003"/>
<path d="M84.6956 151.849L83.25 153.806L84.7257 155.764L86.1413 153.806L84.6956 151.849Z" fill="#000003"/>
<path d="M87.6956 151.849L86.25 153.806L87.7257 155.764L89.1413 153.806L87.6956 151.849Z" fill="#000003"/>
<path d="M90.6956 151.849L89.25 153.806L90.7257 155.764L92.1413 153.806L90.6956 151.849Z" fill="#000003"/>
<path d="M93.6956 151.849L92.25 153.806L93.7257 155.764L95.1413 153.806L93.6956 151.849Z" fill="#000003"/>
<path d="M96.6956 151.849L95.25 153.806L96.7257 155.764L98.1413 153.806L96.6956 151.849Z" fill="#000003"/>
<path d="M99.6956 151.849L98.25 153.806L99.7257 155.764L101.141 153.806L99.6956 151.849Z" fill="#000003"/>
<path d="M102.696 151.849L101.25 153.806L102.726 155.764L104.141 153.806L102.696 151.849Z" fill="#000003"/>
<path d="M105.696 151.849L104.25 153.806L105.726 155.764L107.141 153.806L105.696 151.849Z" fill="#000003"/>
<path d="M108.696 151.849L107.25 153.806L108.726 155.764L110.141 153.806L108.696 151.849Z" fill="#000003"/>
<path d="M111.696 151.849L110.25 153.806L111.726 155.764L113.141 153.806L111.696 151.849Z" fill="#000003"/>
<path d="M52.6781 101.883H24.4884V102.606H52.6781V101.883Z" fill="#000003"/>
<path d="M54.9674 104.955H26.3862V105.678H54.9674V104.955Z" fill="#000003"/>
<path d="M57.2263 108.027H27.862V108.75H57.2263V108.027Z" fill="#000003"/>
<path d="M54.3041 111.129H29.4875V111.852H54.3041V111.129Z" fill="#000003"/>
<path d="M84.7533 72.007L114.057 90.9507V127.362L63.0388 127.603L38.403 77.7594L43.9445 75.4704C43.9445 75.4704 50.1185 78.9942 58.0695 72.1274C58.0695 72.1274 63.7014 77.7292 70.5681 75.9523C70.5681 75.9523 74.9953 75.0187 75.5977 71.3745C75.5977 71.3745 78.1275 73.9345 81.1694 73.1213C81.1694 73.1213 81.7416 73.031 82.4042 72.6997C82.4042 72.6997 83.6992 72.6997 84.8135 72.0672L84.7533 72.007Z" fill="#000003"/>
<path d="M88.5781 84.9272H46.5947V94.4142H88.5781V84.9272Z" fill="#FFCE57"/>
<path d="M88.0958 85.4089V93.9321H47.0762V85.4089H88.0958ZM89.0897 84.415H46.1124V94.8958H89.0897V84.415Z" fill="#000003"/>
<path d="M88.4278 87.5474H46.7758V91.7638H88.4278V87.5474Z" fill="#F50032"/>
<path d="M88.0963 87.8786V91.4625H47.0767V87.8786H88.0963ZM88.7287 87.2461H46.4442V92.095H88.7287V87.2461Z" fill="#000003"/>
<path d="M88.0659 97.3655H51.3831V106.883H88.0659V97.3655Z" fill="#FFCE57"/>
<path d="M87.584 97.8475V106.371H51.8651V97.8475H87.584ZM88.5478 96.8838H50.9013V107.365H88.5478V96.8838Z" fill="#000003"/>
<path d="M87.9153 100.016H51.5638V104.232H87.9153V100.016Z" fill="#F50032"/>
<path d="M87.5846 100.317V103.901H51.8656V100.317H87.5846ZM88.2171 99.6846H51.2332V104.533H88.2171V99.6846Z" fill="#000003"/>
<path d="M61.473 119.321L61.3225 119.05C61.3225 119.05 61.3225 119.02 61.2923 118.99C60.6298 118.207 60.1479 117.303 59.6961 116.46L59.4552 116.008L59.666 115.737C60.5695 114.653 59.0336 112.454 58.2204 111.28C58.0999 111.129 58.0096 110.978 57.9192 110.858C57.859 110.768 57.7987 110.707 57.7385 110.647L56.3832 109.744H87.5846V119.231H61.5032L61.473 119.321Z" fill="#FFCE57"/>
<path d="M87.0722 110.316V118.839H61.7437C61.7437 118.839 61.6834 118.749 61.6533 118.718C60.9908 117.905 60.5089 117.002 60.027 116.128C61.2919 114.592 59.1235 111.852 58.3103 110.647C58.22 110.497 58.0995 110.406 57.979 110.316H87.0421M88.036 109.352H54.7264L57.4369 111.159C57.4369 111.159 57.4369 111.159 57.4972 111.219C57.5875 111.34 57.6779 111.49 57.7983 111.641C58.4308 112.575 59.9367 114.713 59.2741 115.526L58.8524 116.038L59.1837 116.61L59.2741 116.761C59.756 117.604 60.2378 118.508 60.9004 119.321V119.381L61.2016 119.833H88.036V109.352Z" fill="#000003"/>
<path d="M59.9667 116.701L59.6354 116.099L59.7558 115.918C60.2678 115.285 60.1474 114.322 59.3944 112.936L59.1535 112.454H87.3432V116.671H59.9366L59.9667 116.701Z" fill="#F50032"/>
<path d="M87.0725 112.786V116.369H60.1778C60.1778 116.369 60.0875 116.189 60.0574 116.129C60.7802 115.255 60.3585 113.96 59.7261 112.786H87.0725ZM87.7049 112.153H58.6418L59.1538 113.087C59.8164 114.322 59.967 115.195 59.5454 115.707L59.2743 116.038L59.4851 116.43L59.5454 116.55L59.6357 116.671L59.8164 117.002H87.735V112.153H87.7049Z" fill="#000003"/>
<path d="M84.2714 73.2114L84.5425 126.7L114.087 126.549V90.6492L84.7834 72.6392L84.2714 73.2114Z" fill="#FFCE57"/>
<path d="M84.0601 127.182L83.7891 73.0308L84.6625 72.0068L114.569 90.3783V127.031L84.0601 127.182ZM84.7528 73.3922L85.0239 126.188L113.605 126.037V90.8903L84.8733 73.2416L84.7528 73.3621V73.3922Z" fill="#000003"/>
<path d="M18.1342 86.4028L37.6201 127.754L15.755 127.844L12.0807 92.7877L18.1342 86.4028Z" fill="#000003"/>
<path d="M7.71332 91.0108L18.2242 86.6438C16.7786 88.6014 14.8511 92.2456 15.1824 97.5763L15.2426 127.332H7.71332V90.9807V91.0108Z" fill="#FFCE57"/>
<path d="M16.9291 87.728C15.6642 89.8964 14.3993 93.2093 14.7004 97.6064L14.7607 126.88H8.19513V91.342L16.9291 87.728ZM19.971 85.4089L7.23138 90.7096V127.904H15.7545L15.6943 97.5763C15.1823 89.5952 20.0011 85.4089 20.0011 85.4089H19.971Z" fill="#000003"/>
<path d="M32.3794 127.272C31.9276 127.272 31.5361 126.67 31.5361 125.947L31.4759 117.153C31.4759 116.761 31.5964 116.4 31.7771 116.159C31.8674 116.038 32.0481 115.827 32.3192 115.827L51.2629 115.737C53.7927 121.038 56.7442 124.863 60.0571 127.121L32.3493 127.272H32.3794Z" fill="#FFCE57"/>
<path d="M50.9616 116.249C53.1601 120.827 55.7201 124.32 58.5812 126.64L32.4094 126.76C32.4094 126.76 32.0781 126.459 32.0781 125.947L32.0179 117.153C32.0179 116.641 32.2588 116.339 32.3492 116.339L50.9616 116.249ZM51.594 115.225L32.319 115.315C31.5661 115.315 30.9638 116.159 30.9939 117.153L31.0541 125.947C31.0541 126.971 31.6565 127.784 32.4094 127.784L61.9242 127.633C57.3464 125.314 54.0034 120.375 51.594 115.225Z" fill="#000003"/>
<path d="M35.7523 119.14L47.9497 119.08C48.8834 120.827 49.9073 122.513 51.2024 123.869L35.7824 123.929V119.14H35.7523Z" fill="#FFCE57"/>
<path d="M47.2275 120.285C47.6793 121.098 48.1611 121.881 48.6731 122.634L36.9876 122.694V120.345L47.2275 120.285ZM48.6731 117.845L35.4216 117.905C34.9397 117.905 34.5482 118.387 34.5482 118.96V124.079C34.5482 124.652 34.9698 125.134 35.4517 125.134L54.9074 125.043C51.8957 123.688 50.2392 120.827 48.6731 117.845Z" fill="#000003"/>
<path d="M97.1918 80.2892L88.8494 75.1392V126.399H97.1918V80.2892Z" fill="#FFCE57"/>
<path d="M97.6729 126.91H88.3366V74.2656L97.6729 79.9879V126.88V126.91ZM89.3305 125.917H96.7092V80.5601L89.3305 76.0425V125.947V125.917Z" fill="#000003"/>
<path d="M111.437 89.0531L103.095 83.9031V126.398H111.437V89.0531Z" fill="#FFCE57"/>
<path d="M111.949 126.91H102.612V83.0598L111.949 88.7821V126.91ZM103.576 125.917H110.955V89.3242L103.576 84.8066V125.947V125.917Z" fill="#000003"/>
<path d="M107.117 130.862L101.244 130.89L101.3 142.786L107.173 142.759L107.117 130.862Z" fill="#FFCE57"/>
<path d="M106.889 131.127L106.949 142.541H101.558L101.498 131.157H106.889M107.371 130.645H101.016L101.076 143.053H107.431L107.371 130.645Z" fill="#000003"/>
<path d="M99.8718 128.326V128.567L107.371 128.537V128.296L99.8718 128.326Z" fill="black"/>
<path d="M110.481 128.28L97.2 128.348L97.2118 130.697L110.493 130.63L110.481 128.28Z" fill="#000003"/>
<path d="M100.745 131.458C100.745 131.458 100.655 130.976 101.649 130.705C101.649 130.705 108.907 129.621 109.6 131.428C109.6 131.428 110.172 132.573 105.173 132.543C105.173 132.543 101.077 132.543 100.745 131.488V131.458Z" fill="white"/>
<path d="M105.504 132.783H105.203C104.179 132.783 100.866 132.693 100.505 131.518C100.505 131.428 100.384 130.735 101.589 130.404C101.649 130.404 103.818 130.073 105.896 130.073C108.275 130.073 109.57 130.464 109.871 131.277C109.931 131.368 109.961 131.609 109.811 131.82C109.419 132.452 108.004 132.753 105.504 132.753V132.783ZM101.017 131.398C101.258 131.94 103.306 132.241 105.173 132.241H105.504C108.576 132.241 109.208 131.759 109.329 131.609C109.359 131.548 109.359 131.518 109.359 131.518C109.148 130.976 107.883 130.645 105.896 130.645C103.908 130.645 101.739 130.946 101.709 130.946C101.197 131.097 101.047 131.308 101.047 131.398H101.017Z" fill="#000003"/>
<path d="M100.896 133.597C100.896 133.597 100.806 133.115 101.8 132.844C101.8 132.844 109.058 131.789 109.751 133.566C109.751 133.566 110.323 134.711 105.323 134.681C105.323 134.681 101.227 134.681 100.896 133.627V133.597Z" fill="white"/>
<path d="M105.654 134.922H105.353C104.329 134.922 101.016 134.831 100.655 133.687C100.655 133.596 100.534 132.904 101.739 132.572C101.799 132.572 103.967 132.241 106.046 132.241C108.395 132.241 109.72 132.633 110.021 133.446C110.081 133.536 110.111 133.777 109.961 133.988C109.569 134.62 108.154 134.922 105.654 134.922ZM101.167 133.536C101.408 134.078 103.455 134.38 105.323 134.38H105.654C108.726 134.38 109.358 133.898 109.479 133.747C109.539 133.687 109.539 133.657 109.539 133.657C109.419 133.325 108.786 132.813 106.076 132.813C104.028 132.813 101.92 133.115 101.889 133.115C101.377 133.265 101.227 133.476 101.227 133.536H101.167Z" fill="#000003"/>
<path d="M101.046 135.735C101.046 135.735 100.926 135.253 101.95 134.982C101.95 134.982 109.208 133.898 109.9 135.705C109.9 135.705 110.473 136.849 105.473 136.819C105.473 136.819 101.377 136.819 101.046 135.765V135.735Z" fill="white"/>
<path d="M105.775 137.06H105.473C104.449 137.06 101.137 136.97 100.775 135.825C100.775 135.735 100.655 135.042 101.859 134.711C101.92 134.711 104.088 134.38 106.166 134.38C108.545 134.38 109.84 134.771 110.142 135.584C110.202 135.675 110.232 135.916 110.081 136.126C109.69 136.759 108.274 137.06 105.744 137.06H105.775ZM101.317 135.675C101.558 136.187 103.606 136.518 105.473 136.518H105.775C108.847 136.518 109.479 136.036 109.63 135.885C109.66 135.825 109.66 135.795 109.66 135.795C109.539 135.464 108.907 134.922 106.196 134.922C104.178 134.922 102.04 135.223 102.01 135.253C101.498 135.404 101.347 135.584 101.347 135.675H101.317Z" fill="#000003"/>
<path d="M101.799 131.79C101.799 131.79 101.619 131.308 101.799 131.097C101.799 131.097 102.552 130.675 102.884 131.097C102.884 131.097 103.275 131.549 102.884 132C102.884 132 102.643 132.181 101.799 131.79Z" fill="white"/>
<path d="M102.673 132.151C102.432 132.151 102.131 132.061 101.739 131.91H101.679V131.85C101.679 131.79 101.468 131.278 101.679 131.007H101.709C101.709 131.007 102.07 130.766 102.432 130.766C102.643 130.766 102.823 130.856 102.944 131.007C103.094 131.187 103.305 131.669 102.944 132.061C102.884 132.091 102.823 132.151 102.643 132.151H102.673ZM101.92 131.699C102.522 131.97 102.763 131.91 102.823 131.91C103.125 131.579 102.823 131.217 102.823 131.187C102.733 131.097 102.643 131.037 102.492 131.037C102.251 131.037 101.98 131.157 101.92 131.217C101.83 131.338 101.92 131.579 101.92 131.729V131.699Z" fill="#000003"/>
<path d="M101.83 133.928C101.83 133.928 101.649 133.446 101.83 133.235C101.83 133.235 102.582 132.813 102.914 133.235C102.914 133.235 103.305 133.687 102.914 134.139C102.914 134.139 102.673 134.319 101.83 133.928Z" fill="white"/>
<path d="M102.703 134.289C102.462 134.289 102.161 134.199 101.769 134.018H101.709V133.958C101.709 133.898 101.498 133.386 101.709 133.145H101.739C101.739 133.145 102.101 132.904 102.462 132.904C102.673 132.904 102.854 132.994 102.974 133.145C103.125 133.325 103.335 133.807 102.974 134.229C102.914 134.259 102.854 134.319 102.673 134.319L102.703 134.289ZM101.92 133.837C102.522 134.109 102.763 134.048 102.824 134.048C103.125 133.687 102.824 133.356 102.824 133.325C102.733 133.235 102.643 133.175 102.492 133.175C102.251 133.175 101.98 133.295 101.92 133.325C101.83 133.446 101.92 133.687 101.92 133.837Z" fill="#000003"/>
<path d="M101.98 135.885C101.98 135.885 101.8 135.404 101.98 135.193C101.98 135.193 102.733 134.771 103.065 135.193C103.065 135.193 103.456 135.645 103.065 136.096C103.065 136.096 102.824 136.277 101.98 135.885Z" fill="white"/>
<path d="M102.854 136.247C102.613 136.247 102.312 136.157 101.92 136.006H101.86V135.946C101.86 135.885 101.649 135.373 101.86 135.133C101.86 135.133 102.221 134.892 102.583 134.892C102.793 134.892 102.974 134.982 103.095 135.133C103.245 135.313 103.456 135.795 103.095 136.187C103.034 136.217 102.974 136.277 102.793 136.277L102.854 136.247ZM102.101 135.795C102.703 136.066 102.944 136.006 103.004 135.976C103.275 135.645 103.004 135.283 103.004 135.253C102.914 135.163 102.824 135.102 102.673 135.102C102.432 135.102 102.161 135.223 102.101 135.283C102.01 135.404 102.101 135.645 102.101 135.795Z" fill="#000003"/>
<path d="M108.485 138.656C106.739 139.289 103.305 138.475 103.305 138.475C101.89 137.542 103.215 136.819 103.215 136.819C103.215 136.819 109.509 136.427 110.142 137.753C110.142 137.753 110.865 139.469 107.13 140.102L106.95 139.048L108.455 138.656H108.485Z" fill="white"/>
<path d="M106.92 140.433L106.709 139.168C105.052 139.168 103.336 138.747 103.245 138.747H103.155C102.613 138.355 102.372 137.994 102.372 137.572C102.372 136.97 103.004 136.608 103.065 136.578H103.125L103.185 136.548C103.185 136.548 104.059 136.488 105.203 136.488C109.841 136.488 110.233 137.361 110.383 137.632C110.383 137.662 110.624 138.174 110.293 138.807C109.871 139.56 108.817 140.102 107.161 140.373L106.89 140.433H106.92ZM107.281 139.228L107.371 139.771C108.998 139.439 109.6 138.927 109.811 138.536C110.022 138.174 109.901 137.843 109.901 137.843C109.811 137.662 109.209 137 105.233 137C104.299 137 103.547 137.03 103.336 137.06C103.215 137.15 102.974 137.361 102.944 137.572C102.944 137.813 103.185 138.024 103.426 138.204C103.727 138.265 105.293 138.596 106.739 138.596C107.161 138.596 107.522 138.596 107.853 138.506L108.426 138.355L108.576 138.897C108.395 138.957 108.185 139.018 107.944 139.078L107.311 139.228H107.281Z" fill="#000003"/>
<path d="M103.396 137.903C103.396 137.903 103.215 137.421 103.396 137.211C103.396 137.211 104.149 136.789 104.48 137.211C104.48 137.211 104.871 137.662 104.48 138.114C104.48 138.114 104.239 138.295 103.396 137.903Z" fill="white"/>
<path d="M104.269 138.295C104.028 138.295 103.727 138.204 103.335 138.024H103.305V137.964C103.305 137.903 103.094 137.391 103.305 137.15C103.305 137.15 103.667 136.909 104.028 136.909C104.239 136.909 104.42 137 104.54 137.15C104.691 137.331 104.901 137.783 104.54 138.204C104.51 138.235 104.42 138.295 104.239 138.295H104.269ZM103.516 137.813C104.118 138.084 104.359 138.024 104.42 137.994C104.691 137.662 104.42 137.301 104.42 137.271C104.359 137.18 104.239 137.12 104.088 137.12C103.847 137.12 103.576 137.241 103.516 137.271C103.426 137.391 103.516 137.632 103.516 137.783V137.813Z" fill="#000003"/>
<path d="M108.907 141.969C108.907 142.933 106.859 143.716 104.329 143.716C101.799 143.716 99.7513 142.963 99.7513 141.999C99.7513 141.035 101.799 140.252 104.329 140.252C106.859 140.252 108.907 141.005 108.907 141.969Z" fill="#FFCE57"/>
<path d="M104.299 143.927C101.619 143.927 99.5709 143.114 99.5709 142.029C99.5709 140.945 101.619 140.102 104.329 140.072H104.39C107.07 140.072 109.088 140.885 109.088 141.969C109.088 142.24 108.967 142.481 108.757 142.722C108.034 143.445 106.317 143.927 104.329 143.927H104.269H104.299ZM104.39 140.463H104.329C101.769 140.463 99.9624 141.307 99.9624 142.029C99.9624 142.752 101.709 143.535 104.299 143.535H104.36C106.197 143.535 107.883 143.083 108.516 142.451C108.666 142.3 108.757 142.15 108.757 141.969C108.757 141.246 107.01 140.463 104.45 140.463H104.39Z" fill="#000003"/>
<path d="M108.997 142.752C108.997 143.716 106.919 144.499 104.329 144.499C101.739 144.499 99.6609 143.746 99.6307 142.782C99.6307 141.818 101.709 141.035 104.299 141.035C106.889 141.035 108.967 141.788 108.997 142.752Z" fill="#FFCE57"/>
<path d="M104.27 144.71C101.529 144.71 99.4509 143.897 99.4509 142.812C99.4509 141.608 101.921 140.855 104.33 140.855H104.39C107.131 140.855 109.209 141.668 109.209 142.752C109.209 143.866 107.101 144.68 104.33 144.71H104.27ZM104.39 141.246H104.33C101.68 141.246 99.8424 142.059 99.8424 142.782C99.8424 143.505 101.619 144.288 104.27 144.288H104.33C106.98 144.288 108.787 143.475 108.787 142.752C108.787 142.029 106.95 141.246 104.36 141.246H104.39Z" fill="#000003"/>
<path d="M101.077 139.771C101.077 139.771 98.7276 139.53 98.7577 137.602C98.7577 137.602 95.6857 133.326 98.9083 131.458C102.131 129.621 103.637 132 104.631 134.621C104.631 134.621 103.456 136.307 100.896 132.964" fill="white"/>
<path d="M101.047 140.011C100.173 139.921 98.5169 139.319 98.5169 137.692C98.2459 137.271 96.8605 135.132 97.2821 133.265C97.4628 132.422 97.9748 131.759 98.788 131.277C99.9626 130.615 101.017 130.434 101.92 130.765C103.426 131.307 104.269 133.084 104.842 134.56L104.902 134.681L104.842 134.771C104.842 134.771 104.48 135.283 103.757 135.313C102.854 135.313 101.83 134.59 100.685 133.114L101.077 132.813C102.372 134.5 103.245 134.831 103.727 134.831C104.028 134.831 104.239 134.681 104.33 134.59C103.787 133.235 103.004 131.669 101.739 131.217C100.956 130.946 100.053 131.097 98.9988 131.699C98.3061 132.09 97.8544 132.663 97.7038 133.355C97.3122 135.193 98.9085 137.451 98.9085 137.481L98.9687 137.542V137.632C98.9085 139.288 100.956 139.529 101.047 139.56L100.987 140.041L101.047 140.011Z" fill="#000003"/>
<path d="M103.757 132.753L103.004 133.356C103.004 133.356 103.215 134.5 104.209 133.958L103.757 132.753Z" fill="white"/>
<path d="M103.727 134.259C103.064 134.259 102.884 133.446 102.884 133.386V133.326L103.817 132.542L104.39 134.018L104.299 134.078C104.119 134.199 103.908 134.259 103.757 134.259H103.727ZM103.155 133.416C103.215 133.597 103.366 133.988 103.727 133.988C103.727 133.988 103.938 133.988 104.058 133.898L103.697 132.964L103.155 133.416Z" fill="#000003"/>
<path d="M77.4647 130.224C77.0431 131.217 76.8323 132.332 76.8323 133.476C76.8323 138.174 80.6873 141.969 85.3856 141.969C90.0838 141.969 93.8786 138.114 93.8485 133.416C93.8485 131.729 93.3365 130.163 92.4932 128.868L85.235 115.617L77.4346 130.254L77.4647 130.224Z" fill="#F50032"/>
<path d="M85.2646 114.683L92.9143 128.627C93.8178 130.043 94.2997 131.699 94.3298 133.416C94.3298 138.355 90.3544 142.391 85.4151 142.421C80.4759 142.421 76.4402 138.445 76.4101 133.506C76.4101 132.332 76.6209 131.157 77.0727 130.073L85.2646 114.683ZM85.385 141.547C89.8424 141.547 93.4564 137.873 93.4263 133.416C93.4263 131.88 92.9746 130.374 92.1614 129.079L85.2947 116.49L77.8858 130.404C77.4943 131.368 77.2835 132.422 77.2835 133.476C77.2835 137.933 80.9578 141.547 85.4151 141.517L85.385 141.547Z" fill="#000003"/>
<path d="M77.4647 130.223C77.0431 131.217 76.8323 132.332 76.8323 133.476C76.8323 138.174 80.6873 141.969 85.3856 141.969C90.0838 141.969 93.8786 138.114 93.8485 133.416C93.8485 131.729 93.3365 130.163 92.4932 128.868C92.4932 128.868 92.3426 137.06 85.3554 137.271C85.3554 137.271 77.6454 137.301 78.4586 128.296L77.4346 130.223H77.4647Z" fill="white"/>
<path d="M79.1207 126.188L78.9099 128.326C78.6389 131.097 79.2111 133.265 80.5664 134.741C82.4637 136.819 85.3249 136.819 85.355 136.819C91.8603 136.608 92.0711 129.139 92.0711 128.838V127.422L92.8843 128.627C93.7878 130.073 94.2697 131.699 94.2998 133.416C94.2998 138.355 90.3243 142.391 85.3851 142.421C80.4459 142.421 76.4102 138.445 76.3801 133.506C76.3801 132.331 76.5909 131.157 77.0426 130.073L79.0906 126.188H79.1207ZM85.3851 137.692C85.2345 137.692 82.0722 137.692 79.9339 135.313C78.7292 134.018 78.0967 132.271 78.0064 130.103L77.8558 130.374C77.4643 131.338 77.2535 132.392 77.2535 133.446C77.2535 137.903 80.9278 141.517 85.3851 141.487C89.8424 141.487 93.4565 137.813 93.4264 133.355C93.4264 132.271 93.2156 131.217 92.7939 130.223C92.3723 132.693 90.8363 137.481 85.3851 137.632V137.692Z" fill="#000003"/>
<path d="M80.4461 124.652C80.2051 125.284 80.0546 125.947 80.0546 126.67C80.0546 129.591 82.4338 131.94 85.3552 131.91C88.2464 131.91 90.6257 129.531 90.5956 126.609C90.5956 125.585 90.2944 124.591 89.7523 123.778L85.2648 115.586L80.4461 124.652Z" fill="#FFCE57"/>
<path d="M85.2653 114.894L90.0539 123.628C90.6261 124.531 90.9273 125.555 90.9273 126.609C90.9273 129.711 88.4577 132.211 85.3556 132.241C82.2535 132.241 79.7538 129.772 79.7237 126.67C79.7237 125.917 79.8442 125.194 80.1453 124.531L85.2653 114.894ZM85.3556 131.609C88.0662 131.609 90.2948 129.35 90.2647 126.64C90.2647 125.706 89.9937 124.772 89.4817 123.989L85.2653 116.279L80.7176 124.802C80.4766 125.405 80.3562 126.037 80.3562 126.67C80.3562 129.41 82.5848 131.609 85.3255 131.609H85.3556Z" fill="#000003"/>
<path d="M82.2536 124.983C82.103 125.374 82.0127 125.796 82.0127 126.248C82.0127 128.085 83.5186 129.561 85.3557 129.531C87.1929 129.531 88.6686 128.025 88.6385 126.218C88.6385 125.555 88.4578 124.953 88.1265 124.441L85.2955 119.291L82.2536 124.983Z" fill="#F50032"/>
<path d="M85.2954 118.839L88.3071 124.321C88.6685 124.863 88.8492 125.525 88.8492 126.188C88.8492 128.115 87.2831 129.712 85.3556 129.712C83.4281 129.712 81.8319 128.145 81.8319 126.218C81.8319 125.766 81.9223 125.284 82.103 124.863L85.3255 118.809L85.2954 118.839ZM85.3556 129.32C87.0723 129.32 88.4577 127.904 88.4577 126.188C88.4577 125.585 88.277 125.013 87.9758 124.531L85.3255 119.713L82.4644 125.073C82.3138 125.435 82.2535 125.826 82.2535 126.248C82.2535 127.965 83.6691 129.35 85.3857 129.35L85.3556 129.32Z" fill="#000003"/>
<path d="M85.2649 114.833L91.5293 126.308C92.2822 127.483 92.6737 128.838 92.6737 130.223C92.6737 134.289 89.4211 137.602 85.3552 137.602C81.2894 137.602 77.9765 134.349 77.9464 130.284C77.9464 129.32 78.1271 128.356 78.4885 127.483L85.2047 114.833H85.2649ZM85.3552 136.909C89.0295 136.909 91.981 133.898 91.981 130.223C91.981 128.958 91.6196 127.724 90.9269 126.67L85.2649 116.339L79.1812 127.784C78.8499 128.597 78.6993 129.44 78.6993 130.314C78.6993 133.988 81.7111 136.94 85.3552 136.94V136.909Z" fill="#000003"/>
<path d="M92.2222 131.82L91.7102 132.874L92.5234 138.024C92.7342 137.693 92.9149 137.361 93.0956 137L92.2222 131.79V131.82Z" fill="#000003"/>
<path d="M90.6262 140.132C90.8671 139.951 91.0779 139.77 91.2586 139.56L90.7165 134.952L90.054 135.253L90.6262 140.132Z" fill="#000003"/>
<path d="M88.8192 136.156L88.0964 136.699L88.4578 141.367C88.6987 141.276 88.9397 141.156 89.1505 141.066L88.7891 136.156H88.8192Z" fill="#000003"/>
<path d="M86.7707 136.97L86.0479 137.09L86.1683 141.939C86.4093 141.939 86.6502 141.879 86.8911 141.849L86.7707 137V136.97Z" fill="#000003"/>
<path d="M83.8794 141.849C84.1203 141.879 84.3612 141.909 84.5721 141.939L84.6624 137.241L83.9396 137L83.8492 141.849H83.8794Z" fill="#000003"/>
<path d="M81.6208 141.096C81.8316 141.216 82.0725 141.306 82.3135 141.397L82.6147 136.548L81.922 136.187L81.6208 141.096Z" fill="#000003"/>
<path d="M80.6872 135.253L80.0247 134.801L79.4825 139.62C79.6934 139.831 79.9042 140.011 80.1451 140.192L80.6872 135.253Z" fill="#000003"/>
<path d="M78.489 131.729L77.6458 137.09C77.7963 137.452 78.0072 137.783 78.218 138.084L78.9709 132.874L78.489 131.699V131.729Z" fill="#000003"/>
<path d="M85.8972 120.405L85.3551 119.411L85.4153 129.531C85.596 129.531 85.7767 129.531 85.9574 129.471L85.8972 120.405Z" fill="#000003"/>
<path d="M86.7409 121.941L86.259 121.038V129.38C86.4699 129.32 86.6204 129.26 86.771 129.199V121.971L86.7409 121.941Z" fill="#000003"/>
<path d="M87.6143 123.507L87.1625 122.694V128.958C87.3432 128.838 87.5239 128.718 87.6444 128.597V123.507H87.6143Z" fill="#000003"/>
<path d="M88.4879 125.224C88.3976 124.953 88.2771 124.682 88.1265 124.441L88.0663 124.32V128.085C88.2771 127.814 88.3976 127.513 88.518 127.181V125.194L88.4879 125.224Z" fill="#000003"/>
<path d="M85.0235 119.773L84.5115 120.736V129.44C84.7224 129.47 84.9031 129.501 85.0838 129.531L85.0235 119.803V119.773Z" fill="#000003"/>
<path d="M84.1511 121.429L83.6692 122.363V129.109C83.8499 129.199 84.0306 129.29 84.1812 129.35V121.429H84.1511Z" fill="#000003"/>
<path d="M83.2473 123.086L82.8257 123.899V128.416C82.9763 128.567 83.1269 128.687 83.2774 128.838V123.086H83.2473Z" fill="#000003"/>
<path d="M82.4042 124.712L82.2536 124.983C82.103 125.374 82.0127 125.796 82.0127 126.248C82.0127 126.82 82.1633 127.362 82.4042 127.814V124.712Z" fill="#000003"/>
<path d="M47.4082 40.3235L47.4383 44.2688L48.8839 42.2811L47.4082 40.3235Z" fill="#000003"/>
<path d="M53.1903 44.2388V40.2935L51.7447 42.2812L53.1903 44.2388Z" fill="#000003"/>
<path d="M50.2994 40.3235L48.8839 42.2811L50.3295 44.2387L51.745 42.2811L50.2994 40.3235Z" fill="#000003"/>
<path d="M53.1907 40.2935V44.2388L54.6363 42.2511L53.1907 40.2935Z" fill="#000003"/>
<path d="M58.973 44.2088L58.9429 40.2634L57.5274 42.2512L58.973 44.2088Z" fill="#000003"/>
<path d="M56.0814 40.2935L54.6357 42.2511L56.0814 44.2087L57.527 42.2511L56.0814 40.2935Z" fill="#000003"/>
<path d="M58.9426 40.2634L58.9727 44.2088L60.3882 42.221L58.9426 40.2634Z" fill="#000003"/>
<path d="M64.7253 44.1785V40.2332L63.2797 42.2209L64.7253 44.1785Z" fill="#000003"/>
<path d="M61.8336 40.2634L60.388 42.221L61.8637 44.1787L63.2793 42.221L61.8336 40.2634Z" fill="#000003"/>
<path d="M64.7255 40.2332V44.1785L66.1711 42.1908L64.7255 40.2332Z" fill="#000003"/>
<path d="M70.5078 44.1485L70.4777 40.2031L69.0622 42.1909L70.5078 44.1485Z" fill="#000003"/>
<path d="M67.5865 40.2332L66.171 42.1908L67.6166 44.1484L69.0622 42.1908L67.5865 40.2332Z" fill="#000003"/>
<path d="M70.4777 40.2031L70.5078 44.1485L71.9233 42.1607L70.4777 40.2031Z" fill="#000003"/>
<path d="M76.2594 44.1184L76.2293 40.1731L74.8138 42.1608L76.2594 44.1184Z" fill="#000003"/>
<path d="M73.3687 40.2031L71.923 42.1607L73.3687 44.1184L74.8143 42.1607L73.3687 40.2031Z" fill="#000003"/>
<path d="M76.2295 40.1731L76.2596 44.1184L77.6751 42.1307L76.2295 40.1731Z" fill="#000003"/>
<path d="M82.0126 44.0882V40.1428L80.567 42.1306L82.0126 44.0882Z" fill="#000003"/>
<path d="M79.1209 40.1731L77.6752 42.1307L79.151 44.0883L80.5665 42.1307L79.1209 40.1731Z" fill="#000003"/>
<path d="M69.0616 49.5696C69.0616 49.5696 69.0314 49.5696 68.9712 49.5094C68.911 49.4793 68.8206 49.419 68.67 49.3588C68.4291 49.2383 68.0376 49.0877 67.6159 48.9371C67.375 48.8769 67.1341 48.7866 66.863 48.7263C66.6221 48.636 66.3209 48.6059 66.0498 48.5456C65.7487 48.4854 65.4475 48.4553 65.1463 48.4252C64.8452 48.4252 64.5139 48.395 64.2127 48.4252C63.9115 48.4252 63.6104 48.4252 63.3092 48.5155C63.1586 48.5155 63.008 48.5757 62.8875 48.5757C62.737 48.6059 62.6165 48.6661 62.4659 48.6962C62.3454 48.7263 62.1948 48.7564 62.0744 48.8167C61.9539 48.8769 61.8334 48.9371 61.713 48.9673C61.5925 49.0275 61.472 49.0576 61.3817 49.1178C61.2612 49.1781 61.1709 49.2383 61.0805 49.2986C60.8998 49.419 60.7191 49.5094 60.5685 49.5997C60.4179 49.7202 60.2975 49.8105 60.2071 49.9009C59.9963 50.0515 59.9059 50.1418 59.9059 50.1418L59.8156 50.2021C59.4843 50.4731 59.0024 50.4129 58.7314 50.0816C58.4603 49.7503 58.5205 49.2684 58.8518 48.9974C58.8518 48.9974 58.882 48.9974 58.9121 48.9673C58.9121 48.9673 59.0627 48.8769 59.3036 48.6962C59.4542 48.6059 59.6048 48.5155 59.7855 48.395C59.9662 48.2746 60.2071 48.1842 60.4481 48.0637C60.5685 48.0035 60.689 47.9433 60.8396 47.883C60.9902 47.8529 61.1106 47.7927 61.2612 47.7325C61.4118 47.6722 61.5624 47.6421 61.713 47.5819C61.8636 47.5518 62.0443 47.5216 62.1948 47.4915C62.3454 47.4614 62.5261 47.4313 62.7068 47.4012C62.8875 47.4012 63.0381 47.4012 63.2188 47.3711C63.5802 47.3409 63.9115 47.3711 64.2729 47.3711C64.6042 47.3711 64.9656 47.4614 65.2969 47.4915C65.6282 47.5819 65.9595 47.612 66.2607 47.7325C66.5618 47.8228 66.863 47.9132 67.1341 48.0035C67.4051 48.0939 67.6461 48.2143 67.887 48.3047C68.3388 48.5155 68.7303 48.7263 68.9712 48.8769C69.0917 48.9371 69.182 48.9974 69.2724 49.0576C69.3326 49.0877 69.3627 49.1178 69.3627 49.1178C69.4832 49.2082 69.5133 49.3588 69.4531 49.4793C69.3627 49.5997 69.2122 49.6298 69.0917 49.5696H69.0616Z" fill="#000003"/>
<path d="M47.3477 49.1177C47.3477 49.1177 47.3477 49.1177 47.4079 49.0575C47.4681 49.0274 47.5284 48.9671 47.5886 48.8768C47.7392 48.7262 48.0102 48.5455 48.3114 48.3347C48.462 48.2443 48.6427 48.1238 48.8535 48.0335C49.0342 47.913 49.2752 47.8528 49.486 47.7323C49.6968 47.642 49.9679 47.5817 50.2088 47.5215C50.4497 47.4914 50.7208 47.4312 50.9918 47.4312C51.1123 47.4312 51.2629 47.4312 51.3834 47.4312C51.5038 47.4312 51.6544 47.4312 51.7749 47.4613C52.0459 47.4613 52.2869 47.5817 52.5278 47.642C52.6483 47.6721 52.7687 47.7323 52.8892 47.7624C53.0097 47.8227 53.1 47.8528 53.2205 47.913C53.4313 48.0034 53.612 48.154 53.7927 48.2443C53.9433 48.3648 54.124 48.4551 54.2445 48.5756C54.365 48.6961 54.4854 48.7864 54.5758 48.8467C54.7565 48.9972 54.8468 49.0876 54.8468 49.0876C55.1179 49.3285 55.148 49.7502 54.9071 50.0212C54.6661 50.2923 54.2445 50.3224 53.9734 50.0815C53.9734 50.0815 53.9734 50.0815 53.9132 50.0212L53.853 49.961C53.853 49.961 53.7927 49.8706 53.6421 49.7502C53.5819 49.6899 53.4916 49.5996 53.4012 49.4791C53.3109 49.3587 53.1904 49.2984 53.0699 49.1779C52.9495 49.0876 52.829 48.937 52.6483 48.8768C52.5579 48.8165 52.4977 48.7864 52.4073 48.7262C52.317 48.666 52.2568 48.6358 52.1363 48.6057C51.9556 48.5455 51.7749 48.425 51.5641 48.3949C51.4737 48.3949 51.3532 48.3347 51.2629 48.3347C51.1424 48.3347 51.0521 48.3347 50.9316 48.3347C50.7208 48.3045 50.51 48.3347 50.269 48.3347C50.0582 48.3648 49.8474 48.3949 49.6366 48.4551C49.4257 48.5154 49.245 48.5756 49.0342 48.6358C48.8535 48.6961 48.6728 48.7864 48.5222 48.8467C48.2211 48.9972 47.95 49.1478 47.7994 49.2683C47.7091 49.3285 47.6488 49.3587 47.6187 49.4189C47.5585 49.449 47.5585 49.4791 47.5585 49.4791C47.5585 49.4791 47.3175 49.5394 47.2272 49.449C47.1368 49.3587 47.167 49.2081 47.2272 49.1478L47.3477 49.1177Z" fill="#000003"/>
<path d="M69.9055 52.6415C69.9055 52.6415 69.8151 52.6415 69.7549 52.6114C63.8218 48.2444 59.6054 52.5512 59.5753 52.6114C59.4849 52.7018 59.3343 52.7018 59.2139 52.6114C59.1235 52.5211 59.0934 52.3705 59.2139 52.2801C59.2741 52.2199 63.7917 47.6421 70.056 52.2801C70.1765 52.3705 70.1765 52.5211 70.1163 52.6114C70.0862 52.6716 69.9958 52.7018 69.9356 52.7018L69.9055 52.6415Z" fill="#000003"/>
<path d="M70.8088 54.298C70.8088 54.298 70.5378 54.298 70.3571 54.298H70.1161L69.9053 54.2378C69.815 54.2378 69.7547 54.2378 69.6945 54.1775C69.6041 54.1775 69.5439 54.1474 69.4837 54.1173C69.3331 54.0571 69.2126 53.9968 69.062 53.9366C68.9115 53.8764 68.791 53.8161 68.6705 53.7258C68.55 53.6354 68.4296 53.5752 68.3091 53.4849C68.1886 53.3945 68.0682 53.3041 67.9778 53.2138C67.8574 53.1234 67.767 53.003 67.6465 52.8825C67.6465 52.8825 67.3755 52.6717 67.2249 52.5512C67.0743 52.4308 66.8936 52.3705 66.743 52.2802C66.5623 52.2199 66.4117 52.1296 66.231 52.0693C66.0503 52.0091 65.8696 51.9489 65.6889 51.9188L65.4179 51.8585H65.1468C65.1468 51.8585 64.9661 51.7983 64.8757 51.7983H64.6047C64.424 51.7983 64.2433 51.7983 64.0626 51.7983C63.8819 51.7983 63.7012 51.7983 63.5205 51.8585L62.9784 51.979C62.7977 52.0392 62.617 52.0995 62.4363 52.1597L62.1652 52.25C62.1652 52.25 61.9845 52.3404 61.9243 52.3705L61.4123 52.6115C61.2316 52.7018 61.081 52.7922 60.9003 52.8825L60.3883 53.1837C60.057 53.3945 59.7558 53.6354 59.4245 53.8463C59.4245 53.8463 59.1535 53.9065 59.0932 53.786C59.033 53.6957 59.033 53.5451 59.1234 53.4849C59.3944 53.1837 59.7257 52.9126 60.0269 52.6416C60.1775 52.5211 60.3582 52.4006 60.5389 52.2802C60.7196 52.1597 60.8702 52.0392 61.0509 51.9188L61.593 51.6176C61.593 51.6176 61.7737 51.5272 61.864 51.467L62.1652 51.3465C62.376 51.2863 62.5567 51.1959 62.7675 51.1357L63.4 50.9851C63.6108 50.9249 63.8217 50.9249 64.0325 50.8948C64.2433 50.8948 64.4541 50.8948 64.6649 50.8948H64.9962C64.9962 50.8948 65.207 50.955 65.3275 50.9851L65.6287 51.0454L65.9299 51.1658C66.1407 51.2261 66.3214 51.3164 66.5322 51.4068C66.743 51.4971 66.8936 51.6176 67.1044 51.7381C67.2851 51.8585 67.4658 51.979 67.6164 52.0995C67.767 52.2199 67.9477 52.3705 68.0983 52.5512C68.1585 52.6416 68.279 52.7319 68.3693 52.8524C68.4597 52.9427 68.55 53.0331 68.6705 53.1234C68.8813 53.274 69.0922 53.4246 69.3331 53.5451C69.4536 53.6053 69.574 53.6354 69.6945 53.6957C69.7547 53.6957 69.815 53.7258 69.8752 53.7559C69.9354 53.7559 69.9957 53.786 70.0559 53.786H70.2366H70.4173C70.5378 53.786 70.6884 53.786 70.839 53.7559C70.839 53.7559 71.0799 53.8463 71.11 53.9667C71.11 54.0872 71.0197 54.2077 70.8992 54.2378L70.8088 54.298Z" fill="#000003"/>
<path d="M60.8098 54.3281C60.3882 53.274 60.6894 52.3704 60.6894 52.3403L61.1411 52.4909C61.1411 52.4909 60.9002 53.274 61.2616 54.1474L60.8098 54.3281Z" fill="#000003"/>
<path d="M58.34 62.0079C58.34 62.0079 58.34 62.0079 58.2798 61.9477C58.2497 61.8875 58.1894 61.8272 58.1593 61.6766C58.1593 61.6164 58.1593 61.5261 58.1593 61.4357C58.1593 61.3755 58.1593 61.3453 58.2195 61.2851C58.2195 61.2249 58.2798 61.1948 58.34 61.1646C58.4304 61.0743 58.4906 61.0442 58.6111 61.0141H58.6713V60.9839C58.6713 60.9839 58.6412 60.9839 58.7315 60.9839H58.7918C58.7918 60.9839 58.852 60.9839 58.9122 60.9839C58.9122 60.9839 58.9424 60.9839 58.9725 60.9839H59.0628C59.0628 60.9839 59.1833 60.9839 59.2435 61.0141C59.364 61.0141 59.4242 61.0743 59.5447 61.1345C59.7254 61.2249 59.876 61.3453 60.0266 61.4357C60.1772 61.5562 60.3277 61.6465 60.4482 61.7068C60.5084 61.7068 60.5386 61.7369 60.5687 61.7369C60.5687 61.7369 60.659 61.7369 60.6891 61.7369C60.7795 61.7369 60.8397 61.7369 60.9301 61.7369C61.2614 61.7369 61.5927 61.6164 61.7734 61.3755C61.8035 61.3152 61.8637 61.255 61.8637 61.1948C61.8637 61.1345 61.8637 61.0743 61.8637 60.9839C61.8637 60.8334 61.8637 60.6828 61.8035 60.5623C61.8035 60.5021 61.7432 60.4418 61.7131 60.3816C61.7131 60.3214 61.6529 60.2912 61.6228 60.231C61.5324 60.1407 61.5023 60.0804 61.412 60.0202C61.2915 59.9298 61.2011 59.8696 61.2011 59.8696C61.2011 59.8696 61.171 59.8094 61.2011 59.7793C61.2011 59.7793 61.2614 59.7491 61.2915 59.7793C61.2915 59.7793 61.3818 59.8395 61.5625 59.8997C61.6529 59.9298 61.7131 60.0202 61.8336 60.1105C61.8938 60.1407 61.924 60.2009 61.9842 60.2611C62.0143 60.3214 62.0745 60.3816 62.1047 60.4418C62.1649 60.5924 62.2251 60.7731 62.2552 60.9538C62.2552 61.0442 62.2552 61.1646 62.2552 61.255C62.2552 61.3453 62.195 61.4658 62.1348 61.5562C62.0143 61.767 61.8336 61.9176 61.6228 62.038C61.412 62.1284 61.2011 62.1886 60.9602 62.2187C60.8397 62.2187 60.7193 62.2187 60.6289 62.2187C60.5687 62.2187 60.5084 62.2187 60.4482 62.2187C60.388 62.2187 60.3277 62.1886 60.2976 62.1585C60.0567 62.0682 59.9061 61.9477 59.7254 61.8573C59.5748 61.767 59.4242 61.6766 59.3038 61.6164C59.2435 61.6164 59.1833 61.5562 59.1231 61.5562C59.1231 61.5562 59.1231 61.5562 59.0628 61.5562C59.0628 61.5562 59.0327 61.5562 59.0026 61.5562C58.9725 61.5562 58.9122 61.5562 58.8821 61.5562C58.8821 61.5562 58.8821 61.5562 58.9423 61.5562L58.8821 61.5863C58.852 61.5863 58.852 61.5863 58.8219 61.6164C58.8219 61.6465 58.8219 61.7068 58.8219 61.7369V61.7971C58.8219 61.8875 58.7616 61.9778 58.6713 62.0079C58.6412 62.0079 58.5809 62.0079 58.5508 62.0079H58.5207H58.34Z" fill="#000003"/>
<path d="M63.219 57.3397C63.219 57.3397 63.1889 57.3397 63.1588 57.3397C61.2614 56.5868 59.364 54.4485 59.2737 54.3581C59.2135 54.2979 59.2135 54.1774 59.2737 54.1172C59.364 54.057 59.4544 54.057 59.5146 54.1172C59.5146 54.1172 61.412 56.2856 63.2492 57.0084C63.3395 57.0386 63.3696 57.159 63.3395 57.2494C63.3395 57.3096 63.2492 57.3699 63.1889 57.3699L63.219 57.3397Z" fill="#000003"/>
<path d="M54.756 52.4005C51.6238 50.2019 48.7627 51.9789 47.6785 52.8523C47.7086 53.1233 47.7086 53.3944 47.6785 53.6654C50.63 56.135 53.4007 54.9303 54.8162 53.9666C54.7259 53.4245 54.7259 52.9125 54.756 52.3704V52.4005Z" fill="white"/>
<path d="M54.7561 53.7258C54.0032 54.2679 52.7985 54.9004 51.3529 54.9004C50.088 54.9004 48.8532 54.3884 47.7087 53.3945C47.7087 53.5752 47.6786 53.7559 47.6183 53.9668C48.7929 54.9305 50.0578 55.4124 51.3529 55.4124C52.7985 55.4124 54.0333 54.81 54.8465 54.2679C54.8164 54.0872 54.7862 53.9065 54.7561 53.7258Z" fill="#000003"/>
<path d="M47.7087 53.1535C48.311 52.6415 49.7868 51.5874 51.5938 51.5874C52.678 51.5874 53.7321 51.9488 54.726 52.6716C54.726 52.4909 54.726 52.2801 54.7561 52.0994C53.7622 51.4368 52.678 51.0754 51.5938 51.0754C49.8169 51.0754 48.4014 51.9488 47.6484 52.5512C47.6786 52.7319 47.7087 52.9427 47.7087 53.1234V53.1535Z" fill="#000003"/>
<path d="M53.311 53.2439C53.311 54.2679 52.4978 55.081 51.4738 55.081C50.4498 55.081 49.6367 54.2679 49.6066 53.2439C49.6066 52.2199 50.4197 51.4067 51.4437 51.4067C52.4677 51.4067 53.2809 52.2199 53.2809 53.2439H53.311Z" fill="white"/>
<path d="M51.4735 55.3521C50.329 55.3521 49.3954 54.4184 49.3954 53.274C49.3954 52.1295 50.329 51.1959 51.4735 51.1658C52.6179 51.1658 53.5516 52.0994 53.5817 53.2439C53.5817 53.8161 53.3709 54.3281 52.9793 54.7196C52.5878 55.1111 52.0758 55.3219 51.5036 55.3521H51.4735ZM51.4735 51.6476C50.57 51.6476 49.8773 52.3705 49.8773 53.2439C49.8773 54.1173 50.6001 54.8401 51.4735 54.8401C51.8951 54.8401 52.3168 54.6594 52.6179 54.3582C52.9191 54.057 53.0998 53.6655 53.0697 53.2137C53.0697 52.3403 52.3469 51.6175 51.4735 51.6175V51.6476Z" fill="#000003"/>
<path d="M52.3468 53.2438C52.3468 53.7256 51.9552 54.1172 51.4734 54.1172C50.9915 54.1172 50.6 53.7256 50.6 53.2438C50.6 52.7619 50.9915 52.3704 51.4734 52.3704C51.9552 52.3704 52.3468 52.7619 52.3468 53.2438Z" fill="#000003"/>
<path d="M47.4685 51.5572C47.4685 51.5572 47.4685 51.7379 47.4685 51.8283C47.4685 51.9186 47.5287 52.009 47.5287 52.0993C48.6431 51.2861 51.2934 49.7803 54.8472 51.2861C54.8472 51.1054 54.8773 50.9549 54.9074 50.7742C51.444 49.3888 48.7635 50.6537 47.4685 51.5572Z" fill="#000003"/>
<path d="M54.3947 51.7681C54.214 51.6777 54.0333 51.5272 53.8526 51.4368C53.6719 51.3465 53.4611 51.2561 53.2503 51.1959L52.9491 51.0754L52.6178 51.0152C52.6178 51.0152 52.407 50.9549 52.2865 50.9549H51.9552C51.7444 50.8947 51.5336 50.8947 51.3228 50.9248C51.1119 50.9248 50.9011 50.9248 50.6903 51.0152L50.0578 51.1657C49.847 51.226 49.6663 51.3163 49.4555 51.3766L49.1543 51.497C49.1543 51.497 48.9736 51.5874 48.8833 51.6476L48.3412 51.9488C48.1605 52.0391 48.0099 52.1897 47.8292 52.3102C47.7689 52.3704 47.6786 52.4006 47.6183 52.4608C47.6786 52.7017 47.7087 52.9728 47.7388 53.2438L48.2508 52.9427C48.4315 52.8523 48.5821 52.7318 48.7628 52.6716L49.2748 52.4307C49.2748 52.4307 49.4555 52.3403 49.5458 52.3102L49.8169 52.2199C49.9976 52.1596 50.1783 52.0994 50.359 52.0391L50.9011 51.9187C51.0818 51.8584 51.2625 51.8886 51.4432 51.8584C51.6239 51.8584 51.8046 51.8584 51.9853 51.8584H52.2564C52.2564 51.8584 52.4371 51.8584 52.5274 51.8886H52.7985L53.0696 51.9789C53.2503 52.009 53.431 52.0693 53.6117 52.1295C53.7924 52.1897 53.943 52.2801 54.1237 52.3403C54.2742 52.4307 54.455 52.521 54.6055 52.6114C54.6658 52.6415 54.726 52.6716 54.7561 52.7318C54.7561 52.521 54.7561 52.3102 54.7862 52.0994C54.6658 52.009 54.5453 51.9187 54.3947 51.8283V51.7681Z" fill="#000003"/>
<path d="M48.1907 54.3281C47.769 53.274 48.0702 52.3704 48.0702 52.3403L48.522 52.4909C48.522 52.4909 48.281 53.274 48.6424 54.1474L48.1907 54.3281Z" fill="#000003"/>
<path d="M55.088 47.8228L54.9675 62.0381L59.1839 63.2427" fill="white"/>
<path d="M55.3284 47.8228L55.5392 62.0381L55.1176 61.4659L59.2436 63.0019C59.2436 63.0019 59.4243 63.1826 59.3942 63.303C59.3641 63.4235 59.2436 63.4838 59.1232 63.4536L54.8164 62.5802L54.3948 62.4899V62.008L54.8766 47.7927C54.8766 47.6722 54.9971 47.5518 55.1477 47.5518C55.2682 47.5518 55.3886 47.6722 55.3886 47.7927L55.3284 47.8228Z" fill="#000003"/>
<path d="M50.7211 57.0386C50.7211 57.0386 50.5705 56.9784 50.5404 56.9182C50.5404 56.8278 50.5705 56.7374 50.6609 56.7073C53.2208 56.0749 54.6062 54.5991 54.6062 54.5991C54.6665 54.5389 54.7869 54.5389 54.8472 54.5991C54.9074 54.6594 54.9375 54.7798 54.8472 54.8401C54.7869 54.9003 53.3714 56.4062 50.7211 57.0386C50.7211 57.0386 50.7211 57.0386 50.691 57.0386H50.7211Z" fill="#000003"/>
<path d="M76.0192 44.5399C76.0192 44.5399 74.1519 50.3826 77.8865 55.6531C81.7716 61.1646 80.7777 63.7245 80.7777 63.7245C80.7777 63.7245 77.3443 63.7245 76.9227 66.405C76.4709 69.507 78.3984 74.4764 84.6929 72.5187C84.6929 72.5187 88.6985 70.5009 87.0722 63.2125C85.4459 55.9242 79.4224 48.9069 81.621 44.5098H76.0493L76.0192 44.5399Z" fill="white"/>
<path d="M82.0423 73.2415C80.4159 73.2415 79.0306 72.6392 78.0668 71.5249C76.7115 69.9588 76.4706 67.7903 76.6814 66.4049C77.0428 63.9353 79.8136 63.5739 80.5665 63.5137C80.687 62.9113 80.9279 60.3815 77.6753 55.8037C73.9106 50.4729 75.7478 44.5097 75.7779 44.4495L75.8381 44.2688H81.982L81.8013 44.6302C80.5063 47.2203 82.1627 50.744 84.0902 54.8399C85.3552 57.5204 86.6502 60.3213 87.2827 63.1824C88.9391 70.5611 84.9335 72.6693 84.7829 72.7597H84.7528C83.7891 73.091 82.8554 73.2415 82.0423 73.2415ZM76.2297 44.7808C75.9586 45.7747 74.8443 50.8946 78.0969 55.5326C82.0122 61.0742 81.0484 63.7245 80.9882 63.845L80.9279 63.9956H80.7774C80.7774 63.9956 77.5247 64.0257 77.1633 66.4953C76.9826 67.7903 77.1934 69.7781 78.4583 71.2237C79.8136 72.7898 81.9218 73.1813 84.6022 72.338C84.9034 72.1874 88.3669 70.1395 86.8309 63.333C86.1984 60.502 84.9034 57.7613 83.6686 55.0809C81.7712 51.0452 80.1449 47.5215 81.2291 44.8109H76.1995L76.2297 44.7808Z" fill="#000003"/>
<path d="M73.2188 44.5399C73.2188 44.5399 71.3515 50.3826 75.086 55.6531C78.9712 61.1646 77.9472 63.7245 77.9472 63.7245C77.9472 63.7245 74.5138 63.7245 74.0922 66.405C73.6404 69.507 75.5679 74.4764 81.8624 72.5187C81.8624 72.5187 85.868 70.5009 84.2417 63.2125C82.6153 55.9242 76.5919 48.9069 78.7904 44.5098H73.2188V44.5399Z" fill="white"/>
<path d="M79.2418 73.2415C77.6155 73.2415 76.2301 72.6392 75.2663 71.5249C73.911 69.9588 73.6701 67.7903 73.8809 66.4049C74.2423 63.9353 77.0131 63.5739 77.766 63.5137C77.8865 62.9113 78.0973 60.3815 74.8748 55.8037C71.1102 50.4729 72.9774 44.5097 72.9774 44.4495L73.0377 44.2688H79.1816L79.0009 44.6302C77.7058 47.2203 79.3623 50.744 81.2898 54.8399C82.5547 57.5204 83.8497 60.3213 84.4822 63.1824C86.1386 70.5611 82.133 72.6693 81.9825 72.7597H81.9523C80.9886 73.091 80.055 73.2415 79.2418 73.2415ZM73.4292 44.7808C73.1581 45.7747 72.0438 50.8946 75.2964 55.5326C79.2117 61.0742 78.2479 63.7245 78.1877 63.845L78.1275 63.9956H77.9468C77.9468 63.9956 74.7242 64.0257 74.3327 66.4953C74.152 67.7903 74.3327 69.7781 75.5976 71.2237C76.9529 72.7898 79.0611 73.1813 81.7415 72.338C82.0427 72.1874 85.5062 70.1395 83.9702 63.333C83.3377 60.502 82.0427 57.7613 80.8079 55.0809C78.9406 51.0452 77.2842 47.5215 78.3684 44.8109H73.3689L73.4292 44.7808Z" fill="#000003"/>
<path d="M70.8996 44.6604C70.8996 44.6604 69.0323 50.5031 72.7668 55.7736C76.6519 61.2851 75.6581 63.845 75.6581 63.845C75.6581 63.845 72.2247 63.845 71.8031 66.5556C71.3513 69.6577 73.2788 74.627 79.5733 72.6694C79.5733 72.6694 83.5789 70.6515 81.9526 63.3632C80.3262 56.0748 74.3028 49.0575 76.5014 44.6604H70.9297H70.8996Z" fill="white"/>
<path d="M76.923 73.3321C75.2967 73.3321 73.9113 72.7298 72.9476 71.6154C71.5923 70.0493 71.3514 67.8809 71.5622 66.4955C71.9236 64.0259 74.6944 63.6645 75.4473 63.6043C75.5678 63.0019 75.8087 60.4721 72.5862 55.8943C68.8215 50.5635 70.6587 44.6003 70.6888 44.5401L70.749 44.3594H76.8929L76.7122 44.7208C75.4172 47.2807 77.0736 50.8346 79.0011 54.9305C80.2661 57.6109 81.5611 60.4118 82.1936 63.273C83.85 70.6517 79.8444 72.7599 79.6938 72.8502H79.6637C78.7 73.1815 77.7663 73.3321 76.9532 73.3321H76.923ZM71.0803 44.9015C70.8093 45.8954 69.6949 51.0153 72.9476 55.6533C76.8628 61.1949 75.8991 63.8452 75.8388 63.9657L75.7786 64.1162H75.628C75.628 64.1162 72.4055 64.1464 72.0139 66.5859C71.8332 67.8809 72.0139 69.8686 73.2789 71.3143C74.6341 72.8803 76.7423 73.2719 79.4228 72.4286C79.7239 72.278 83.1874 70.23 81.6514 63.4236C81.019 60.5925 79.7239 57.8519 78.4891 55.1714C76.5918 51.1357 74.9654 47.6421 76.0497 44.9015H71.0201H71.0803Z" fill="#000003"/>
<path d="M75.5068 68.9651C75.5068 68.9651 78.0969 70.1999 79.0305 68.2122C79.9642 66.2245 78.8498 64.2367 75.6273 63.8452" fill="white"/>
<path d="M75.628 68.7543C75.628 68.7543 75.6581 68.7543 75.7484 68.7543C75.8087 68.7543 75.9291 68.7844 76.0496 68.8446C76.2002 68.8446 76.3508 68.9049 76.5315 68.935C76.7122 68.935 76.923 68.9651 77.1338 68.935C77.2543 68.935 77.3446 68.935 77.4651 68.9049C77.5856 68.8748 77.6759 68.8446 77.7964 68.8145C78.0072 68.7543 78.1879 68.6037 78.3686 68.4531L78.4891 68.3025C78.4891 68.3025 78.5493 68.1821 78.5794 68.1218L78.6397 68.0315V68.0014V67.9411L78.73 67.7002C78.73 67.7002 78.7903 67.5496 78.7903 67.4894C78.7903 67.4291 78.8204 67.3689 78.8505 67.3087C78.8505 67.1581 78.9107 67.0376 78.9107 66.887C78.9107 66.616 78.8806 66.3449 78.7903 66.0739C78.6999 65.8028 78.5493 65.592 78.3686 65.3812C78.2783 65.2908 78.1879 65.1703 78.0674 65.1101C77.947 65.0198 77.8566 64.9294 77.7663 64.8692C77.6458 64.8089 77.5555 64.7186 77.435 64.6583C77.3145 64.5981 77.2242 64.5379 77.1037 64.5078C76.8929 64.4174 76.6821 64.3271 76.5014 64.2668C76.3206 64.2066 76.1701 64.1464 76.0195 64.1162C75.7484 64.056 75.5978 63.9958 75.5978 63.9958C75.5978 63.9958 75.387 63.8452 75.4171 63.6946C75.4171 63.5741 75.5677 63.4838 75.6882 63.5139C75.6882 63.5139 75.8689 63.5139 76.1701 63.544C76.3206 63.544 76.5014 63.6042 76.7122 63.6344C76.923 63.6645 77.1639 63.7548 77.4049 63.8151C77.5253 63.8753 77.6458 63.9054 77.7964 63.9657C77.9169 64.0259 78.0674 64.0861 78.1879 64.1765C78.3385 64.2367 78.459 64.3572 78.5794 64.4475C78.6999 64.5379 78.8505 64.6583 78.971 64.7788C79.2119 65.0499 79.4528 65.351 79.5733 65.7125C79.7239 66.0739 79.8142 66.4654 79.7841 66.8569C79.7841 67.0677 79.754 67.2484 79.7239 67.4291C79.6938 67.6098 79.6335 67.8207 79.5733 68.0014L79.483 68.2423V68.3025L79.4528 68.3326V68.3929L79.3926 68.5133C79.3926 68.5133 79.3022 68.694 79.242 68.7543C79.1818 68.8145 79.1215 68.9049 79.0613 68.9651C78.7903 69.2362 78.459 69.447 78.1277 69.5373C77.7964 69.6578 77.4651 69.6578 77.194 69.6277C76.923 69.6277 76.6519 69.5674 76.4411 69.5072C76.2303 69.447 76.0496 69.3867 75.899 69.3265C75.7484 69.2663 75.6581 69.206 75.5677 69.1759C75.5075 69.1458 75.4472 69.1157 75.4472 69.1157C75.3268 69.0555 75.2967 68.9049 75.3569 68.7844C75.4171 68.6941 75.5376 68.6338 75.6581 68.6639L75.628 68.7543Z" fill="#000003"/>
<path d="M49.0044 68.0614C49.0044 68.0614 47.7997 69.236 46.324 69.507C46.324 69.507 43.3424 65.3208 40.933 69.236C40.933 69.236 39.5476 71.7056 41.6558 73.9644C41.6558 73.9644 47.7997 80.3191 57.7685 72.3381" fill="white"/>
<path d="M48.0703 76.5846C43.9141 76.5846 41.5047 74.1752 41.4445 74.1451C39.2459 71.7959 40.6614 69.1757 40.6915 69.1456C41.4144 68.0012 42.2576 67.3988 43.1913 67.3687C44.7272 67.3085 46.0223 68.8143 46.3837 69.2661C47.739 68.9348 48.7931 67.9108 48.7931 67.9108L49.1545 68.2722C49.1545 68.2722 47.8896 69.4769 46.3235 69.7781H46.1729L46.0825 69.6877C46.0825 69.6877 44.6971 67.7903 43.1913 67.8506C42.4383 67.8506 41.7155 68.3927 41.1132 69.3865C41.0529 69.4769 39.8483 71.7357 41.8059 73.8138C42.0468 74.0547 47.9498 79.8974 57.5873 72.1573L57.8885 72.5489C54.0033 75.6509 50.6904 76.6147 48.0703 76.6147V76.5846Z" fill="#000003"/>
<path d="M44.2154 70.2602L44.1552 69.7783C44.1552 69.7783 45.8117 69.5976 47.2874 68.9351L47.4982 69.3868C45.9924 70.0795 44.3058 70.2602 44.2456 70.2602H44.2154Z" fill="#000003"/>
<path d="M45.6914 72.7899C44.4566 72.7899 43.3423 72.3683 42.8002 71.8864C41.7461 70.8925 42.0774 69.6878 42.4087 69.1758C42.8303 68.6337 43.3122 68.3928 43.8242 68.4229C44.8482 68.4831 45.6312 69.6276 45.6613 69.6878L45.2698 69.9589C45.2698 69.9589 44.6072 68.965 43.8242 68.9048C43.4628 68.9048 43.1315 69.0855 42.8303 69.477C42.8303 69.477 42.1376 70.5914 43.1616 71.5551C43.6435 72.0069 45.059 72.549 46.6251 72.2478C47.7695 72.037 49.3657 71.284 50.5102 68.965L50.9318 69.1758C49.697 71.6756 47.9502 72.4887 46.6853 72.7297C46.354 72.7899 46.0227 72.82 45.6914 72.82V72.7899Z" fill="#000003"/>
<path d="M45.6006 75.5006C44.8778 75.5006 44.2755 75.3801 43.8237 75.2897C40.571 74.6874 40.2397 71.5552 40.2397 71.5251L40.7216 71.4649C40.7216 71.4649 41.0228 74.2658 43.914 74.8079C45.6006 75.1392 49.1243 75.7716 52.0758 69.8687L52.5276 70.0795C50.2387 74.6573 47.5582 75.4704 45.6307 75.4704L45.6006 75.5006Z" fill="#000003"/>
<path d="M47.3173 76.5244C47.3173 76.5244 47.0462 76.5244 46.8956 76.5244V76.0425C52.1059 76.3437 54.1539 70.8925 54.184 70.8323L54.6357 71.013C54.6357 71.013 52.5577 76.5244 47.3173 76.5244Z" fill="#000003"/>
<path d="M53.3108 75.4102L53.1301 74.9584C54.5758 74.3862 56.1418 71.8263 56.1418 71.7961L56.5635 72.0371C56.5635 72.0371 54.907 74.7777 53.3108 75.4102Z" fill="#000003"/>
<path d="M67.0143 67.971C67.0143 67.971 68.219 69.1155 69.7249 69.3865C69.7249 69.3865 72.6764 65.1701 75.1159 69.0552C75.1159 69.0552 76.5013 71.5248 74.4533 73.7836C74.4533 73.7836 68.3696 80.2889 58.0695 72.0971L57.7684 72.3079" fill="white"/>
<path d="M67.9477 76.4642C65.2974 76.4642 61.9544 75.5004 58.0392 72.4285L57.8886 72.5188L57.5874 72.1273L58.0392 71.796L58.1897 71.9165C68.1887 79.8674 74.0013 73.8741 74.2422 73.6332C76.1697 71.5551 74.9349 69.2963 74.8747 69.206C74.2422 68.2121 73.5495 67.7001 72.7665 67.7001C71.2606 67.6399 69.9053 69.5372 69.8752 69.5674L69.7849 69.6878H69.6343C68.0682 69.3565 66.8635 68.2121 66.8033 68.182L67.1346 67.8206C67.1346 67.8206 68.2188 68.8445 69.574 69.1457C69.9355 68.694 71.2305 67.1881 72.7665 67.2182C73.7001 67.2182 74.5735 67.8206 75.2662 68.965C75.2662 68.9951 76.7419 71.6153 74.5735 73.9946C74.5434 74.0247 72.134 76.4943 67.9176 76.4943L67.9477 76.4642Z" fill="#000003"/>
<path d="M71.8331 70.1395C71.8331 70.1395 70.0863 69.9588 68.5503 69.2962L68.7611 68.8445C70.2067 69.4769 71.8632 69.6576 71.8933 69.6576V70.1395H71.8331Z" fill="#000003"/>
<path d="M70.3271 72.6694C70.0259 72.6694 69.6947 72.6694 69.3634 72.5791C68.0985 72.3682 66.3517 71.5551 65.0867 69.0855L65.5084 68.8746C66.6528 71.1937 68.2791 71.9165 69.4236 72.1273C70.9897 72.3984 72.3751 71.8864 72.8871 71.4045C73.9111 70.4407 73.2184 69.3565 73.1883 69.2963C72.8871 68.9349 72.5558 68.7542 72.2245 68.7542C71.4415 68.7843 70.809 69.8083 70.7789 69.8083L70.3572 69.5372C70.3572 69.5372 71.1403 68.3024 72.1643 68.2422C72.6763 68.2422 73.1581 68.453 73.5497 68.965C73.9111 69.477 74.2424 70.7118 73.1883 71.7057C72.6461 72.2177 71.5318 72.6393 70.2669 72.6393L70.3271 72.6694Z" fill="#000003"/>
<path d="M70.417 75.3799C68.4895 75.3799 65.8091 74.5367 63.5202 70.0492L63.972 69.8384C66.9837 75.7413 70.4773 75.0487 72.1638 74.7174C75.0551 74.1451 75.3261 71.3744 75.3261 71.3442H75.808C75.808 71.3442 75.5068 74.5367 72.2542 75.1992C71.8024 75.2896 71.1398 75.4101 70.417 75.4101V75.3799Z" fill="#000003"/>
<path d="M68.7006 76.4342C63.5204 76.4342 61.4423 71.0432 61.4122 70.983L61.864 70.8022C61.864 70.8022 64.0023 76.2535 69.1825 75.9222V76.404C69.1825 76.404 68.8512 76.404 68.7006 76.404V76.4342Z" fill="#000003"/>
<path d="M62.6473 75.2595C61.0511 74.6571 59.5453 72.1273 59.485 72.0068L59.9067 71.7659C59.9067 71.7659 61.3824 74.2656 62.8281 74.8077L62.6473 75.2595Z" fill="#000003"/>
<path d="M107.371 128.296H99.6611V44.6605L103.486 40.1128L107.371 44.6605V128.296Z" fill="white"/>
<path d="M107.943 128.868H99.089V44.4498L103.486 39.2395L107.943 44.4498V128.868ZM100.233 127.724H106.799V44.8714L103.486 40.9863L100.233 44.8714V127.724Z" fill="#000003"/>
<path d="M101.318 128.687C101.137 128.687 100.956 128.537 100.956 128.326V42.462C100.956 42.2512 101.107 42.1006 101.318 42.1006C101.529 42.1006 101.679 42.2512 101.679 42.462V128.356C101.679 128.537 101.529 128.718 101.318 128.718V128.687Z" fill="#000003"/>
<path d="M103.516 128.326C103.336 128.326 103.155 128.175 103.155 127.965V40.5645C103.155 40.3537 103.306 40.2031 103.516 40.2031C103.727 40.2031 103.878 40.3537 103.878 40.5645V127.965C103.878 128.145 103.727 128.326 103.516 128.326Z" fill="#000003"/>
<path d="M105.715 127.965C105.534 127.965 105.353 127.814 105.353 127.603V42.703C105.353 42.5223 105.504 42.3416 105.715 42.3416C105.926 42.3416 106.076 42.4921 106.076 42.703V127.603C106.076 127.784 105.926 127.965 105.715 127.965Z" fill="#000003"/>
<path d="M63.2797 127.272C57.0454 120.225 51.6545 110.316 48.8837 100.739C45.9322 90.4989 37.7102 82.4576 34.6382 79.717L41.0231 77.0667C45.0588 81.0421 52.046 89.0232 54.9372 98.992C58.4609 111.22 66.2914 122.694 71.9534 126.911L71.7125 127.242H63.2496L63.2797 127.272Z" fill="white"/>
<path d="M40.9624 77.4581C44.9981 81.4637 51.7745 89.2942 54.6055 99.0823C58.0991 111.129 65.6887 122.393 71.3808 126.88H63.4299C57.2558 119.893 51.9552 110.105 49.2146 100.648C46.3534 90.7398 38.6434 82.8792 35.2703 79.8073L40.9323 77.4581M41.1431 76.6148L34.0054 79.5663C36.3846 81.6143 45.4499 90.0471 48.5821 100.799C51.6842 111.581 57.6172 121.399 63.1588 127.603H71.953L72.4951 126.79C66.8632 122.784 58.9123 111.219 55.3283 98.8413C52.407 88.7521 45.3897 80.7108 41.1733 76.5847L41.1431 76.6148Z" fill="#000003"/>
<path d="M41.6554 79.6868L38.8244 82.307C38.8244 82.307 39.3966 82.2166 39.9387 82.0961C40.511 82.0058 41.0832 81.9154 41.0832 81.9154C41.0832 81.9154 41.2338 81.3432 41.3844 80.8011C41.5349 80.2289 41.6554 79.6868 41.6554 79.6868Z" fill="#000003"/>
<path d="M42.017 85.9511L44.9986 83.4814C44.9986 83.4814 44.4263 83.5417 43.8541 83.6019C43.2819 83.6621 42.7097 83.7525 42.7097 83.7525C42.7097 83.7525 42.529 84.2946 42.3784 84.8367C42.1977 85.3788 42.017 85.9209 42.017 85.9209V85.9511Z" fill="#000003"/>
<path d="M43.3421 81.5841C43.3421 81.5841 42.7699 81.6744 42.1976 81.7347C41.6254 81.825 41.0532 81.9154 41.0532 81.9154C41.0532 81.9154 40.9026 82.4575 40.752 83.0297C40.6014 83.5718 40.4207 84.1139 40.4207 84.1139C40.4207 84.1139 40.9929 84.0236 41.5351 83.9332C42.1073 83.8429 42.6795 83.7826 42.6795 83.7826C42.6795 83.7826 42.8301 83.2405 43.0108 82.6683C43.1614 82.1262 43.3421 81.554 43.3421 81.554V81.5841Z" fill="#000003"/>
<path d="M47.4984 86.7342L44.3662 89.0231C44.3662 89.0231 44.9384 88.993 45.5107 88.9328C46.0829 88.9328 46.6551 88.8725 46.6551 88.8725C46.6551 88.8725 46.8659 88.3304 47.0768 87.7883C47.2876 87.2462 47.4984 86.7041 47.4984 86.7041V86.7342Z" fill="#000003"/>
<path d="M47.0163 92.9986L50.3593 91.0409C50.3593 91.0409 49.7871 91.0108 49.2149 90.9807C48.6426 90.9807 48.0704 90.9807 48.0704 90.9807C48.0704 90.9807 47.8295 91.4927 47.5584 92.0047C47.3175 92.5167 47.0464 92.9986 47.0464 92.9986H47.0163Z" fill="#000003"/>
<path d="M48.9741 88.8423C48.9741 88.8423 48.4018 88.8423 47.7995 88.8423C47.2273 88.8423 46.655 88.8724 46.655 88.8724C46.655 88.8724 46.4442 89.4145 46.2033 89.9265C45.9623 90.4385 45.7515 90.9806 45.7515 90.9806C45.7515 90.9806 46.3238 90.9806 46.896 90.9806C47.4682 90.9806 48.0404 90.9806 48.0404 90.9806C48.0404 90.9806 48.2814 90.4686 48.5223 89.9265C48.7632 89.3844 48.9741 88.8724 48.9741 88.8724V88.8423Z" fill="#000003"/>
<path d="M52.2565 94.8054L48.7027 96.3113C48.7027 96.3113 49.2749 96.3715 49.817 96.492C50.3591 96.5823 50.9314 96.7329 50.9314 96.7329C50.9314 96.7329 51.2928 96.2812 51.6241 95.7993C51.9554 95.3174 52.2565 94.8355 52.2565 94.8355V94.8054Z" fill="#000003"/>
<path d="M50.058 100.829L53.7624 99.7449C53.7624 99.7449 53.2203 99.5943 52.6782 99.4437C52.1361 99.2931 51.594 99.0823 51.594 99.0823C51.594 99.0823 51.2024 99.5039 50.8109 99.9256C50.4194 100.347 50.058 100.829 50.058 100.829Z" fill="#000003"/>
<path d="M53.16 97.3655C53.16 97.3655 53.0396 97.3052 52.7986 97.245C52.5878 97.1848 52.3168 97.0944 52.0156 97.0041C51.7445 96.9137 51.4434 96.8535 51.2325 96.7932C51.0217 96.733 50.8711 96.7029 50.8711 96.7029C50.8711 96.7029 50.7808 96.8234 50.6603 96.9739C50.5398 97.1546 50.3591 97.3655 50.1483 97.5763C49.9676 97.7871 49.7869 97.9979 49.6363 98.1485C49.4857 98.2991 49.3954 98.3894 49.3954 98.3894C49.3954 98.3894 49.9074 98.5099 50.4796 98.6906C51.0217 98.8713 51.5638 99.0821 51.5638 99.0821C51.5638 99.0821 51.9553 98.6605 52.3469 98.269C52.7384 97.8473 53.1299 97.3655 53.1299 97.3655H53.16Z" fill="#000003"/>
<path d="M55.027 103.329L51.4431 104.744C51.4431 104.744 51.5936 104.744 51.8045 104.805C52.0153 104.835 52.3165 104.895 52.5875 104.955C53.1597 105.046 53.732 105.166 53.732 105.166C53.732 105.166 54.0632 104.684 54.3945 104.232C54.5752 103.992 54.7258 103.781 54.8463 103.6C54.9668 103.419 55.0571 103.299 55.0571 103.299L55.027 103.329Z" fill="#000003"/>
<path d="M53.4917 109.412L56.9552 107.726C56.9552 107.726 56.383 107.666 55.8108 107.605C55.2385 107.545 54.6663 107.455 54.6663 107.455C54.6663 107.455 54.3651 107.937 54.064 108.419C53.7628 108.931 53.4616 109.412 53.4616 109.412H53.4917Z" fill="#000003"/>
<path d="M55.9612 105.557C55.9612 105.557 55.8106 105.557 55.5998 105.497C55.389 105.467 55.118 105.437 54.8168 105.377C54.2446 105.286 53.6723 105.196 53.6723 105.196C53.6723 105.196 53.341 105.678 53.0399 106.16C52.8893 106.401 52.7086 106.642 52.5881 106.822C52.4676 107.003 52.4074 107.124 52.4074 107.124C52.4074 107.124 52.9796 107.214 53.5519 107.304C54.1241 107.395 54.6963 107.455 54.6963 107.455C54.6963 107.455 54.9975 106.973 55.3288 106.491C55.6299 106.009 55.9612 105.527 55.9612 105.527V105.557Z" fill="#000003"/>
<path d="M58.7623 111.189L55.3591 113.057C55.3591 113.057 55.9313 113.087 56.5035 113.147C57.0758 113.177 57.648 113.207 57.648 113.207C57.648 113.207 57.919 112.695 58.1901 112.213C58.4611 111.701 58.7322 111.22 58.7322 111.22L58.7623 111.189Z" fill="#000003"/>
<path d="M57.949 117.423L61.2317 115.375C61.2317 115.375 60.6595 115.375 60.0873 115.375C59.5151 115.375 58.9428 115.375 58.9428 115.375C58.9428 115.375 58.7019 115.887 58.4308 116.399C58.1899 116.911 57.949 117.454 57.949 117.454V117.423Z" fill="#000003"/>
<path d="M59.9663 113.298C59.9663 113.298 59.3941 113.298 58.8218 113.268C58.2496 113.237 57.6774 113.207 57.6774 113.207C57.6774 113.207 57.4063 113.719 57.1353 114.231C56.8642 114.743 56.6233 115.255 56.6233 115.255C56.6233 115.255 57.1955 115.255 57.7677 115.315C58.34 115.315 58.9122 115.346 58.9122 115.346C58.9122 115.346 59.1833 114.834 59.4242 114.322C59.6952 113.81 59.9362 113.298 59.9362 113.298H59.9663Z" fill="#000003"/>
<path d="M63.34 118.598L60.1777 120.827C60.1777 120.827 60.3283 120.827 60.5391 120.827C60.75 120.827 61.0511 120.827 61.3222 120.797C61.8944 120.767 62.4666 120.736 62.4666 120.736C62.4666 120.736 62.6775 120.194 62.8883 119.682C63.0087 119.411 63.0991 119.14 63.1895 118.96C63.2798 118.749 63.34 118.628 63.34 118.628V118.598Z" fill="#000003"/>
<path d="M63.3399 124.893L66.2613 122.363C66.2613 122.363 65.7192 122.453 65.1469 122.543C64.5747 122.604 64.0025 122.664 64.0025 122.664C64.0025 122.664 63.8218 123.206 63.6411 123.778C63.4905 124.32 63.3399 124.893 63.3399 124.893Z" fill="#000003"/>
<path d="M64.7556 120.526C64.7556 120.526 64.1834 120.586 63.6112 120.616C63.0389 120.646 62.4667 120.706 62.4667 120.706C62.4667 120.706 62.2559 121.248 62.0752 121.791C61.8945 122.333 61.6837 122.875 61.6837 122.875C61.6837 122.875 62.2559 122.815 62.8281 122.784C63.4003 122.724 63.9726 122.664 63.9726 122.664C63.9726 122.664 64.1533 122.122 64.334 121.58C64.5147 121.038 64.7255 120.526 64.7255 120.526H64.7556Z" fill="#000003"/>
<path d="M41.5952 86.3728H18.4954V87.0655H41.5952V86.3728Z" fill="#000003"/>
<path d="M46.3837 37.1914C46.8957 38.4563 47.1667 39.5104 47.2571 39.9321H82.1328C82.1328 39.9321 82.3436 38.7274 82.9158 37.1914H46.4138H46.3837Z" fill="#000003"/>
<path d="M46.3837 37.1915L48.7027 32.2222L50.9615 37.1915H46.3837Z" fill="#000003"/>
<path d="M50.9617 37.1915L53.3108 32.2222L55.5696 37.1915H50.9617Z" fill="#000003"/>
<path d="M55.5698 37.1915L57.8888 32.2222L60.1476 37.1915H55.5698Z" fill="#000003"/>
<path d="M60.1473 37.1915L62.4965 32.2222L64.7553 37.1915H60.1473Z" fill="#000003"/>
<path d="M64.7555 37.1915L67.0745 32.2222L69.3333 37.1915H64.7555Z" fill="#000003"/>
<path d="M69.3336 37.1915L71.6827 32.2222L73.9114 37.1915H69.3336Z" fill="#000003"/>
<path d="M73.9106 37.1915L76.2597 32.2222L78.5185 37.1915H73.9106Z" fill="#000003"/>
<path d="M78.5185 37.1915L80.8375 32.2222L83.0963 37.1915H78.5185Z" fill="#000003"/>
<path d="M44.035 137.12C44.4566 136.096 44.6675 135.012 44.6675 133.868C44.6675 129.169 40.8125 125.375 36.1142 125.375C31.4159 125.375 27.6211 129.23 27.6512 133.928C27.6512 135.614 28.1632 137.18 29.0065 138.475L36.2648 151.727L44.0651 137.09L44.035 137.12Z" fill="#F50032"/>
<path d="M36.2346 152.661L28.5848 138.717C27.6813 137.301 27.1994 135.645 27.1693 133.928C27.1693 128.989 31.1448 124.953 36.084 124.923C41.0232 124.923 45.0589 128.898 45.089 133.838C45.089 135.012 44.8782 136.187 44.4265 137.271L36.2647 152.661H36.2346ZM36.1141 125.796C31.6568 125.796 28.0427 129.471 28.0728 133.928C28.0728 135.464 28.5246 136.97 29.3377 138.265L36.2045 150.854L43.6133 136.94C44.0048 135.946 44.2156 134.922 44.2156 133.868C44.2156 129.41 40.5413 125.796 36.084 125.826L36.1141 125.796Z" fill="#000003"/>
<path d="M44.035 137.12C44.4566 136.096 44.6675 135.012 44.6675 133.868C44.6675 129.169 40.8125 125.375 36.1142 125.375C31.4159 125.375 27.6211 129.23 27.6512 133.928C27.6512 135.614 28.1632 137.18 29.0065 138.475C29.0065 138.475 29.1571 130.284 36.1443 130.073C36.1443 130.073 43.8543 130.043 43.011 139.048L44.035 137.12Z" fill="white"/>
<path d="M42.3778 141.156L42.5886 139.018C42.8296 136.247 42.2875 134.078 40.9322 132.603C39.0348 130.525 36.1737 130.525 36.1436 130.525C29.6383 130.735 29.4274 138.205 29.4274 138.506V139.921L28.6444 138.717C27.7409 137.301 27.2289 135.645 27.2289 133.928C27.2289 128.989 31.2044 124.953 36.1436 124.923C41.0828 124.923 45.1185 128.898 45.1486 133.838C45.1486 135.012 44.9378 136.187 44.486 137.271L42.4381 141.156H42.3778ZM36.1135 129.651C36.264 129.651 39.4263 129.651 41.5647 132.031C42.7694 133.326 43.4018 135.072 43.4922 137.241L43.6427 136.97C44.0343 135.976 44.2451 134.952 44.2451 133.898C44.2451 129.44 40.5708 125.826 36.1135 125.856C31.6561 125.856 28.042 129.531 28.0722 133.988C28.0722 135.072 28.283 136.126 28.7046 137.12C29.1263 134.651 30.6622 129.892 36.1135 129.711V129.651Z" fill="#000003"/>
<path d="M41.0532 142.692C41.2941 142.059 41.4447 141.397 41.4447 140.674C41.4447 137.753 39.0654 135.404 36.1441 135.434C33.2227 135.464 30.8736 137.813 30.9037 140.734C30.9037 141.788 31.2048 142.752 31.7469 143.565L36.2344 151.787L41.0532 142.722V142.692Z" fill="#FFCE57"/>
<path d="M36.2347 152.42L31.446 143.686C30.8738 142.782 30.5726 141.758 30.5726 140.704C30.5726 137.602 33.0422 135.102 36.1443 135.072C39.2464 135.072 41.7461 137.572 41.7762 140.644C41.7762 141.397 41.6256 142.12 41.3546 142.782L36.2347 152.42ZM36.1443 135.735C33.4036 135.735 31.2051 137.994 31.2352 140.704C31.2352 141.638 31.5063 142.571 32.0183 143.354L36.2347 151.064L40.7824 142.541C41.0233 141.939 41.1438 141.307 41.1438 140.674C41.1438 137.933 38.9151 135.735 36.1744 135.735H36.1443Z" fill="#000003"/>
<path d="M39.246 142.361C39.3966 141.969 39.487 141.547 39.487 141.096C39.487 139.259 37.9811 137.783 36.1741 137.813C34.3369 137.813 32.8612 139.319 32.8913 141.126C32.8913 141.788 33.072 142.391 33.4033 142.903L36.2343 148.053L39.2762 142.361H39.246Z" fill="#F50032"/>
<path d="M36.2041 148.474L33.1924 142.993C32.831 142.451 32.6503 141.788 32.6503 141.126C32.6503 139.198 34.2164 137.602 36.1439 137.602C38.0714 137.602 39.6676 139.168 39.6676 141.096C39.6676 141.547 39.5772 141.999 39.3965 142.451L36.174 148.504L36.2041 148.474ZM36.1439 137.994C34.4272 137.994 33.0418 139.409 33.0418 141.126C33.0418 141.728 33.2225 142.3 33.5237 142.782L36.174 147.601L39.0351 142.24C39.1857 141.879 39.2459 141.487 39.2459 141.066C39.2459 139.349 37.8304 137.963 36.1137 137.963L36.1439 137.994Z" fill="#000003"/>
<path d="M36.234 152.51L29.9696 141.035C29.2167 139.861 28.8251 138.506 28.8251 137.12C28.8251 133.054 32.0778 129.742 36.1436 129.711C40.2094 129.711 43.5223 132.964 43.5223 137.03C43.5223 137.994 43.3416 138.957 42.9802 139.831L36.2641 152.48L36.234 152.51ZM36.1135 130.434C32.4392 130.434 29.4877 133.446 29.5178 137.12C29.5178 138.385 29.8792 139.62 30.5719 140.674L36.234 151.004L42.3176 139.56C42.6489 138.747 42.7995 137.903 42.7995 137.03C42.7995 133.356 39.7878 130.404 36.1436 130.404L36.1135 130.434Z" fill="#000003"/>
<path d="M29.2776 135.494L29.7896 134.44L28.9765 129.29C28.7656 129.621 28.5849 129.952 28.4042 130.314L29.2776 135.524V135.494Z" fill="#000003"/>
<path d="M30.8739 127.212C30.6631 127.392 30.4222 127.573 30.2114 127.784L30.7535 132.392L31.4462 132.091L30.8739 127.212Z" fill="#000003"/>
<path d="M32.6807 131.187L33.3734 130.645L33.012 125.977C32.771 126.067 32.5301 126.188 32.3193 126.278L32.6807 131.187Z" fill="#000003"/>
<path d="M34.7286 130.374L35.4514 130.253L35.3309 125.405C35.09 125.405 34.849 125.465 34.6081 125.495L34.7587 130.344L34.7286 130.374Z" fill="#000003"/>
<path d="M37.6197 125.495C37.3788 125.465 37.1379 125.435 36.8969 125.405L36.8066 130.103L37.4993 130.344L37.5896 125.495H37.6197Z" fill="#000003"/>
<path d="M39.8788 126.218C39.6378 126.097 39.427 126.007 39.1861 125.917L38.8849 130.765L39.5776 131.127L39.9089 126.218H39.8788Z" fill="#000003"/>
<path d="M40.8117 132.061L41.4742 132.512L41.9862 127.694C41.7754 127.513 41.5646 127.302 41.3237 127.121L40.7816 132.03L40.8117 132.061Z" fill="#000003"/>
<path d="M43.0106 135.614L43.8538 130.254C43.7033 129.892 43.4924 129.561 43.2816 129.26L42.5287 134.47L43.0106 135.645V135.614Z" fill="#000003"/>
<path d="M35.5715 146.938L36.1136 147.932L36.0534 137.813C35.8727 137.813 35.692 137.813 35.5113 137.873V146.938H35.5715Z" fill="#000003"/>
<path d="M34.7591 145.372L35.2409 146.276V137.964C35.0301 138.024 34.8795 138.084 34.7289 138.144V145.372H34.7591Z" fill="#000003"/>
<path d="M33.8855 143.806L34.3373 144.619V138.355C34.1566 138.475 34.006 138.596 33.8554 138.716V143.806H33.8855Z" fill="#000003"/>
<path d="M33.0122 142.12C33.1025 142.391 33.223 142.662 33.3736 142.903L33.4338 143.023V139.229C33.223 139.5 33.1025 139.801 32.9821 140.132V142.12H33.0122Z" fill="#000003"/>
<path d="M36.4751 147.541L36.9871 146.577V137.903C36.7763 137.873 36.5956 137.843 36.4149 137.813L36.4751 147.541Z" fill="#000003"/>
<path d="M37.3488 145.914L37.8307 144.981V138.235C37.65 138.144 37.4693 138.084 37.2886 137.994V145.914H37.3488Z" fill="#000003"/>
<path d="M38.2221 144.258L38.6438 143.445V138.927C38.4932 138.777 38.3426 138.656 38.192 138.506V144.228L38.2221 144.258Z" fill="#000003"/>
<path d="M39.0956 142.632L39.2462 142.361C39.3968 141.969 39.4871 141.548 39.4871 141.096C39.4871 140.524 39.3365 140.012 39.0956 139.53V142.632Z" fill="#000003"/>
<path d="M71.381 126.609H54.5154V140.614H71.381V126.609Z" fill="#FFCE57"/>
<path d="M71.8931 141.156H54.0035V126.127H71.8931V141.156ZM55.0275 140.132H70.8692V127.121H55.0275V140.132Z" fill="#000003"/>
<path d="M68.5496 128.989H57.346V138.295H68.5496V128.989Z" fill="#000003"/>
</g>
<rect x="7.25" y="31.8486" width="107" height="129" rx="5.5" stroke="black"/>
</g>
</g>
<rect x="0.5" y="0.848633" width="121" height="167.25" rx="10.5" stroke="#ADADAD"/>
<defs>
<clipPath id="clip0_2070_80640">
<rect x="1" y="1.34863" width="120" height="166.25" rx="10" fill="white"/>
</clipPath>
</defs>
</svg>
