<svg width="123" height="169" viewBox="0 0 123 169" fill="none" xmlns="http://www.w3.org/2000/svg">
<g clip-path="url(#clip0_2109_90749)">
<rect x="1.5" y="1.34863" width="120" height="166.25" rx="10" fill="white"/>
<mask id="mask0_2109_90749" style="mask-type:alpha" maskUnits="userSpaceOnUse" x="1" y="1" width="121" height="167">
<rect x="1.5" y="1.34863" width="120" height="166.25" fill="#D9D9D9"/>
</mask>
<g mask="url(#mask0_2109_90749)">
<path d="M14.2504 22.655C10.4164 22.655 8.22037 20.459 8.22037 16.427C8.22037 11.909 10.6684 9.479 14.1784 9.479C17.5804 9.479 19.2004 10.991 19.6864 13.277H16.1224C15.9244 12.143 15.2764 11.603 14.1784 11.603C12.8464 11.603 11.7844 12.629 11.7304 15.383C12.3064 14.771 13.3864 14.249 14.9884 14.249C18.2644 14.249 19.8664 15.851 19.8664 18.245C19.8664 20.603 17.8504 22.655 14.2504 22.655ZM11.9824 18.443C11.9824 19.613 12.7744 20.405 14.0884 20.405C15.4024 20.405 16.1944 19.613 16.1944 18.443C16.1944 17.273 15.4024 16.481 14.0884 16.481C12.7744 16.481 11.9824 17.273 11.9824 18.443Z" fill="black"/>
<path d="M104.368 21.0804C105.679 21.0801 106.843 20.4696 107.6 19.5189C108.359 20.4693 109.522 21.0793 110.833 21.079C113.117 21.0786 114.966 19.2266 114.963 16.9431C114.965 14.9329 109.261 10.0407 107.889 8.89321C107.717 8.74952 107.473 8.74966 107.301 8.89354C105.931 10.0425 100.232 14.9409 100.232 16.9504C100.233 19.2346 102.085 21.0835 104.368 21.0804Z" fill="black"/>
<path d="M107.395 20.7275C107.486 20.5704 107.713 20.5704 107.804 20.7275L109.641 23.9095C109.732 24.0666 109.618 24.2631 109.437 24.2631H105.762C105.581 24.2631 105.468 24.0666 105.558 23.9095L107.395 20.7275Z" fill="black"/>
<path fill-rule="evenodd" clip-rule="evenodd" d="M85.5896 90.0638C87.1997 92.2753 88.1497 94.9985 88.1497 97.9435C88.1497 105.345 82.1495 111.345 74.748 111.345C68.7261 111.345 63.6319 107.373 61.942 101.906C60.2521 107.373 55.1579 111.345 49.136 111.345C41.7344 111.345 35.7343 105.345 35.7343 97.9435C35.7343 95.0003 36.683 92.2788 38.2913 90.068C38.6891 89.4531 39.1329 88.8648 39.6208 88.3083L59.686 65.4214C60.881 64.0583 63.0026 64.0583 64.1976 65.4214L84.2628 88.3083C84.7496 88.8635 85.1925 89.4504 85.5896 90.0638Z" fill="black"/>
<path d="M60.643 110.973C61.2203 109.973 62.6637 109.973 63.2411 110.973L69.0631 121.057C69.6405 122.057 68.9188 123.307 67.7641 123.307H56.12C54.9653 123.307 54.2436 122.057 54.8209 121.057L60.643 110.973Z" fill="black"/>
</g>
</g>
<rect x="1" y="0.848633" width="121" height="167.25" rx="10.5" stroke="#ADADAD"/>
<defs>
<clipPath id="clip0_2109_90749">
<rect x="1.5" y="1.34863" width="120" height="166.25" rx="10" fill="white"/>
</clipPath>
</defs>
</svg>
