<svg width="10" height="10" viewBox="0 0 10 10" fill="none" xmlns="http://www.w3.org/2000/svg">
<path fill-rule="evenodd" clip-rule="evenodd" d="M9.02651 1.37954C8.98991 1.29108 8.93565 1.2082 8.86375 1.1363C8.7173 0.989849 8.52536 0.916626 8.33342 0.916626L1.66675 0.916626C1.25253 0.916626 0.916748 1.25241 0.916748 1.66663C0.916748 2.08084 1.25253 2.41663 1.66675 2.41663L6.52275 2.41663L1.13642 7.80296C0.843525 8.09586 0.843525 8.57073 1.13642 8.86362C1.42931 9.15652 1.90418 9.15652 2.19708 8.86362L7.58342 3.47729L7.58342 8.33329C7.58342 8.74751 7.9192 9.08329 8.33342 9.08329C8.74763 9.08329 9.08342 8.74751 9.08342 8.33329L9.08342 1.66663C9.08342 1.56493 9.06318 1.46797 9.02651 1.37954Z" fill="grey"/>
</svg>
