<svg xmlns="http://www.w3.org/2000/svg" viewBox="0 0 700.01 556.13"><defs><style>.cls-1{fill:#fff;}</style></defs><g id="Layer_2" data-name="Layer 2"><g id="Layer_1-2" data-name="Layer 1"><path class="cls-1" d="M600.28,400C656.42,400,700,353.8,700,299.67c0-54.79-44.91-99.67-99.72-99.67ZM0,400c124.81,0,174.34-200,299.81-200V0C174.34,0,124.81,200,0,200Zm299.81,0c125.47,0,175-200,300.47-200V0c-125.47,0-175,200-300.47,200Z"/><path class="cls-1" d="M61.56,449.8H94.05v82.7H72.78V466.93L55.3,532.5H33.09l-16-65.09V532.5H0V449.8H33.09l13.35,56.48Z"/><path class="cls-1" d="M147.93,473.43H168l-35.68,82.7H112.84l10.39-24L98,473.43h22.21l13,35.8Z"/><path class="cls-1" d="M167.07,513.25h22.44c.24,6.49,3.78,11,10.64,11,4.6,0,7.79-1.89,7.79-5.08,0-4.37-4.37-5.79-12.28-8.27l-10.75-3.42c-11-3.55-16.66-9.22-16.66-17.73,0-11.57,10.75-18.19,29.65-18.19,18.43,0,29.18,6.62,30.6,18.79H207.94c-.82-5.79-4.84-8.63-10.16-8.63-4.84,0-7.08,2.13-7.08,4.61,0,3.9,5,5.43,11.81,7.56l10.87,3.43c6.14,1.89,17,6,17,17.6,0,11.81-10.87,19.49-31.31,19.49C180.06,534.39,169,527,167.07,513.25Z"/><path class="cls-1" d="M271.86,485.25h-10.4v28.94c0,5.32.71,6,8.51,6h1.89V532.5H258.63c-14.3,0-18.43-4.13-18.43-20.32V485.25H233V473.43h7.21v-13l21.26-8.27v21.26h10.4Z"/><path class="cls-1" d="M339.32,506.16H297.85c.48,14.41,4,17.6,9.69,17.6,5.32,0,8-3.31,8.75-10.51h22c-1.42,12.4-11.22,21.14-30.72,21.14-22.68,0-32-13.58-32-30.83,0-18.2,9.57-32,32.48-32,19.5,0,31.31,12.29,31.31,32.37Zm-41-10.64h18.19v-.35c0-9.92-4.25-13-8.62-13C301.64,482.17,298.68,488.2,298.33,495.52Z"/><path class="cls-1" d="M404.89,492.92V532.5H383.63v-36c0-7.21-2.25-10.75-7.8-10.75-5.32,0-8.63,3.9-8.63,13.35V532.5H345.94V484.42c0-2.72-.12-8.15-.24-11h21.15v7.92c2.72-5.67,8.86-9.81,18.31-9.81C397.8,471.54,404.89,477.92,404.89,492.92Z"/><path class="cls-1" d="M460.77,518h37.42V532.5H438.33V449.8h22.44Z"/><path class="cls-1" d="M542,532.5v-8.27c-3.43,5.79-9.34,9.1-19.14,9.1-13.47,0-20.8-6.85-20.8-17.49,0-11.46,9-15.12,21.86-17.72l5.32-1.06c9.57-1.89,12.4-3.43,12.4-8,0-4.14-2.6-6.86-7.32-6.86-5.2,0-8.16,2.84-8.16,8.16H504.33c.59-12.88,10.16-18.79,30.24-18.79,20.8,0,28,7.21,28,19.61v31.9c0,3.9.12,7.09.36,9.45Zm-.83-22v-7.09c-1.54.71-3.43,1.42-6.5,2.48l-1.77.59c-5.79,1.89-8.63,3.19-8.63,7.44,0,3.9,2.6,6.62,7.68,6.62C537.88,520.57,541.19,516.67,541.19,510.53Z"/><path class="cls-1" d="M633.16,502.49c0,17.61-9.46,30.72-26.7,30.72-6.74,0-11.94-2.72-14.89-6.14l-1.66,5.43H571V449.8h21.27v29.66a19.6,19.6,0,0,1,16-7.92C625.59,471.54,633.16,484.65,633.16,502.49Zm-23.28,0c0-13.11-3.66-18.54-9.21-18.54-6.38,0-8.87,5.43-8.87,18.54,0,10.64,2.49,18.32,8.87,18.32C607.4,520.81,609.88,513.13,609.88,502.49Z"/><path class="cls-1" d="M636.68,513.25h22.45c.24,6.49,3.78,11,10.63,11,4.61,0,7.8-1.89,7.8-5.08,0-4.37-4.37-5.79-12.29-8.27l-10.75-3.42c-11-3.55-16.66-9.22-16.66-17.73,0-11.57,10.75-18.19,29.66-18.19,18.43,0,29.18,6.62,30.6,18.79H677.56c-.83-5.79-4.84-8.63-10.16-8.63-4.85,0-7.09,2.13-7.09,4.61,0,3.9,5,5.43,11.81,7.56L683,497.3c6.15,1.89,17,6,17,17.6,0,11.81-10.87,19.49-31.31,19.49C649.68,534.39,638.57,527,636.68,513.25Z"/></g></g></svg>